/* XPM */
static char * dualpushgrey_xpm[] = {
"70 26 339 2",
"  	c None",
". 	c #0E0F0E",
"+ 	c #11120F",
"@ 	c #171817",
"# 	c #1B1D19",
"$ 	c #161715",
"% 	c #191A18",
"& 	c #1D1F1C",
"* 	c #232422",
"= 	c #272927",
"- 	c #2A2B2A",
"; 	c #2C2C2B",
"> 	c #2D2D2C",
", 	c #2E2E2C",
"' 	c #2C2D2C",
") 	c #2B2C2A",
"! 	c #282927",
"~ 	c #1F201E",
"{ 	c #1A1C1A",
"] 	c #171917",
"^ 	c #282A27",
"/ 	c #2F322E",
"( 	c #393B38",
"_ 	c #40423F",
": 	c #454644",
"< 	c #474846",
"[ 	c #494947",
"} 	c #4A4A48",
"| 	c #484947",
"1 	c #464745",
"2 	c #414240",
"3 	c #323431",
"4 	c #2B2D2A",
"5 	c #262925",
"6 	c #242622",
"7 	c #131412",
"8 	c #181A17",
"9 	c #1E1F1E",
"0 	c #232423",
"a 	c #2A2C2A",
"b 	c #2E2E2D",
"c 	c #2F2F2E",
"d 	c #31312F",
"e 	c #323231",
"f 	c #2D2E2C",
"g 	c #2C2C2A",
"h 	c #242523",
"i 	c #1F211F",
"j 	c #1C1D1B",
"k 	c #191B19",
"l 	c #313330",
"m 	c #393B39",
"n 	c #454744",
"o 	c #4B4B49",
"p 	c #4D4D4B",
"q 	c #4F4F4D",
"r 	c #51514F",
"s 	c #525250",
"t 	c #494A48",
"u 	c #474845",
"v 	c #414340",
"w 	c #3A3C39",
"x 	c #333532",
"y 	c #2D2F2C",
"z 	c #292C28",
"A 	c #272A26",
"B 	c #1F211D",
"C 	c #1C1E1C",
"D 	c #222422",
"E 	c #262726",
"F 	c #2A2B29",
"G 	c #30312F",
"H 	c #333432",
"I 	c #373736",
"J 	c #3C3C3A",
"K 	c #3F3F3E",
"L 	c #40413F",
"M 	c #333332",
"N 	c #313130",
"O 	c #262725",
"P 	c #212321",
"Q 	c #1D1E1C",
"R 	c #1B1D1A",
"S 	c #383A37",
"T 	c #3E403D",
"U 	c #444643",
"V 	c #4A4B49",
"W 	c #4E4F4C",
"X 	c #535452",
"Y 	c #595957",
"Z 	c #61615F",
"` 	c #666765",
" .	c #686967",
"..	c #535351",
"+.	c #50504E",
"@.	c #4C4D4B",
"#.	c #3D3F3C",
"$.	c #363935",
"%.	c #2F312E",
"&.	c #2C2F2B",
"*.	c #2E2F2D",
"=.	c #323331",
"-.	c #3A3B3A",
";.	c #3D3E3C",
">.	c #414140",
",.	c #474746",
"'.	c #4F4F4E",
").	c #545554",
"!.	c #575756",
"~.	c #3C3E3C",
"{.	c #393A39",
"].	c #343534",
"^.	c #252624",
"/.	c #20211F",
"(.	c #464845",
"_.	c #4A4C49",
":.	c #515350",
"<.	c #595A58",
"[.	c #5E605E",
"}.	c #636462",
"|.	c #696A68",
"1.	c #737472",
"2.	c #80817F",
"3.	c #898A88",
"4.	c #8D8E8C",
"5.	c #626462",
"6.	c #5D5E5C",
"7.	c #545654",
"8.	c #3C3D3B",
"9.	c #343633",
"0.	c #2F312F",
"a.	c #343634",
"b.	c #464746",
"c.	c #4A4C4A",
"d.	c #4F504E",
"e.	c #5C5C5B",
"f.	c #646664",
"g.	c #6A6B6A",
"h.	c #6C6D6C",
"i.	c #4A4A49",
"j.	c #444543",
"k.	c #3B3C3A",
"l.	c #2C2D2B",
"m.	c #242524",
"n.	c #4D4F4C",
"o.	c #555755",
"p.	c #5D5F5C",
"q.	c #686A67",
"r.	c #727471",
"s.	c #797B78",
"t.	c #80827F",
"u.	c #959694",
"v.	c #A3A5A3",
"w.	c #ACAEAC",
"x.	c #AFB1AF",
"y.	c #787977",
"z.	c #6E706D",
"A.	c #60625F",
"B.	c #474946",
"C.	c #343533",
"D.	c #3C3D3C",
"E.	c #434543",
"F.	c #4D4E4D",
"G.	c #5A5B59",
"H.	c #5F615F",
"I.	c #6C6E6C",
"J.	c #727372",
"K.	c #767676",
"L.	c #777777",
"M.	c #595A59",
"N.	c #525351",
"O.	c #474947",
"P.	c #313230",
"Q.	c #545653",
"R.	c #616361",
"S.	c #6D706D",
"T.	c #7D7F7D",
"U.	c #898C89",
"V.	c #929491",
"W.	c #9B9D9A",
"X.	c #A5A7A4",
"Y.	c #B0B2B0",
"Z.	c #BABBBA",
"`.	c #BFC0BF",
" +	c #C1C2C1",
".+	c #909290",
"++	c #858784",
"@+	c #747673",
"#+	c #5F605E",
"$+	c #4F514E",
"%+	c #353635",
"&+	c #3F403F",
"*+	c #494A49",
"=+	c #5F605F",
"-+	c #666766",
";+	c #717271",
">+	c #797979",
",+	c #7A7A7A",
"'+	c #6C6C6B",
")+	c #646564",
"!+	c #5B5C5A",
"~+	c #4E4F4E",
"{+	c #565856",
"]+	c #666866",
"^+	c #767976",
"/+	c #8A8D8A",
"(+	c #9A9C9A",
"_+	c #A5A7A5",
":+	c #B8B9B8",
"<+	c #C4C4C4",
"[+	c #C6C7C6",
"}+	c #C7C7C7",
"|+	c #B8B9B7",
"1+	c #AFB0AE",
"2+	c #A3A4A2",
"3+	c #949693",
"4+	c #7F807E",
"5+	c #3E3F3D",
"6+	c #363735",
"7+	c #3F413F",
"8+	c #4B4C4B",
"9+	c #656664",
"0+	c #6E6F6E",
"a+	c #747574",
"b+	c #787877",
"c+	c #7B7B7A",
"d+	c #7B7B7B",
"e+	c #747473",
"f+	c #606160",
"g+	c #515251",
"h+	c #343433",
"i+	c #575956",
"j+	c #676967",
"k+	c #7A7C7A",
"l+	c #909390",
"m+	c #A4A6A3",
"n+	c #B2B4B2",
"o+	c #BDBEBC",
"p+	c #C3C3C2",
"q+	c #C6C6C6",
"r+	c #C8C8C7",
"s+	c #C8C8C8",
"t+	c #BCBCBB",
"u+	c #9C9E9C",
"v+	c #838583",
"w+	c #545553",
"x+	c #4B4D4B",
"y+	c #5A5B5A",
"z+	c #777877",
"A+	c #6F706F",
"B+	c #626362",
"C+	c #7A7D7A",
"D+	c #929492",
"E+	c #A8AAA8",
"F+	c #B8BAB8",
"G+	c #C2C3C2",
"H+	c #B4B6B4",
"I+	c #A0A19F",
"J+	c #848684",
"K+	c #787978",
"L+	c #70716F",
"M+	c #525251",
"N+	c #A8ABA8",
"O+	c #B9BBB9",
"P+	c #C3C4C3",
"Q+	c #B6B7B5",
"R+	c #A1A2A0",
"S+	c #858684",
"T+	c #7A7A79",
"U+	c #C6C6C5",
"V+	c #757674",
"W+	c #C5C5C5",
"X+	c #BEBFBD",
"Y+	c #434443",
"Z+	c #4D4E4C",
"`+	c #767776",
" @	c #737473",
".@	c #6F6F6F",
"+@	c #6A6B69",
"@@	c #616360",
"#@	c #6D6F6D",
"$@	c #7D7F7C",
"%@	c #BFC1BF",
"&@	c #BBBCBB",
"*@	c #B4B5B4",
"=@	c #ACAEAB",
"-@	c #9A9C99",
";@	c #2F302F",
">@	c #5E5E5D",
",@	c #525352",
"'@	c #4C4E4C",
")@	c #5C5E5C",
"!@	c #676966",
"~@	c #717371",
"{@	c #A4A5A3",
"]@	c #989997",
"^@	c #868785",
"/@	c #7F817E",
"(@	c #2C2E2C",
"_@	c #313231",
":@	c #363736",
"<@	c #3A3A39",
"[@	c #404140",
"}@	c #555654",
"|@	c #4F504F",
"1@	c #474847",
"2@	c #414241",
"3@	c #3E3F3E",
"4@	c #484A47",
"5@	c #50514F",
"6@	c #585957",
"7@	c #5E5F5D",
"8@	c #686A68",
"9@	c #8A8B89",
"0@	c #818280",
"a@	c #747573",
"b@	c #626361",
"c@	c #212221",
"d@	c #242624",
"e@	c #292A28",
"f@	c #343432",
"g@	c #363835",
"h@	c #3B3D3A",
"i@	c #424441",
"j@	c #484A48",
"k@	c #545452",
"l@	c #1A1C19",
"m@	c #1E1F1D",
"n@	c #222321",
"o@	c #272726",
"p@	c #2A2A29",
"q@	c #2A2D29",
"r@	c #30322F",
"s@	c #373936",
"t@	c #3F403E",
"u@	c #484846",
"v@	c #191A17",
"w@	c #272827",
"x@	c #282A26",
". . . . + + + + + + + + + + + + + + + + . . . . . . . . . . . . . . . . @ @ # # # # # # # # # # # # # # # # @ @ @ @ @ @ @ @ @ @ @ @ @ @ @ @ ",
". $ % & * = - ; > > > , , , , , , , , , , , , , > > ' ) ! * ~ { ] $ . . ^ / ( _ : < [ [ [ } } } } } } } } } } } } } [ [ | 1 2 ( 3 4 5 6 @ @ ",
"7 8 { 9 0 ! a ' , b c d e e e e e e e e e e e d c b f g ! h i j k 8 . 7 4 l m 2 n | } o p q r s s s s s s s s s r q p o t u v w x y z A @ B ",
"7 C i D E F b G e H I J K L L L L L L L L L K J I M N c ) O P ~ Q R . 7 x S T U V W r X Y Z `  . . . . . . . . .` Z Y ..+.@.1 #.$.3 %.&.@ B ",
"7 D = ) *.=.I -.;.>.,.'.).!.!.!.!.!.!.!.!.!.).'.,.>.~.{.].*.! ^.D /.. 7 _ (._.:.<.[.}.|.1.2.3.4.4.4.4.4.4.4.4.4.3.2.1.|.5.6.7._.v 8.S 9.@ B ",
"7 ! 0.a.{.L b.c.d.).e.f.g.h.h.h.h.h.h.h.h.h.g.f.e.).'.i.j.k.=.l.! m.. 7 n.o.p.q.r.s.t.3.u.v.w.x.x.x.x.x.x.x.x.x.w.v.u.3.2.y.z.A.:.B.v k.@ B ",
"7 - C.D.E.F.7.G.H.` I.J.K.L.L.L.L.L.L.L.L.L.K.J.I.` H.M.N.O.-.P.) O . 7 Q.R.S.T.U.V.W.X.Y.Z.`. + + + + + + + + +`.Z.Y.X.W..+++@+#+$+1 #.@ B ",
"7 a %+&+*+o.=+-+h.;+K.>+,+,+,+,+,+,+,+,+,+,+,+>+K.;+'+)+!+~+K H l.E . 7 {+]+^+/+(+_+x.:+`.<+[+}+}+}+}+}+}+}+}+}+[+<+`.|+1+2+3+4+` X B.5+@ B ",
"7 ) 6+7+8+M.9+0+a+b+,+c+d+d+d+d+d+d+d+d+d+d+d+c+,+b+e+'+f+g+L h+' E . 7 i+j+k+l+m+n+o+p+q+r+s+s+s+s+s+s+s+s+s+s+s+r+q+p+t+1+u+v+ .w+| T @ B ",
"7 ) 6+7+x+y+j+;+z+,+d+d+d+d+d+d+d+d+d+d+d+d+d+d+d+,+L.A+B+g+L h+' E . 7 i+j+C+D+E+F+G+[+s+s+s+s+s+s+s+s+s+s+s+s+s+s+s+q+ +H+I+J+ .w+| T @ B ",
"7 a 6+7+8+y+j+J.K+,+d+d+d+d+d+d+d+d+d+d+d+d+d+d+d+,+b+L+}.M+L h+' E . 7 i+j+k+D+N+O+P+}+s+s+s+s+s+s+s+s+s+s+s+s+s+s+s+}+p+Q+R+S+ .w+| 5+@ B ",
"7 a 6+7+8+y+j+J.K+,+d+d+d+d+d+d+d+d+d+d+d+d+d+d+d+,+b+L+}.M+L h+' E . 7 i+j+k+D+N+O+P+}+s+s+s+s+s+s+s+s+s+s+s+s+s+s+s+}+p+Q+R+S+ .w+| 5+@ B ",
"7 a 6+7+8+y+j+J.K+,+d+d+d+d+d+d+d+d+d+d+d+d+d+d+d+,+b+L+}.M+L h+' E . 7 i+j+k+D+N+O+P+}+s+s+s+s+s+s+s+s+s+s+s+s+s+s+s+}+p+Q+R+S+ .w+| 5+@ B ",
"7 a 6+7+8+y+j+J.K+,+d+d+d+d+d+d+d+d+d+d+d+d+d+d+d+,+b+L+}.M+L h+' E . 7 i+j+k+D+N+O+P+}+s+s+s+s+s+s+s+s+s+s+s+s+s+s+s+}+p+Q+R+S+ .w+| 5+@ B ",
"7 a 6+7+8+y+j+J.K+,+d+d+d+d+d+d+d+d+d+d+d+d+d+d+d+,+b+L+}.M+L h+' E . 7 i+j+k+D+N+O+P+}+s+s+s+s+s+s+s+s+s+s+s+s+s+s+s+}+p+Q+R+S+ .w+| 5+@ B ",
"7 a 6+7+8+y+j+J.K+,+d+d+d+d+d+d+d+d+d+d+d+d+d+d+d+,+b+L+}.M+L h+' E . 7 i+j+k+D+N+O+P+}+s+s+s+s+s+s+s+s+s+s+s+s+s+s+s+}+p+Q+R+S+ .w+| 5+@ B ",
"7 ) 6+7+x+y+j+;+z+,+d+d+d+d+d+d+d+d+d+d+d+d+d+d+d+,+L.A+B+g+L h+' E . 7 i+j+C+D+E+F+G+[+s+s+s+s+s+s+s+s+s+s+s+s+s+s+s+q+ +H+I+J+ .w+| T @ B ",
"7 ) 6+7+8+M.9+0+a+b+,+c+d+d+d+d+d+d+d+d+d+d+d+,+T+b+e+'+f+g+L h+' E . 7 i+j+k+l+m+n+o+p+q+r+s+s+s+s+s+s+s+s+s+s+s+}+U+p+t+1+u+v+ .w+| T @ B ",
"7 a %+&+*+o.=+-+h.;+K.>+,+,+,+,+,+,+,+,+,+,+>+z+V+;+'+)+!+~+K H l.E . 7 {+]+^+/+(+_+x.:+`.<+[+}+}+}+}+}+}+}+}+}+W+G+X+|+1+2+3+4+` X B.5+@ B ",
"7 - C.8.Y+Z+7.G.H.` I.J.K.L.L.L.L.L.L.L.L.`+ @.@+@f.#+M.N.O.-.P.) O . 7 Q.@@#@$@U.V.W.X.Y.Z.`. + + + + + + + +%@&@*@=@v.-@.+++@+#+$+1 #.@ B ",
"7 ! ;@a.{.7+b.c.'.).e.f.g.h.h.h.h.h.h.h.h.g.9+>@!.,@~+i.j.k.=.l.! m.. 7 '@o.)@!@~@s.2.3.u.v.w.x.x.x.x.x.x.x.x.w.{@]@4.^@/@y.z.A.:.B.v k.@ B ",
"7 D = F (@_@:@<@;.[@,.'.).!.!.!.!.!.!.!.!.}@|@1@2@3@D.{.].*.! ^.D /.. 7 _ U 4@5@6@7@}.8@1.2.3.4.4.4.4.4.4.4.4.9@0@a@+@9+b@6.7._.v 8.S 9.@ B ",
"7 C ~ c@d@e@(@;@_@H I J K L L L L L L L L K J I f@e N c ) O P ~ Q R . 7 3 g@h@i@j@Z+5@X Y Z `  . . . . . . . .` Z <.k@s +.@.1 #.$.3 %.&.@ B ",
"7 8 l@m@n@o@p@; f b c d e e e e e e e e e e d c b , f g ! h i j k 8 . 7 q@r@s@t@j.u@t o p q r s s s s s s s s r q p o } t u v w x y z A @ B ",
". $ v@Q D w@F ; > > > , , , , , , , , , , , , > > > ' ) ! * ~ { ] $ . . x@%.S L U < [ [ [ } } } } } } } } } } } } [ [ [ | 1 2 ( 3 4 5 6 @ @ ",
". . . . + + + + + + + + + + + + + + + + + + + + + + + + + . . . . . . . @ @ # # # # # # # # # # # # # # # # # # # # # # # # # @ @ @ @ @ @ @ "};
