/* XPM */
static char * greendot_xpm[] = {
"10 3 8 1",
" 	c #000000",
".	c #005500",
"+	c #00FF00",
"@	c #008800",
"#	c #00EE00",
"$	c #33FF22",
"%	c #FFFFFF",
"&	c #00AA00",
"   .+.    ",
".@#$%$#&@ ",
"   .+.    "};
