/* XPM */
static char * jbro_xpm[] = {
"64 88 41 1",
" 	c None",
".	c #951919",
"+	c #dd0000",
"@	c #FF0000",
"#	c #FFFFFF",
"$	c #4C0000",
"%	c #4E0000",
"&	c #500000",
"*	c #510000",
"=	c #530000",
"-	c #540000",
";	c #560000",
">	c #580000",
",	c #5B0000",
"'	c #5D0000",
")	c #5E0000",
"!	c #620000",
"~	c #640000",
"{	c #670000",
"]	c #6B0000",
"^	c #6F0000",
"/	c #700000",
"(	c #740000",
"_	c #7A0000",
":	c #7C0000",
"<	c #7E0000",
"[	c #810101",
"}	c #830303",
"|	c #850505",
"1	c #870707",
"2	c #880909",
"3	c #8A0B0B",
"4	c #8B0C0C",
"5	c #8C0D0D",
"6	c #8D0E0E",
"7	c #8E1010",
"8	c #8F1111",
"9	c #901212",
"0	c #911313",
"a	c #921515",
"b	c #931616",
".............................+++++++++..........................",
"..........................+++++++++++++++.......................",
"......................+++++++++++++++++++++.....................",
"................+++++++++++++++++++++++++++++++++...............",
"..............+++++++++++++++++++++++++++++++++++...............",
"..............+++++++++++++++++++++++++++++++++++++.............",
"............+++++++++++++++++++++@@@@++++++++++++++.............",
"............+++++++++++++++@@@@@@@@@@@+++++++++++++.............",
"............+++++++++++++@@@@#######@@@@++++++++++++............",
"...........++++++++++++++@@@@#######@@@@++++++++++++++..........",
"..........+++++++++++++++@@@@#######@@@@+++++++++++++++.........",
".........++++++++++++++++@@@@#######@@@++++++++++++++++.........",
"..........+++++++++++++++++@@#######@@@@@+++++++++++++++........",
"..........+++++++++++++++++@@#######@@@++++++++++++++++.........",
"..........+++++++++++++++@@@@@@@@@@@@@@@@+++++++++++++++........",
"..........+++++++++++++++@@@@@@@@@@@@@@@++++++++++++++++........",
"...........++++++++++++++++@@@@@@@@@@+++++++++++++++++..........",
"...........++++++++++++++++++++++++++++++++++++++++++...........",
"...........++++++++++++++++++++++++++++++++++++++++++...........",
"...........++++++++++++++++++++++++++++++++++++++++++...........",
"............+++++++++++++++++++++++++++++++++++++++.............",
"..............+++++++++++++++++++++++++++++++++++++.............",
"....................+++++++++++++++++++.........................",
"..........................+++++.+...............................",
"..........$$$$$$$$$$$$$$$$$$$$$$$$$$$$$$$$$$$$$$$$$$$$..........",
"..........$$$$$$$$$$$$$$$$$$$$$$$$$$$$$$$$$$$$$$$$$$$$..........",
"..........$$$$$$$$$$$$$$$$$$$$$$$$$$$$$$$$$$$$$$$$$$$$..........",
"..........%%%%%%%%%%%%%%%%%%%%%%%%%%%%%%%%%%%%%%%%%%%%..........",
"..........&&&&&&&&&&&&&&&&&&&&&&&&&&&&&&&&&&&&&&&&&&&&..........",
"..........&&&&&&&&&&&&&&&&&&&&&&&&&&&&&&&&&&&&&&&&&&&&..........",
"..........********************************************..........",
"..........============================================..........",
"..........============================================..........",
"..........--------------------------------------------..........",
"..........;;;;;;;;;;;;;;;;;;;;;;;;;;;;;;;;;;;;;;;;;;;;..........",
"..........>>>>>>>>>>>>>>>>>>>>>>>>>>>>>>>>>>>>>>>>>>>>..........",
"..........,,,,,,,,,,,,,,,,,,,,,,,,,,,,,,,,,,,,,,,,,,,,..........",
"..........''''''''''''''''''''''''''''''''''''''''''''..........",
"..........))))))))))))))))))))))))))))))))))))))))))))..........",
"..........!!!!!!!!!!!!!!!!!!!!!!!!!!!!!!!!!!!!!!!!!!!!..........",
"..........~~~~~~~~~~~~~~~~~~~~~~~~~~~~~~~~~~~~~~~~~~~~..........",
"..........{{{{{{{{{{{{{{{{{{{{{{{{{{{{{{{{{{{{{{{{{{{{..........",
"..........]]]]]]]]]]]]]]]]]]]]]]]]]]]]]]]]]]]]]]]]]]]]..........",
"..........^^^^^^^^^^^^^^^^^^^^^^^^^^^^^^^^^^^^^^^^^^^^..........",
"..........////////////////////////////////////////////..........",
"..........((((((((((((((((((((((((((((((((((((((((((((..........",
"..........____________________________________________..........",
"..........::::::::::::::::::::::::::::::::::::::::::::..........",
"..........<<<<<<<<<<<<<<<<<<<<<<<<<<<<<<<<<<<<<<<<<<<<..........",
"..........[[[[[[[[[[[[[[[[[[[[[[[[[[[[[[[[[[[[[[[[[[[[..........",
"..........}}}}}}}}}}}}}}}}}}}}}}}}}}}}}}}}}}}}}}}}}}}}..........",
"..........||||||||||||||||||||||||||||||||||||||||||||..........",
"..........11111111111111111111111111111111111111111111..........",
"..........22222222222222222222222222222222222222222222..........",
"..........33333333333333333333333333333333333333333333..........",
"..........44444444444444444444444444444444444444444444..........",
"..........55555555555555555555555555555555555555555555..........",
"..........66666666666666666666666666666666666666666666..........",
"..........77777777777777777777777777777777777777777777..........",
"..........88888888888888888888888888888888888888888888..........",
"..........99999999999999999999999999999999999999999999..........",
"..........99999999999999999999999999999999999999999999..........",
"..........00000000000000000000000000000000000000000000..........",
"..........00000000000000000000000000000000000000000000..........",
"..........aaaaaaaaaaaaaaaaaaaaaaaaaaaaaaaaaaaaaaaaaaaa..........",
"..........aaaaaaaaaaaaaaaaaaaaaaaaaaaaaaaaaaaaaaaaaaaa..........",
"..........aaaaaaaaaaaaaaaaaaaaaaaaaaaaaaaaaaaaaaaaaaaa..........",
"..........bbbbbbbbbbbbbbbbbbbbbbbbbbbbbbbbbbbbbbbbbbbb..........",
"................................................................",
"................................................................",
"................................................................",
"................................................................",
"................................................................",
"................................................................",
"................................................................",
"................................................................",
"................................................................",
"................................................................",
"................................................................",
"................................................................",
"................................................................",
"................................................................",
"................................................................",
"................................................................",
"................................................................",
"................................................................",
"................................................................",
"................................................................"};
