/* XPM */
static char * klunk_xpm[] = {
"70 26 7 1",
" 	c None",
".	c #000000",
"+	c #5D5D5D",
"@	c #AAAAAA",
"#	c #999999",
"$	c #777777",
"%	c #BBBBBB",
"......................................................................",
"......................................................................",
"..++++++++++++++++++++++++++++++++@#$$@%%#$$#%%#$$#%%#$$#%%#$$#%%#$$..",
"..++++++++++++++++++++++++++++++++@#$$@%%#$$#%%#$$#%%#$$#%%#$$#%%#$$..",
"..++++++++++++++++++++++++++++++++@#$$@%%#$$#%%#$$#%%#$$#%%#$$#%%#$$..",
"..++++++++++++++++++++++++++++++++@#$$@%%#$$#%%#$$#%%#$$#%%#$$#%%#$$..",
"..++++++++++++++++++++++++++++++++@#$$@%%#$$#%%#$$#%%#$$#%%#$$#%%#$$..",
"..++++++++++++++++++++++++++++++++@#$$@%%#$$#%%#$$#%%#$$#%%#$$#%%#$$..",
"..++++++++++++++++++++++++++++++++@#$$@%%#$$#%%#$$#%%#$$#%%#$$#%%#$$..",
"..++++++++++++++++++++++++++++++++@#$$@%%#$$#%%#$$#%%#$$#%%#$$#%%#$$..",
"..++++++++++++++++++++++++++++++++@#$$@%%#$$#%%#$$#%%#$$#%%#$$#%%#$$..",
"..++++++++++++++++++++++++++++++++@#$$@%%#$$#%%#$$#%%#$$#%%#$$#%%#$$..",
"..++++++++++++++++++++++++++++++++@#$$@%%#$$#%%#$$#%%#$$#%%#$$#%%#$$..",
"..++++++++++++++++++++++++++++++++@#$$@%%#$$#%%#$$#%%#$$#%%#$$#%%#$$..",
"..++++++++++++++++++++++++++++++++@#$$@%%#$$#%%#$$#%%#$$#%%#$$#%%#$$..",
"..++++++++++++++++++++++++++++++++@#$$@%%#$$#%%#$$#%%#$$#%%#$$#%%#$$..",
"..++++++++++++++++++++++++++++++++@#$$@%%#$$#%%#$$#%%#$$#%%#$$#%%#$$..",
"..++++++++++++++++++++++++++++++++@#$$@%%#$$#%%#$$#%%#$$#%%#$$#%%#$$..",
"..++++++++++++++++++++++++++++++++@#$$@%%#$$#%%#$$#%%#$$#%%#$$#%%#$$..",
"..++++++++++++++++++++++++++++++++@#$$@%%#$$#%%#$$#%%#$$#%%#$$#%%#$$..",
"..++++++++++++++++++++++++++++++++@#$$@%%#$$#%%#$$#%%#$$#%%#$$#%%#$$..",
"..++++++++++++++++++++++++++++++++@#$$@%%#$$#%%#$$#%%#$$#%%#$$#%%#$$..",
"..++++++++++++++++++++++++++++++++@#$$@%%#$$#%%#$$#%%#$$#%%#$$#%%#$$..",
"..++++++++++++++++++++++++++++++++@#$$@%%#$$#%%#$$#%%#$$#%%#$$#%%#$$..",
"......................................................................",
"......................................................................"};
