/* XPM */
static char * klunk4_xpm[] = {
"70 26 82 1",
" 	c None",
".	c #000000",
"+	c #FFFFFF",
"@	c #070707",
"#	c #0B0B0B",
"$	c #0A0A0A",
"%	c #080808",
"&	c #060606",
"*	c #050505",
"=	c #030303",
"-	c #878787",
";	c #E0E0E0",
">	c #121212",
",	c #1C1C1C",
"'	c #1A1A1A",
")	c #151515",
"!	c #131313",
"~	c #111111",
"{	c #101010",
"]	c #0F0F0F",
"^	c #0E0E0E",
"/	c #0C0C0C",
"(	c #0D0D0D",
"_	c #2C2C2C",
":	c #282828",
"<	c #212121",
"[	c #1E1E1E",
"}	c #1D1D1D",
"|	c #191919",
"1	c #181818",
"2	c #171717",
"3	c #252525",
"4	c #393939",
"5	c #343434",
"6	c #2D2D2D",
"7	c #262626",
"8	c #232323",
"9	c #202020",
"0	c #1F1F1F",
"a	c #3E3E3E",
"b	c #323232",
"c	c #2A2A2A",
"d	c #272727",
"e	c #242424",
"f	c #222222",
"g	c #3B3B3B",
"h	c #363636",
"i	c #303030",
"j	c #292929",
"k	c #141414",
"l	c #2F2F2F",
"m	c #2B2B2B",
"n	c #1B1B1B",
"o	c #161616",
"p	c #333333",
"q	c #313131",
"r	c #353535",
"s	c #2E2E2E",
"t	c #3A3A3A",
"u	c #383838",
"v	c #373737",
"w	c #454545",
"x	c #444444",
"y	c #434343",
"z	c #424242",
"A	c #414141",
"B	c #404040",
"C	c #3D3D3D",
"D	c #505050",
"E	c #525252",
"F	c #515151",
"G	c #4E4E4E",
"H	c #4C4C4C",
"I	c #4A4A4A",
"J	c #464646",
"K	c #4B4B4B",
"L	c #4F4F4F",
"M	c #4D4D4D",
"N	c #484848",
"O	c #3C3C3C",
"P	c #3F3F3F",
"Q	c #090909",
"......................................................................",
"......................................................................",
"..................................++++++++++++++++++++++++++++++++....",
"..................................++++++++++++++++++++++++++++++++....",
".@#$%@@@&&&&&********************=++++++-----;;;;;-----;;;;;------....",
".>,')!>~~{{{]^//((/(//(//(//(//(/%++++++-----;;;;;-----;;;;;------....",
".,_:<[}'|112)~^({]({^({^({^({^^{^%++++++-----;;;;;-----;;;;;------....",
".3456:7890[,1>/$](${(${/#{/#{/#{/&++++++-----;;;;;-----;;;;;------....",
".:a4b6cdef<['!/${(${(${/${/#{/#~/&++++++-----;;;;;-----;;;;;------....",
".7ghi_jd38<[|k^/~]/>^/>^/>^/>((>^@++++++-----;;;;;-----;;;;;------....",
".f5lm:738<0n2!^/~]/~^/~^(~^(~^(~^@++++++-----;;;;;-----;;;;;------....",
".':8<90[,'2k{^#$/#$(#$(#$(#$($$(#&++++++-----;;;;;-----;;;;;------....",
".of[[[[},|o>](/#(/#(/#(/#(/#(##(/@++++++-----;;;;;-----;;;;;------....",
".ncd::jjd3<['2))oo)o))o))o))o))o)^++++++-----;;;;;-----;;;;;------....",
".9pqbp55pq6j3<0[90[90[90[90[90[90)++++++-----;;;;;-----;;;;;------....",
".fhhrrhhh5qsje90f<0f<089089089989)++++++-----;;;;;-----;;;;;------....",
".f4tuvvvvh5q_7<0e<0e<0e<0e<0e99e<)++++++-----;;;;;-----;;;;;------....",
".eawxyyzABCtrljd_cd6c:6j:6j:6j:6jn++++++-----;;;;;-----;;;;;------....",
".7wDEFDGHIJzCvbqrpqrpqrbqrbqrbqrbf++++++-----;;;;;-----;;;;;------....",
".6KGLMKNwAOvb6jdmjdmj:_j:_j:_j:_jn++++++-----;;;;;-----;;;;;------....",
".vDzPOu5ic39n2!~)!~)!>)!>)!>)>>)!/++++++-----;;;;;-----;;;;;------....",
".4Hpsmj3<,1k{($Q/$Q/$Q/$Q/$Q/$Q/$*++++++-----;;;;;-----;;;;;------....",
".5B9,,n|1ok>~]((^^(^^(^((]((]((](Q--------------------------------....",
".d6~^]]]]]]^^((((((((((((((((((((Q--------------------------------....",
".^~&*****************************=....................................",
"......................................................................"};
