/* XPM */
static char * patchonSA2_xpm[] = {
"9 9 7 1",
" 	c None",
".	c #0000FF",
"+	c #98981D",
"@	c #D6D691",
"#	c #B5B54B",
"$	c #A6A632",
"%	c #3F3F00",
".........",
"..+@@@...",
".+@####..",
".@#$$$$%.",
".@#$$++%.",
".@#$+++%.",
"..@+++%..",
"...%%%...",
"........."};
