/* XPM */
static char * patchlow_xpm[] = {
"9 9 4 1",
" 	c #0000FF",
".	c #774444",
"+	c #932932",
"@	c #FF0000",
"         ",
"   ...   ",
"  ..+..  ",
" ...++.. ",
" ..@@++. ",
" ..+@+.. ",
"  .....  ",
"   ...   ",
"         "};
