/* XPM */
static char * patchonSA2_xpm[] = {
"9 9 13 1",
" 	c None",
".	c #0000FF",
"+	c #684848",
"@	c #E2B0B0",
"#	c #DDA1A1",
"$	c #02009B",
"%	c #DC9F9F",
"&	c #BE5D5D",
"*	c #B04242",
"=	c #581515",
"-	c #A12A2A",
";	c #520202",
">	c #510000",
".........",
"..+@#@$..",
".+%&&&&$.",
".@&****=.",
".#&**--;.",
".@&*---=.",
".$%--->$.",
"..$=;=$..",
"........."};
