/* XPM */
static char * polyblue_xpm[] = {
"40 12 66 1",
" 	c #E9F4F7",
".	c #D2EAEF",
"+	c #C3E2E9",
"@	c #BDE0E7",
"#	c #BCDFE7",
"$	c #BCDEE6",
"%	c #BADAE1",
"&	c #B6CDD3",
"*	c #B0BCBE",
"=	c #A5D4DF",
"-	c #85C5D4",
";	c #7AC0D0",
">	c #78BFCF",
",	c #77BDCD",
"'	c #75B5C3",
")	c #6C9CA6",
"!	c #61787E",
"~	c #C2E2E9",
"{	c #86C5D4",
"]	c #5BB1C4",
"^	c #4CA9BF",
"/	c #49A8BE",
"(	c #48A6BC",
"_	c #449AAE",
":	c #397887",
"<	c #294950",
"[	c #4CAABF",
"}	c #3BA2B9",
"|	c #38A1B8",
"1	c #379FB5",
"2	c #3392A7",
"3	c #276D7C",
"4	c #153840",
"5	c #359FB7",
"6	c #349DB4",
"7	c #3090A5",
"8	c #236A7A",
"9	c #12353D",
"0	c #B9DCE3",
"a	c #76BCCC",
"b	c #48A6BB",
"c	c #379EB5",
"d	c #339BB1",
"e	c #2F8EA3",
"f	c #236978",
"g	c #11343C",
"h	c #A9C9D0",
"i	c #6DADBB",
"j	c #4298AB",
"k	c #3391A6",
"l	c #2B8295",
"m	c #20606E",
"n	c #103037",
"o	c #7D959A",
"p	c #507F8A",
"q	c #30707F",
"r	c #256B7B",
"s	c #226878",
"t	c #174751",
"u	c #0C2329",
"v	c #3F4A4D",
"w	c #284045",
"x	c #19383F",
"y	c #13363D",
"z	c #12343C",
"A	c #061214",
" .+@################################$%&*",
".=-;>>>>>>>>>>>>>>>>>>>>>>>>>>>>>>>>,')!",
"~{]^////////////////////////////////(_:<",
"@;[}||||||||||||||||||||||||||||||||1234",
"#>/|555555555555555555555555555555556789",
"#>/|555555555555555555555555555555556789",
"#>/|555555555555555555555555555555556789",
"#>/|555555555555555555555555555555556789",
"0abc66666666666666666666666666666666defg",
"hijk77777777777777777777777777777777elmn",
"opqr88888888888888888888888888888888smtu",
"vwxy99999999999999999999999999999999znuA"};
