/* XPM */
static char * polyredV_xpm[] = {
"16 40 35 1",
" 	c #450000",
".	c #530000",
"+	c #5D0000",
"@	c #600000",
"#	c #4E0000",
"$	c #290000",
"%	c #0A0000",
"&	c #510000",
"*	c #700000",
"=	c #840404",
"-	c #880909",
";	c #870707",
">	c #780000",
",	c #400000",
"'	c #0F0000",
")	c #931616",
"!	c #9A2020",
"~	c #991E1E",
"{	c #8B0C0C",
"]	c #130000",
"^	c #A02828",
"/	c #A12A2A",
"(	c #9E2525",
"_	c #911313",
":	c #590000",
"<	c #160000",
"[	c #A32D2D",
"}	c #921515",
"|	c #5B0000",
"1	c #9D2424",
"2	c #850505",
"3	c #4B0000",
"4	c #120000",
"5	c #280000",
"6	c #020000",
" .+@@@@@@@@@+#$%",
"&*=---------;>,'",
"+=)!!!!!!!!!~{&]",
"@-!^////////(_:<",
"@-!/[[[[[[[[^}|<",
"@-!/[[[[[[[[^}|<",
"@-!/[[[[[[[[^}|<",
"@-!/[[[[[[[[^}|<",
"@-!/[[[[[[[[^}|<",
"@-!/[[[[[[[[^}|<",
"@-!/[[[[[[[[^}|<",
"@-!/[[[[[[[[^}|<",
"@-!/[[[[[[[[^}|<",
"@-!/[[[[[[[[^}|<",
"@-!/[[[[[[[[^}|<",
"@-!/[[[[[[[[^}|<",
"@-!/[[[[[[[[^}|<",
"@-!/[[[[[[[[^}|<",
"@-!/[[[[[[[[^}|<",
"@-!/[[[[[[[[^}|<",
"@-!/[[[[[[[[^}|<",
"@-!/[[[[[[[[^}|<",
"@-!/[[[[[[[[^}|<",
"@-!/[[[[[[[[^}|<",
"@-!/[[[[[[[[^}|<",
"@-!/[[[[[[[[^}|<",
"@-!/[[[[[[[[^}|<",
"@-!/[[[[[[[[^}|<",
"@-!/[[[[[[[[^}|<",
"@-!/[[[[[[[[^}|<",
"@-!/[[[[[[[[^}|<",
"@-!/[[[[[[[[^}|<",
"@-!/[[[[[[[[^}|<",
"@-!/[[[[[[[[^}|<",
"@-!/[[[[[[[[^}|<",
"@-!/[[[[[[[[^}|<",
"+;~(^^^^^^^^1_:<",
"#>{_}}}}}}}}_234",
"$,&:||||||||:35%",
"%']<<<<<<<<<<4%6"};
