/* XPM */
static char * pressonw_xpm[] = {
"48 64 8 1",
" 	c None",
".	c #ff9090",
"@	c #FF5050",
"+	c #ff9090",
"#	c #ffffff",
"$	c #bbbbbb",
"%	c #909090",
"&	c #e0e0e0",
"....+++++++++++++++++++++++++++++++++++++.......",
"...++++++++++++++++++++++++++++++++++++++++.....",
"...+++++++++++++++@@@@@@@@@@@++++++++++++++++...",
"...+++++++++++++@@@@@@@@@@@@@@++++++++++++++++..",
"...+++++++++++@@@@@@@@@@@@@@@@@++++++++++++++++.",
"...++++++++++@@@@@@@@@@@@@@@@@@@++++++++++++++..",
"...++++++++++@@@@@@@@###@@@@@@@@@++++++++++++...",
"...++++++++++@@@@@@@#####@@@@@@@@+++++++++++++++",
"...++++++++++@@@@@@@#####@@@@@@@@+++++++++++++..",
"...++++++++++@@@@@@@#####@@@@@@@@+++++++++++++..",
"...++++++++++@@@@@@@@###@@@@@@@@@++++++++++++...",
"....+++++++++@@@@@@@@@@@@@@@@@@@+++++++++++++...",
".....+++++++++@@@@@@@@@@@@@@@@@++++++++++++.....",
".......+++++++++@@@@@@@@@@@@@@++++++++++++......",
"..........+++++++@@@@@@@@@@@@+++++++++++........",
"..............++++++++++++++++++++++............",
"................................................",
"$$$$$$$$$$$$$$$$$$$$$$$$$$$$$$$$$$$$$$$$$$$$$$$$",
"$$$$$$$$$$$$$$$$$$$$$$$$$$$$$$$$$$$$$$$$$$$$$$$%",
"$$$$$$$$$$$$$$$$$$$$$$$$$$$$$$$$$$$$$$$$$$$$$$%%",
"$$$$$$$$$$$$$$$$$$$$$$$$$$$$$$$$$$$$$$$$$$$$$%%%",
"$$$$$$$$$$$$$$$$$$$$$$$$$$$$$$$$$$$$$$$$$$$$%%%%",
"$$$$$&&&&&&&&&&&&&&&&&&&&&&&&&&&&&&&&&&&&&&%%%%%",
"$$$$$&&&&&&&&&&&&&&&&&&&&&&&&&&&&&&&&&&&&&&%%%%%",
"$$$$$&&&&&&&&&&&&&&&&&&&&&&&&&&&&&&&&&&&&&&%%%%%",
"$$$$$&&&&&&&&&&&&&&&&&&&&&&&&&&&&&&&&&&&&&&%%%%%",
"$$$$$&&&&&&&&&&&&&&&&&&&&&&&&&&&&&&&&&&&&&&%%%%%",
"$$$$$&&&&&&&&&&&&&&&&&&&&&&&&&&&&&&&&&&&&&&%%%%%",
"$$$$$&&&&&&&&&&&&&&&&&&&&&&&&&&&&&&&&&&&&&&%%%%%",
"$$$$$&&&&&&&&&&&&&&&&&&&&&&&&&&&&&&&&&&&&&&%%%%%",
"$$$$$&&&&&&&&&&&&&&&&&&&&&&&&&&&&&&&&&&&&&&%%%%%",
"$$$$$&&&&&&&&&&&&&&&&&&&&&&&&&&&&&&&&&&&&&&%%%%%",
"$$$$$&&&&&&&&&&&&&&&&&&&&&&&&&&&&&&&&&&&&&&%%%%%",
"$$$$$&&&&&&&&&&&&&&&&&&&&&&&&&&&&&&&&&&&&&&%%%%%",
"$$$$$&&&&&&&&&&&&&&&&&&&&&&&&&&&&&&&&&&&&&&%%%%%",
"$$$$$&&&&&&&&&&&&&&&&&&&&&&&&&&&&&&&&&&&&&&%%%%%",
"$$$$$&&&&&&&&&&&&&&&&&&&&&&&&&&&&&&&&&&&&&&%%%%%",
"$$$$$&&&&&&&&&&&&&&&&&&&&&&&&&&&&&&&&&&&&&&%%%%%",
"$$$$$&&&&&&&&&&&&&&&&&&&&&&&&&&&&&&&&&&&&&&%%%%%",
"$$$$$&&&&&&&&&&&&&&&&&&&&&&&&&&&&&&&&&&&&&&%%%%%",
"$$$$$&&&&&&&&&&&&&&&&&&&&&&&&&&&&&&&&&&&&&&%%%%%",
"$$$$$&&&&&&&&&&&&&&&&&&&&&&&&&&&&&&&&&&&&&&%%%%%",
"$$$$$&&&&&&&&&&&&&&&&&&&&&&&&&&&&&&&&&&&&&&%%%%%",
"$$$$$&&&&&&&&&&&&&&&&&&&&&&&&&&&&&&&&&&&&&&%%%%%",
"$$$$$&&&&&&&&&&&&&&&&&&&&&&&&&&&&&&&&&&&&&&%%%%%",
"$$$$$&&&&&&&&&&&&&&&&&&&&&&&&&&&&&&&&&&&&&&%%%%%",
"$$$$$&&&&&&&&&&&&&&&&&&&&&&&&&&&&&&&&&&&&&&%%%%%",
"$$$$$&&&&&&&&&&&&&&&&&&&&&&&&&&&&&&&&&&&&&&%%%%%",
"$$$$$&&&&&&&&&&&&&&&&&&&&&&&&&&&&&&&&&&&&&&%%%%%",
"$$$$$&&&&&&&&&&&&&&&&&&&&&&&&&&&&&&&&&&&&&&%%%%%",
"$$$$$&&&&&&&&&&&&&&&&&&&&&&&&&&&&&&&&&&&&&&%%%%%",
"$$$$$&&&&&&&&&&&&&&&&&&&&&&&&&&&&&&&&&&&&&&%%%%%",
"$$$$$&&&&&&&&&&&&&&&&&&&&&&&&&&&&&&&&&&&&&&%%%%%",
"$$$$$&&&&&&&&&&&&&&&&&&&&&&&&&&&&&&&&&&&&&&%%%%%",
"$$$$$&&&&&&&&&&&&&&&&&&&&&&&&&&&&&&&&&&&&&&%%%%%",
"$$$$$&&&&&&&&&&&&&&&&&&&&&&&&&&&&&&&&&&&&&&%%%%%",
"$$$$$&&&&&&&&&&&&&&&&&&&&&&&&&&&&&&&&&&&&&&%%%%%",
"$$$$$&&&&&&&&&&&&&&&&&&&&&&&&&&&&&&&&&&&&&&%%%%%",
"$$$$$&&&&&&&&&&&&&&&&&&&&&&&&&&&&&&&&&&&&&&%%%%%",
"$$$$%%%%%%%%%%%%%%%%%%%%%%%%%%%%%%%%%%%%%%%%%%%%",
"$$$%%%%%%%%%%%%%%%%%%%%%%%%%%%%%%%%%%%%%%%%%%%%%",
"$$%%%%%%%%%%%%%%%%%%%%%%%%%%%%%%%%%%%%%%%%%%%%%%",
"$%%%%%%%%%%%%%%%%%%%%%%%%%%%%%%%%%%%%%%%%%%%%%%%",
"%%%%%%%%%%%%%%%%%%%%%%%%%%%%%%%%%%%%%%%%%%%%%%%%"};
