/* XPM */
static char * pressonSb_xpm[] = {
"48 21 6 1",
" 	c None",
".	c #3636FF",
"+	c #002C84",
"@	c #003891",
"#	c #2049dE",
"$	c #FDFBFF",
"+@@@@@@@@@@@@@@@@@@@@@@@@@@@@@@@@@@@@@@@@@@@@@@+",
"+@@@@@@@@@@@@#####################@@@@@@@@@@@@@+",
"+@@@@@@@@@@+#@#@#@#@###########@####+@@@@@@@@@@+",
"+@+@@+@@+@@@#########################@+@@+@@+@@+",
"+@@@+#+@@##############################@+@@@@+@+",
"+@@@@@+#####@######################@####@@@@@@@+",
"+@@@@@###@##########$$$$$############@###+@@@@++",
"+@@@+##############$$###$$###############@@@@@@+",
"++@@@##@###########.###$$.############@##+@@@@@+",
"+@@@+###@##########.##$$.$##############@@@@+@@+",
"+@+#+#@############.##$..$##############++#+@@@+",
"+@@+@+#############..#$$.$###########@#+#@@@@@@+",
"++@#+@##+###########.....##############++@@+@@++",
"+@+@@++###############################@@@@@@@@@+",
"+@@@@#++##############################+@@@@@@@@+",
"+#+#+@+#+############################@@+#+#+@@@+",
"++@+@#+@@###########################++#+++@@@+@+",
"++#@++#@@+@#######################++#+@@#@@@@@@+",
"+@+@#+++#+#+######################+#+@@@++@@@@@+",
"+#+@+#@@+@+@+@+###################+@+@@+#@@@@@@+",
"++++++++++++++++++@@@#@####+++++++++++++++++++++"};
