/* XPM */
static char * pressono_xpm[] = {
"48 64 9 1",
" 	c None",
".	c #FF7B00",
"+	c #FFA724",
"@	c #EDFF24",
"#	c #FF6620",
"$	c #FFFFFF",
"%	c #FF0000",
"&	c #E9D300",
"*	c #720E15",
".++++++++++++++++++++++++++++++++++++++++++++++.",
".++++++++++++@@@@@@@@@@@@@@@@@@@@@+++++++++++++.",
".+++++++++++@@@@@@@@@#########@@@@@@+++++++++++.",
".+++++++++++@@@@@################@@@@++++++++++.",
".++++++++@@@@@@###################@@@@@++++++++.",
".++++++@@@@@@@#####################@@@@++++++++.",
".+++++@@@@@@@#######$$$$$###########@@@@@++++++.",
".++++@@@@@@@@######$$%%%$$##########@@@@@++++++.",
".++++@@@@@@@#######$%%%$$$##########@@@@@++++++.",
".++++@@@@@@@#######$%%$$$$##########@@@@+++++++.",
".++++@@@@@@@#######$%%$$$$##########@@@@+++++++.",
".+++++@@@@@@#######$$%$$$$##########@@@++++++++.",
".+++++@@@@@@########$$$$$##########@@@@++++++++.",
".++++++@@@@@@######################@@@+++++++++.",
".+++++++@@@@@@####################@@@@+++++++++.",
".++++++++@@@@@@#################@@@@@++++++++++.",
".+++++++++@@@@@@@@#############@@@@@+++++++++++.",
".++++++++++++@@@@@@@@@@@@@@@@@@@@@+++++++++++++.",
".+++++++++++++++@@@@@@@@@@@@@@@@@@+++++++++++++.",
".++++++++++++++++@@@@@@@@@@@@@@@@++++++++++++++.",
"..........++++++++++++++++++++++++++++..........",
"&&&&&&&&&&&&&&&&&&&&&&&&&&&&&&&&&&&&&&&&&&&&&&&&",
"&&&&&&&&&&&&&&&&&&&&&&&&&&&&&&&&&&&&&&&&&&&&&&&*",
"&&&&&&&&&&&&&&&&&&&&&&&&&&&&&&&&&&&&&&&&&&&&&&**",
"&&&&&&&&&&&&&&&&&&&&&&&&&&&&&&&&&&&&&&&&&&&&&***",
"&&&&&&&&&&&&&&&&&&&&&&&&&&&&&&&&&&&&&&&&&&&&****",
"&&&&&......................................*****",
"&&&&&......................................*****",
"&&&&&......................................*****",
"&&&&&......................................*****",
"&&&&&......................................*****",
"&&&&&......................................*****",
"&&&&&......................................*****",
"&&&&&......................................*****",
"&&&&&......................................*****",
"&&&&&......................................*****",
"&&&&&......................................*****",
"&&&&&......................................*****",
"&&&&&......................................*****",
"&&&&&......................................*****",
"&&&&&......................................*****",
"&&&&&......................................*****",
"&&&&&......................................*****",
"&&&&&......................................*****",
"&&&&&......................................*****",
"&&&&&......................................*****",
"&&&&&......................................*****",
"&&&&&......................................*****",
"&&&&&......................................*****",
"&&&&&......................................*****",
"&&&&&......................................*****",
"&&&&&......................................*****",
"&&&&&......................................*****",
"&&&&&......................................*****",
"&&&&&......................................*****",
"&&&&&......................................*****",
"&&&&&......................................*****",
"&&&&&......................................*****",
"&&&&&......................................*****",
"&&&&&*******************************************",
"&&&&********************************************",
"&&&*********************************************",
"&&**********************************************",
"&***********************************************"};
