/* XPM */
static char * pressoffw_xpm[] = {
"48 64 12 1",
" 	c None",
".	c #e0e0e0",
"+	c #783E29",
"@	c #AD1620",
"#	c #D3603E",
"$	c #B97965",
"%	c #60605F",
"&	c #B2B2B2",
"*	c #4C4C4C",
"=	c #999999",
"-	c #bbbbbb",
";	c #909090",
"................................................",
"................................................",
"....................+.+++.+.....................",
"..................+.++++@++.....................",
"...................+@@@@@@@+++..................",
"..................+++@@@@#@++...................",
"..................@@@@@##$$%++..................",
".................++@@@@##$$+%+..................",
".................+@@@@@##$$++%..................",
".................+@+@##&$&$%+*..................",
".................+@@@##=$&$+*...................",
"..................@@+$$$=$$+*+..................",
".................+@@@$$=$$$*+...................",
"..................*+.@%@%*+.....................",
".....................+%.@.+.....................",
"................................................",
"................................................",
"------------------------------------------------",
"-----------------------------------------------;",
"----------------------------------------------;;",
"---------------------------------------------;;;",
"--------------------------------------------;;;;",
"-----......................................;;;;;",
"-----......................................;;;;;",
"-----......................................;;;;;",
"-----......................................;;;;;",
"-----......................................;;;;;",
"-----......................................;;;;;",
"-----......................................;;;;;",
"-----......................................;;;;;",
"-----......................................;;;;;",
"-----......................................;;;;;",
"-----......................................;;;;;",
"-----......................................;;;;;",
"-----......................................;;;;;",
"-----......................................;;;;;",
"-----......................................;;;;;",
"-----......................................;;;;;",
"-----......................................;;;;;",
"-----......................................;;;;;",
"-----......................................;;;;;",
"-----......................................;;;;;",
"-----......................................;;;;;",
"-----......................................;;;;;",
"-----......................................;;;;;",
"-----......................................;;;;;",
"-----......................................;;;;;",
"-----......................................;;;;;",
"-----......................................;;;;;",
"-----......................................;;;;;",
"-----......................................;;;;;",
"-----......................................;;;;;",
"-----......................................;;;;;",
"-----......................................;;;;;",
"-----......................................;;;;;",
"-----......................................;;;;;",
"-----......................................;;;;;",
"-----......................................;;;;;",
"-----......................................;;;;;",
"----;;;;;;;;;;;;;;;;;;;;;;;;;;;;;;;;;;;;;;;;;;;;",
"---;;;;;;;;;;;;;;;;;;;;;;;;;;;;;;;;;;;;;;;;;;;;;",
"--;;;;;;;;;;;;;;;;;;;;;;;;;;;;;;;;;;;;;;;;;;;;;;",
"-;;;;;;;;;;;;;;;;;;;;;;;;;;;;;;;;;;;;;;;;;;;;;;;",
";;;;;;;;;;;;;;;;;;;;;;;;;;;;;;;;;;;;;;;;;;;;;;;;"};
