/* XPM */
static char * pressoffSg_xpm[] = {
"48 21 5 1",
" 	c None",
".	c #191919",
"+	c #000000",
"@	c #0D6A0B",
"#	c #2A6440",
"................................................",
"................................................",
"................................................",
"................................................",
"....................+++++++.....................",
"...................++@@@@@++....................",
"..................++@@@@@@@++...................",
"..................++@@@@@@@++...................",
"..................++@@@@@@@++...................",
"..................++@@@##@@++...................",
"..................++@@@@#@@++...................",
"..................+++@@@@@+++...................",
"..................+++++++++++...................",
"...................+++++++++....................",
"....................+++++++.....................",
"................................................",
"................................................",
"................................................",
"................................................",
"................................................",
"................................................"};
