/* XPM */
static char * pushoutw_xpm[] = {
"48 64 69 1",
" 	c None",
".	c #000000",
"+	c #030303",
"@	c #0A0A0A",
"#	c #191919",
"$	c #313131",
"%	c #4C4C4C",
"&	c #646464",
"*	c #737373",
"=	c #7A7A7A",
"-	c #7D7D7D",
";	c #7E7E7E",
">	c #090909",
",	c #181818",
"'	c #2F2F2F",
")	c #4B4B4B",
"!	c #626262",
"~	c #717171",
"{	c #777777",
"]	c #7B7B7B",
"^	c #020202",
"/	c #171717",
"(	c #2D2D2D",
"_	c #464646",
":	c #5C5C5C",
"<	c #6A6A6A",
"[	c #747474",
"}	c #080808",
"|	c #141414",
"1	c #272727",
"2	c #3E3E3E",
"3	c #515151",
"4	c #5D5D5D",
"5	c #636363",
"6	c #656565",
"7	c #666666",
"8	c #010101",
"9	c #060606",
"0	c #0F0F0F",
"a	c #1F1F1F",
"b	c #303030",
"c	c #404040",
"d	c #494949",
"e	c #4E4E4E",
"f	c #4F4F4F",
"g	c #505050",
"h	c #040404",
"i	c #0B0B0B",
"j	c #161616",
"k	c #242424",
"l	c #363636",
"m	c #393939",
"n	c #3A3A3A",
"o	c #3B3B3B",
"p	c #131313",
"q	c #1E1E1E",
"r	c #282828",
"s	c #2E2E2E",
"t	c #323232",
"u	c #3D3D3D",
"v	c #2C2C2C",
"w	c #454545",
"x	c #5A5A5A",
"y	c #676767",
"z	c #6E6E6E",
"A	c #707070",
"B	c #7F7F7F",
"C	c #FFFFFF",
"D	c #606060",
"...........+@#$%&*=--;;;;;;;;--=*&%$#@+.........",
"...........+>,')!~{==]]]]]]]]=={~!)',>+.........",
"...........^>/(_:<~**[[[[[[[[**~<:_(/>^.........",
"...........^}|1234566777777776654321|}^.........",
"...........890abcdeffggggggggffedcba098.........",
"...........8hijk'lmnnoooooooonnml'kjih8.........",
"...........8+>pqrsb$$tttttttt$$bsrqp>+8.........",
"...........8hijk'lmnnoooooooonnml'kjih8.........",
"...........890abcdeffggggggggffedcba098.........",
"...........^}|1ug:!&&66666666&&!:gu1|}^.........",
"...........^>jvwxyzAA~~~~~~~~AAzyxwvj>^.........",
"...........^>jvwxyzAA~~~~~~~~AAzyxwvj>^.........",
"...........^}|1ug:!&&66666666&&!:gu1|}^.........",
"...........890abcdeffggggggggffedcba098.........",
"...........8hijk'lmnnoooooooonnml'kjih8.........",
"...........8+>pqrsb$$tttttttt$$bsrqp>+8.........",
"...........8hijk'lmnnoooooooonnml'kjih8.........",
"#BBBBCCCCCCCCCCCCCCCCCCCCCCCCCCCCCCCCCCCCC......",
"#BBBBCCCCCCCCCCCCCCCCCCCCCCCCCCCCCCCCCCCCC......",
"#BBBBCCCCCCCCCCCCCCCCCCCCCCCCCCCCCCCCCCCCC......",
"#BBBBCCCCCCCCCCCCCCCCCCCCCCCCCCCCCCCCCCCCC......",
"#BBBBCCCCCCCCCCCCCCCCCCCCCCCCCCCCCCCCCCCCC......",
"#BBBBCCCCCCCCCCCCCCCCCCCCCCCCCCCCCCCCCCCCC......",
"#BBBBCCCCCCCCCCCCCCCCCCCCCCCCCCCCCCCCCCCCC......",
"#BBBBCCCCCCCCCCCCCCCCCCCCCCCCCCCCCCCCCCCCC......",
"#BBBBCCCCCCCCCCCCCCCCCCCCCCCCCCCCCCCCCCCCC......",
"#BBBBCCCCCCCCCCCCCCCCCCCCCCCCCCCCCCCCCCCCC......",
"#BBBBCCCCCCCCCCCCCCCCCCCCCCCCCCCCCCCCCCCCC......",
"#BBBBCCCCCCCCCCCCCCCCCCCCCCCCCCCCCCCCCCCCC......",
"#BBBBCCCCCCCCCCCCCCCCCCCCCCCCCCCCCCCCCCCCC......",
"#BBBBCCCCCCCCCCCCCCCCCCCCCCCCCCCCCCCCCCCCC......",
"#BBBBCCCCCCCCCCCCCCCCCCCCCCCCCCCCCCCCCCCCC......",
"#BBBBCCCCCCCCCCCCCCCCCCCCCCCCCCCCCCCCCCCCC......",
"#BBBBCCCCCCCCCCCCCCCCCCCCCCCCCCCCCCCCCCCCC......",
"#BBBBCCCCCCCCCCCCCCCCCCCCCCCCCCCCCCCCCCCCC......",
"#BBBBCCCCCCCCCCCCCCCCCCCCCCCCCCCCCCCCCCCCC......",
"#BBBBCCCCCCCCCCCCCCCCCCCCCCCCCCCCCCCCCCCCC......",
"#BBBBCCCCCCCCCCCCCCCCCCCCCCCCCCCCCCCCCCCCC......",
"#BBBBCCCCCCCCCCCCCCCCCCCCCCCCCCCCCCCCCCCCC......",
"#BBBBCCCCCCCCCCCCCCCCCCCCCCCCCCCCCCCCCCCCC......",
"#BBBBCCCCCCCCCCCCCCCCCCCCCCCCCCCCCCCCCCCCC......",
"#BBBBCCCCCCCCCCCCCCCCCCCCCCCCCCCCCCCCCCCCC......",
"#BBBBCCCCCCCCCCCCCCCCCCCCCCCCCCCCCCCCCCCCC......",
"#BBBBCCCCCCCCCCCCCCCCCCCCCCCCCCCCCCCCCCCCC......",
"#BBBBCCCCCCCCCCCCCCCCCCCCCCCCCCCCCCCCCCCCC......",
"#BBBBCCCCCCCCCCCCCCCCCCCCCCCCCCCCCCCCCCCCC......",
"#BBBBCCCCCCCCCCCCCCCCCCCCCCCCCCCCCCCCCCCCC......",
"#BBBBCCCCCCCCCCCCCCCCCCCCCCCCCCCCCCCCCCCCC......",
"#BBBBCCCCCCCCCCCCCCCCCCCCCCCCCCCCCCCCCCCCC......",
"#BBBBBBBBBBBBBBBBBBBBBBBBBBBBBBBBBBBBBBBBB......",
"#BBBBBBBBBBBBBBBBBBBBBBBBBBBBBBBBBBBBBBBBB......",
"#BBBBBBBBBBBBBBBBBBBBBBBBBBBBBBBBBBBBBBBBB......",
"#BBBBBBBBBBBBBBBBBBBBBBBBBBBBBBBBBBBBBBBBB......",
"#BBBBBBBBBBBBBBBBBBBBBBBBBBBBBBBBBBBBBBBBB......",
"#BBBBBBBBBBBBBBBBBBBBBBBBBBBBBBBBBBBBBBBBB......",
"#BBBBBBBBBBBBBBBBBBBBBBBBBBBBBBBBBBBBBBBBB......",
"#BBBBBBBBBBBBBBBBBBBBBBBBBBBBBBBBBBBBBBBBB......",
"#BBBBBBBBBBBBBBBBBBBBBBBBBBBBBBBBBBBBBBBBB......",
"#BBBBBBBBBBBBBBBBBBBBBBBBBBBBBBBBBBBBBBBBB......",
"#BBBDDDDDDDDDDDDDDDDDDDDDDDDDDDDDDDDDDDDDDD.....",
"#BB.DDDDDDDDDDDDDDDDDDDDDDDDDDDDDDDDDDDDDDD.....",
"#B..DDDDDDDDDDDDDDDDDDDDDDDDDDDDDDDDDDDDDDD.....",
"#...DDDDDDDDDDDDDDDDDDDDDDDDDDDDDDDDDDDDDDD.....",
"....DDDDDDDDDDDDDDDDDDDDDDDDDDDDDDDDDDDDDDD....."};
