/* XPM */
static char * pushinw_xpm[] = {
"48 64 17 1",
" 	c None",
".	c #191919",
"+	c #7F7F7F",
"@	c #FFFFFF",
"#	c #000000",
"$	c #606060",
"%	c #1C1C1C",
"&	c #282828",
"*	c #353535",
"=	c #3A3A3A",
"-	c #323232",
";	c #212121",
">	c #252525",
",	c #2F2F2F",
"'	c #2C2C2C",
")	c #181818",
"!	c #3E3E3E",
".++++@@@@@@@@@@@@@@@@@@@@@@@@@@@@@@@@@@@@@######",
".++++@@@@@@@@@@@@@@@@@@@@@@@@@@@@@@@@@@@@@######",
".++++@@@@@@@@@@@@@@@@@@@@@@@@@@@@@@@@@@@@@######",
".++++@@@@@@@@@@@@@@@@@@@@@@@@@@@@@@@@@@@@@######",
".++++@@@@@@@@@@@@@@@@@@@@@@@@@@@@@@@@@@@@@######",
".++++@@@@@@@@@@@@@@@@@@@@@@@@@@@@@@@@@@@@@######",
".++++@@@@@@@@@@@@@@@@@@@@@@@@@@@@@@@@@@@@@######",
".++++@@@@@@@@@@@@@@@@@@@@@@@@@@@@@@@@@@@@@######",
".++++@@@@@@@@@@@@@@@@@@@@@@@@@@@@@@@@@@@@@######",
".++++@@@@@@@@@@@@@@@@@@@@@@@@@@@@@@@@@@@@@######",
".++++@@@@@@@@@@@@@@@@@@@@@@@@@@@@@@@@@@@@@######",
".++++@@@@@@@@@@@@@@@@@@@@@@@@@@@@@@@@@@@@@######",
".++++@@@@@@@@@@@@@@@@@@@@@@@@@@@@@@@@@@@@@######",
".++++@@@@@@@@@@@@@@@@@@@@@@@@@@@@@@@@@@@@@######",
".++++@@@@@@@@@@@@@@@@@@@@@@@@@@@@@@@@@@@@@######",
".++++@@@@@@@@@@@@@@@@@@@@@@@@@@@@@@@@@@@@@######",
".++++@@@@@@@@@@@@@@@@@@@@@@@@@@@@@@@@@@@@@######",
".++++@@@@@@@@@@@@@@@@@@@@@@@@@@@@@@@@@@@@@######",
".++++@@@@@@@@@@@@@@@@@@@@@@@@@@@@@@@@@@@@@######",
".++++@@@@@@@@@@@@@@@@@@@@@@@@@@@@@@@@@@@@@######",
".++++@@@@@@@@@@@@@@@@@@@@@@@@@@@@@@@@@@@@@######",
".++++@@@@@@@@@@@@@@@@@@@@@@@@@@@@@@@@@@@@@######",
".++++@@@@@@@@@@@@@@@@@@@@@@@@@@@@@@@@@@@@@######",
".++++@@@@@@@@@@@@@@@@@@@@@@@@@@@@@@@@@@@@@######",
".++++@@@@@@@@@@@@@@@@@@@@@@@@@@@@@@@@@@@@@######",
".++++@@@@@@@@@@@@@@@@@@@@@@@@@@@@@@@@@@@@@######",
".++++@@@@@@@@@@@@@@@@@@@@@@@@@@@@@@@@@@@@@######",
".++++@@@@@@@@@@@@@@@@@@@@@@@@@@@@@@@@@@@@@######",
".++++@@@@@@@@@@@@@@@@@@@@@@@@@@@@@@@@@@@@@######",
".+++++++++++++++++++++++++++++++++++++++++######",
".+++++++++++++++++++++++++++++++++++++++++######",
".+++++++++++++++++++++++++++++++++++++++++######",
".+++++++++++++++++++++++++++++++++++++++++######",
".+++++++++++++++++++++++++++++++++++++++++######",
".+++++++++++++++++++++++++++++++++++++++++######",
".+++$$$$$$$$$$$$$$$$$$$$$$$$$$$$$$$$$$$$$$$#####",
".++#$$$$$$$$$$$$$$$$$$$$$$$$$$$$$$$$$$$$$$$#####",
".+##$$$$$$$$$$$$$$$$$$$$$$$$$$$$$$$$$$$$$$$#####",
".###$$$$$$$$$$$$$$$$$$$$$$$$$$$$$$$$$$$$$$$#####",
"####$$$$$$$$$$$$$$$$$$$$$$$$$$$$$$$$$$$$$$$#####",
"%%&*=*-;;%>&,';;&%%;)%))&,;%%%;%%%;);,,&)>%)%&>>",
"%)%&%)>;%%);;%%,>%))&;&;;;;;&&&&)))&&&%;;&&;%);;",
"&,-;%));>))%%)))%;%%);&&))%%%%);;);%)%&%)%***,'!",
">&;;;;%;;&&%;%%))&,,;;;%)%);;;))>,&%))&;;&&;;;;)",
",>%)%;%))%%))&,;;%%%%;&;&,&)%%))%%))&,,,,%;%);>%",
"%);;*,%%))&,,&;%)%;));)));%;;;,,&;));%%;&&&;)%,!",
"&));%;;,&%%))%;,,&;;&,;;;;))))%;;>,*&&%%-!,*,&%;",
"&*,)));%;&;;)%)%&&%)>;%;&%%%);%))%&%);%;;;%),*%%",
"%%%>>&)))>>&*,,&;&*&%)));&&;,;%));;));,-,;)%;);&",
";;;;)%;%;;))>,&%;))%&&,;;));%;,,,&&&&,-%%&*,;%);",
";%,*&%%>&&%)%%;&;;%%;%;;;%);%%%&,%);,;;%%%,%%;>;",
";%;%%&&%)%;&>;%%&!*;;%%));,,;;);;));,;);;)%)%&&,",
"&,&;%)%%)%%>&;)));>;;;;%);;&;);%)%&,%))>*&;&&)%%",
",;%%;,,&,;%;)&;;&%))&&%&,;));*,*;>;,&;;%%;;;;;&;",
";);;%;%%%;&%%)&;;;%%)))))&)););,*;%%%&,;%);%));,",
"%))&&;)%%)%&;;;%)%*&;;%);;&&&);%;&&;)%%;;;;);,&%",
");&&&;;;&;&;&&&%);%%%);*;))&,*&));*,%%)),&&,*>>>",
",;&%););;;;&%%);*,&&&;)%;)%;);,;;>)%;,*;%))>,;);",
"&&>;))*,;))%;)%;;%)%;))%;&,%))%,*,;%&;;&;));;;%;",
"%);&,&%&;;%;*,*&)%))%;&;%)%%%&&>)%&!&%)%&*,;)%&*",
";;;%;;%);*,;%&;;;;&;%%;;;;;&*&)%%;%%;))%;&**,,!*",
"%&%)%&%);&;))&%));&;;)));,%);;));,))%,&,&%%&,;%;",
",%&;&;,*,;;&;;&%;;;%);;&,)));>&,&%%;;;&;%));*;;)",
"%%)&&;;&%));*&;!,;%;&*,;;>%;;));)));,;%;;%%&;,*&"};
