/* XPM */
static char * rockersmoothBBLd_xpm[] = {
"30 60 37 1",
" 	c None",
".	c #0000ff",
"+	c #111F21",
"@	c #3C5D63",
"#	c #55747A",
"$	c #617E84",
"%	c #678389",
"&	c #708B90",
"*	c #6B878C",
"=	c #46666C",
"-	c #33545B",
";	c #769095",
">	c #7B9499",
",	c #94AAAE",
"'	c #8DA4A8",
")	c #819A9F",
"!	c #9AAEB2",
"~	c #8AA1A6",
"{	c #80989D",
"]	c #748F94",
"^	c #859DA1",
"/	c #91A7AB",
"(	c #7E979C",
"_	c #88A0A4",
":	c #5C7A80",
"<	c #718C92",
"[	c #627F85",
"}	c #5A787E",
"|	c #799398",
"1	c #6E8A8F",
"2	c #5F7D82",
"3	c #5B797F",
"4	c #537178",
"5	c #57757B",
"6	c #37575E",
"7	c #45656B",
"8	c #506F75",
"..++++++++++++++++++++++++++..",
".+@@@@@@@@@@@@@@@@@@@@@@@@@++.",
"++#$%&*&*&*&*&*&*&*&*&*&%$=-++",
"++#$%&*&*&*&*&*&*&*&*&*&%$=-++",
"+@*;>,',',',',',',',',',)>%$@+",
"+@*;>,',',',',',',',',',)>%$@+",
"+@;;'!!!!!!!!!!!!!!!!!!!,,>*@+",
"+@;;'!!!!!!!!!!!!!!!!!!!,,>*@+",
"+@;)'!!!!!!!!!!!!!!!!!!!~~{)@+",
"+@]^!!!!!!!!!!!!!!!!!!!!//(]@+",
"+@]^!!!!!!!!!!!!!!!!!!!!//(]@+",
"+@_///_/_/_/_/_/_/_/_/_/^^]]@+",
"+@_///_/_/_/_/_/_/_/_/_/^^]]@+",
"+@>/^(>^^^^^^^^^^^^^^^^^>]%:@+",
"+@>/^(>^^^^^^^^^^^^^^^^^>]%:@+",
"+@_^(<*]<]<]<]<]<]<]<]<<*[:}@+",
"+@>~|%%%1%1%1%1%1%1%1%1%%2:}@+",
"+@_({1[[[[[[[[[[[[[[[[[[[$:3@+",
"+@>~>%[[[[[[[[[[[[[[[[[[[$:3@+",
"+@_({1[[[[[[[[[[[[[[[[[[[[2:@+",
"+@>~>%[[[[[[[[[[[[[[[[[[[[2:@+",
"+@_({1[[[[[[[[[[[[[[[[[[[[2:@+",
"+@>~>%[[[[[[[[[[[[[[[[[[[[2:@+",
"+@_({1[[[[[[[[[[[[[[[[[[[[2:@+",
"+@>~>%[[[[[[[[[[[[[[[[[[[[2:@+",
"+@_(>%[[[[[[[[[[[[[[[[[[[[2:@+",
"+@>^][[[[[[[[[[[[[[[[[[[[[2:@+",
"+@_;][[[[[[[[[[[[[[[[[[[[[2:@+",
"+@>(][[[[[[[[[[[[[[[[[[[[[2:@+",
"+@_;][[[[[[[[[[[[[[[[[[[[[2:@+",
"+@>(][[[[[[[[[[[[[[[[[[[[[2:@+",
"+@_;][[[[[[[[[[[[[[[[[[[[[2:@+",
"+@>(][[[[[[[[[[[[[[[[[[[[[2:@+",
"+@_;][[[[[[[[[[[[[[[[[[[[[2:@+",
"+@>(][[[[[[[[[[[[[[[[[[[[[2:@+",
"+@_;][[[[[[[[[[[[[[[[[[[[[2:@+",
"+@>;][[[[[[[[[[[[[[[[[[[[[2:@+",
"+@>;][[[[[[[[[[[[[[[[[[[[[2:@+",
"+@>;][[[[[[[[[[[[[[[[[[[[[2:@+",
"+@>;][[[[[[[[[[[[[[[[[[[[[2:@+",
"+@*&][[[[[[[[[[[[[[[[[[[[[2:@+",
"+@*&][[[[[[[[[[[[[[[[[[[[[2:@+",
"+@*&][[[[[[[[[[[[[[[[[[[[[2:@+",
"+@*&][[[[[[[[[[[[[[[[[[[[[2:@+",
"+@*&][[[[[[[[[[[[[[[[[[[[[2:@+",
"+@*&][[[[[[[[[[[[[[[[[[[[[2:@+",
"+@*&][[[[[[[[[[[[[[[[[[[[[2:@+",
"+@*&][[[[[[[[[[[[[[[[[[[[[2:@+",
"+@*&][[[[[[[[[[[[[[[[[[[[[2:@+",
"+@*&][[[[[[[[[[[[[[[[[[[[[2:@+",
"+@*&][[[[[[[[[[[[[[[[[[[[[2:@+",
"+@*&][[[[[[[[[[[[[[[[[[[[[2:@+",
"+@%*1[[[[[[[[[[[[[[[[[[[[[2:@+",
"+@2[%[[[[[[[[[[[[[[[[[[[[$:3@+",
"+@3:$[[[[[[[[[[[[[[[[[[[[$:3@+",
"+@}:2$$[[$$$[$$$[[[$$$[$$2:}@+",
"+@45:::22:::2:::222:::2:::54@+",
"++67888448884888444888488876++",
".++@@@@@@@@@@@@@@@@@@@@@@@@++.",
"..++++++++++++++++++++++++++.."};
