/* XPM */
static char * rockersmoothBCd_xpm[] = {
"30 60 39 1",
" 	c None",
".	c #0000ff",
"+	c #4B4500",
"@	c #ADA33D",
"#	c #C4BC69",
"$	c #CEC77E",
"%	c #D1CA85",
"&	c #DAD49A",
"*	c #D5CF8E",
"=	c #B4AB4A",
"-	c #A3992D",
";	c #DFDAA7",
">	c #E2DDAE",
",	c #F3F1DC",
"'	c #EEEBCE",
")	c #E7E3BB",
"!	c #F0EDD3",
"~	c #F8F6EA",
"{	c #EDEACB",
"]	c #E5E1B6",
"^	c #DBD59D",
"/	c #E9E5C0",
"(	c #F2EFD9",
"_	c #E4DFB3",
":	c #ECE9C8",
"<	c #E8E4BE",
"[	c #E1DCAC",
"}	c #DCD69F",
"|	c #CAC376",
"1	c #C9C173",
"2	c #C6BE6D",
"3	c #D3CC8A",
"4	c #D7D193",
"5	c #CBC478",
"6	c #C7BF6F",
"7	c #C1B963",
"8	c #A69C32",
"9	c #BEB55D",
"0	c #C0B861",
"..++++++++++++++++++++++++++..",
".+@@@@@@@@@@@@@@@@@@@@@@@@@++.",
"++#$%&*&*&*&*&*&*&*&*&*&%$=-++",
"++#$%&*&*&*&*&*&*&*&*&*&%$=-++",
"+@*;>,',',',',',',',',',)>%$@+",
"+@*;>,',',',',',',',',',)>%$@+",
"+@;;!~~~~~~~~~~~~~~~~~~~,,>*@+",
"+@;;!~~~~~~~~~~~~~~~~~~~,,>*@+",
"+@;)!~~~~~~~~~~~~~~~~~~~{{])@+",
"+@;)!~~~~~~~~~~~~~~~~~~~{{])@+",
"+@^/~~~~~~~~~~~~~~~~~~~~((_^@+",
"+@:(((:(:(:(:(:(:(:(:(:(<<^^@+",
"+@:(((:(:(:(:(:(:(:(:(:(<<^^@+",
"+@[(/_>/////////////////>}%|@+",
"+@[(/_>/////////////////>}%|@+",
"+@:/_&*^&^&^&^&^&^&^&^&&*$12@+",
"+@[{;%%3434343434343434%%512@+",
"+@:_]4$$$$$$$$$$$$$$$$$$$$|6@+",
"+@[{[3$$$$$$$$$$$$$$$$$$$$|6@+",
"+@:_]4$$$$$$$$$$$$$$$$$$$$51@+",
"+@[{[3$$$$$$$$$$$$$$$$$$$$51@+",
"+@:_]4$$$$$$$$$$$$$$$$$$$$51@+",
"+@[{[3$$$$$$$$$$$$$$$$$$$$51@+",
"+@:_]4$$$$$$$$$$$$$$$$$$$$51@+",
"+@[{[3$$$$$$$$$$$$$$$$$$$$51@+",
"+@:_[3$$$$$$$$$$$$$$$$$$$$51@+",
"+@[/}$$$$$$$$$$$$$$$$$$$$$51@+",
"+@:;}$$$$$$$$$$$$$$$$$$$$$51@+",
"+@[_}$$$$$$$$$$$$$$$$$$$$$51@+",
"+@:;}$$$$$$$$$$$$$$$$$$$$$51@+",
"+@[_}$$$$$$$$$$$$$$$$$$$$$51@+",
"+@:;}$$$$$$$$$$$$$$$$$$$$$51@+",
"+@[_}$$$$$$$$$$$$$$$$$$$$$51@+",
"+@:;}$$$$$$$$$$$$$$$$$$$$$51@+",
"+@[_}$$$$$$$$$$$$$$$$$$$$$51@+",
"+@:;}$$$$$$$$$$$$$$$$$$$$$51@+",
"+@[;}$$$$$$$$$$$$$$$$$$$$$51@+",
"+@[;}$$$$$$$$$$$$$$$$$$$$$51@+",
"+@[;}$$$$$$$$$$$$$$$$$$$$$51@+",
"+@[;}$$$$$$$$$$$$$$$$$$$$$51@+",
"+@[;}$$$$$$$$$$$$$$$$$$$$$51@+",
"+@[;}$$$$$$$$$$$$$$$$$$$$$51@+",
"+@4&}$$$$$$$$$$$$$$$$$$$$$51@+",
"+@4&}$$$$$$$$$$$$$$$$$$$$$51@+",
"+@4&}$$$$$$$$$$$$$$$$$$$$$51@+",
"+@4&}$$$$$$$$$$$$$$$$$$$$$51@+",
"+@4&}$$$$$$$$$$$$$$$$$$$$$51@+",
"+@4&}$$$$$$$$$$$$$$$$$$$$$51@+",
"+@4&}$$$$$$$$$$$$$$$$$$$$$51@+",
"+@4&}$$$$$$$$$$$$$$$$$$$$$51@+",
"+@4&}$$$$$$$$$$$$$$$$$$$$$51@+",
"+@4&}$$$$$$$$$$$$$$$$$$$$$51@+",
"+@%*4$$$$$$$$$$$$$$$$$$$$$51@+",
"+@5$%$$$$$$$$$$$$$$$$$$$$$|6@+",
"+@6|$$$$$$$$$$$$$$$$$$$$$$|6@+",
"+@215$$$$$$$$$$$$$$$$$$$$512@+",
"+@721||55|||5|||555|||5||127@+",
"++8=9000000000000000000009=8++",
".++@@@@@@@@@@@@@@@@@@@@@@@@++.",
"..++++++++++++++++++++++++++.."};
