/* XPM */
static char * rockergrey_xpm[] = {
"70 26 17 1",
" 	c None",
".	c #434443",
"+	c #464845",
"@	c #494B48",
"#	c #4F514E",
"$	c #646563",
"%	c #676967",
"&	c #6A6A69",
"*	c #5B5C5A",
"=	c #6F706E",
"-	c #90928F",
";	c #A9ABA9",
">	c #818381",
",	c #CBCCC9",
"'	c #B1B3B1",
")	c #CBCDCB",
"!	c #CFD1CE",
"....................................+++++++++++++++...................",
"..@@@@@@@@@@@@@@@@@@@@@@@@@@@@@@@@@#$%&&&&&&&&&&&&%*#.................",
".@#********************************=-;;;;;;;;;;;;;;-$@++++............",
".@*$$$$$$$$$$$$$$$$$$$$$$$$$$$$$$$%>;,,,,,,,,,,,,,,;=#@@@@@+..........",
".@*$$$$$$$$$$$$$$$$$$$$$$$$$$$$$$$%>')!!!!!!!!!!!!,;=#@@@@+...........",
".@*$$$$$$$$$$$$$$$$$$$$$$$$$$$$$$$%>')!!!!!!!!!!!!,;=#@@@@+...........",
".@*$$$$$$$$$$$$$$$$$$$$$$$$$$$$$$$%>')!!!!!!!!!!!!,;=#@@@@@+..........",
".@*$$$$$$$$$$$$$$$$$$$$$$$$$$$$$$$%>')!!!!!!!!!!!!,;=#@@@@+...........",
".@*$$$$$$$$$$$$$$$$$$$$$$$$$$$$$$$%>')!!!!!!!!!!!!,;=#@@@@+...........",
".@*$$$$$$$$$$$$$$$$$$$$$$$$$$$$$$$%>')!!!!!!!!!!!!,;=#@@@@@+..........",
".@*$$$$$$$$$$$$$$$$$$$$$$$$$$$$$$$%>')!!!!!!!!!!!!,;=#@@@@+...........",
".@*$$$$$$$$$$$$$$$$$$$$$$$$$$$$$$$%>')!!!!!!!!!!!!,;=#@@@@+...........",
".@*$$$$$$$$$$$$$$$$$$$$$$$$$$$$$$$%>')!!!!!!!!!!!!,;=#@@@@+...........",
".@*$$$$$$$$$$$$$$$$$$$$$$$$$$$$$$$%>')!!!!!!!!!!!!,;=#@@@@@+..........",
".@*$$$$$$$$$$$$$$$$$$$$$$$$$$$$$$$%>')!!!!!!!!!!!!,;=#@@@@@+..........",
".@*$$$$$$$$$$$$$$$$$$$$$$$$$$$$$$$%>')!!!!!!!!!!!!,;=#@@@@@+..........",
".@*$$$$$$$$$$$$$$$$$$$$$$$$$$$$$$$%>')!!!!!!!!!!!!,;=#@@@@@+..........",
".@*$$$$$$$$$$$$$$$$$$$$$$$$$$$$$$$%>')!!!!!!!!!!!!,;=#@@@@@+..........",
".@*$$$$$$$$$$$$$$$$$$$$$$$$$$$$$$$%>')!!!!!!!!!!!!,;=#@@@@++..........",
".@*$$$$$$$$$$$$$$$$$$$$$$$$$$$$$$$%>')!!!!!!!!!!!!,;=#@@@@++..........",
".@*$$$$$$$$$$$$$$$$$$$$$$$$$$$$$$$%>')!!!!!!!!!!!!,;=#@@@@@+..........",
".@*$$$$$$$$$$$$$$$$$$$$$$$$$$$$$$$%>')!!!!!!!!!!!!,;=#@@@@++..........",
".@*$$$$$$$$$$$$$$$$$$$$$$$$$$$$$$$%>;,,,,,,,,,,,,,,;=#@@@@+...........",
".@#********************************=-;;;;;;;;;;;;;;-$@+++++...........",
"..@@@@@@@@@@@@@@@@@@@@@@@@@@@@@@@@@#$%&&&&&&&&&&&&%*#.................",
"....................................+++++++++++++++..................."};
