/* XPM */
static char * rockerred_xpm[] = {
"70 26 5 1",
" 	c None",
".	c #AD1620",
"+	c #ED1E24",
"@	c #991A24",
"#	c #720E15",
"....................................++++++++++++++++........@@@@@@####",
"....................................++++++++++++++++........@@@@@#.###",
"....................................++++++++++++++++......@..@@@@@####",
"....................................++++++++++++++++........@@@@@@@###",
"....................................++++++++++++++++.......@@@@@@@####",
"....................................++++++++++++++++......@.@@@@@#####",
"....................................++++++++++++++++.........@@@@@@###",
"....................................++++++++++++++++.......@@@@@#@####",
"....................................++++++++++++++++......@.@@@@@@####",
"....................................++++++++++++++++........@@@@@#.###",
"....................................++++++++++++++++.......@@@@@@@####",
"....................................++++++++++++++++......@@.@@@@@####",
"....................................++++++++++++++++.......@@@@@@#.###",
"....................................++++++++++++++++.........@@@@@####",
"....................................++++++++++++++++......@.@@@#@@@###",
"....................................++++++++++++++++........@@@@@#####",
"....................................++++++++++++++++.......@@@@@@@####",
"....................................++++++++++++++++.........@@@#@@###",
"....................................++++++++++++++++......@.@@@@@@####",
"....................................++++++++++++++++.......@@@@@@#####",
"....................................++++++++++++++++.........@@@@@@###",
"....................................++++++++++++++++......@.@@@@#@####",
"....................................++++++++++++++++.......@@@@@@@####",
"....................................++++++++++++++++........@@@@@#.###",
"....................................++++++++++++++++......@.@.@#@@####",
"....................................++++++++++++++++........@@@@@@@###"};
