/* XPM */
static char * rockersmoothBBd_xpm[] = {
"30 60 39 1",
" 	c None",
".	c #0000Ff",
"+	c #000000",
"@	c #060606",
"#	c #181818",
"$	c #1F1F1F",
"%	c #333333",
"&	c #2A2A2A",
"*	c #3E3E3E",
"=	c #484848",
"-	c #707070",
";	c #646464",
">	c #525252",
",	c #666666",
"'	c #7F7F7F",
")	c #616161",
"!	c #4F4F4F",
"~	c #363636",
"{	c #595959",
"]	c #6D6D6D",
"^	c #4C4C4C",
"/	c #5F5F5F",
"(	c #545454",
"_	c #454545",
":	c #575757",
"<	c #4A4A4A",
"[	c #383838",
"}	c #121212",
"|	c #272727",
"1	c #1A1A1A",
"2	c #0E0E0E",
"3	c #090909",
"4	c #404040",
"5	c #222222",
"6	c #2E2E2E",
"7	c #101010",
"8	c #0C0C0C",
"9	c #434343",
"0	c #2C2C2C",
"..++++++++++++++++++++++++++..",
".++++++++++++++++++++++++++++.",
".++++++++++++++++++++++++++++.",
"++@#$%&%&%&%&%&%&%&%&%&%$#++++",
"++@#$%&%&%&%&%&%&%&%&%&%$#++++",
"++&*=-;-;-;-;-;-;-;-;-;->=$#++",
"++&*=-;-;-;-;-;-;-;-;-;->=$#++",
"++**,'''''''''''''''''''--=&++",
"++**,'''''''''''''''''''--=&++",
"++*>,'''''''''''''''''''))!>++",
"++~{'''''''''''''''''''']]^~++",
"++~{'''''''''''''''''''']]^~++",
"++/]]]/]/]/]/]/]/]/]/]/]((~~++",
"++_]:<={:{:{:{:{:{:{:{::=[$}++",
"++_]:<={:{:{:{:{:{:{:{::=[$}++",
"++/:<%|~%~%~%~%~%~%~%~%%|123++",
"++_)4$$5656565656565656$$}73++",
"++/<!61111111111111111111#}8++",
"++_)951111111111111111111#}8++",
"++/<!611111111111111111111}2++",
"++_)9511111111111111111111}2++",
"++/<!611111111111111111111}2++",
"++_)9511111111111111111111}2++",
"++/<!611111111111111111111}2++",
"++_)9511111111111111111111}2++",
"++/<9511111111111111111111}2++",
"++_{[111111111111111111111}2++",
"++/*[111111111111111111111}2++",
"++_^[111111111111111111111}2++",
"++/*[111111111111111111111}2++",
"++_^[111111111111111111111}2++",
"++/*[111111111111111111111}2++",
"++_^[111111111111111111111}2++",
"++/*[111111111111111111111}2++",
"++_^[111111111111111111111}2++",
"++_*[111111111111111111111}2++",
"++_*[111111111111111111111}2++",
"++_*[111111111111111111111}2++",
"++0%[111111111111111111111}2++",
"++0%[111111111111111111111}2++",
"++0%[111111111111111111111}2++",
"++0%[111111111111111111111}2++",
"++0%[111111111111111111111}2++",
"++0%[111111111111111111111}2++",
"++0%[111111111111111111111}2++",
"++0%[111111111111111111111}2++",
"++0%[111111111111111111111}2++",
"++0%[111111111111111111111}2++",
"++0%[111111111111111111111}2++",
"++0%[111111111111111111111}2++",
"++0%[111111111111111111111}2++",
"++0%[111111111111111111111}2++",
"++$|6111111111111111111111}2++",
"++}1$11111111111111111111#}8++",
"++8}#11111111111111111111#}8++",
"++37}##11###1###111###1##}73++",
"+++@7}}}}}}}}}}}}}}}}}}}}7@+++",
"++++++++++++++++++++++++++++++",
".++++++++++++++++++++++++++++.",
"..++++++++++++++++++++++++++.."};
