/* XPM */
static char * rockerblue_xpm[] = {
"70 26 6 1",
" 	c None",
".	c #007ABE",
"+	c #0096E8",
"@	c #006399",
"#	c #005684",
"$	c #004A72",
"....................................++++++++++++++++@@@@@@@@######$$$$",
"....................................++++++++++++++++@@@@@@@@#@###$#$$$",
"....................................++++++++++++++++@@@@@@#@@#####$$$$",
"....................................++++++++++++++++@@@@@@@@###$###$$$",
"....................................++++++++++++++++@@@@@@@##@####$$$$",
"....................................++++++++++++++++@@@@@@#@#####$$$$$",
"....................................++++++++++++++++@@@@@@@@@######$$$",
"....................................++++++++++++++++@@@@@@@#####$#$$$$",
"....................................++++++++++++++++@@@@@@#@#@####$$$$",
"....................................++++++++++++++++@@@@@@@@#####$#$$$",
"....................................++++++++++++++++@@@@@@@#@#####$$$$",
"....................................++++++++++++++++@@@@@@#@#@####$$$$",
"....................................++++++++++++++++@@@@@@@######$#$$$",
"....................................++++++++++++++++@@@@@@@@@#####$$$$",
"....................................++++++++++++++++@@@@@@#@#@#$###$$$",
"....................................++++++++++++++++@@@@@@@@#####$$$$$",
"....................................++++++++++++++++@@@@@@@#@#####$$$$",
"....................................++++++++++++++++@@@@@@@@#@##$##$$$",
"....................................++++++++++++++++@@@@@@#@######$$$$",
"....................................++++++++++++++++@@@@@@@#@####$$$$$",
"....................................++++++++++++++++@@@@@@@@#@#####$$$",
"....................................++++++++++++++++@@@@@@#@####$#$$$$",
"....................................++++++++++++++++@@@@@@@#@#####$$$$",
"....................................++++++++++++++++@@@@@@@@#@###$#$$$",
"....................................++++++++++++++++@@@@@@##@##$##$$$$",
"....................................++++++++++++++++@@@@@@@@#@#####$$$"};
