/* XPM */
static char * rockersmoothBBL_xpm[] = {
"30 60 28 1",
" 	c None",
".	c #0000ff",
"+	c #111F21",
"@	c #3C5D63",
"#	c #37575E",
"$	c #46666C",
"%	c #537278",
"&	c #5B797F",
"*	c #617E84",
"=	c #55747A",
"-	c #6A868B",
";	c #738E93",
">	c #799398",
",	c #839BA0",
"'	c #5C7A80",
")	c #91A7AB",
"!	c #9AAEB2",
"~	c #648086",
"{	c #57757B",
"]	c #517076",
"^	c #4D6D73",
"/	c #45656B",
"(	c #3F5F65",
"_	c #4A696F",
":	c #28464C",
"<	c #416168",
"[	c #2D4E55",
"}	c #33545B",
"..++++++++++++++++++++++++++..",
".++@@@@@@@@@@@@@@@@@@@@@@@@++.",
"++#$%&&*&&&***&&&*&&&**&&%$#++",
"+@=-;>>,>>>,,,>>>,>>>,,>>;-=@+",
"+@';,))!)))!!!)))!)))!!)),;'@+",
"+@~>)!!!!!!!!!!!!!!!!!!!!)>~@+",
"+@~>)!!!!!!!!!!!!!!!!!!!!)>~@+",
"+@-,!!!!!!!!!!!!!!!!!!!!!!,-@+",
"+@-,!!!!!!!!!!!!!!!!!!!!!!,-@+",
"+@-,!!!!!!!!!!!!!!!!!!!!!!,-@+",
"+@-,!!!!!!!!!!!!!!!!!!!!!!,-@+",
"+@-,!!!!!!!!!!!!!!!!!!!!!!,-@+",
"+@-,!!!!!!!!!!!!!!!!!!!!!!,-@+",
"+@-,!!!!!!!!!!!!!!!!!!!!!!,-@+",
"+@-,!!!!!!!!!!!!!!!!!!!!!!,-@+",
"+@-,!!!!!!!!!!!!!!!!!!!!!!,-@+",
"+@-,!!!!!!!!!!!!!!!!!!!!!!,-@+",
"+@-,!!!!!!!!!!!!!!!!!!!!!!,-@+",
"+@-,!!!!!!!!!!!!!!!!!!!!!!,-@+",
"+@-,!!!!!!!!!!!!!!!!!!!!!!,-@+",
"+@-,!!!!!!!!!!!!!!!!!!!!!!,-@+",
"+@-,!!!!!!!!!!!!!!!!!!!!!!,-@+",
"+@-,!!!!!!!!!!!!!!!!!!!!!!,-@+",
"+@-,!!!!!!!!!!!!!!!!!!!!!!,-@+",
"+@-,!!!!!!!!!!!!!!!!!!!!!!,-@+",
"+@-,!!!!!!!!!!!!!!!!!!!!!!,-@+",
"+@-,!!!!!!!!!!!!!!!!!!!!!!,-@+",
"+@-,!!!!!!!!!!!!!!!!!!!!!!,-@+",
"+@-,!!!!!!!!!!!!!!!!!!!!!!,-@+",
"+@-,!!!!!!!!!!!!!!!!!!!!!!,-@+",
"+@-,!!!!!!!!!!!!!!!!!!!!!!,-@+",
"+@~>)!!!!!!!!!!!!!!!!!!!!)>~@+",
"+@~>)!!!!!!!!!!!!!!!!!!!!)>~@+",
"+@~>)!!!!!!!!!!!!!!!!!!!!)>~@+",
"+@~>)!!!!!!!!!!!!!!!!!!!!)>~@+",
"+@';,))!!!!!!!!!!!!!!!!)),;'@+",
"+@';,))!!!!!!!!!!!!!!!!)),;'@+",
"+@'-;>>,,,,,,,,,,,,,,,,>>;-'@+",
"+@'-;>>,,,,,,,,,,,,,,,,>>;-'@+",
"+@'-;>>,,,,,,,,,,,,,,,,>>;-'@+",
"+@{''~~----------------~~''{@+",
"+@{''~~----------------~~''{@+",
"+@{''~~----------------~~''{@+",
"+@]%{{{{{{{{{{{{{{{{{{{{{{%]@+",
"+@]%{{{{{{{{{{{{{{{{{{{{{{%]@+",
"+@$^%{{{{{{{{{{{{{{{{{{{{%/(@+",
"+@(/_^^^^^^^^^^^^^^^^^^^^_(@:+",
"+@(/_^^^^^^^^^^^^^^^^^^^^_(@:+",
"+@(/_^^^^^^^^^^^^^^^^^^^^_(@:+",
"+@(/_^^^^^^^^^^^^^^^^^^^^_(@:+",
"+:@(<////////////////////<(@:+",
"+:@(<////////////////////<(@:+",
"+:@(<////////////////////<(@:+",
"++@(<////////////////////<(@:+",
"++:[}@@@@@@@@@@@@@@@@@@@@}[:++",
"++:[}@@@@@@@@@@@@@@@@@@@@}[:++",
"++:[}@@@@@@@@@@@@@@@@@@@@}[:++",
"++++@@@@@@@@@@@@@@@@@@@@@@++++",
".++++++++++++++++++++++++++++.",
"..++++++++++++++++++++++++++.."};
