/* XPM */
static char * rockersmoothBGRd_xpm[] = {
"30 60 36 1",
" 	c None",
".	c #0000ff",
"+	c #010302",
"@	c #0C261C",
"#	c #164230",
"$	c #1A503B",
"%	c #1D5740",
"&	c #226249",
"*	c #1F5D45",
"=	c #103024",
"-	c #0A2017",
";	c #27674E",
">	c #2C6B52",
",	c #4A856E",
"'	c #417D66",
")	c #337159",
"!	c #508A73",
"~	c #3D7A62",
"{	c #317058",
"]	c #26664D",
"^	c #36745C",
"/	c #458169",
"(	c #306F57",
"_	c #3B7961",
":	c #184936",
"<	c #23634A",
"[	c #174533",
"}	c #2B6A51",
"|	c #206047",
"1	c #194D39",
"2	c #184835",
"3	c #143E2E",
"4	c #164432",
"5	c #0B2219",
"6	c #0F2F23",
"7	c #133A2B",
"..++++++++++++++++++++++++++..",
".+@@@@@@@@@@@@@@@@@@@@@@@@@++.",
"++#$%&*&*&*&*&*&*&*&*&*&%$=-++",
"+@*;>,',',',',',',',',',)>%$@+",
"+@*;>,',',',',',',',',',)>%$@+",
"+@;;'!!!!!!!!!!!!!!!!!!!,,>*@+",
"+@;;'!!!!!!!!!!!!!!!!!!!,,>*@+",
"+@;)'!!!!!!!!!!!!!!!!!!!~~{)@+",
"+@;)'!!!!!!!!!!!!!!!!!!!~~{)@+",
"+@;)'!!!!!!!!!!!!!!!!!!!~~{)@+",
"+@]^!!!!!!!!!!!!!!!!!!!!//(]@+",
"+@]^!!!!!!!!!!!!!!!!!!!!//(]@+",
"+@_///_/_/_/_/_/_/_/_/_/^^]]@+",
"+@_///_/_/_/_/_/_/_/_/_/^^]]@+",
"+@>/^(>^^^^^^^^^^^^^^^^^>]%:@+",
"+@>/^(>^^^^^^^^^^^^^^^^^>]%:@+",
"+@_^(<*]<]<]<]<]<]<]<]<<*$:[@+",
"+@>~}%%%|%|%|%|%|%|%|%|%%1:[@+",
"+@_({|$$$$$$$$$$$$$$$$$$$$:2@+",
"+@>~>%$$$$$$$$$$$$$$$$$$$$:2@+",
"+@_({|$$$$$$$$$$$$$$$$$$$$1:@+",
"+@>~>%$$$$$$$$$$$$$$$$$$$$1:@+",
"+@_({|$$$$$$$$$$$$$$$$$$$$1:@+",
"+@>~>%$$$$$$$$$$$$$$$$$$$$1:@+",
"+@_({|$$$$$$$$$$$$$$$$$$$$1:@+",
"+@>~>%$$$$$$$$$$$$$$$$$$$$1:@+",
"+@_(>%$$$$$$$$$$$$$$$$$$$$1:@+",
"+@>^]$$$$$$$$$$$$$$$$$$$$$1:@+",
"+@_;]$$$$$$$$$$$$$$$$$$$$$1:@+",
"+@>(]$$$$$$$$$$$$$$$$$$$$$1:@+",
"+@_;]$$$$$$$$$$$$$$$$$$$$$1:@+",
"+@>(]$$$$$$$$$$$$$$$$$$$$$1:@+",
"+@_;]$$$$$$$$$$$$$$$$$$$$$1:@+",
"+@>(]$$$$$$$$$$$$$$$$$$$$$1:@+",
"+@_;]$$$$$$$$$$$$$$$$$$$$$1:@+",
"+@_;]$$$$$$$$$$$$$$$$$$$$$1:@+",
"+@>(]$$$$$$$$$$$$$$$$$$$$$1:@+",
"+@>;]$$$$$$$$$$$$$$$$$$$$$1:@+",
"+@>;]$$$$$$$$$$$$$$$$$$$$$1:@+",
"+@*&]$$$$$$$$$$$$$$$$$$$$$1:@+",
"+@*&]$$$$$$$$$$$$$$$$$$$$$1:@+",
"+@*&]$$$$$$$$$$$$$$$$$$$$$1:@+",
"+@*&]$$$$$$$$$$$$$$$$$$$$$1:@+",
"+@*&]$$$$$$$$$$$$$$$$$$$$$1:@+",
"+@*&]$$$$$$$$$$$$$$$$$$$$$1:@+",
"+@*&]$$$$$$$$$$$$$$$$$$$$$1:@+",
"+@*&]$$$$$$$$$$$$$$$$$$$$$1:@+",
"+@*&]$$$$$$$$$$$$$$$$$$$$$1:@+",
"+@*&]$$$$$$$$$$$$$$$$$$$$$1:@+",
"+@*&]$$$$$$$$$$$$$$$$$$$$$1:@+",
"+@*&]$$$$$$$$$$$$$$$$$$$$$1:@+",
"+@*&]$$$$$$$$$$$$$$$$$$$$$1:@+",
"+@%*|$$$$$$$$$$$$$$$$$$$$$1:@+",
"+@1$%$$$$$$$$$$$$$$$$$$$$$:2@+",
"+@2:$$$$$$$$$$$$$$$$$$$$$$:2@+",
"+@[:1$$$$$$$$$$$$$$$$$$$$1:[@+",
"+@34:::11:::1:::111:::1:::43@+",
"++56777337773777333777377765++",
".++@@@@@@@@@@@@@@@@@@@@@@@@++.",
"..++++++++++++++++++++++++++.."};
