/* XPM */
static char * gimp_temp_241343_xpm[] = {
"28 12 170 2",
"  	c None",
". 	c #676767",
"+ 	c #8D8D8D",
"@ 	c #818181",
"# 	c #878787",
"$ 	c #867A88",
"% 	c #7B868A",
"& 	c #829D96",
"* 	c #8BA29A",
"= 	c #90B1A8",
"- 	c #85BFB1",
"; 	c #75B0AA",
"> 	c #86AFB3",
", 	c #82B3B7",
"' 	c #80B2AF",
") 	c #83B0A9",
"! 	c #8FB2AB",
"~ 	c #849D97",
"{ 	c #899998",
"] 	c #787C85",
"^ 	c #827E8C",
"/ 	c #808080",
"( 	c #838383",
"_ 	c #7F7F7F",
": 	c #6B6B6B",
"< 	c #989898",
"[ 	c #A3A3A3",
"} 	c #FFFFFF",
"| 	c #FCFCFC",
"1 	c #FBFBFB",
"2 	c #FFF3FC",
"3 	c #F9FFFA",
"4 	c #EAD3CB",
"5 	c #E49A9B",
"6 	c #E8A7A1",
"7 	c #E7B5AE",
"8 	c #E9A8AE",
"9 	c #EFA7B3",
"0 	c #EFA2B4",
"a 	c #E1ACB2",
"b 	c #E4ACAB",
"c 	c #F4A9AD",
"d 	c #E2A6A6",
"e 	c #FFF6ED",
"f 	c #F6FFFB",
"g 	c #FDFCFF",
"h 	c #FEFEFE",
"i 	c #BDBDBD",
"j 	c #464646",
"k 	c #949494",
"l 	c #EBEBEB",
"m 	c #EFEFEF",
"n 	c #E7EFE4",
"o 	c #F0FCE4",
"p 	c #E26A69",
"q 	c #FF0000",
"r 	c #FFCCCC",
"s 	c #FFBBB0",
"t 	c #F2FFEF",
"u 	c #DDFDEE",
"v 	c #EEEEEE",
"w 	c #ACACAC",
"x 	c #1F1F1F",
"y 	c #8A8A8A",
"z 	c #EDEDED",
"A 	c #C9C9C9",
"B 	c #CDCDCD",
"C 	c #D1C6CC",
"D 	c #E1DCD6",
"E 	c #D2D7D0",
"F 	c #C1CBCC",
"G 	c #CBCBCB",
"H 	c #D1D1D1",
"I 	c #D0D0D0",
"J 	c #E4E4E4",
"K 	c #9F9F9F",
"L 	c #2D2D2D",
"M 	c #E1E1E1",
"N 	c #CACACA",
"O 	c #BEBEBE",
"P 	c #B6C5C8",
"Q 	c #BFDCD8",
"R 	c #D56978",
"S 	c #F62544",
"T 	c #FF3D4B",
"U 	c #FB373B",
"V 	c #FF3D3E",
"W 	c #E94D3E",
"X 	c #FF4140",
"Y 	c #EC433C",
"Z 	c #F44041",
"` 	c #FF3548",
" .	c #EC4356",
"..	c #EDADAE",
"+.	c #B8CBC9",
"@.	c #B7C5C6",
"#.	c #C2C2C2",
"$.	c #C6C6C6",
"%.	c #DBDBDB",
"&.	c #E9E9E9",
"*.	c #C1C1C1",
"=.	c #C3C3C3",
"-.	c #CBCDCA",
";.	c #CCB9BD",
">.	c #B9D3D0",
",.	c #C6DFDB",
"'.	c #CDF7ED",
").	c #C1F3E8",
"!.	c #BEF0E5",
"~.	c #B6F0E4",
"{.	c #C7F5EB",
"].	c #BBE9DF",
"^.	c #C3EBE2",
"/.	c #D2F0E8",
"(.	c #CFE6E0",
"_.	c #C3D9D6",
":.	c #D8BFC2",
"<.	c #CCC9C4",
"[.	c #C4C4C4",
"}.	c #C7C7C7",
"|.	c #252525",
"1.	c #858585",
"2.	c #E2E2E2",
"3.	c #C8C8C8",
"4.	c #C6CFCE",
"5.	c #B9D8D2",
"6.	c #C0C5C9",
"7.	c #C5C6CB",
"8.	c #C2CACD",
"9.	c #D2C2CD",
"0.	c #BEC9C5",
"a.	c #D3C8CE",
"b.	c #CACACC",
"c.	c #AACBC2",
"d.	c #B5D3C9",
"e.	c #CBC1C2",
"f.	c #CCCCCC",
"g.	c #DEDEDE",
"h.	c #959595",
"i.	c #343434",
"j.	c #8E8E8E",
"k.	c #F0F0F0",
"l.	c #CECECE",
"m.	c #2E2E2E",
"n.	c #E0E0E0",
"o.	c #C0C0C0",
"p.	c #BCBCBC",
"q.	c #C5C5C5",
"r.	c #D4D4D4",
"s.	c #2B2B2B",
"t.	c #323232",
"u.	c #4D4D4D",
"v.	c #747474",
"w.	c #646464",
"x.	c #696969",
"y.	c #686868",
"z.	c #6F6F6F",
"A.	c #6A6A6A",
"B.	c #6E6E6E",
"C.	c #555555",
"D.	c #4B4B4B",
"E.	c #4C4C4C",
"F.	c #393939",
"G.	c #3A3A3A",
"H.	c #363636",
"I.	c #383838",
"J.	c #3B3B3B",
"K.	c #3D3D3D",
"L.	c #3C3C3C",
"M.	c #505050",
". + @ @ # $ $ % & * = - ; > , ' ) ! ~ { ] ^ / ( _ / : < ",
"[ } | 1 | 2 2 3 4 5 6 7 8 9 0 a b c d e f g h } h } i j ",
"k } l l m n n o p q q q q r r q q q q s t u m v l h w x ",
"y z A A B C C D p q q q q r r q q q q s E F G H I J K L ",
"y M A N O P P Q R S T U V W X Y Z `  ...+.@.#.$.$.%.K L ",
"@ &.*.=.B -.-.;.>.,.'.).!.~.{.].^./.(._.:.<.N [.}.M k |.",
"1.2.3.B 3.A A A 4.5.6.7.8.9.0.a.b.c.d.e.A A f.A A g.h.i.",
"j.k.A B A l.l.l.l.l.l.l.l.l.f.f.f.f.f.f.f.f.B f.A l K m.",
"1.n.i [.[.O O O O O O O O O o.o.o.o.o.o.o.o.p.q.O r.j.s.",
"1.n.i [.[.O O O O O O O O O o.o.o.o.o.o.o.o.p.q.O r.j.t.",
"u.v.w.x.. : : : : : : : : : y.y.y.y.y.y.y.y.w.z.A.B.C.D.",
"+ E.F.G.G.H.I.I.I.I.I.I.I.I.J.J.J.J.J.J.J.J.K.H.G.L.M.( "};
