/* XPM */
static char * sidb_xpm[] = {
"28 12 121 2",
"  	c #626262",
". 	c #888888",
"+ 	c #818181",
"@ 	c #878787",
"# 	c #7F7F7F",
"$ 	c #757575",
"% 	c #9D9D9D",
"& 	c #B4B4B4",
"* 	c #B9B9B9",
"= 	c #AEAEAE",
"- 	c #B1B1B1",
"; 	c #ADADAD",
"> 	c #B3B3B3",
", 	c #B2B2B2",
"' 	c #ABABAB",
") 	c #B7B7B7",
"! 	c #A3A3A3",
"~ 	c #8E8E8E",
"{ 	c #7E7E7E",
"] 	c #808080",
"^ 	c #828282",
"/ 	c #6C6C6C",
"( 	c #9B9B9B",
"_ 	c #A4A4A4",
": 	c #FFFFFF",
"< 	c #FAFAFA",
"[ 	c #FCFCFC",
"} 	c #CDCDCD",
"| 	c #9E9E9E",
"1 	c #A2A2A2",
"2 	c #A6A6A6",
"3 	c #AFAFAF",
"4 	c #A9A9A9",
"5 	c #A1A1A1",
"6 	c #F4F4F4",
"7 	c #FDFDFD",
"8 	c #FEFEFE",
"9 	c #BDBDBD",
"0 	c #464646",
"a 	c #FBFBFB",
"b 	c #E9E9E9",
"c 	c #E6E6E6",
"d 	c #EBEBEB",
"e 	c #5A5A5A",
"f 	c #000000",
"g 	c #020202",
"h 	c #060606",
"i 	c #040404",
"j 	c #080808",
"k 	c #D6D6D6",
"l 	c #ECECEC",
"m 	c #EDEDED",
"n 	c #242424",
"o 	c #909090",
"p 	c #EEEEEE",
"q 	c #CFCFCF",
"r 	c #CECECE",
"s 	c #CCCCCC",
"t 	c #CBCBCB",
"u 	c #D7D7D7",
"v 	c #D1D1D1",
"w 	c #E8E8E8",
"x 	c #2C2C2C",
"y 	c #858585",
"z 	c #E3E3E3",
"A 	c #BBBBBB",
"B 	c #C7C7C7",
"C 	c #C1C1C1",
"D 	c #232323",
"E 	c #3C3C3C",
"F 	c #3D3D3D",
"G 	c #3E3E3E",
"H 	c #414141",
"I 	c #3F3F3F",
"J 	c #3A3A3A",
"K 	c #C3C3C3",
"L 	c #C5C5C5",
"M 	c #C6C6C6",
"N 	c #C4C4C4",
"O 	c #D8D8D8",
"P 	c #989898",
"Q 	c #2B2B2B",
"R 	c #E7E7E7",
"S 	c #C8C8C8",
"T 	c #D2D2D2",
"U 	c #EAEAEA",
"V 	c #EFEFEF",
"W 	c #E0E0E0",
"X 	c #C9C9C9",
"Y 	c #929292",
"Z 	c #2E2E2E",
"` 	c #E5E5E5",
" .	c #CACACA",
"..	c #D4D4D4",
"+.	c #999999",
"@.	c #313131",
"#.	c #F0F0F0",
"$.	c #D3D3D3",
"%.	c #303030",
"&.	c #868686",
"*.	c #BEBEBE",
"=.	c #BFBFBF",
"-.	c #C0C0C0",
";.	c #BABABA",
">.	c #DADADA",
",.	c #2F2F2F",
"'.	c #323232",
").	c #4C4C4C",
"!.	c #676767",
"~.	c #616161",
"{.	c #666666",
"].	c #696969",
"^.	c #6B6B6B",
"/.	c #646464",
"(.	c #6F6F6F",
"_.	c #505050",
":.	c #3B3B3B",
"<.	c #383838",
"[.	c #353535",
"}.	c #373737",
"|.	c #393939",
"  . + @ + # # $ % & * = - ; > , ' ) ! ~ { ] + ^ ^ @ / ( ",
"_ : < : [ : : : } | 1 2 3 ' 4 2 2 4 5 6 7 8 : : : : 9 0 ",
"( a b c d d d : e f g h f f g i j f f k 8 l m c c : ' n ",
"o p q r s t t : e f g h f f g i j f f k u v } r r w ( x ",
"y z A B C B B p / D E F G H I G G E J K L M N N N O P Q ",
"y R B M M S S s T b 7 U U V V p b 6 W v s C M X X b Y Z ",
". ` L M L B B L } S  .B } M B S S N ..C X X S M M W +.@.",
"o #.X r r $.q q q q q q q q q q q q q q q q v S S U | %.",
"&.u 9 M *.K =.=.=.=.=.=.=.=.-.-.-.-.-.-.-.-.C ;.;.>.~ ,.",
"&.u 9 M *.K =.=.=.=.=.=.=.=.-.-.-.-.-.-.-.-.C ;.;.>.~ '.",
")./ !./ ~.{.].].].].].].].].].].].].].].].].^././.(._.).",
"o _.:.<.[.<.G J J J J J J J J J J J J J J J J }.|.J ).^ "};
