/* XPM */
static char * sliderwhite7_3_xpm[] = {
"20 40 43 1",
" 	c None",
".	c #0000FF",
"+	c #0808F8",
"@	c #0E0EF2",
"#	c #252525",
"$	c #AAAAAA",
"%	c #3F3F3F",
"&	c #4F4F4F",
"*	c #545454",
"=	c #555555",
"-	c #797979",
";	c #9F9F9F",
">	c #B4B4B4",
",	c #BBBBBB",
"'	c #BCBCBC",
")	c #B5B5B5",
"!	c #A0A0A0",
"~	c #676767",
"{	c #CECECE",
"]	c #E4E4E4",
"^	c #EBEBEB",
"/	c #E5E5E5",
"(	c #CFCFCF",
"_	c #686868",
":	c #747474",
"<	c #F7F7F7",
"[	c #FBFBFB",
"}	c #FCFCFC",
"|	c #F8F8F8",
"1	c #787878",
"2	c #FFFFFF",
"3	c #525252",
"4	c #535353",
"5	c #414141",
"6	c #383838",
"7	c #3E3E3E",
"8	c #444444",
"9	c #484848",
"0	c #4A4A4A",
"a	c #363636",
"b	c #373737",
"c	c #393939",
"d	c #1F1F1F",
"....................",
"....................",
"....................",
"....................",
"....................",
"....................",
"....................",
"....................",
"...................+",
"...................@",
"....................",
"....................",
"....................",
"....................",
"....................",
"....................",
"....................",
"....................",
"....................",
".........#..........",
"........#$#.........",
"........#$#.........",
"........#$#.........",
".#%&*=========*&%#..",
".-;>,''''''''',)!-..",
"~;{]^^^^^^^^^^^/(!__",
":>]<[}}}}}}}}}}|/)::",
"1,^}22222222222}^,11",
"-'^}22222222222}^'--",
"-'^}22222222222}^'--",
"-'^}22222222222}^'--",
"1,^}22222222222}^,11",
":>]<[}}}}}}}}}}|/)::",
"~;{]^^^^^^^^^^^/(!__",
"3-;>,''''''''',)!-44",
"54_:1---------1:_455",
"67890000000000098766",
"ab6ccccccccccccc6baa",
"..ddddddddddddddd...",
"..ddddddddddddddd..."};
