/* XPM */
static char * sliderblack7_3_xpm[] = {
"20 40 22 1",
" 	c None",
".	c #0000FF",
"+	c #0808F8",
"@	c #0E0EF2",
"#	c #252525",
"$	c #AAAAAA",
"%	c #000000",
"&	c #2F2F2F",
"*	c #4A4A4A",
"=	c #545454",
"-	c #4C4C4C",
";	c #6C6C6C",
">	c #898989",
",	c #919191",
"'	c #939393",
")	c #8A8A8A",
"!	c #6E6E6E",
"~	c #A1A1A1",
"{	c #A7A7A7",
"]	c #A8A8A8",
"^	c #A2A2A2",
"/	c #ACACAC",
"....................",
"....................",
"....................",
"....................",
"....................",
"....................",
"....................",
"....................",
"...................+",
"...................@",
"....................",
"....................",
"....................",
"....................",
"....................",
"....................",
"....................",
"....................",
"....................",
".........#..........",
"........#$#.........",
"........#$#.........",
"........#$#.........",
".%%%%%%%%%%%%%%%%%..",
".%&*===========-&%..",
"%&;>,''''''''',)!&%%",
"%*>~{]]]]]]]]]]^)-%%",
"%=,]///////////],=%%",
"%=']///////////]'=%%",
"%=']///////////]'=%%",
"%=']///////////]'=%%",
"%=,]///////////],=%%",
"%*>~{]]]]]]]]]]^)-%%",
"%&;>,''''''''',)!&%%",
"%%&*===========-&%%%",
"%%%%%%%%%%%%%%%%%%%%",
"%%%%%%%%%%%%%%%%%%%%",
"%%%%%%%%%%%%%%%%%%%%",
".%%%%%%%%%%%%%%%%%..",
"..%%%%%%%%%%%%%%%..."};
