/* XPM */
static char * sliderwhite2_xpm[] = {
"20 20 67 1",
" 	c None",
".	c #0000FF",
"+	c #999BFF",
"@	c #E1E6C0",
"#	c #C9CED7",
"$	c #C9CBCE",
"%	c #C9C9CB",
"&	c #CBC9CB",
"*	c #CBCBCB",
"=	c #E6E9B8",
"-	c #9EA0FF",
";	c #0E0EF2",
">	c #D1E1E9",
",	c #E9FAFF",
"'	c #EEFEFF",
")	c #EBFAFE",
"!	c #F0F5F9",
"~	c #F0F3F5",
"{	c #F3F0F3",
"]	c #F0F0F0",
"^	c #F3F5EE",
"/	c #FFFFF5",
"(	c #FFFFF3",
"_	c #E4E6DC",
":	c #D3EEF9",
"<	c #FFFFFF",
"[	c #EEF0E4",
"}	c #C9CBD1",
"|	c #C9CBD7",
"1	c #F9F5F0",
"2	c #FAF5F3",
"3	c #FFF5F5",
"4	c #FEF3F3",
"5	c #FAF0F3",
"6	c #F9F0EE",
"7	c #D7D7CE",
"8	c #000000",
"9	c #E4DCD7",
"0	c #C8CED8",
"a	c #F5F5F0",
"b	c #C9CEE4",
"c	c #C9CEE1",
"d	c #C9CED8",
"e	c #CBCBD3",
"f	c #CBC9CE",
"g	c #CBC9C9",
"h	c #CEC9C9",
"i	c #C9CBCB",
"j	c #C9CEDD",
"k	c #C9CEDC",
"l	c #CBCBCE",
"m	c #CBCED1",
"n	c #ACACB2",
"o	c #ACB0B2",
"p	c #A9ACB0",
"q	c #A9A9AC",
"r	c #A9ACAC",
"s	c #ACA9A9",
"t	c #696BA9",
"u	c #949781",
"v	c #868A8D",
"w	c #86878A",
"x	c #868687",
"y	c #878687",
"z	c #878787",
"A	c #97997C",
"B	c #6C6EA5",
"....................",
"....................",
"....................",
"....................",
".+@#$%&&&&&&&&&&*=-;",
">,')!~{{{{{{]]]]^/(_",
":<<<<<<<<<<<<<<<<<<[",
"}}#||123334566}}#||7",
"88888823334599888888",
"88888823334599888888",
"0<<<a123334566<<<<<7",
"0<<<a123334566<<<<<7",
"bcdef&ggghhhii}}#|||",
"jkdel&&&&gggllllm}}}",
"nnnopqqqqrrrsssssrrr",
".tuvwxyyyyyyyyyyzAB;",
"....................",
"....................",
"....................",
"...................."};
