/* XPM */
static char * sliderred7_1_xpm[] = {
"20 40 81 1",
" 	c None",
".	c #0000FF",
"+	c #020000",
"@	c #230202",
"#	c #340303",
"$	c #3E0303",
"%	c #450404",
"&	c #460404",
"*	c #660606",
"=	c #861717",
"-	c #982F2F",
";	c #A44141",
">	c #A74646",
",	c #A84747",
"'	c #540505",
")	c #BF7070",
"!	c #CB8787",
"~	c #CF9090",
"{	c #D09393",
"]	c #680606",
"^	c #D9A5A5",
"/	c #E5C0C0",
"(	c #EACDCD",
"_	c #760707",
":	c #A23D3D",
"<	c #CA8585",
"[	c #E3BBBB",
"}	c #F0DADA",
"|	c #F4E5E5",
"1	c #F6E8E8",
"2	c #A33F3F",
"3	c #E4BEBE",
"4	c #F2E0E0",
"5	c #F8EDED",
"6	c #6A0606",
"7	c #9A3232",
"8	c #C17474",
"9	c #DBAAAA",
"0	c #E8C8C8",
"a	c #EDD2D2",
"b	c #EFD8D8",
"c	c #6B0606",
"d	c #5C0505",
"e	c #8C1F1F",
"f	c #B05555",
"g	c #C98383",
"h	c #D59C9C",
"i	c #490404",
"j	c #7C0C0C",
"k	c #993131",
"l	c #BB6868",
"m	c #C07272",
"n	c #BC6A6A",
"o	c #6D0707",
"p	c #891B1B",
"q	c #972E2E",
"r	c #9C3535",
"s	c #A03A3A",
"t	c #710707",
"u	c #8A1C1C",
"v	c #9F3939",
"w	c #942A2A",
"x	c #3B0303",
"y	c #7B0B0B",
"z	c #8B1D1D",
"A	c #8D2020",
"B	c #300303",
"C	c #750707",
"D	c #480404",
"E	c #320303",
"F	c #260202",
"G	c #1C0101",
"H	c #210202",
"I	c #290202",
"J	c #2A0202",
"K	c #170101",
"L	c #180101",
"M	c #1B0101",
"N	c #000000",
"O	c #252525",
"P	c #AAAAAA",
"....................",
"....................",
"....................",
".+@#$%&&&&&&&&%$#@..",
"$*=-;>,,,,,,,,>;-=*$",
"'=>)!~{{{{{{{{~!)>='",
"]-)^/((((((((((/^)-]",
"_:<[}|111111111}[<2_",
"_2!34155555555143!2_",
"67890abbbbbbbba0987c",
"defgh9999999999hgfed",
"ijkflm88888888mnfkji",
"%opqrssssssssssrqpo%",
"&tu-vs::::::::ss-ut&",
"%6=wkrrrrrrrrrrkw=6%",
"xdy=zeAAAAAAAAez=ydx",
"B&dcC__________CcdDE",
"FEx%iiiiiiiiiiii%xEF",
"GHFIJJJJJJJJJJJJIFHG",
"KLMGGGGGGGGGGGGGGMLK",
".NNNNNNNNNNNNNNNNN..",
".........OPO........",
".........OPO........",
".........OPO........",
"..........O.........",
"....................",
"....................",
"....................",
"....................",
"....................",
"....................",
"....................",
"....................",
"....................",
"....................",
"....................",
"....................",
"....................",
"....................",
"...................."};
