/* XPM */
static char * sliderblack7_1_xpm[] = {
"20 40 60 1",
" 	c None",
".	c #0000FF",
"+	c #000000",
"@	c #141414",
"#	c #363636",
"$	c #484848",
"%	c #515151",
"&	c #525252",
"*	c #7A7A7A",
"=	c #919191",
"-	c #999999",
";	c #9B9B9B",
">	c #353535",
",	c #A9A9A9",
"'	c #BFBFBF",
")	c #C7C7C7",
"!	c #CACACA",
"~	c #454545",
"{	c #8D8D8D",
"]	c #BDBDBD",
"^	c #D3D3D3",
"/	c #DBDBDB",
"(	c #DEDEDE",
"_	c #DCDCDC",
":	c #474747",
"<	c #8F8F8F",
"[	c #D4D4D4",
"}	c #E0E0E0",
"|	c #3A3A3A",
"1	c #7F7F7F",
"2	c #ADADAD",
"3	c #C4C4C4",
"4	c #CCCCCC",
"5	c #CFCFCF",
"6	c #1F1F1F",
"7	c #616161",
"8	c #8C8C8C",
"9	c #A3A3A3",
"0	c #ABABAB",
"a	c #AEAEAE",
"b	c #383838",
"c	c #757575",
"d	c #7D7D7D",
"e	c #808080",
"f	c #171717",
"g	c #313131",
"h	c #3E3E3E",
"i	c #424242",
"j	c #434343",
"k	c #1A1A1A",
"l	c #333333",
"m	c #404040",
"n	c #121212",
"o	c #2C2C2C",
"p	c #3B3B3B",
"q	c #3D3D3D",
"r	c #1C1C1C",
"s	c #212121",
"t	c #252525",
"u	c #AAAAAA",
"....................",
"....................",
"....................",
".+++++++++++++++++..",
"++@#$%&&&&&&&&%$#@++",
"+@%*=-;;;;;;;;-=*%@+",
"+>*,')!!!!!!!!)',*#+",
"+~{]^/((((((((_^]{:+",
"+:<][_}}}}}}}}([]<:+",
"+|1234555555554321|+",
"+67890aaaaaaaa09876+",
"++b7cdeeeeeeeedc7b++",
"++fghijjjjjjjjihgf++",
"++klhj~~~~~~~~jmlk++",
"++nobpqqqqqqqqpbon++",
"+++nr6ssssssss6rn+++",
"++++++++++++++++++++",
"++++++++++++++++++++",
"++++++++++++++++++++",
"++++++++++++++++++++",
".+++++++++++++++++..",
".........tut........",
".........tut........",
".........tut........",
"..........t.........",
"....................",
"....................",
"....................",
"....................",
"....................",
"....................",
"....................",
"....................",
"....................",
"....................",
"....................",
"....................",
"....................",
"....................",
"...................."};
