/* XPM */
static char * sliderwhite7_2_xpm[] = {
"20 40 40 1",
" 	c None",
".	c #0000FF",
"+	c #252525",
"@	c #3F3F3F",
"#	c #4F4F4F",
"$	c #545454",
"%	c #555555",
"&	c #535353",
"*	c #797979",
"=	c #9F9F9F",
"-	c #B4B4B4",
";	c #BBBBBB",
">	c #BCBCBC",
",	c #B5B5B5",
"'	c #A0A0A0",
")	c #676767",
"!	c #CECECE",
"~	c #E4E4E4",
"{	c #EBEBEB",
"]	c #E5E5E5",
"^	c #CFCFCF",
"/	c #686868",
"(	c #747474",
"_	c #B3B3B3",
":	c #E3E3E3",
"<	c #F7F7F7",
"[	c #FBFBFB",
"}	c #FCFCFC",
"|	c #414141",
"1	c #757575",
"2	c #787878",
"3	c #393939",
"4	c #3E3E3E",
"5	c #454545",
"6	c #494949",
"7	c #4A4A4A",
"8	c #363636",
"9	c #373737",
"0	c #3A3A3A",
"a	c #000000",
"....................",
"....................",
"....................",
"....................",
"....................",
"....................",
"....................",
"....................",
"....................",
"....................",
"....................",
"....................",
"....................",
"....................",
".+@#$%%%%%%%%%$#@+..",
"&*=-;>>>>>>>>>;,'*$$",
")=!~{{{{{{{{{{{]^'//",
"(_:<[}}}}}}}}}}<~_((",
"(_:<[}}}}}}}}}}<~_((",
")=!~{{{{{{{{{{{]^'//",
"&*=-;>>>>>>>>>;,'*$$",
"|$/12*********21/$||",
"34567777777777765433",
"89300000000000003988",
"88888888888888888888",
"88888888888888888888",
".aaaaaaaaaaaaaaaaa..",
"....................",
"....................",
"....................",
"....................",
"....................",
"....................",
"....................",
"....................",
"....................",
"....................",
"....................",
"....................",
"...................."};
