/* XPM */
static char * slidergrey7_2_xpm[] = {
"20 40 36 1",
" 	c None",
".	c #0000FF",
"+	c #252525",
"@	c #3F3F3F",
"#	c #4F4F4F",
"$	c #545454",
"%	c #555555",
"&	c #242424",
"*	c #3E3E3E",
"=	c #626262",
"-	c #757575",
";	c #7C7C7C",
">	c #7D7D7D",
",	c #767676",
"'	c #8E8E8E",
")	c #A2A2A2",
"!	c #A8A8A8",
"~	c #A9A9A9",
"{	c #A3A3A3",
"]	c #4E4E4E",
"^	c #A1A1A1",
"/	c #B4B4B4",
"(	c #B7B7B7",
"_	c #B8B8B8",
":	c #0E0E0E",
"<	c #1B1B1B",
"[	c #2E2E2E",
"}	c #3A3A3A",
"|	c #030303",
"1	c #070707",
"2	c #0D0D0D",
"3	c #111111",
"4	c #121212",
"5	c #000000",
"6	c #010101",
"7	c #020202",
"....................",
"....................",
"....................",
"....................",
"....................",
"....................",
"....................",
"....................",
"....................",
"....................",
"....................",
"....................",
"....................",
"....................",
".+@#$%%%%%%%%%$#@+..",
"&*=-;>>>>>>>>>;,=*++",
"*=')!~~~~~~~~~!{'=@@",
"]-^/(__________/)-]]",
"]-^/(__________/)-]]",
"*=')!~~~~~~~~~!{'=@@",
"&*=-;>>>>>>>>>;,=*++",
":<[}***********}[<::",
"|12344444444444321||",
"567|||||||||||||7655",
"55555555555555555555",
"55555555555555555555",
".55555555555555555..",
"....................",
"....................",
"....................",
"....................",
"....................",
"....................",
"....................",
"....................",
"....................",
"....................",
"....................",
"....................",
"...................."};
