/* XPM */
static char * sliderred7_3_xpm[] = {
"20 40 43 1",
" 	c None",
".	c #0000FF",
"+	c #0808F8",
"@	c #0E0EF2",
"#	c #252525",
"$	c #AAAAAA",
"%	c #070000",
"&	c #170000",
"*	c #240101",
"=	c #2A0101",
"-	c #2B0101",
";	c #570303",
">	c #8A1616",
",	c #9D3030",
"'	c #A33939",
")	c #A43B3B",
"!	c #9F3333",
"~	c #8C1818",
"{	c #3F0202",
"]	c #B65959",
"^	c #CC8484",
"/	c #D18F8F",
"(	c #B85D5D",
"_	c #420202",
":	c #510303",
"<	c #DCA9A9",
"[	c #E2B5B5",
"}	c #E3B8B8",
"|	c #DDABAB",
"1	c #560303",
"2	c #E5BDBD",
"3	c #280101",
"4	c #180000",
"5	c #120000",
"6	c #160000",
"7	c #1B0101",
"8	c #1E0101",
"9	c #1F0101",
"0	c #100000",
"a	c #110000",
"b	c #130000",
"c	c #010000",
"d	c #000000",
"....................",
"....................",
"....................",
"....................",
"....................",
"....................",
"....................",
"....................",
"...................+",
"...................@",
"....................",
"....................",
"....................",
"....................",
"....................",
"....................",
"....................",
"....................",
"....................",
".........#..........",
"........#$#.........",
"........#$#.........",
"........#$#.........",
".%&*=---------=*&%..",
".;>,')))))))))'!~;..",
"{>]^///////////^(~__",
":,^<[}}}}}}}}}}|^!::",
"1'/}22222222222}/'11",
";)/}22222222222}/);;",
";)/}22222222222}/);;",
";)/}22222222222}/);;",
"1'/}22222222222}/'11",
":,^<[}}}}}}}}}}|^!::",
"{>]^///////////^(~__",
"3;>,')))))))))'!~;33",
"43_:1;;;;;;;;;1:_344",
"56789999999999987655",
"0a5bbbbbbbbbbbbb5a00",
".00000000000000000..",
".cdddddddddddddddc.."};
