/* XPM */
static char * slidergrey_xpm[] = {
"20 20 77 1",
" 	c None",
".	c #0000FF",
"+	c #585AAE",
"@	c #919577",
"#	c #7E8289",
"$	c #7E8082",
"%	c #7E7E80",
"&	c #807E80",
"*	c #808080",
"=	c #959771",
"-	c #5C5EA9",
";	c #0E0EF2",
">	c #849197",
",	c #97A5AC",
"'	c #9BA8AE",
")	c #99A5A8",
"!	c #9DA1A4",
"~	c #9D9FA1",
"{	c #9F9D9F",
"]	c #9D9D9D",
"^	c #9FA19B",
"/	c #A9AEA1",
"(	c #A9AE9F",
"_	c #93958D",
":	c #869BA4",
"<	c #A9B7B7",
"[	c #B2B7B7",
"}	c #B0B7B7",
"|	c #B3B7B7",
"1	c #B5B7B7",
"2	c #B7B7B7",
"3	c #B7B5B7",
"4	c #B7B5B5",
"5	c #B7B5B2",
"6	c #B7B7B2",
"7	c #B7B7B5",
"8	c #9B9D93",
"9	c #7E8084",
"0	c #7E8089",
"a	c #A4A19D",
"b	c #A5A19F",
"c	c #A9A1A1",
"d	c #A89F9F",
"e	c #A59D9F",
"f	c #A49D9B",
"g	c #898982",
"h	c #FFFFFF",
"i	c #938D89",
"j	c #7D828A",
"k	c #A1A19D",
"l	c #7E8293",
"m	c #7E8291",
"n	c #7E828A",
"o	c #808086",
"p	c #807E82",
"q	c #807E7E",
"r	c #827E7E",
"s	c #7E8080",
"t	c #7E828E",
"u	c #7E828D",
"v	c #808082",
"w	c #808284",
"x	c #67676C",
"y	c #676A6C",
"z	c #65676A",
"A	c #656567",
"B	c #656767",
"C	c #676565",
"D	c #323465",
"E	c #545745",
"F	c #494C4F",
"G	c #494A4C",
"H	c #49494A",
"I	c #4A494A",
"J	c #4A4A4A",
"K	c #575841",
"L	c #353662",
"....................",
"....................",
"....................",
"....................",
".+@#$%&&&&&&&&&&*=-;",
">,')!~{{{{{{]]]]^/(_",
":<[}|123333344556278",
"99#00abcccdeff99#00g",
"hhhhhabcccdeiihhhhhh",
"hhhhhabcccdeiihhhhhh",
"j556kabcccdeff55556g",
"j556kabcccdeff55556g",
"lmnop&qqqrrrss99#000",
"tunov&&&&qqqvvvvw999",
"xxxyzAAAABBBCCCCCBBB",
".DEFGHIIIIIIIIIIJKL;",
"....................",
"....................",
"....................",
"...................."};
