/* XPM */
static char * sliderblack6_xpm[] = {
"20 20 60 1",
" 	c None",
".	c #0000FF",
"+	c #000048",
"@	c #2A2E0F",
"#	c #171B21",
"$	c #17191B",
"%	c #171719",
"&	c #191719",
"*	c #191919",
"=	c #2E3009",
"-	c #000044",
";	c #0E0EF2",
">	c #1D2A30",
",	c #303F46",
"'	c #354148",
")	c #323F41",
"!	c #373B3D",
"~	c #37393B",
"{	c #393739",
"]	c #373737",
"^	c #393B35",
"/	c #44483B",
"(	c #444839",
"_	c #2C2E26",
":	c #1F353D",
"<	c #44585C",
"[	c #4C6262",
"}	c #4A5E60",
"|	c #4E565A",
"1	c #4F5458",
"2	c #515156",
"3	c #544F54",
"4	c #514F4F",
"5	c #514F4C",
"6	c #54544C",
"7	c #606554",
"8	c #5E604F",
"9	c #35372C",
"0	c #17191D",
"a	c #171921",
"b	c #3D3B37",
"c	c #3F3B39",
"d	c #443B3B",
"e	c #413939",
"f	c #3F3739",
"g	c #3D3735",
"h	c #21211B",
"i	c #FFFFFF",
"j	c #2C2621",
"k	c #161B24",
"l	c #3B3B37",
"m	c #171B2C",
"n	c #171B28",
"o	c #171B26",
"p	c #171B24",
"q	c #19191F",
"r	c #19191B",
"s	c #191717",
"t	c #191B1D",
"u	c #000000",
"....................",
"....................",
"....................",
"....................",
".+@#$%&&&&&&&&&&*=-;",
">,')!~{{{{{{]]]]^/(_",
":<[}|123333344556789",
"00#aabcdddefgg00#aah",
"00#aabcdddefgg00#aah",
"iiiiibcdddefjjiiiiii",
"iiiiibcdddefjjiiiiii",
"k556lbcdddefgg55556h",
"m556lbcdddefgg55556h",
"nopqr&&&&sssrrrrt000",
"nopqr&&&&sssrrrrt000",
".uuuuuuuuuuuuuuuuuu;",
"....................",
"....................",
"....................",
"...................."};
