/* XPM */
static char * sliderblack5_xpm[] = {
"13 20 62 1",
" 	c None",
".	c #0000FF",
"+	c #05070F",
"@	c #040810",
"#	c #040A11",
"$	c #040607",
"%	c #040405",
"&	c #050405",
"*	c #050605",
"=	c #0D0F08",
"-	c #050706",
";	c #0E202B",
">	c #2B4148",
",	c #2B3D3F",
"'	c #303538",
")	c #353035",
"!	c #313130",
"~	c #33372D",
"{	c #494E3A",
"]	c #1A1D15",
"^	c #13313D",
"/	c #4D6A6E",
"(	c #555D62",
"_	c #5B555B",
":	c #585653",
"<	c #5A5F4E",
"[	c #73795F",
"}	c #24271A",
"|	c #040D15",
"1	c #30362B",
"2	c #3B3732",
"3	c #3F3636",
"4	c #443638",
"5	c #3E3133",
"6	c #3E3032",
"7	c #37302B",
"8	c #2A2C1F",
"9	c #1E1D0F",
"0	c #12130A",
"a	c #828C86",
"b	c #FFFFFF",
"c	c #8A8877",
"d	c #040921",
"e	c #04081B",
"f	c #050406",
"g	c #060404",
"h	c #090404",
"i	c #040609",
"j	c #040612",
"k	c #04081A",
"l	c #040817",
"m	c #050506",
"n	c #060405",
"o	c #070404",
"p	c #050508",
"q	c #05080C",
"r	c #04060D",
"s	c #04050D",
"t	c #05080F",
"u	c #040506",
"v	c #040505",
"w	c #040605",
".............",
"+@#$%&&&&&*=-",
"+@#$%&&&&&*=-",
";>,''))))!~{]",
";>,''))))!~{]",
"^//((____:<[}",
"^//((____:<[}",
"|112234567890",
"|112234567890",
"aabbbbbbbbbc8",
"|112234567890",
"|112234567890",
"de+f&ghhgi#jj",
"kl+m&noonpqrs",
"kl+m&noonpqrs",
"++tu%%vv%gowv",
"++tu%%vv%gowv",
"+@#$%&&&&&*=-",
"+@#$%&&&&&*=-",
"............."};
