/* XPM */
static char * sliderblack7_2_xpm[] = {
"20 40 21 1",
" 	c None",
".	c #0000FF",
"+	c #000000",
"@	c #0A0A0A",
"#	c #101010",
"$	c #111111",
"%	c #464646",
"&	c #646464",
"*	c #6E6E6E",
"=	c #878787",
"-	c #A7A7A7",
";	c #AFAFAF",
">	c #B1B1B1",
",	c #A8A8A8",
"'	c #898989",
")	c #090909",
"!	c #626262",
"~	c #A5A5A5",
"{	c #C0C0C0",
"]	c #C6C6C6",
"^	c #C7C7C7",
"....................",
"....................",
"....................",
"....................",
"....................",
"....................",
"....................",
"....................",
"....................",
"....................",
"....................",
"....................",
"....................",
"....................",
".++@#$$$$$$$$$#@++..",
"+$%&***********&%$++",
"+%=-;>>>>>>>>>;,'%++",
")!~{]^^^^^^^^^^{-!))",
")!~{]^^^^^^^^^^{-!))",
"+%=-;>>>>>>>>>;,'%++",
"+$%&***********&%$++",
"+++@#$$$$$$$$$#@++++",
"++++++++++++++++++++",
"++++++++++++++++++++",
"++++++++++++++++++++",
"++++++++++++++++++++",
".+++++++++++++++++..",
"....................",
"....................",
"....................",
"....................",
"....................",
"....................",
"....................",
"....................",
"....................",
"....................",
"....................",
"....................",
"...................."};
