/* XPM */
static char * solinaOn_xpm[] = {
"48 21 8 1",
" 	c None",
".	c #000000",
"+	c #a20E15",
"@	c #AD1620",
"#	c #FF0000",
"$	c #FFFFFF",
"%	c #000000",
"&	c #7F7F7F",
".++++++++++++++++++++++++++++++++++++++++++++++.",
".++++++++++++@@@@@@@@@@@@@@@@@@@@@+++++++++++++.",
".+++++++++++@@@@@@@@@#########@@@@@@+++++++++++.",
".++++++++++@@@@@@@###############@@@@++++++++++.",
".+++++++++@@@@@@@################@@@@@+++++++++.",
".++++++++@@@@@@@##################@@@@@++++++++.",
".+++++++@@@@@@@###################@@@@@++++++++.",
".++++++@@@@@@@#####################@@@@@+++++++.",
".+++++@@@@@@@#######$$$$$###########@@@@@++++++.",
".++++@@@@@@@@######$$$$$$$##########@@@@@++++++.",
".+++++@@@@@@#######$$$$$$$##########@@@++++++++.",
".+++++@@@@@@########$$$$$##########@@@@++++++++.",
".++++++@@@@@@######################@@@+++++++++.",
".++++++@@@@@@######################@@@+++++++++.",
".+++++++@@@@@@####################@@@@+++++++++.",
".++++++++@@@@@@#################@@@@@++++++++++.",
".+++++++++@@@@@@@@#############@@@@@+++++++++++.",
".++++++++++++@@@@@@@@@@@@@@@@@@@@@+++++++++++++.",
".+++++++++++++++@@@@@@@@@@@@@@@@@@+++++++++++++.",
".++++++++++++++++@@@@@@@@@@@@@@@@++++++++++++++.",
"................................................"};
