/* XPM */
static char * sonicrocker_d_xpm[] = {
"26 42 1044 2",
"  	c #708990",
". 	c #58656B",
"+ 	c #555D60",
"@ 	c #59625F",
"# 	c #585E5A",
"$ 	c #5A585B",
"% 	c #59585D",
"& 	c #53585E",
"* 	c #565759",
"= 	c #615652",
"- 	c #7D6259",
"; 	c #93675E",
"> 	c #926457",
", 	c #876353",
"' 	c #775D4E",
") 	c #594B40",
"! 	c #524B45",
"~ 	c #4F4B48",
"{ 	c #4B4A48",
"] 	c #4E4A47",
"^ 	c #46454A",
"/ 	c #45454D",
"( 	c #484C55",
"_ 	c #3D4B54",
": 	c #5A7681",
"< 	c #62797C",
"[ 	c #4A5254",
"} 	c #474846",
"| 	c #4B4D44",
"1 	c #4B4941",
"2 	c #4D4543",
"3 	c #4E4546",
"4 	c #484446",
"5 	c #4B4643",
"6 	c #54443D",
"7 	c #674B41",
"8 	c #784D43",
"9 	c #774A3D",
"0 	c #704B3B",
"a 	c #634738",
"b 	c #594435",
"c 	c #54463A",
"d 	c #54483F",
"e 	c #50473E",
"f 	c #52463D",
"g 	c #51463E",
"h 	c #4D4141",
"i 	c #4C4347",
"j 	c #4B4A50",
"k 	c #394149",
"l 	c #526872",
"m 	c #576B6A",
"n 	c #464643",
"o 	c #473E36",
"p 	c #4B4233",
"q 	c #4C4032",
"r 	c #4E3D34",
"s 	c #513F39",
"t 	c #4C3E39",
"u 	c #504038",
"v 	c #553E34",
"w 	c #604135",
"x 	c #6B4134",
"y 	c #6B3F31",
"z 	c #674231",
"A 	c #5F4030",
"B 	c #604331",
"C 	c #5E4734",
"D 	c #5F4A3B",
"E 	c #5D4839",
"F 	c #5D4736",
"G 	c #5E4738",
"H 	c #5A443D",
"I 	c #594745",
"J 	c #544A4D",
"K 	c #3C3C42",
"L 	c #4E5E67",
"M 	c #546560",
"N 	c #534B42",
"O 	c #5B493C",
"P 	c #5E4A38",
"Q 	c #604A39",
"R 	c #62473A",
"S 	c #664B40",
"T 	c #634D40",
"U 	c #674E40",
"V 	c #6A4D3E",
"W 	c #714D3E",
"X 	c #774D3E",
"Y 	c #784D3D",
"Z 	c #75503E",
"` 	c #73503D",
" .	c #704D38",
"..	c #70503A",
"+.	c #71523E",
"@.	c #6F503C",
"#.	c #6F4F37",
"$.	c #6F4F3B",
"%.	c #6C4D41",
"&.	c #6C514B",
"*.	c #63504F",
"=.	c #464044",
"-.	c #505D65",
";.	c #55635B",
">.	c #5C4E43",
",.	c #6B503E",
"'.	c #6A4E38",
").	c #6E503B",
"!.	c #6D4B3A",
"~.	c #72503F",
"{.	c #71523F",
"].	c #72523F",
"^.	c #73523D",
"/.	c #76513D",
"(.	c #7A503E",
"_.	c #77523E",
":.	c #78523A",
"<.	c #7B553D",
"[.	c #7B573F",
"}.	c #79533B",
"|.	c #7A5438",
"1.	c #7A553B",
"2.	c #795241",
"3.	c #77564B",
"4.	c #68514E",
"5.	c #463D3F",
"6.	c #4E5960",
"7.	c #57635A",
"8.	c #635245",
"9.	c #775541",
"0.	c #714E37",
"a.	c #755039",
"b.	c #744C38",
"c.	c #79513D",
"d.	c #79533C",
"e.	c #78533B",
"f.	c #79543A",
"g.	c #79533A",
"h.	c #7B523D",
"i.	c #78523C",
"j.	c #7D543B",
"k.	c #82563E",
"l.	c #82583F",
"m.	c #80543B",
"n.	c #815738",
"o.	c #82583B",
"p.	c #815541",
"q.	c #7E594A",
"r.	c #6E544F",
"s.	c #433939",
"t.	c #4D555C",
"u.	c #5A655D",
"v.	c #6A5547",
"w.	c #7E5643",
"x.	c #744B33",
"y.	c #764B32",
"z.	c #764932",
"A.	c #7E513B",
"B.	c #7E5338",
"C.	c #7B5336",
"D.	c #7B5538",
"E.	c #7E543C",
"F.	c #7F553D",
"G.	c #7D553C",
"H.	c #7E543D",
"I.	c #80543C",
"J.	c #83563E",
"K.	c #855840",
"L.	c #83553B",
"M.	c #865838",
"N.	c #88593C",
"O.	c #84573F",
"P.	c #7F5948",
"Q.	c #765C55",
"R.	c #423636",
"S.	c #4C5359",
"T.	c #606A64",
"U.	c #6F5747",
"V.	c #865A45",
"W.	c #7E5139",
"X.	c #805137",
"Y.	c #7C4B34",
"Z.	c #814F37",
"`.	c #85573A",
" +	c #805535",
".+	c #805637",
"++	c #7F5739",
"@+	c #82583C",
"#+	c #84593F",
"$+	c #83593D",
"%+	c #84583F",
"&+	c #855742",
"*+	c #885944",
"=+	c #8A5B45",
"-+	c #8A5A40",
";+	c #8C5D3C",
">+	c #8E5E3E",
",+	c #885A3F",
"'+	c #835A49",
")+	c #7D625A",
"!+	c #3E3332",
"~+	c #4B5358",
"{+	c #67706B",
"]+	c #725847",
"^+	c #8C5F48",
"/+	c #895841",
"(+	c #8A583F",
"_+	c #834F39",
":+	c #834F37",
"<+	c #8A5A3C",
"[+	c #855736",
"}+	c #845938",
"|+	c #82593B",
"1+	c #855C3D",
"2+	c #895C41",
"3+	c #885C3E",
"4+	c #875B40",
"5+	c #8A5A47",
"6+	c #8C5C49",
"7+	c #8F5E49",
"8+	c #905E45",
"9+	c #926141",
"0+	c #926241",
"a+	c #8C5D40",
"b+	c #855C4A",
"c+	c #80655C",
"d+	c #3C3231",
"e+	c #4A5358",
"f+	c #6C7570",
"g+	c #91644D",
"h+	c #8B5B44",
"i+	c #8B5741",
"j+	c #88513D",
"k+	c #88543C",
"l+	c #8A5B3D",
"m+	c #865837",
"n+	c #875C3C",
"o+	c #835B3C",
"p+	c #885D3F",
"q+	c #8A5D40",
"r+	c #8B5E3F",
"s+	c #875A40",
"t+	c #8B5B47",
"u+	c #8C5B4A",
"v+	c #915E4B",
"w+	c #926047",
"x+	c #936242",
"y+	c #926443",
"z+	c #8E5E42",
"A+	c #855E4A",
"B+	c #7D655D",
"C+	c #3D3734",
"D+	c #4C565B",
"E+	c #6F5544",
"F+	c #946750",
"G+	c #8C5C45",
"H+	c #8A5640",
"I+	c #89523E",
"J+	c #8A563F",
"K+	c #8C5D3F",
"L+	c #875B3A",
"M+	c #895F3F",
"N+	c #875D40",
"O+	c #8C5F43",
"P+	c #8C5E41",
"Q+	c #8E6142",
"R+	c #8B5D43",
"S+	c #8C5C48",
"T+	c #915D4A",
"U+	c #936342",
"V+	c #926543",
"W+	c #8E6043",
"X+	c #85604A",
"Y+	c #776259",
"Z+	c #3B3835",
"`+	c #4B585A",
" @	c #69726D",
".@	c #6C5241",
"+@	c #966A52",
"@@	c #8D5D46",
"#@	c #8A5340",
"$@	c #8B5742",
"%@	c #8E5F41",
"&@	c #895E3F",
"*@	c #896043",
"=@	c #8B5F44",
"-@	c #8F6147",
";@	c #8E5F43",
">@	c #916244",
",@	c #906147",
"'@	c #8D5D49",
")@	c #905D48",
"!@	c #915F46",
"~@	c #926544",
"{@	c #8E6144",
"]@	c #85614B",
"^@	c #705F54",
"/@	c #383735",
"(@	c #4A5859",
"_@	c #69746E",
":@	c #6B5440",
"<@	c #996F56",
"[@	c #91624B",
"}@	c #8E5A45",
"|@	c #905847",
"1@	c #905C47",
"2@	c #8E5F44",
"3@	c #8A5F42",
"4@	c #8B6148",
"5@	c #8C6047",
"6@	c #916149",
"7@	c #946348",
"8@	c #936148",
"9@	c #91614D",
"0@	c #905F4C",
"a@	c #93614B",
"b@	c #946247",
"c@	c #946645",
"d@	c #946746",
"e@	c #906346",
"f@	c #88654E",
"g@	c #6C5B51",
"h@	c #363634",
"i@	c #68736D",
"j@	c #6B5541",
"k@	c #997057",
"l@	c #93654E",
"m@	c #905E49",
"n@	c #935C4A",
"o@	c #925E49",
"p@	c #8D5E46",
"q@	c #8C6146",
"r@	c #8E634D",
"s@	c #8E614C",
"t@	c #91614B",
"u@	c #94624A",
"v@	c #96634C",
"w@	c #936048",
"x@	c #94624E",
"y@	c #93624D",
"z@	c #97654D",
"A@	c #966448",
"B@	c #926548",
"C@	c #8B6853",
"D@	c #6A5A50",
"E@	c #373835",
"F@	c #4A595A",
"G@	c #67726C",
"H@	c #6B5643",
"I@	c #976F56",
"J@	c #94664F",
"K@	c #92624C",
"L@	c #94604B",
"M@	c #8F634A",
"N@	c #926550",
"O@	c #916451",
"P@	c #96644D",
"Q@	c #98644E",
"R@	c #935F49",
"S@	c #96634E",
"T@	c #9B674F",
"U@	c #996649",
"V@	c #936647",
"W@	c #936649",
"X@	c #8F6C58",
"Y@	c #695B52",
"Z@	c #393B38",
"`@	c #4B5B5B",
" #	c #68736F",
".#	c #6F5948",
"+#	c #986E56",
"@#	c #986A53",
"##	c #976751",
"$#	c #98644F",
"%#	c #95614B",
"&#	c #905F46",
"*#	c #91634B",
"=#	c #936552",
"-#	c #936553",
";#	c #92634D",
">#	c #97654E",
",#	c #9A6751",
"'#	c #9A6850",
")#	c #9F6A50",
"!#	c #9E694C",
"~#	c #986849",
"{#	c #97694C",
"]#	c #986A4E",
"^#	c #94705C",
"/#	c #685951",
"(#	c #3C3E3C",
"_#	c #4D5D5D",
":#	c #687471",
"<#	c #6F5849",
"[#	c #9A6D55",
"}#	c #996953",
"|#	c #98654F",
"1#	c #97634C",
"2#	c #946148",
"3#	c #92624B",
"4#	c #936352",
"5#	c #956554",
"6#	c #94644D",
"7#	c #98634F",
"8#	c #97634E",
"9#	c #9C6952",
"0#	c #9B684F",
"a#	c #9F694F",
"b#	c #9E684C",
"c#	c #9A694C",
"d#	c #996A4F",
"e#	c #9B6B52",
"f#	c #97725F",
"g#	c #63544D",
"h#	c #3B3E3D",
"i#	c #697573",
"j#	c #6B5446",
"k#	c #976D57",
"l#	c #9A6C55",
"m#	c #966650",
"n#	c #95634C",
"o#	c #97634B",
"p#	c #93614A",
"q#	c #926150",
"r#	c #976655",
"s#	c #99624E",
"t#	c #9D6652",
"u#	c #9C6850",
"v#	c #98654A",
"w#	c #9B654B",
"x#	c #9A644A",
"y#	c #99674E",
"z#	c #996A50",
"A#	c #9B6B55",
"B#	c #977262",
"C#	c #5B4C46",
"D#	c #373B3C",
"E#	c #4A5C5C",
"F#	c #6F7A7A",
"G#	c #695043",
"H#	c #9B6D5A",
"I#	c #996A55",
"J#	c #95644E",
"K#	c #95634B",
"L#	c #97644A",
"M#	c #9A634B",
"N#	c #96614A",
"O#	c #94604F",
"P#	c #996654",
"Q#	c #97644C",
"R#	c #97654B",
"S#	c #9A624E",
"T#	c #99654B",
"U#	c #9B644C",
"V#	c #9B634B",
"W#	c #99664F",
"X#	c #9B6952",
"Y#	c #9D6C59",
"Z#	c #9A7467",
"`#	c #534442",
" $	c #33383A",
".$	c #465A59",
"+$	c #757E81",
"@$	c #664B42",
"#$	c #9B6C5B",
"$$	c #956653",
"%$	c #94634A",
"&$	c #986047",
"*$	c #976149",
"=$	c #95604D",
"-$	c #986552",
";$	c #936248",
">$	c #96654A",
",$	c #98614C",
"'$	c #98624E",
")$	c #98654D",
"!$	c #96624B",
"~$	c #99624B",
"{$	c #98614A",
"]$	c #95614C",
"^$	c #976551",
"/$	c #9A6A59",
"($	c #9A756A",
"_$	c #4D403F",
":$	c #303639",
"<$	c #435756",
"[$	c #788186",
"}$	c #614742",
"|$	c #96695B",
"1$	c #8D5F4E",
"2$	c #8C5D48",
"3$	c #906049",
"4$	c #8E5C42",
"5$	c #8E5A42",
"6$	c #935F47",
"7$	c #925E4C",
"8$	c #8C5E44",
"9$	c #936449",
"0$	c #8E5A47",
"a$	c #8F5E48",
"b$	c #8F5C47",
"c$	c #905B46",
"d$	c #8B5847",
"e$	c #8C5C4C",
"f$	c #926354",
"g$	c #947368",
"h$	c #4B403E",
"i$	c #2E3638",
"j$	c #405453",
"k$	c #768084",
"l$	c #604946",
"m$	c #8B6259",
"n$	c #895C51",
"o$	c #87594A",
"p$	c #845645",
"q$	c #875944",
"r$	c #885741",
"s$	c #8C5A43",
"t$	c #8B5B48",
"u$	c #8A5B47",
"v$	c #875B43",
"w$	c #8A5D45",
"x$	c #8C5D49",
"y$	c #875846",
"z$	c #885946",
"A$	c #895746",
"B$	c #8A5946",
"C$	c #885644",
"D$	c #865548",
"E$	c #83564A",
"F$	c #855C4F",
"G$	c #886C62",
"H$	c #453E3A",
"I$	c #2F3738",
"J$	c #415554",
"K$	c #727D81",
"L$	c #5A4746",
"M$	c #7A5651",
"N$	c #7F554F",
"O$	c #7D5248",
"P$	c #744C3F",
"Q$	c #7B5443",
"R$	c #7F533F",
"S$	c #81543E",
"T$	c #815543",
"U$	c #805442",
"V$	c #7F5641",
"W$	c #7C543F",
"X$	c #825848",
"Y$	c #7D5445",
"Z$	c #7E5244",
"`$	c #7D5042",
" %	c #7C5041",
".%	c #7A4E40",
"+%	c #7B4E45",
"@%	c #764D45",
"#%	c #745246",
"$%	c #776056",
"%%	c #3E3A36",
"&%	c #2F3837",
"*%	c #435755",
"=%	c #6D7C7F",
"-%	c #47393A",
";%	c #624240",
">%	c #694542",
",%	c #68433E",
"'%	c #66463B",
")%	c #6A483A",
"!%	c #714B3A",
"~%	c #734C3A",
"{%	c #734B3D",
"]%	c #724A3C",
"^%	c #724C3D",
"/%	c #6E4B3B",
"(%	c #714F41",
"_%	c #6C493E",
":%	c #6D483E",
"<%	c #684439",
"[%	c #674235",
"}%	c #633E33",
"|%	c #643C36",
"1%	c #613E38",
"2%	c #604339",
"3%	c #604E45",
"4%	c #393833",
"5%	c #2C3634",
"6%	c #6F8083",
"7%	c #362F2D",
"8%	c #472F2C",
"9%	c #4D3130",
"0%	c #4A2E2B",
"a%	c #4D352E",
"b%	c #4B3127",
"c%	c #56372B",
"d%	c #59372C",
"e%	c #59372E",
"f%	c #57352C",
"g%	c #57382E",
"h%	c #53382C",
"i%	c #543B30",
"j%	c #4D342B",
"k%	c #4D332C",
"l%	c #482D26",
"m%	c #462C22",
"n%	c #43281F",
"o%	c #432722",
"p%	c #442926",
"q%	c #432E27",
"r%	c #443730",
"s%	c #363533",
"t%	c #2A3334",
"u%	c #405250",
"v%	c #728889",
"w%	c #272723",
"x%	c #2F1E1A",
"y%	c #331F1E",
"z%	c #2D1A17",
"A%	c #32221E",
"B%	c #2B1914",
"C%	c #39211B",
"D%	c #3C201B",
"E%	c #3C201D",
"F%	c #391E1B",
"G%	c #39211D",
"H%	c #35221C",
"I%	c #34241E",
"J%	c #2D1D17",
"K%	c #2C1B18",
"L%	c #271713",
"M%	c #26170F",
"N%	c #24150D",
"O%	c #261410",
"P%	c #291615",
"Q%	c #291B16",
"R%	c #2B231E",
"S%	c #343435",
"T%	c #293134",
"U%	c #3D4D4D",
"V%	c #728E8C",
"W%	c #1F231F",
"X%	c #211714",
"Y%	c #231615",
"Z%	c #1E100F",
"`%	c #221815",
" &	c #1B0F0C",
".&	c #281613",
"+&	c #291313",
"@&	c #291314",
"#&	c #261011",
"$&	c #261313",
"%&	c #221512",
"&&	c #201814",
"*&	c #17100C",
"=&	c #170F0E",
"-&	c #160E0B",
";&	c #170F0A",
">&	c #160F0A",
",&	c #1A0F0D",
"'&	c #1C100F",
")&	c #1D1410",
"!&	c #221D1A",
"~&	c #35393B",
"{&	c #2C3638",
"]&	c #414F52",
"^&	c #708E8C",
"/&	c #19201C",
"(&	c #18130F",
"_&	c #19110F",
":&	c #160D0D",
"<&	c #171311",
"[&	c #150D0C",
"}&	c #1E1310",
"|&	c #1E0E10",
"1&	c #1E0E11",
"2&	c #1A0B0E",
"3&	c #1A0E10",
"4&	c #181010",
"5&	c #141211",
"6&	c #0C0B0A",
"7&	c #0E0B0B",
"8&	c #100D0C",
"9&	c #100F0B",
"0&	c #0F0E0A",
"a&	c #14100E",
"b&	c #140E0D",
"c&	c #16110E",
"d&	c #211F1C",
"e&	c #363B3E",
"f&	c #2D373A",
"g&	c #424F54",
"h&	c #6D8B89",
"i&	c #161F1A",
"j&	c #15120D",
"k&	c #130F0C",
"l&	c #130F0E",
"m&	c #12110F",
"n&	c #151110",
"o&	c #1B1311",
"p&	c #180E0F",
"q&	c #190E12",
"r&	c #140B0E",
"s&	c #140E10",
"t&	c #141011",
"u&	c #0F1012",
"v&	c #090A0C",
"w&	c #0D0D0D",
"x&	c #121011",
"y&	c #0F110E",
"z&	c #0D0F0A",
"A&	c #121210",
"B&	c #100F0D",
"C&	c #12110D",
"D&	c #242422",
"E&	c #373C3F",
"F&	c #2C353A",
"G&	c #414E54",
"H&	c #6F8E8D",
"I&	c #17201B",
"J&	c #14110D",
"K&	c #0F0C09",
"L&	c #0F0C0A",
"M&	c #0A0B08",
"N&	c #0F0E0C",
"O&	c #140F0C",
"P&	c #100A09",
"Q&	c #110B0D",
"R&	c #0D080B",
"S&	c #0E0A0B",
"T&	c #0C0A0C",
"U&	c #080B0B",
"V&	c #040707",
"W&	c #080809",
"X&	c #090C08",
"Y&	c #060905",
"Z&	c #0C0D0C",
"`&	c #0C0C09",
" *	c #0F0E0B",
".*	c #222421",
"+*	c #394043",
"@*	c #2C373B",
"#*	c #424E55",
"$*	c #6F8C8D",
"%*	c #2D3530",
"&*	c #28221C",
"**	c #251C18",
"=*	c #211914",
"-*	c #19150E",
";*	c #1C1810",
">*	c #211B12",
",*	c #19140C",
"'*	c #1B1712",
")*	c #181411",
"!*	c #1D1612",
"~*	c #1A1513",
"{*	c #161513",
"]*	c #141311",
"^*	c #181312",
"/*	c #1B1612",
"(*	c #15150E",
"_*	c #12120A",
":*	c #1A1813",
"<*	c #1E1B15",
"[*	c #24211B",
"}*	c #373934",
"|*	c #394041",
"1*	c #2B3639",
"2*	c #435055",
"3*	c #6E8688",
"4*	c #555853",
"5*	c #4F4238",
"6*	c #523F38",
"7*	c #48342D",
"8*	c #3D3022",
"9*	c #3B2E1C",
"0*	c #423822",
"a*	c #322B17",
"b*	c #383222",
"c*	c #363023",
"d*	c #3F3227",
"e*	c #3D3025",
"f*	c #382E29",
"g*	c #3D2E29",
"h*	c #3B2E23",
"i*	c #342E22",
"j*	c #322D1C",
"k*	c #3B3227",
"l*	c #453D32",
"m*	c #50483D",
"n*	c #5E6057",
"o*	c #373D3B",
"p*	c #283335",
"q*	c #445356",
"r*	c #708588",
"s*	c #636460",
"t*	c #66554A",
"u*	c #795F57",
"v*	c #695145",
"w*	c #624E3D",
"x*	c #554530",
"y*	c #5E5336",
"z*	c #4E442A",
"A*	c #554F3B",
"B*	c #59503C",
"C*	c #5F5240",
"D*	c #5F4F40",
"E*	c #5C4B43",
"F*	c #5F4E48",
"G*	c #67544B",
"H*	c #5D4E3F",
"I*	c #5C5141",
"J*	c #5A503D",
"K*	c #5F5243",
"L*	c #716356",
"M*	c #756A5F",
"N*	c #717167",
"O*	c #363C38",
"P*	c #263132",
"Q*	c #435456",
"R*	c #74868A",
"S*	c #7E7E79",
"T*	c #846F64",
"U*	c #94766E",
"V*	c #846659",
"W*	c #856B5A",
"X*	c #6F5B45",
"Y*	c #7A6B4D",
"Z*	c #6D6042",
"`*	c #726952",
" =	c #776B54",
".=	c #7C6C56",
"+=	c #7C6755",
"@=	c #7B6357",
"#=	c #7E675F",
"$=	c #816D60",
"%=	c #796957",
"&=	c #7B6E5A",
"*=	c #7A6D5A",
"==	c #7E6C5B",
"-=	c #8A7769",
";=	c #8B7E72",
">=	c #79766D",
",=	c #383E39",
"'=	c #253231",
")=	c #3F5254",
"!=	c #798B8D",
"~=	c #ADACA5",
"{=	c #AA9287",
"]=	c #9F7E77",
"^=	c #937165",
"/=	c #A08172",
"(=	c #846C57",
"_=	c #937E61",
":=	c #8C7B5C",
"<=	c #887A63",
"[=	c #897A63",
"}=	c #907763",
"|=	c #8F715F",
"1=	c #8E6F61",
"2=	c #8D7165",
"3=	c #816F5E",
"4=	c #887964",
"5=	c #887A65",
"6=	c #8A7B67",
"7=	c #907A69",
"8=	c #877061",
"9=	c #8E7D70",
"0=	c #787269",
"a=	c #3D433F",
"b=	c #283734",
"c=	c #3B4E4F",
"d=	c #76888A",
"e=	c #AFB0A7",
"f=	c #988478",
"g=	c #8A6C64",
"h=	c #8A675F",
"i=	c #8F6F61",
"j=	c #795F4D",
"k=	c #7E684F",
"l=	c #7A684E",
"m=	c #766751",
"n=	c #786753",
"o=	c #7F6654",
"p=	c #806151",
"q=	c #7F5F50",
"r=	c #7B5E51",
"s=	c #695948",
"t=	c #6D604C",
"u=	c #6B5E4A",
"v=	c #6D5D4B",
"w=	c #765E4D",
"x=	c #6F5748",
"y=	c #7C6B60",
"z=	c #6E6760",
"A=	c #38403B",
"B=	c #384D4E",
"C=	c #879698",
"D=	c #B2B5AC",
"E=	c #92857A",
"F=	c #89726B",
"G=	c #90736D",
"H=	c #8C7167",
"I=	c #7F695A",
"J=	c #7D6A58",
"K=	c #796A58",
"L=	c #776B5A",
"M=	c #7C6B5C",
"N=	c #826C5E",
"O=	c #84695C",
"P=	c #82675A",
"Q=	c #7D655A",
"R=	c #6C5F51",
"S=	c #6C6252",
"T=	c #695E4F",
"U=	c #6A5C4F",
"V=	c #735E51",
"W=	c #715D51",
"X=	c #80726B",
"Y=	c #7B7570",
"Z=	c #4E5752",
"`=	c #44524F",
" -	c #526465",
".-	c #93A2A1",
"+-	c #6F7C75",
"@-	c #565852",
"#-	c #4F4C47",
"$-	c #504747",
"%-	c #504545",
"&-	c #4F4442",
"*-	c #4D4441",
"=-	c #4C4442",
"--	c #4B4340",
";-	c #4E423E",
">-	c #4E423D",
",-	c #4B403A",
"'-	c #483F3C",
")-	c #47413D",
"!-	c #443E3C",
"~-	c #443E3B",
"{-	c #443E38",
"]-	c #493E39",
"^-	c #4B413D",
"/-	c #534D4C",
"(-	c #575958",
"_-	c #4E5855",
":-	c #485A57",
"<-	c #6A7B7B",
"[-	c #799091",
"}-	c #324543",
"|-	c #101B17",
"1-	c #0B1110",
"2-	c #0D0F0F",
"3-	c #0E0C0C",
"4-	c #110F0D",
"5-	c #0F100B",
"6-	c #0B0F0C",
"7-	c #0C0F0B",
"8-	c #10100B",
"9-	c #14130D",
"0-	c #15130E",
"a-	c #13110E",
"b-	c #111111",
"c-	c #0F0F11",
"d-	c #0D0E10",
"e-	c #0E1011",
"f-	c #0F110F",
"g-	c #111211",
"h-	c #16181A",
"i-	c #202729",
"j-	c #2A3635",
"k-	c #2A3B3B",
"l-	c #516166",
"m-	c #7C9192",
"n-	c #3E4C4C",
"o-	c #1F2827",
"p-	c #182221",
"q-	c #18201E",
"r-	c #181E18",
"s-	c #1B1F17",
"t-	c #1A1F16",
"u-	c #191D18",
"v-	c #1C1E1E",
"w-	c #1E1E1E",
"x-	c #242320",
"y-	c #2A2723",
"z-	c #2C2725",
"A-	c #272422",
"B-	c #1F211D",
"C-	c #1A1F1B",
"D-	c #191E1C",
"E-	c #1A1F1F",
"F-	c #1B2020",
"G-	c #1C2121",
"H-	c #1C2222",
"I-	c #1C2624",
"J-	c #232F2E",
"K-	c #293839",
"L-	c #505E61",
"M-	c #7B9192",
"N-	c #3F5050",
"O-	c #191F1C",
"P-	c #191C17",
"Q-	c #191814",
"R-	c #171510",
"S-	c #15130F",
"T-	c #11100D",
"U-	c #11100F",
"V-	c #0F0F0C",
"W-	c #10100C",
"X-	c #10100D",
"Y-	c #10110D",
"Z-	c #10100E",
"`-	c #0E0E0E",
" ;	c #100F11",
".;	c #121111",
"+;	c #131410",
"@;	c #10130E",
"#;	c #121915",
"$;	c #1F2929",
"%;	c #4F5A5B",
"&;	c #7C9595",
"*;	c #405553",
"=;	c #182521",
"-;	c #101912",
";;	c #101510",
">;	c #111310",
",;	c #0E100F",
"';	c #0D0F0E",
");	c #090D0A",
"!;	c #080D08",
"~;	c #0A0E07",
"{;	c #0D0C07",
"];	c #0E0D08",
"^;	c #0A0C08",
"/;	c #090E0B",
"(;	c #0B0F0D",
"_;	c #090D0D",
":;	c #0B0E0E",
"<;	c #0C0F0E",
"[;	c #0C100D",
"};	c #0B100B",
"|;	c #09110B",
"1;	c #0A1511",
"2;	c #142321",
"3;	c #4A5A5A",
"  . + @ # $ % & * = - ; > , ' ) ! ~ { ] { ^ / ( _ : ",
"< [ } | 1 2 3 4 5 6 7 8 9 0 a b c d e f g h i j k l ",
"m n o p q r s t u v w x y z A B C D E F G H I J K L ",
"M N O P Q R S T U V W X Y Z `  ...+.@.#.$.%.&.*.=.-.",
";.>.,.'.).!.~.{.].^./.(.(._._.:.<.[.}.|.1.2.3.4.5.6.",
"7.8.9.0.a.b.c.d.e.f.g.h.h.i.i.j.k.l.m.n.o.p.q.r.s.t.",
"u.v.w.x.y.z.A.B.C.D.D.E.F.G.H.I.J.K.L.M.N.O.P.Q.R.S.",
"T.U.V.W.X.Y.Z.`. +.+++@+#+$+%+&+*+=+-+;+>+,+'+)+!+~+",
"{+]+^+/+(+_+:+<+[+}+|+1+2+3+4+5+6+7+8+9+0+a+b+c+d+e+",
"f+]+g+h+i+j+k+l+m+n+o+p+q+r+s+t+u+v+w+x+y+z+A+B+C+D+",
"f+E+F+G+H+I+J+K+L+M+N+O+P+Q+R+S+u+T+w+U+V+W+X+Y+Z+`+",
" @.@+@@@H+#@$@%@&@*@=@-@;@>@,@'@u+)@!@y+~@{@]@^@/@(@",
"_@:@<@[@}@|@1@2@3@4@5@6@w+7@8@9@0@a@b@c@d@e@f@g@h@(@",
"i@j@k@l@m@n@o@p@q@r@s@t@u@v@w@x@y@z@A@c@d@B@C@D@E@F@",
"G@H@I@J@K@L@o@@@M@N@O@K@P@Q@R@S@P@T@U@c@V@W@X@Y@Z@`@",
" #.#+#@###$#%#&#*#=#-#;#>#$#L@,#'#)#!#~#{#]#^#/#(#_#",
":#<#+#[#}#|#1#2#3#4#5#6#>#7#8#9#0#a#b#c#d#e#f#g#h#_#",
"i#j#k#l#m#n#o#o#p#q#r#>#P@s#t#u#v#w#x#y#z#A#B#C#D#E#",
"F#G#H#I#J#K#L#M#N#O#P#Q#R#S#t#u#T#U#V#W#X#Y#Z#`# $.$",
"+$@$#$$$[@%$b@&$*$=$-$;$>$,$'$)$!$~${$]$^$/$($_$:$<$",
"[$}$|$1$2$3$4$5$6$7$9@8$9$o@0$a$b$o@c$d$e$f$g$h$i$j$",
"k$l$m$n$o$p$q$r$s$t$u$v$w$x$y$z$A$B$C$D$E$F$G$H$I$J$",
"K$L$M$N$O$P$Q$R$S$T$U$V$W$X$Y$Z$`$ %.%+%@%#%$%%%&%*%",
"=%-%;%>%,%'%)%!%~%{%]%^%/%(%_%:%<%[%}%|%1%2%3%4%5%*%",
"6%7%8%9%0%a%b%c%d%e%f%g%h%i%j%k%l%m%n%o%p%q%r%s%t%u%",
"v%w%x%y%z%A%B%C%D%E%F%G%H%I%J%K%L%M%N%O%P%Q%R%S%T%U%",
"V%W%X%Y%Z%`% &.&+&@&#&$&%&&&*&=&-&;&>&,&'&)&!&~&{&]&",
"^&/&(&_&:&<&[&}&|&1&2&3&4&5&6&7&8&9&0&a&b&c&d&e&f&g&",
"h&i&j&k&l&m&n&o&p&q&r&s&t&u&v&w&x&y&z&A&B&C&D&E&F&G&",
"H&I&J&K&L&M&N&O&P&Q&R&S&T&U&V&W&w&X&Y&Z&`& *.*+*@*#*",
"$*%*&***=*-*;*>*,*'*)*!*~*{*]*^*/*(*_*:*<*[*}*|*1*2*",
"3*4*5*6*7*8*9*0*a*b*c*d*e*f*f*g*h*i*j*k*l*m*n*o*p*q*",
"r*s*t*u*v*w*x*y*z*A*B*C*D*E*F*G*H*I*J*K*L*M*N*O*P*Q*",
"R*S*T*U*V*W*X*Y*Z*`* =.=+=@=#=$=%=&=*===-=;=>=,='=)=",
"!=~={=]=^=/=(=_=:=<=[=}=|=1=2=3=4=5=6=7=8=9=0=a=b=c=",
"d=e=f=g=h=i=j=k=l=m=n=o=p=q=r=s=t=u=v=w=x=y=z=A=b=B=",
"C=D=E=F=G=H=I=J=K=L=M=N=O=P=Q=R=S=T=U=V=W=X=Y=Z=`= -",
".-+-@-#-$-%-&-*-*-=---;->-,-'-)-!-~-{-]-^-/-(-_-:-<-",
"[-}-|-1-2-3-4-5-z&6-7-8-9-0-a-b-c-d-e-f-g-h-i-j-k-l-",
"m-n-o-p-q-r-s-t-u-v-w-x-y-z-A-B-C-D-E-F-G-H-I-J-K-L-",
"M-N-o-O-P-Q-R-S-T-U-N&V-W-X-X-Y-Z-`- ;.;A&+;@;#;$;%;",
"&;*;=;-;;;>;,;';);!;~;{;];^;!;/;(;_;:;<;[;};|;1;2;3;"};
