/* XPM */
static char * sonicrocker1_xpm[] = {
"26 42 1045 2",
"  	c None",
". 	c #7C9595",
"+ 	c #405553",
"@ 	c #182521",
"# 	c #101912",
"$ 	c #101510",
"% 	c #111310",
"& 	c #0E100F",
"* 	c #0D0F0E",
"= 	c #090D0A",
"- 	c #080D08",
"; 	c #0A0E07",
"> 	c #0D0C07",
", 	c #0E0D08",
"' 	c #0A0C08",
") 	c #090E0B",
"! 	c #0B0F0D",
"~ 	c #090D0D",
"{ 	c #0B0E0E",
"] 	c #0C0F0E",
"^ 	c #0C100D",
"/ 	c #0B100B",
"( 	c #09110B",
"_ 	c #0A1511",
": 	c #142321",
"< 	c #4A5A5A",
"[ 	c #7B9192",
"} 	c #3F5050",
"| 	c #1F2827",
"1 	c #191F1C",
"2 	c #191C17",
"3 	c #191814",
"4 	c #171510",
"5 	c #15130F",
"6 	c #11100D",
"7 	c #11100F",
"8 	c #0F0E0C",
"9 	c #0F0F0C",
"0 	c #10100C",
"a 	c #10100D",
"b 	c #10110D",
"c 	c #10100E",
"d 	c #0E0E0E",
"e 	c #100F11",
"f 	c #121111",
"g 	c #121210",
"h 	c #131410",
"i 	c #10130E",
"j 	c #121915",
"k 	c #1F2929",
"l 	c #4F5A5B",
"m 	c #7C9192",
"n 	c #3E4C4C",
"o 	c #182221",
"p 	c #18201E",
"q 	c #181E18",
"r 	c #1B1F17",
"s 	c #1A1F16",
"t 	c #191D18",
"u 	c #1C1E1E",
"v 	c #1E1E1E",
"w 	c #242320",
"x 	c #2A2723",
"y 	c #2C2725",
"z 	c #272422",
"A 	c #1F211D",
"B 	c #1A1F1B",
"C 	c #191E1C",
"D 	c #1A1F1F",
"E 	c #1B2020",
"F 	c #1C2121",
"G 	c #1C2222",
"H 	c #1C2624",
"I 	c #232F2E",
"J 	c #293839",
"K 	c #505E61",
"L 	c #799091",
"M 	c #324543",
"N 	c #101B17",
"O 	c #0B1110",
"P 	c #0D0F0F",
"Q 	c #0E0C0C",
"R 	c #110F0D",
"S 	c #0F100B",
"T 	c #0D0F0A",
"U 	c #0B0F0C",
"V 	c #0C0F0B",
"W 	c #10100B",
"X 	c #14130D",
"Y 	c #15130E",
"Z 	c #13110E",
"` 	c #111111",
" .	c #0F0F11",
"..	c #0D0E10",
"+.	c #0E1011",
"@.	c #0F110F",
"#.	c #111211",
"$.	c #16181A",
"%.	c #202729",
"&.	c #2A3635",
"*.	c #2A3B3B",
"=.	c #516166",
"-.	c #93A2A1",
";.	c #6F7C75",
">.	c #565852",
",.	c #4F4C47",
"'.	c #504747",
").	c #504545",
"!.	c #4F4442",
"~.	c #4D4441",
"{.	c #4C4442",
"].	c #4B4340",
"^.	c #4E423E",
"/.	c #4E423D",
"(.	c #4B403A",
"_.	c #483F3C",
":.	c #47413D",
"<.	c #443E3C",
"[.	c #443E3B",
"}.	c #443E38",
"|.	c #493E39",
"1.	c #4B413D",
"2.	c #534D4C",
"3.	c #575958",
"4.	c #4E5855",
"5.	c #485A57",
"6.	c #6A7B7B",
"7.	c #879698",
"8.	c #B2B5AC",
"9.	c #92857A",
"0.	c #89726B",
"a.	c #90736D",
"b.	c #8C7167",
"c.	c #7F695A",
"d.	c #7D6A58",
"e.	c #796A58",
"f.	c #776B5A",
"g.	c #7C6B5C",
"h.	c #826C5E",
"i.	c #84695C",
"j.	c #82675A",
"k.	c #7D655A",
"l.	c #6C5F51",
"m.	c #6C6252",
"n.	c #695E4F",
"o.	c #6A5C4F",
"p.	c #735E51",
"q.	c #715D51",
"r.	c #80726B",
"s.	c #7B7570",
"t.	c #4E5752",
"u.	c #44524F",
"v.	c #526465",
"w.	c #76888A",
"x.	c #AFB0A7",
"y.	c #988478",
"z.	c #8A6C64",
"A.	c #8A675F",
"B.	c #8F6F61",
"C.	c #795F4D",
"D.	c #7E684F",
"E.	c #7A684E",
"F.	c #766751",
"G.	c #786753",
"H.	c #7F6654",
"I.	c #806151",
"J.	c #7F5F50",
"K.	c #7B5E51",
"L.	c #695948",
"M.	c #6D604C",
"N.	c #6B5E4A",
"O.	c #6D5D4B",
"P.	c #765E4D",
"Q.	c #6F5748",
"R.	c #7C6B60",
"S.	c #6E6760",
"T.	c #38403B",
"U.	c #283734",
"V.	c #384D4E",
"W.	c #798B8D",
"X.	c #ADACA5",
"Y.	c #AA9287",
"Z.	c #9F7E77",
"`.	c #937165",
" +	c #A08172",
".+	c #846C57",
"++	c #937E61",
"@+	c #8C7B5C",
"#+	c #887A63",
"$+	c #897A63",
"%+	c #907763",
"&+	c #8F715F",
"*+	c #8E6F61",
"=+	c #8D7165",
"-+	c #816F5E",
";+	c #887964",
">+	c #887A65",
",+	c #8A7B67",
"'+	c #907A69",
")+	c #877061",
"!+	c #8E7D70",
"~+	c #787269",
"{+	c #3D433F",
"]+	c #3B4E4F",
"^+	c #74868A",
"/+	c #7E7E79",
"(+	c #846F64",
"_+	c #94766E",
":+	c #846659",
"<+	c #856B5A",
"[+	c #6F5B45",
"}+	c #7A6B4D",
"|+	c #6D6042",
"1+	c #726952",
"2+	c #776B54",
"3+	c #7C6C56",
"4+	c #7C6755",
"5+	c #7B6357",
"6+	c #7E675F",
"7+	c #816D60",
"8+	c #796957",
"9+	c #7B6E5A",
"0+	c #7A6D5A",
"a+	c #7E6C5B",
"b+	c #8A7769",
"c+	c #8B7E72",
"d+	c #79766D",
"e+	c #383E39",
"f+	c #253231",
"g+	c #3F5254",
"h+	c #708588",
"i+	c #636460",
"j+	c #66554A",
"k+	c #795F57",
"l+	c #695145",
"m+	c #624E3D",
"n+	c #554530",
"o+	c #5E5336",
"p+	c #4E442A",
"q+	c #554F3B",
"r+	c #59503C",
"s+	c #5F5240",
"t+	c #5F4F40",
"u+	c #5C4B43",
"v+	c #5F4E48",
"w+	c #67544B",
"x+	c #5D4E3F",
"y+	c #5C5141",
"z+	c #5A503D",
"A+	c #5F5243",
"B+	c #716356",
"C+	c #756A5F",
"D+	c #717167",
"E+	c #363C38",
"F+	c #263132",
"G+	c #435456",
"H+	c #6E8688",
"I+	c #555853",
"J+	c #4F4238",
"K+	c #523F38",
"L+	c #48342D",
"M+	c #3D3022",
"N+	c #3B2E1C",
"O+	c #423822",
"P+	c #322B17",
"Q+	c #383222",
"R+	c #363023",
"S+	c #3F3227",
"T+	c #3D3025",
"U+	c #382E29",
"V+	c #3D2E29",
"W+	c #3B2E23",
"X+	c #342E22",
"Y+	c #322D1C",
"Z+	c #3B3227",
"`+	c #453D32",
" @	c #50483D",
".@	c #5E6057",
"+@	c #373D3B",
"@@	c #283335",
"#@	c #445356",
"$@	c #6F8C8D",
"%@	c #2D3530",
"&@	c #28221C",
"*@	c #251C18",
"=@	c #211914",
"-@	c #19150E",
";@	c #1C1810",
">@	c #211B12",
",@	c #19140C",
"'@	c #1B1712",
")@	c #181411",
"!@	c #1D1612",
"~@	c #1A1513",
"{@	c #161513",
"]@	c #141311",
"^@	c #181312",
"/@	c #1B1612",
"(@	c #15150E",
"_@	c #12120A",
":@	c #1A1813",
"<@	c #1E1B15",
"[@	c #24211B",
"}@	c #373934",
"|@	c #394041",
"1@	c #2B3639",
"2@	c #435055",
"3@	c #6F8E8D",
"4@	c #17201B",
"5@	c #14110D",
"6@	c #0F0C09",
"7@	c #0F0C0A",
"8@	c #0A0B08",
"9@	c #140F0C",
"0@	c #100A09",
"a@	c #110B0D",
"b@	c #0D080B",
"c@	c #0E0A0B",
"d@	c #0C0A0C",
"e@	c #080B0B",
"f@	c #040707",
"g@	c #080809",
"h@	c #0D0D0D",
"i@	c #090C08",
"j@	c #060905",
"k@	c #0C0D0C",
"l@	c #0C0C09",
"m@	c #0F0E0B",
"n@	c #222421",
"o@	c #394043",
"p@	c #2C373B",
"q@	c #424E55",
"r@	c #6D8B89",
"s@	c #161F1A",
"t@	c #15120D",
"u@	c #130F0C",
"v@	c #130F0E",
"w@	c #12110F",
"x@	c #151110",
"y@	c #1B1311",
"z@	c #180E0F",
"A@	c #190E12",
"B@	c #140B0E",
"C@	c #140E10",
"D@	c #141011",
"E@	c #0F1012",
"F@	c #090A0C",
"G@	c #121011",
"H@	c #0F110E",
"I@	c #100F0D",
"J@	c #12110D",
"K@	c #242422",
"L@	c #373C3F",
"M@	c #2C353A",
"N@	c #414E54",
"O@	c #708E8C",
"P@	c #19201C",
"Q@	c #18130F",
"R@	c #19110F",
"S@	c #160D0D",
"T@	c #171311",
"U@	c #150D0C",
"V@	c #1E1310",
"W@	c #1E0E10",
"X@	c #1E0E11",
"Y@	c #1A0B0E",
"Z@	c #1A0E10",
"`@	c #181010",
" #	c #141211",
".#	c #0C0B0A",
"+#	c #0E0B0B",
"@#	c #100D0C",
"##	c #100F0B",
"$#	c #0F0E0A",
"%#	c #14100E",
"&#	c #140E0D",
"*#	c #16110E",
"=#	c #211F1C",
"-#	c #363B3E",
";#	c #2D373A",
">#	c #424F54",
",#	c #728E8C",
"'#	c #1F231F",
")#	c #211714",
"!#	c #231615",
"~#	c #1E100F",
"{#	c #221815",
"]#	c #1B0F0C",
"^#	c #281613",
"/#	c #291313",
"(#	c #291314",
"_#	c #261011",
":#	c #261313",
"<#	c #221512",
"[#	c #201814",
"}#	c #17100C",
"|#	c #170F0E",
"1#	c #160E0B",
"2#	c #170F0A",
"3#	c #160F0A",
"4#	c #1A0F0D",
"5#	c #1C100F",
"6#	c #1D1410",
"7#	c #221D1A",
"8#	c #35393B",
"9#	c #2C3638",
"0#	c #414F52",
"a#	c #728889",
"b#	c #272723",
"c#	c #2F1E1A",
"d#	c #331F1E",
"e#	c #2D1A17",
"f#	c #32221E",
"g#	c #2B1914",
"h#	c #39211B",
"i#	c #3C201B",
"j#	c #3C201D",
"k#	c #391E1B",
"l#	c #39211D",
"m#	c #35221C",
"n#	c #34241E",
"o#	c #2D1D17",
"p#	c #2C1B18",
"q#	c #271713",
"r#	c #26170F",
"s#	c #24150D",
"t#	c #261410",
"u#	c #291615",
"v#	c #291B16",
"w#	c #2B231E",
"x#	c #343435",
"y#	c #293134",
"z#	c #3D4D4D",
"A#	c #6F8083",
"B#	c #362F2D",
"C#	c #472F2C",
"D#	c #4D3130",
"E#	c #4A2E2B",
"F#	c #4D352E",
"G#	c #4B3127",
"H#	c #56372B",
"I#	c #59372C",
"J#	c #59372E",
"K#	c #57352C",
"L#	c #57382E",
"M#	c #53382C",
"N#	c #543B30",
"O#	c #4D342B",
"P#	c #4D332C",
"Q#	c #482D26",
"R#	c #462C22",
"S#	c #43281F",
"T#	c #432722",
"U#	c #442926",
"V#	c #432E27",
"W#	c #443730",
"X#	c #363533",
"Y#	c #2A3334",
"Z#	c #405250",
"`#	c #6D7C7F",
" $	c #47393A",
".$	c #624240",
"+$	c #694542",
"@$	c #68433E",
"#$	c #66463B",
"$$	c #6A483A",
"%$	c #714B3A",
"&$	c #734C3A",
"*$	c #734B3D",
"=$	c #724A3C",
"-$	c #724C3D",
";$	c #6E4B3B",
">$	c #714F41",
",$	c #6C493E",
"'$	c #6D483E",
")$	c #684439",
"!$	c #674235",
"~$	c #633E33",
"{$	c #643C36",
"]$	c #613E38",
"^$	c #604339",
"/$	c #604E45",
"($	c #393833",
"_$	c #2C3634",
":$	c #435755",
"<$	c #727D81",
"[$	c #5A4746",
"}$	c #7A5651",
"|$	c #7F554F",
"1$	c #7D5248",
"2$	c #744C3F",
"3$	c #7B5443",
"4$	c #7F533F",
"5$	c #81543E",
"6$	c #815543",
"7$	c #805442",
"8$	c #7F5641",
"9$	c #7C543F",
"0$	c #825848",
"a$	c #7D5445",
"b$	c #7E5244",
"c$	c #7D5042",
"d$	c #7C5041",
"e$	c #7A4E40",
"f$	c #7B4E45",
"g$	c #764D45",
"h$	c #745246",
"i$	c #776056",
"j$	c #3E3A36",
"k$	c #2F3837",
"l$	c #768084",
"m$	c #604946",
"n$	c #8B6259",
"o$	c #895C51",
"p$	c #87594A",
"q$	c #845645",
"r$	c #875944",
"s$	c #885741",
"t$	c #8C5A43",
"u$	c #8B5B48",
"v$	c #8A5B47",
"w$	c #875B43",
"x$	c #8A5D45",
"y$	c #8C5D49",
"z$	c #875846",
"A$	c #885946",
"B$	c #895746",
"C$	c #8A5946",
"D$	c #885644",
"E$	c #865548",
"F$	c #83564A",
"G$	c #855C4F",
"H$	c #886C62",
"I$	c #453E3A",
"J$	c #2F3738",
"K$	c #415554",
"L$	c #788186",
"M$	c #614742",
"N$	c #96695B",
"O$	c #8D5F4E",
"P$	c #8C5D48",
"Q$	c #906049",
"R$	c #8E5C42",
"S$	c #8E5A42",
"T$	c #935F47",
"U$	c #925E4C",
"V$	c #91614D",
"W$	c #8C5E44",
"X$	c #936449",
"Y$	c #925E49",
"Z$	c #8E5A47",
"`$	c #8F5E48",
" %	c #8F5C47",
".%	c #905B46",
"+%	c #8B5847",
"@%	c #8C5C4C",
"#%	c #926354",
"$%	c #947368",
"%%	c #4B403E",
"&%	c #2E3638",
"*%	c #405453",
"=%	c #757E81",
"-%	c #664B42",
";%	c #9B6C5B",
">%	c #956653",
",%	c #91624B",
"'%	c #94634A",
")%	c #946247",
"!%	c #986047",
"~%	c #976149",
"{%	c #95604D",
"]%	c #986552",
"^%	c #936248",
"/%	c #96654A",
"(%	c #98614C",
"_%	c #98624E",
":%	c #98654D",
"<%	c #96624B",
"[%	c #99624B",
"}%	c #98614A",
"|%	c #95614C",
"1%	c #976551",
"2%	c #9A6A59",
"3%	c #9A756A",
"4%	c #4D403F",
"5%	c #303639",
"6%	c #435756",
"7%	c #6F7A7A",
"8%	c #695043",
"9%	c #9B6D5A",
"0%	c #996A55",
"a%	c #95644E",
"b%	c #95634B",
"c%	c #97644A",
"d%	c #9A634B",
"e%	c #96614A",
"f%	c #94604F",
"g%	c #996654",
"h%	c #97644C",
"i%	c #97654B",
"j%	c #9A624E",
"k%	c #9D6652",
"l%	c #9C6850",
"m%	c #99654B",
"n%	c #9B644C",
"o%	c #9B634B",
"p%	c #99664F",
"q%	c #9B6952",
"r%	c #9D6C59",
"s%	c #9A7467",
"t%	c #534442",
"u%	c #33383A",
"v%	c #465A59",
"w%	c #697573",
"x%	c #6B5446",
"y%	c #976D57",
"z%	c #9A6C55",
"A%	c #966650",
"B%	c #95634C",
"C%	c #97634B",
"D%	c #93614A",
"E%	c #926150",
"F%	c #976655",
"G%	c #97654E",
"H%	c #96644D",
"I%	c #99624E",
"J%	c #98654A",
"K%	c #9B654B",
"L%	c #9A644A",
"M%	c #99674E",
"N%	c #996A50",
"O%	c #9B6B55",
"P%	c #977262",
"Q%	c #5B4C46",
"R%	c #373B3C",
"S%	c #4A5C5C",
"T%	c #687471",
"U%	c #6F5849",
"V%	c #986E56",
"W%	c #9A6D55",
"X%	c #996953",
"Y%	c #98654F",
"Z%	c #97634C",
"`%	c #946148",
" &	c #92624B",
".&	c #936352",
"+&	c #956554",
"@&	c #94644D",
"#&	c #98634F",
"$&	c #97634E",
"%&	c #9C6952",
"&&	c #9B684F",
"*&	c #9F694F",
"=&	c #9E684C",
"-&	c #9A694C",
";&	c #996A4F",
">&	c #9B6B52",
",&	c #97725F",
"'&	c #63544D",
")&	c #3B3E3D",
"!&	c #4D5D5D",
"~&	c #68736F",
"{&	c #6F5948",
"]&	c #986A53",
"^&	c #976751",
"/&	c #98644F",
"(&	c #95614B",
"_&	c #905F46",
":&	c #91634B",
"<&	c #936552",
"[&	c #936553",
"}&	c #92634D",
"|&	c #94604B",
"1&	c #9A6751",
"2&	c #9A6850",
"3&	c #9F6A50",
"4&	c #9E694C",
"5&	c #986849",
"6&	c #97694C",
"7&	c #986A4E",
"8&	c #94705C",
"9&	c #685951",
"0&	c #3C3E3C",
"a&	c #67726C",
"b&	c #6B5643",
"c&	c #976F56",
"d&	c #94664F",
"e&	c #92624C",
"f&	c #8D5D46",
"g&	c #8F634A",
"h&	c #926550",
"i&	c #916451",
"j&	c #98644E",
"k&	c #935F49",
"l&	c #96634E",
"m&	c #9B674F",
"n&	c #996649",
"o&	c #946645",
"p&	c #936647",
"q&	c #936649",
"r&	c #8F6C58",
"s&	c #695B52",
"t&	c #393B38",
"u&	c #4B5B5B",
"v&	c #68736D",
"w&	c #6B5541",
"x&	c #997057",
"y&	c #93654E",
"z&	c #905E49",
"A&	c #935C4A",
"B&	c #8D5E46",
"C&	c #8C6146",
"D&	c #8E634D",
"E&	c #8E614C",
"F&	c #91614B",
"G&	c #94624A",
"H&	c #96634C",
"I&	c #936048",
"J&	c #94624E",
"K&	c #93624D",
"L&	c #97654D",
"M&	c #966448",
"N&	c #946746",
"O&	c #926548",
"P&	c #8B6853",
"Q&	c #6A5A50",
"R&	c #373835",
"S&	c #4A595A",
"T&	c #69746E",
"U&	c #6B5440",
"V&	c #996F56",
"W&	c #8E5A45",
"X&	c #905847",
"Y&	c #905C47",
"Z&	c #8E5F44",
"`&	c #8A5F42",
" *	c #8B6148",
".*	c #8C6047",
"+*	c #916149",
"@*	c #926047",
"#*	c #946348",
"$*	c #936148",
"%*	c #905F4C",
"&*	c #93614B",
"**	c #906346",
"=*	c #88654E",
"-*	c #6C5B51",
";*	c #363634",
">*	c #4A5859",
",*	c #69726D",
"'*	c #6C5241",
")*	c #966A52",
"!*	c #8A5640",
"~*	c #8A5340",
"{*	c #8B5742",
"]*	c #8E5F41",
"^*	c #895E3F",
"/*	c #896043",
"(*	c #8B5F44",
"_*	c #8F6147",
":*	c #8E5F43",
"<*	c #916244",
"[*	c #906147",
"}*	c #8D5D49",
"|*	c #8C5B4A",
"1*	c #905D48",
"2*	c #915F46",
"3*	c #926443",
"4*	c #926544",
"5*	c #8E6144",
"6*	c #85614B",
"7*	c #705F54",
"8*	c #383735",
"9*	c #6C7570",
"0*	c #6F5544",
"a*	c #946750",
"b*	c #8C5C45",
"c*	c #89523E",
"d*	c #8A563F",
"e*	c #8C5D3F",
"f*	c #875B3A",
"g*	c #895F3F",
"h*	c #875D40",
"i*	c #8C5F43",
"j*	c #8C5E41",
"k*	c #8E6142",
"l*	c #8B5D43",
"m*	c #8C5C48",
"n*	c #915D4A",
"o*	c #936342",
"p*	c #926543",
"q*	c #8E6043",
"r*	c #85604A",
"s*	c #776259",
"t*	c #3B3835",
"u*	c #4B585A",
"v*	c #725847",
"w*	c #91644D",
"x*	c #8B5B44",
"y*	c #8B5741",
"z*	c #88513D",
"A*	c #88543C",
"B*	c #8A5B3D",
"C*	c #865837",
"D*	c #875C3C",
"E*	c #835B3C",
"F*	c #885D3F",
"G*	c #8A5D40",
"H*	c #8B5E3F",
"I*	c #875A40",
"J*	c #8B5B47",
"K*	c #915E4B",
"L*	c #936242",
"M*	c #8E5E42",
"N*	c #855E4A",
"O*	c #7D655D",
"P*	c #3D3734",
"Q*	c #4C565B",
"R*	c #67706B",
"S*	c #8C5F48",
"T*	c #895841",
"U*	c #8A583F",
"V*	c #834F39",
"W*	c #834F37",
"X*	c #8A5A3C",
"Y*	c #855736",
"Z*	c #845938",
"`*	c #82593B",
" =	c #855C3D",
".=	c #895C41",
"+=	c #885C3E",
"@=	c #875B40",
"#=	c #8A5A47",
"$=	c #8C5C49",
"%=	c #8F5E49",
"&=	c #905E45",
"*=	c #926141",
"==	c #926241",
"-=	c #8C5D40",
";=	c #855C4A",
">=	c #80655C",
",=	c #3C3231",
"'=	c #4A5358",
")=	c #606A64",
"!=	c #6F5747",
"~=	c #865A45",
"{=	c #7E5139",
"]=	c #805137",
"^=	c #7C4B34",
"/=	c #814F37",
"(=	c #85573A",
"_=	c #805535",
":=	c #805637",
"<=	c #7F5739",
"[=	c #82583C",
"}=	c #84593F",
"|=	c #83593D",
"1=	c #84583F",
"2=	c #855742",
"3=	c #885944",
"4=	c #8A5B45",
"5=	c #8A5A40",
"6=	c #8C5D3C",
"7=	c #8E5E3E",
"8=	c #885A3F",
"9=	c #835A49",
"0=	c #7D625A",
"a=	c #3E3332",
"b=	c #4B5358",
"c=	c #5A655D",
"d=	c #6A5547",
"e=	c #7E5643",
"f=	c #744B33",
"g=	c #764B32",
"h=	c #764932",
"i=	c #7E513B",
"j=	c #7E5338",
"k=	c #7B5336",
"l=	c #7B5538",
"m=	c #7E543C",
"n=	c #7F553D",
"o=	c #7D553C",
"p=	c #7E543D",
"q=	c #80543C",
"r=	c #83563E",
"s=	c #855840",
"t=	c #83553B",
"u=	c #865838",
"v=	c #88593C",
"w=	c #84573F",
"x=	c #7F5948",
"y=	c #765C55",
"z=	c #423636",
"A=	c #4C5359",
"B=	c #57635A",
"C=	c #635245",
"D=	c #775541",
"E=	c #714E37",
"F=	c #755039",
"G=	c #744C38",
"H=	c #79513D",
"I=	c #79533C",
"J=	c #78533B",
"K=	c #79543A",
"L=	c #79533A",
"M=	c #7B523D",
"N=	c #78523C",
"O=	c #7D543B",
"P=	c #82563E",
"Q=	c #82583F",
"R=	c #80543B",
"S=	c #815738",
"T=	c #82583B",
"U=	c #815541",
"V=	c #7E594A",
"W=	c #6E544F",
"X=	c #433939",
"Y=	c #4D555C",
"Z=	c #55635B",
"`=	c #5C4E43",
" -	c #6B503E",
".-	c #6A4E38",
"+-	c #6E503B",
"@-	c #6D4B3A",
"#-	c #72503F",
"$-	c #71523F",
"%-	c #72523F",
"&-	c #73523D",
"*-	c #76513D",
"=-	c #7A503E",
"--	c #77523E",
";-	c #78523A",
">-	c #7B553D",
",-	c #7B573F",
"'-	c #79533B",
")-	c #7A5438",
"!-	c #7A553B",
"~-	c #795241",
"{-	c #77564B",
"]-	c #68514E",
"^-	c #463D3F",
"/-	c #4E5960",
"(-	c #546560",
"_-	c #534B42",
":-	c #5B493C",
"<-	c #5E4A38",
"[-	c #604A39",
"}-	c #62473A",
"|-	c #664B40",
"1-	c #634D40",
"2-	c #674E40",
"3-	c #6A4D3E",
"4-	c #714D3E",
"5-	c #774D3E",
"6-	c #784D3D",
"7-	c #75503E",
"8-	c #73503D",
"9-	c #704D38",
"0-	c #70503A",
"a-	c #71523E",
"b-	c #6F503C",
"c-	c #6F4F37",
"d-	c #6F4F3B",
"e-	c #6C4D41",
"f-	c #6C514B",
"g-	c #63504F",
"h-	c #464044",
"i-	c #505D65",
"j-	c #576B6A",
"k-	c #464643",
"l-	c #473E36",
"m-	c #4B4233",
"n-	c #4C4032",
"o-	c #4E3D34",
"p-	c #513F39",
"q-	c #4C3E39",
"r-	c #504038",
"s-	c #553E34",
"t-	c #604135",
"u-	c #6B4134",
"v-	c #6B3F31",
"w-	c #674231",
"x-	c #5F4030",
"y-	c #604331",
"z-	c #5E4734",
"A-	c #5F4A3B",
"B-	c #5D4839",
"C-	c #5D4736",
"D-	c #5E4738",
"E-	c #5A443D",
"F-	c #594745",
"G-	c #544A4D",
"H-	c #3C3C42",
"I-	c #4E5E67",
"J-	c #62797C",
"K-	c #4A5254",
"L-	c #474846",
"M-	c #4B4D44",
"N-	c #4B4941",
"O-	c #4D4543",
"P-	c #4E4546",
"Q-	c #484446",
"R-	c #4B4643",
"S-	c #54443D",
"T-	c #674B41",
"U-	c #784D43",
"V-	c #774A3D",
"W-	c #704B3B",
"X-	c #634738",
"Y-	c #594435",
"Z-	c #54463A",
"`-	c #54483F",
" ;	c #50473E",
".;	c #52463D",
"+;	c #51463E",
"@;	c #4D4141",
"#;	c #4C4347",
"$;	c #4B4A50",
"%;	c #394149",
"&;	c #526872",
"*;	c #708990",
"=;	c #58656B",
"-;	c #555D60",
";;	c #59625F",
">;	c #585E5A",
",;	c #5A585B",
"';	c #59585D",
");	c #53585E",
"!;	c #565759",
"~;	c #615652",
"{;	c #7D6259",
"];	c #93675E",
"^;	c #926457",
"/;	c #876353",
"(;	c #775D4E",
"_;	c #594B40",
":;	c #524B45",
"<;	c #4F4B48",
"[;	c #4B4A48",
"};	c #4E4A47",
"|;	c #46454A",
"1;	c #45454D",
"2;	c #484C55",
"3;	c #3D4B54",
"4;	c #5A7681",
". + @ # $ % & * = - ; > , ' - ) ! ~ { ] ^ / ( _ : < ",
"[ } | 1 2 3 4 5 6 7 8 9 0 a a b c d e f g h i j k l ",
"m n | o p q r s t u v w x y z A B C D E F G H I J K ",
"L M N O P Q R S T U V W X Y Z `  ...+.@.#.$.%.&.*.=.",
"-.;.>.,.'.).!.~.~.{.].^./.(._.:.<.[.}.|.1.2.3.4.5.6.",
"7.8.9.0.a.b.c.d.e.f.g.h.i.j.k.l.m.n.o.p.q.r.s.t.u.v.",
"w.x.y.z.A.B.C.D.E.F.G.H.I.J.K.L.M.N.O.P.Q.R.S.T.U.V.",
"W.X.Y.Z.`. +.+++@+#+$+%+&+*+=+-+;+>+,+'+)+!+~+{+U.]+",
"^+/+(+_+:+<+[+}+|+1+2+3+4+5+6+7+8+9+0+a+b+c+d+e+f+g+",
"h+i+j+k+l+m+n+o+p+q+r+s+t+u+v+w+x+y+z+A+B+C+D+E+F+G+",
"H+I+J+K+L+M+N+O+P+Q+R+S+T+U+U+V+W+X+Y+Z+`+ @.@+@@@#@",
"$@%@&@*@=@-@;@>@,@'@)@!@~@{@]@^@/@(@_@:@<@[@}@|@1@2@",
"3@4@5@6@7@8@8 9@0@a@b@c@d@e@f@g@h@i@j@k@l@m@n@o@p@q@",
"r@s@t@u@v@w@x@y@z@A@B@C@D@E@F@h@G@H@T g I@J@K@L@M@N@",
"O@P@Q@R@S@T@U@V@W@X@Y@Z@`@ #.#+#@###$#%#&#*#=#-#;#>#",
",#'#)#!#~#{#]#^#/#(#_#:#<#[#}#|#1#2#3#4#5#6#7#8#9#0#",
"a#b#c#d#e#f#g#h#i#j#k#l#m#n#o#p#q#r#s#t#u#v#w#x#y#z#",
"A#B#C#D#E#F#G#H#I#J#K#L#M#N#O#P#Q#R#S#T#U#V#W#X#Y#Z#",
"`# $.$+$@$#$$$%$&$*$=$-$;$>$,$'$)$!$~${$]$^$/$($_$:$",
"<$[$}$|$1$2$3$4$5$6$7$8$9$0$a$b$c$d$e$f$g$h$i$j$k$:$",
"l$m$n$o$p$q$r$s$t$u$v$w$x$y$z$A$B$C$D$E$F$G$H$I$J$K$",
"L$M$N$O$P$Q$R$S$T$U$V$W$X$Y$Z$`$ %Y$.%+%@%#%$%%%&%*%",
"=%-%;%>%,%'%)%!%~%{%]%^%/%(%_%:%<%[%}%|%1%2%3%4%5%6%",
"7%8%9%0%a%b%c%d%e%f%g%h%i%j%k%l%m%n%o%p%q%r%s%t%u%v%",
"w%x%y%z%A%B%C%C%D%E%F%G%H%I%k%l%J%K%L%M%N%O%P%Q%R%S%",
"T%U%V%W%X%Y%Z%`% &.&+&@&G%#&$&%&&&*&=&-&;&>&,&'&)&!&",
"~&{&V%]&^&/&(&_&:&<&[&}&G%/&|&1&2&3&4&5&6&7&8&9&0&!&",
"a&b&c&d&e&|&Y$f&g&h&i&e&H%j&k&l&H%m&n&o&p&q&r&s&t&u&",
"v&w&x&y&z&A&Y$B&C&D&E&F&G&H&I&J&K&L&M&o&N&O&P&Q&R&S&",
"T&U&V&,%W&X&Y&Z&`& *.*+*@*#*$*V$%*&*)%o&N&**=*-*;*>*",
",*'*)*f&!*~*{*]*^*/*(*_*:*<*[*}*|*1*2*3*4*5*6*7*8*>*",
"9*0*a*b*!*c*d*e*f*g*h*i*j*k*l*m*|*n*@*o*p*q*r*s*t*u*",
"9*v*w*x*y*z*A*B*C*D*E*F*G*H*I*J*|*K*@*L*3*M*N*O*P*Q*",
"R*v*S*T*U*V*W*X*Y*Z*`* =.=+=@=#=$=%=&=*===-=;=>=,='=",
")=!=~={=]=^=/=(=_=:=<=[=}=|=1=2=3=4=5=6=7=8=9=0=a=b=",
"c=d=e=f=g=h=i=j=k=l=l=m=n=o=p=q=r=s=t=u=v=w=x=y=z=A=",
"B=C=D=E=F=G=H=I=J=K=L=M=M=N=N=O=P=Q=R=S=T=U=V=W=X=Y=",
"Z=`= -.-+-@-#-$-%-&-*-=-=-----;->-,-'-)-!-~-{-]-^-/-",
"(-_-:-<-[-}-|-1-2-3-4-5-6-7-8-9-0-a-b-c-d-e-f-g-h-i-",
"j-k-l-m-n-o-p-q-r-s-t-u-v-w-x-y-z-A-B-C-D-E-F-G-H-I-",
"J-K-L-M-N-O-P-Q-R-S-T-U-V-W-X-Y-Z-`- ;.;+;@;#;$;%;&;",
"*;=;-;;;>;,;';);!;~;{;];^;/;(;_;:;<;[;};[;|;1;2;3;4;"};
