/* XPM */
static char * sw2_xpm[] = {
"9 17 12 1",
" 	c None",
".	c #333333",
"+	c #191919",
"@	c #000000",
"#	c #4C4C4C",
"$	c #666666",
"%	c #808080",
"&	c #999999",
"*	c #B3B3B3",
"=	c #CCCCCC",
"-	c #E6E6E6",
";	c #FFFFFF",
"..+++++..",
".+@@@@@+.",
"+@@+++@@+",
"+@+...+@+",
"+@.###.@+",
"+@#$$$#@+",
"+@$%%%$@+",
"+@%&&&%@+",
"+@&***&@+",
"+@*===*@+",
"+@=---=@+",
"+@-;;;-@+",
"+@;;=;;@+",
"+@;===;@+",
".+;===;+.",
"..+;;;+..",
"..+;;;+.."};
