/* XPM */
static char * sw5_xpm[] = {
"9 25 12 1",
" 	c None",
".	c #333333",
"+	c #191919",
"@	c #FFFFFF",
"#	c #CCCCCC",
"$	c #000000",
"%	c #E6E6E6",
"&	c #B3B3B3",
"*	c #999999",
"=	c #808080",
"-	c #666666",
";	c #4C4C4C",
"..+@@@+..",
".+@###@+.",
"+$@###@$+",
"+$@@#@@$+",
"+$%@@@%$+",
"+$#%%%#$+",
"+$&###&$+",
"+$*&&&*$+",
"+$=***=$+",
"+$-===-$+",
"+$;---;$+",
"+$.;;;.$+",
"+$+...+$+",
"+$$+++$$+",
"+$$$$$$$+",
"+$$$$$$$+",
"+$$$$$$$+",
"+$$$$$$$+",
"+$$$$$$$+",
"+$$$$$$$+",
"+$$$$$$$+",
"+$$$$$$$+",
".+$$$$$+.",
"..+++++..",
"..+++++.."};
