/* XPM */
static char * switch2_xpm[] = {
"25 9 6 1",
" 	c None",
".	c #0000FF",
"+	c #333333",
"@	c #191919",
"#	c #000000",
"$	c #FFFFFF",
".+@@@@@@@@@@@@@@@@@@@@@+.",
"+@#####################@+",
"@###########$$$#########@",
"@##########$$$$$########@",
"@##########$$$$$########@",
"@##########$$$$$########@",
"@###########$$$#########@",
"+@#####################@+",
".+@@@@@@@@@@@@@@@@@@@@@+."};
