/* XPM */
static char * touchoy_xpm[] = {
"48 69 7 1",
" 	c None",
".	c #0000FF",
"+	c #333333",
"@	c #720E15",
"#	c #EDFF24",
"$	c #FFA724",
"%	c #E9D300",
"................................................",
"................................................",
"................................................",
"................................................",
"....................+++++++.....................",
"...................+++++++++....................",
"..................+++@@@@@+++...................",
"..................++@@@@@@@++...................",
"..................++@@@@@@@++...................",
"..................++@@@@@@@++...................",
"..................++@@@@@@@++...................",
"..................++@@@@@@@++...................",
"..................+++@@@@@+++...................",
"...................+++++++++....................",
"....................+++++++.....................",
"................................................",
"................................................",
"................................................",
"................................................",
"................................................",
"................................................",
"................................................",
"................................................",
"................................................",
"................................................",
"................................................",
"...########################################$$$..",
"...#######################################$$$$..",
"...######################################$$$$$..",
"...#####################################$$$$$$..",
"...#####%%%%%%%%%%%%%%%%%%%%%%%%%%%%%%%%$$$$$$..",
"...#####%%%%%%%%%%%%%%%%%%%%%%%%%%%%%%%%$$$$$$..",
"...#####%%%%%%%%%%%%%%%%%%%%%%%%%%%%%%%%$$$$$$..",
"...#####%%%%%%%%%%%%%%%%%%%%%%%%%%%%%%%%$$$$$$..",
"...#####%%%%%%%%%%%%%%%%%%%%%%%%%%%%%%%%$$$$$$..",
"...#####%%%%%%%%%%%%%%%%%%%%%%%%%%%%%%%%$$$$$$..",
"...#####%%%%%%%%%%%%%%%%%%%%%%%%%%%%%%%%$$$$$$..",
"...#####%%%%%%%%%%%%%%%%%%%%%%%%%%%%%%%%$$$$$$..",
"...#####%%%%%%%%%%%%%%%%%%%%%%%%%%%%%%%%$$$$$$..",
"...#####%%%%%%%%%%%%%%%%%%%%%%%%%%%%%%%%$$$$$$..",
"...#####%%%%%%%%%%%%%%%%%%%%%%%%%%%%%%%%$$$$$$..",
"...#####%%%%%%%%%%%%%%%%%%%%%%%%%%%%%%%%$$$$$$..",
"...#####%%%%%%%%%%%%%%%%%%%%%%%%%%%%%%%%$$$$$$..",
"...#####%%%%%%%%%%%%%%%%%%%%%%%%%%%%%%%%$$$$$$..",
"...#####%%%%%%%%%%%%%%%%%%%%%%%%%%%%%%%%$$$$$$..",
"...#####%%%%%%%%%%%%%%%%%%%%%%%%%%%%%%%%$$$$$$..",
"...#####%%%%%%%%%%%%%%%%%%%%%%%%%%%%%%%%$$$$$$..",
"...#####%%%%%%%%%%%%%%%%%%%%%%%%%%%%%%%%$$$$$$..",
"...#####%%%%%%%%%%%%%%%%%%%%%%%%%%%%%%%%$$$$$$..",
"...#####%%%%%%%%%%%%%%%%%%%%%%%%%%%%%%%%$$$$$$..",
"...#####%%%%%%%%%%%%%%%%%%%%%%%%%%%%%%%%$$$$$$..",
"...#####%%%%%%%%%%%%%%%%%%%%%%%%%%%%%%%%$$$$$$..",
"...#####%%%%%%%%%%%%%%%%%%%%%%%%%%%%%%%%$$$$$$..",
"...#####%%%%%%%%%%%%%%%%%%%%%%%%%%%%%%%%$$$$$$..",
"...#####%%%%%%%%%%%%%%%%%%%%%%%%%%%%%%%%$$$$$$..",
"...#####%%%%%%%%%%%%%%%%%%%%%%%%%%%%%%%%$$$$$$..",
"...#####%%%%%%%%%%%%%%%%%%%%%%%%%%%%%%%%$$$$$$..",
"...#####%%%%%%%%%%%%%%%%%%%%%%%%%%%%%%%%$$$$$$..",
"...#####%%%%%%%%%%%%%%%%%%%%%%%%%%%%%%%%$$$$$$..",
"...#####%%%%%%%%%%%%%%%%%%%%%%%%%%%%%%%%$$$$$$..",
"...#####%%%%%%%%%%%%%%%%%%%%%%%%%%%%%%%%$$$$$$..",
"...#####%%%%%%%%%%%%%%%%%%%%%%%%%%%%%%%%$$$$$$..",
"...####$$$$$$$$$$$$$$$$$$$$$$$$$$$$$$$$$$$$$$$..",
"...###$$$$$$$$$$$$$$$$$$$$$$$$$$$$$$$$$$$$$$$$..",
"...##$$$$$$$$$$$$$$$$$$$$$$$$$$$$$$$$$$$$$$$$$..",
"...#$$$$$$$$$$$$$$$$$$$$$$$$$$$$$$$$$$$$$$$$$$..",
"...$$$$$$$$$$$$$$$$$$$$$$$$$$$$$$$$$$$$$$$$$$$..",
"................................................",
"................................................"};
