/* XPM */
static char * touchnlO_xpm[] = {
"48 44 204 2",
"  	c None",
". 	c #0000FF",
"+ 	c #E9D300",
"@ 	c #FFEC4F",
"# 	c #FF9C71",
"$ 	c #FFE84F",
"% 	c #FFE051",
"& 	c #FFE153",
"* 	c #FFDD53",
"= 	c #FFD953",
"- 	c #FFB053",
"; 	c #FFB853",
"> 	c #FFC453",
", 	c #FFD053",
"' 	c #FFD155",
") 	c #FFD257",
"! 	c #FFB453",
"~ 	c #FFC053",
"{ 	c #FFC853",
"] 	c #FFC955",
"^ 	c #FFCA57",
"/ 	c #FFCA59",
"( 	c #FFCB5B",
"_ 	c #FFC155",
": 	c #FFC257",
"< 	c #FFC259",
"[ 	c #FFC35B",
"} 	c #FFC45D",
"| 	c #FFC561",
"1 	c #FFC663",
"2 	c #FFCA63",
"3 	c #FFBE57",
"4 	c #FFB955",
"5 	c #FFBD55",
"6 	c #FFBF59",
"7 	c #FFC05D",
"8 	c #FFC261",
"9 	c #FFC263",
"0 	c #FFC467",
"a 	c #FFC66B",
"b 	c #FFC66D",
"c 	c #FFC76F",
"d 	c #FFBB59",
"e 	c #FFBA57",
"f 	c #FFB657",
"g 	c #FFBC53",
"h 	c #FFB85B",
"i 	c #FFBD5F",
"j 	c #FFBF63",
"k 	c #FFBE69",
"l 	c #FFC46F",
"m 	c #FFC675",
"n 	c #FFC879",
"o 	c #FFC97B",
"p 	c #FFCA7F",
"q 	c #FFB95F",
"r 	c #FFB85D",
"s 	c #FFB759",
"t 	c #FFB359",
"u 	c #FFAF59",
"v 	c #FFBA61",
"w 	c #FFBC65",
"x 	c #FFBF6D",
"y 	c #FFC375",
"z 	c #FFC67B",
"A 	c #FFC983",
"B 	c #FFCC89",
"C 	c #FFCE8F",
"D 	c #FFD093",
"E 	c #FFB55D",
"F 	c #FFAC5B",
"G 	c #FFAB59",
"H 	c #FFB967",
"I 	c #FFBD6F",
"J 	c #FFC279",
"K 	c #FFCD8D",
"L 	c #FFD297",
"M 	c #FFD59F",
"N 	c #FFD8A5",
"O 	c #FFDAA9",
"P 	c #FFB761",
"Q 	c #FFB05B",
"R 	c #FFAD5D",
"S 	c #FFA95D",
"T 	c #FFBD67",
"U 	c #FFC27B",
"V 	c #FFC887",
"W 	c #FFD8AB",
"X 	c #FFDCB3",
"Y 	c #FFDFB9",
"Z 	c #FFE1BD",
"` 	c #FFE2BF",
" .	c #FFB15D",
"..	c #FFAA5F",
"+.	c #FFA461",
"@.	c #FF9E6F",
"#.	c #FFBC5D",
"$.	c #FFBB63",
"%.	c #FFCE95",
"&.	c #FFD6A5",
"*.	c #FFE5C7",
"=.	c #FFE9CD",
"-.	c #FFEBD1",
";.	c #FFECD3",
">.	c #FFB565",
",.	c #FFB361",
"'.	c #FFAE5F",
").	c #FFA169",
"!.	c #FFBE61",
"~.	c #FFCD93",
"{.	c #FFDDB5",
"].	c #FFE5C3",
"^.	c #FFE9CF",
"/.	c #FFEDD7",
"(.	c #FFEFDD",
"_.	c #FFF1E1",
":.	c #FFF3E3",
"<.	c #FFC683",
"[.	c #FFC075",
"}.	c #FFB86B",
"|.	c #FFB463",
"1.	c #FFAF61",
"2.	c #FFAB61",
"3.	c #FFA563",
"4.	c #FFA365",
"5.	c #FFC06F",
"6.	c #FFC37D",
"7.	c #FFCB8D",
"8.	c #FFD39F",
"9.	c #FFE3C3",
"0.	c #FFEAD1",
"a.	c #FFEDDB",
"b.	c #FFF2E5",
"c.	c #FFF4E9",
"d.	c #FFF8ED",
"e.	c #FFF6ED",
"f.	c #FFBB71",
"g.	c #FFB667",
"h.	c #FFB063",
"i.	c #FFA861",
"j.	c #FF9F6B",
"k.	c #FFD851",
"l.	c #FFC15F",
"m.	c #FFC067",
"n.	c #FFC785",
"o.	c #FFCF97",
"p.	c #FFF5E7",
"q.	c #FFF9F3",
"r.	c #FFFBF3",
"s.	c #FFFAF5",
"t.	c #FFBC75",
"u.	c #FFB165",
"v.	c #FFA963",
"w.	c #FFA071",
"x.	c #FFC26B",
"y.	c #FFC579",
"z.	c #FEFBF8",
"A.	c #FFFCF9",
"B.	c #FEFDFC",
"C.	c #FFCA8B",
"D.	c #FFBF7B",
"E.	c #FFBA6F",
"F.	c #FFB267",
"G.	c #FFAC63",
"H.	c #FFA467",
"I.	c #FFE44F",
"J.	c #FFCC8F",
"K.	c #FFE8CD",
"L.	c #FFFDFB",
"M.	c #FFFEFD",
"N.	c #FFCA91",
"O.	c #FFC17F",
"P.	c #FFB771",
"Q.	c #FFB369",
"R.	c #FFAD65",
"S.	c #FFE451",
"T.	c #FFC77F",
"U.	c #FFD8A9",
"V.	c #FFFFFF",
"W.	c #FFC281",
"X.	c #FFB873",
"Y.	c #FFB46B",
"Z.	c #FFAA65",
"`.	c #FFA665",
" +	c #FFA16D",
".+	c #FFEBD3",
"++	c #FFC383",
"@+	c #FFBB73",
"#+	c #FFF3E7",
"$+	c #FFC67D",
"%+	c #FFCD91",
"&+	c #FFA55D",
"*+	c #FFA067",
"=+	c #FFB865",
"-+	c #FFBB6B",
";+	c #FFC47F",
">+	c #FFC581",
",+	c #FFB257",
"'+	c #FFB25F",
")+	c #FFB769",
"!+	c #FFB96D",
"~+	c #FFA85B",
"{+	c #FFA75F",
"]+	c #FF6620",
". . . . . . . . . . . . . . . . . . . . . . . . . . . . . . . . . . . . . . . . . . . . . . . . ",
". . . + @ @ @ @ @ @ @ @ @ @ @ @ @ @ @ @ @ @ @ @ @ @ @ @ @ @ @ @ @ @ @ @ @ @ @ @ @ @ @ # # # . . ",
". . . + @ @ @ @ @ @ @ @ @ @ @ @ @ @ @ @ @ @ @ @ @ @ @ @ @ @ @ @ @ @ @ @ @ @ @ @ @ @ # # # # . . ",
". . . + @ @ @ @ @ @ @ @ @ @ @ @ @ @ @ @ @ @ @ @ @ @ @ @ @ @ @ @ @ @ @ @ @ @ @ @ @ # # # # # . . ",
". . . + @ @ @ @ @ @ @ @ @ @ @ @ @ @ @ $ % & * = = = * & % $ @ @ @ @ @ @ @ @ @ @ # # # # # # . . ",
". . . + @ @ @ @ - - - - - - - - ; > , , ' ' ) ) ) ) ) ' ' , , > ; - - - - - - - # # # # # # . . ",
". . . + @ @ @ @ - - - - - - ! ~ { ] ^ ^ / / / ( ( ( / / / ^ ^ ] { ~ ! - - - - - # # # # # # . . ",
". . . + @ @ @ @ - - - - - ; _ _ : : < [ } | | 1 2 1 | | } [ < : : : 3 4 - - - - # # # # # # . . ",
". . . + @ @ @ @ - - - - ; 5 3 3 6 7 8 9 0 a b c c c b a 0 9 8 7 6 d e e f - - - # # # # # # . . ",
". . . + @ @ @ @ - - - g 4 e d h i j k l m n o p p p o n m l k j q r s t t u - - # # # # # # . . ",
". . . + @ @ @ @ - - g 5 e d h v w x y z A B C D D D C B A z y x w v E t u F G - # # # # # # . . ",
". . . + @ @ @ @ - g ~ 3 e h v H I J A K L M N O O O N M L K A J I H P E Q R S F # # # # # # . . ",
". . . + @ @ @ @ ; { _ 3 s q T I U V D M W X Y Z ` Z Y X W M D V U I H P  .R ..+.@.# # # # # . . ",
". . . + @ @ @ @ { { : 6 #.$.x J V %.&.X Z *.=.-.;.-.=.*.Z X &.%.V J I >.,.'...+.).# # # # # . . ",
". . . + @ @ @ $ , { : 6 !.k y A ~.&.{.].^./.(._.:._.(./.^.].{.&.~.<.[.}.|.1.2.3.4.@.# # # # . . ",
". . . + @ @ @ % , ] : 7 j 5.6.7.8.X 9.0.a.b.c.d.e.d.c.b.a.0.9.X 8.7.6.f.g.h.i.3.4.j.# # # # . . ",
". . . + @ @ @ k., ^ < l.m.y n.o.W Z ^.a.p.e.q.r.s.r.q.e.p.a.^.Z W o.n.t.}.u.v.3.4.).w.# # # . . ",
". . . + @ @ $ = , ^ < 8 x.y.B 8.X *./.b.e.q.z.A.B.A.z.q.e.b./.*.X 8.C.D.E.F.G.3.H.).@.# # # . . ",
". . . + @ @ I.= , ^ [ 9 l z J.&.Y K.(.c.q.z.B.L.M.L.B.z.q.c.(.K.Y &.N.O.P.Q.R.3.H.).@.# # # . . ",
". . . + @ @ S.= , ^ [ 9 l T.D U.Z 0._.d.r.A.M.M.V.M.M.A.r.d._.0.Z U.~.W.X.Y.Z.`.H.). +# # # . . ",
". . . + @ @ % = , ^ [ 9 l T.D U.` .+:.d.s.B.M.V.V.V.M.B.s.d.:..+` U.~.++@+Y.Z.`.H.). +# # # . . ",
". . . + @ @ % = , ^ [ 9 l T.D U.Z 0._.d.r.A.M.M.V.M.M.A.r.d._.0.` U.~.W.X.Y.Z.`.H.).j.# # # . . ",
". . . + @ @ % = , ^ [ 9 l z J.&.Y K.(.c.q.z.B.M.M.M.B.z.q.c.(.K.Y &.N.O.P.Q.R.3.H.).j.# # # . . ",
". . . + @ @ % = , ^ < 8 x.y.B 8.X *./.b.e.q.z.A.B.A.z.q.e.b./.*.X 8.C.D.E.F.G.3.H.). +# # # . . ",
". . . + @ @ S.k., ^ < l.m.y n.o.W Z ^.a.#+e.q.r.s.r.q.e.#+a.^.Z W o.n.t.}.u.v.3.4.). +# # # . . ",
". . . + @ @ I.k., ] : 7 j 5.$+7.8.X 9.0.a.b.c.d.e.d.c.b.a.0.9.X 8.7.6.f.g.h.2.3.4.).@.# # # . . ",
". . . + @ @ $ k., { : 6 !.k y A ~.&.{.].^./.(._.:._.(./.^.].{.&.~.<.[.}.|.1.2.3.4.).@.# # # . . ",
". . . + @ @ @ k., { : 6 #.$.x J V %.&.X Z *.=.-.;.-.=.*.Z X &.%.V J I >.,.'...+.4.).w.# # # . . ",
". . . + @ @ @ % , { _ e s q T I U V ~.8.W X Y Z ` Z Y X W 8.~.V U I H ,. .R ..+.4.j.# # # # . . ",
". . . + @ @ @ $ , { ~ e f h P H I J <.7.o.8.&.U.U.U.&.8.o.7.<.J I H P  .Q R S +.4.@.# # # # . . ",
". . . + @ @ @ @ { { ~ 4 f s E P H I [.6.n.C.%+~.~.~.%+C.n.6.[.I H P E Q u R &++.*+# # # # # . . ",
". . . + @ @ @ @ ; > ~ 4 f f t E P =+-+I [.U 6.;+>+;+6.U [.I -+=+P E u u G F S +.@.# # # # # . . ",
". . . + @ @ @ @ - g 5 e f ,+t t  .'+|.=+)+!+E.f.f.f.E.!+)+=+|.'+ .u u u G ~+{+~+# # # # # # . . ",
". . . + @ @ @ @ - - e f t u u u Q  .'+,.|.|.g.g.g.g.g.|.|.,.'+ .Q G G G F S S - # # # # # # . . ",
". . . + @ @ @ @ - - - t u G G F F R R '.1.1.1.h.h.h.1.1.1.'.R R F F F ~+S ~+- - # # # # # # . . ",
". . . + @ @ @ @ - - - - G S S S S S ....2.2.2.2.2.2.2.2.2.....S &+&+S &+~+- - - # # # # # # . . ",
". . . + @ @ @ @ - - - - - G i.+.+.+.+.+.+.3.3.3.3.3.3.3.+.+.+.+.+.+.+.G - - - - # # # # # # . . ",
". . . + @ @ @ # # # # # # # @.).4.4.4.4.4.4.4.4.4.4.4.4.4.4.4.4.4.).@.# # # # # # # # # # # . . ",
". . . + @ @ # # # # # # # # # # @.j.).).).).).).).).).).).).).j.@.# # # # # # # # # # # # # . . ",
". . . + @ # # # # # # # # # # # # # # @.@. + +j.j.j. + +@.@.# # # # # # # # # # # # # # # # . . ",
". . . + # # # # # # # # # # # # # # # # # # # # # # # # # # # # # # # # # # # # # # # # # # . . ",
". . . ]+# # # # # # # # # # # # # # # # # # # # # # # # # # # # # # # # # # # # # # # # # # . . ",
". . . . . . . . . . . . . . . . . . . . . . . . . . . . . . . . . . . . . . . . . . . . . . . . ",
". . . . . . . . . . . . . . . . . . . . . . . . . . . . . . . . . . . . . . . . . . . . . . . . "};
