/* XPM */
static char * touch_xpm[] = {
"48 69 7 1",
" 	c None",
".	c #0000FF",
"+	c #FF0000",
"@	c #FFFFFF",
"#	c #191919",
"$	c #7F7F7F",
"%	c #000000",
"................................................",
"................................................",
"................................................",
"................................................",
"....................+++++++.....................",
"...................+++@@++++....................",
"..................+++@@@@++++...................",
"..................++@@@@@@+++...................",
"..................+++@@@@++++...................",
"..................++++@@+++++...................",
"..................+++++++++++...................",
"..................+++++++++++...................",
"..................+++++++++++...................",
"...................+++++++++....................",
"....................+++++++.....................",
"................................................",
"................................................",
"................................................",
"................................................",
"................................................",
"................................................",
"................................................",
"................................................",
"................................................",
"................................................",
"................................................",
"####$$$$$$$$$$$$$$$$$$$$$$$$$$$$$$$$$$$$$$$%%%##",
"####$$$$$$$$$$$$$$$$$$$$$$$$$$$$$$$$$$$$$$%%%%##",
"####$$$$$$$$$$$$$$$$$$$$$$$$$$$$$$$$$$$$$%%%%%##",
"####$$$$$$$$$$$$$$$$$$$$$$$$$$$$$$$$$$$$%%%%%%##",
"####$$$$################################%%%%%%##",
"####$$$$################################%%%%%%##",
"####$$$$################################%%%%%%##",
"####$$$$################################%%%%%%##",
"####$$$$################################%%%%%%##",
"####$$$$################################%%%%%%##",
"####$$$$################################%%%%%%##",
"####$$$$################################%%%%%%##",
"####$$$$################################%%%%%%##",
"####$$$$################################%%%%%%##",
"####$$$$################################%%%%%%##",
"####$$$$################################%%%%%%##",
"####$$$$################################%%%%%%##",
"####$$$$################################%%%%%%##",
"####$$$$################################%%%%%%##",
"####$$$$################################%%%%%%##",
"####$$$$################################%%%%%%##",
"####$$$$################################%%%%%%##",
"####$$$$################################%%%%%%##",
"####$$$$################################%%%%%%##",
"####$$$$################################%%%%%%##",
"####$$$$################################%%%%%%##",
"####$$$$################################%%%%%%##",
"####$$$$################################%%%%%%##",
"####$$$$################################%%%%%%##",
"####$$$$################################%%%%%%##",
"####$$$$################################%%%%%%##",
"####$$$$################################%%%%%%##",
"####$$$$################################%%%%%%##",
"####$$$$################################%%%%%%##",
"####$$$$################################%%%%%%##",
"####$$$$################################%%%%%%##",
"####$$$%%%%%%%%%%%%%%%%%%%%%%%%%%%%%%%%%%%%%%%##",
"####$$%%%%%%%%%%%%%%%%%%%%%%%%%%%%%%%%%%%%%%%%##",
"####$%%%%%%%%%%%%%%%%%%%%%%%%%%%%%%%%%%%%%%%%%##",
"####%%%%%%%%%%%%%%%%%%%%%%%%%%%%%%%%%%%%%%%%%%##",
"###%%%%%%%%%%%%%%%%%%%%%%%%%%%%%%%%%%%%%%%%%%%##",
"################################################",
"################################################"};
