/* XPM */
static char * touchw_xpm[] = {
"48 69 6 1",
" 	c None",
".	c #0000FF",
"+	c #FF0000",
"@	c #ffc0c0",
"#	c #505050",
"$	c #858585",
"................................................",
"................................................",
"................................................",
"................................................",
"....................+++++++.....................",
"...................++@@@++++....................",
"..................+@@@@@@++++...................",
"..................+@@@@@@@+++...................",
"..................+@@@@@@++++...................",
"..................+@@@@@+++++...................",
"..................++@@@++++++...................",
"..................+++++++++++...................",
"..................+++++++++++...................",
"...................+++++++++....................",
"....................+++++++.....................",
"................................................",
"................................................",
"................................................",
"................................................",
"................................................",
"................................................",
"................................................",
"................................................",
"................................................",
"................................................",
"................................................",
"...@@@@@@@@@@@@@@@@@@@@@@@@@@@@@@@@@@@@@@@@###..",
"...@@@@@@@@@@@@@@@@@@@@@@@@@@@@@@@@@@@@@@@####..",
"...@@@@@@@@@@@@@@@@@@@@@@@@@@@@@@@@@@@@@@#####..",
"...@@@@@@@@@@@@@@@@@@@@@@@@@@@@@@@@@@@@@######..",
"...@@@@@$$$$$$$$$$$$$$$$$$$$$$$$$$$$$$$$######..",
"...@@@@@$$$$$$$$$$$$$$$$$$$$$$$$$$$$$$$$######..",
"...@@@@@$$$$$$$$$$$$$$$$$$$$$$$$$$$$$$$$######..",
"...@@@@@$$$$$$$$$$$$$$$$$$$$$$$$$$$$$$$$######..",
"...@@@@@$$$$$$$$$$$$$$$$$$$$$$$$$$$$$$$$######..",
"...@@@@@$$$$$$$$$$$$$$$$$$$$$$$$$$$$$$$$######..",
"...@@@@@$$$$$$$$$$$$$$$$$$$$$$$$$$$$$$$$######..",
"...@@@@@$$$$$$$$$$$$$$$$$$$$$$$$$$$$$$$$######..",
"...@@@@@$$$$$$$$$$$$$$$$$$$$$$$$$$$$$$$$######..",
"...@@@@@$$$$$$$$$$$$$$$$$$$$$$$$$$$$$$$$######..",
"...@@@@@$$$$$$$$$$$$$$$$$$$$$$$$$$$$$$$$######..",
"...@@@@@$$$$$$$$$$$$$$$$$$$$$$$$$$$$$$$$######..",
"...@@@@@$$$$$$$$$$$$$$$$$$$$$$$$$$$$$$$$######..",
"...@@@@@$$$$$$$$$$$$$$$$$$$$$$$$$$$$$$$$######..",
"...@@@@@$$$$$$$$$$$$$$$$$$$$$$$$$$$$$$$$######..",
"...@@@@@$$$$$$$$$$$$$$$$$$$$$$$$$$$$$$$$######..",
"...@@@@@$$$$$$$$$$$$$$$$$$$$$$$$$$$$$$$$######..",
"...@@@@@$$$$$$$$$$$$$$$$$$$$$$$$$$$$$$$$######..",
"...@@@@@$$$$$$$$$$$$$$$$$$$$$$$$$$$$$$$$######..",
"...@@@@@$$$$$$$$$$$$$$$$$$$$$$$$$$$$$$$$######..",
"...@@@@@$$$$$$$$$$$$$$$$$$$$$$$$$$$$$$$$######..",
"...@@@@@$$$$$$$$$$$$$$$$$$$$$$$$$$$$$$$$######..",
"...@@@@@$$$$$$$$$$$$$$$$$$$$$$$$$$$$$$$$######..",
"...@@@@@$$$$$$$$$$$$$$$$$$$$$$$$$$$$$$$$######..",
"...@@@@@$$$$$$$$$$$$$$$$$$$$$$$$$$$$$$$$######..",
"...@@@@@$$$$$$$$$$$$$$$$$$$$$$$$$$$$$$$$######..",
"...@@@@@$$$$$$$$$$$$$$$$$$$$$$$$$$$$$$$$######..",
"...@@@@@$$$$$$$$$$$$$$$$$$$$$$$$$$$$$$$$######..",
"...@@@@@$$$$$$$$$$$$$$$$$$$$$$$$$$$$$$$$######..",
"...@@@@@$$$$$$$$$$$$$$$$$$$$$$$$$$$$$$$$######..",
"...@@@@@$$$$$$$$$$$$$$$$$$$$$$$$$$$$$$$$######..",
"...@@@@@$$$$$$$$$$$$$$$$$$$$$$$$$$$$$$$$######..",
"...@@@@#######################################..",
"...@@@########################################..",
"...@@#########################################..",
"...@##########################################..",
"...###########################################..",
"................................................",
"................................................"};
