/* XPM */
static char * touchnlR_xpm[] = {
"48 44 56 1",
" 	c None",
".	c #0000FF",
"+	c #FFD5D5",
"@	c #F61717",
"#	c #FF2828",
"$	c #FF2A2A",
"%	c #FF2C2C",
"&	c #FF2D2D",
"*	c #FF2F2F",
"=	c #FF3131",
"-	c #FF3434",
";	c #FF3636",
">	c #FF3838",
",	c #FF3A3A",
"'	c #FF3B3B",
")	c #FF3F3F",
"!	c #FF4242",
"~	c #FF4646",
"{	c #FF3333",
"]	c #FF4848",
"^	c #FF4F4F",
"/	c #FF5454",
"(	c #FF5757",
"_	c #FF5959",
":	c #FF5050",
"<	c #FF6262",
"[	c #FF6A6A",
"}	c #FF7070",
"|	c #FF7373",
"1	c #FF4949",
"2	c #FF5656",
"3	c #FF7C7C",
"4	c #FF8686",
"5	c #FF8F8F",
"6	c #FF9292",
"7	c #FF6767",
"8	c #FF7A7A",
"9	c #FF8B8B",
"0	c #FF9B9B",
"a	c #FFA9A9",
"b	c #FFB3B3",
"c	c #FFB9B9",
"d	c #FF7878",
"e	c #FFBEBE",
"f	c #FFCFCF",
"g	c #FFDCDC",
"h	c #FFE2E2",
"i	c #FF6363",
"j	c #FF9494",
"k	c #FFAEAE",
"l	c #FFCACA",
"m	c #FFF7F7",
"n	c #FFFFFF",
"o	c #FFE9E9",
"p	c #FFF6F6",
"q	c #FF8888",
"................................................",
"...++++++++++++++++++++++++++++++++++++++++@@@..",
"...+++++++++++++++++++++++++++++++++++++++@@@@..",
"...++++++++++++++++++++++++++++++++++++++@@@@@..",
"...+++++++++++++++++++++++++++++++++++++@@@@@@..",
"...+++++############$%%%&&%$$###########@@@@@@..",
"...+++++#########$%%&**====**&$#########@@@@@@..",
"...+++++#######$%&*=-;>,,,,>;-=*%#######@@@@@@..",
"...+++++######$%&=->')!~~~~!)'>-=%######@@@@@@..",
"...+++++#####$%*{;'!]^/(__(/^]!';{*#####@@@@@@..",
"...+++++####$%*{>)~:_<[}||}[<_:~)>{*####@@@@@@..",
"...+++++###$%&{>)12<}34566543}<21)>{%###@@@@@@..",
"...+++++##$$&=;)1(7890abccba09d7(1);=%##@@@@@@..",
"...+++++##$%*-']2736aefghhgfea6372]'-*##@@@@@@..",
"...+++++#$$&=>!:i8jklhmnnnnmhlk68i:!>=%#@@@@@@..",
"...+++++#$%&{']_}9alonnnnnnnnola9}_]'{&#@@@@@@..",
"...+++++#$%*;)^<30ehnnnnnnnnnnhe03<^);*$@@@@@@..",
"...+++++#$%=>!/[4afpnnnnnnnnnnpfa4[/!>=$@@@@@@..",
"...+++++#$&=,~(}5bgnnnnnnnnnnnngb5}(~,=%@@@@@@..",
"...+++++$$&=,~_|6chnnnnnnnnnnnnhc6|_~,=&@@@@@@..",
"...+++++$$&=,~_|6chnnnnnnnnnnnnhc6|_~,=&@@@@@@..",
"...+++++#$&=,~(}5bgnnnnnnnnnnnngb5}(~,=&@@@@@@..",
"...+++++#$%=>!/[4afpnnnnnnnnnnpfa4[/!>=%@@@@@@..",
"...+++++#$%*;)^<30ehnnnnnnnnnnhe03<^);*%@@@@@@..",
"...+++++#$%&{']_}9alonnnnnnnnola9}_]'{&$@@@@@@..",
"...+++++#$$&=>!:i8jklhmnnnnmhlk68i:!>=&#@@@@@@..",
"...+++++##$%*-']2736aefghhgfea6372]'-*%#@@@@@@..",
"...+++++##$$&=;)1(7890abccba09d7(1);=&$#@@@@@@..",
"...+++++###$%&{>)12i}3q5665q3}i21)>{&%##@@@@@@..",
"...+++++###$$%*{>)]:_i[}||}[i_:])>{*%$##@@@@@@..",
"...+++++####$$%*{;'!]^/(__(/^]!';{*%$###@@@@@@..",
"...+++++#####$$%&=->')!~~~~!)'>-=&%$####@@@@@@..",
"...+++++######$$%&*=-;>,,,,>;-=*&%$#####@@@@@@..",
"...+++++#######$$$%&&*======*&&%$$######@@@@@@..",
"...+++++#########$$$%%%&&&&%%%$$$#######@@@@@@..",
"...+++++###########$$$$$$$$$$$$#########@@@@@@..",
"...+++++###############$$$$#############@@@@@@..",
"...++++@@@@@@@@@@@@@@@@@@@@@@@@@@@@@@@@@@@@@@@..",
"...+++@@@@@@@@@@@@@@@@@@@@@@@@@@@@@@@@@@@@@@@@..",
"...++@@@@@@@@@@@@@@@@@@@@@@@@@@@@@@@@@@@@@@@@@..",
"...+@@@@@@@@@@@@@@@@@@@@@@@@@@@@@@@@@@@@@@@@@@..",
"...@@@@@@@@@@@@@@@@@@@@@@@@@@@@@@@@@@@@@@@@@@@..",
"................................................",
"................................................"};
