/* XPM */
static char *copy.prv_xpm[] = {
/* columns rows colors chars-per-pixel */
"32 32 194 2",
"5. c Black",
"M  c #000002",
"y  c #030A02",
"<. c #151259",
"d. c #FCFEFF",
":  c #000004",
"<  c #000005",
"x  c #17201F",
"1  c #000007",
"B  c #000009",
"@X c #00000B",
"v  c #0D1517",
"X  c #00000C",
"@  c #00000E",
"*  c #000010",
"f. c #000012",
"s  c #FFFFEF",
"A  c #000013",
"9  c #FFFFF1",
"S  c #000015",
"0  c #FFFFF3",
"u. c #FFFFF4",
"3. c #FAFBF3",
"`  c #000017",
"+. c #05010F",
"U  c #FCF8FF",
"L  c #F2F0FE",
"F  c #000019",
"i. c #FFFFF8",
"H  c #00001B",
"/. c #0F0C1F",
"]  c #00001C",
"A. c #00001E",
"p. c #FFFFFB",
"Y. c #000020",
"o. c #2C2970",
"N. c #121011",
"[  c #000022",
"m  c #FFFFFF",
"$  c #080B1A",
"D. c #000025",
"q  c #DFE1D3",
"z. c #0B0C04",
"{. c #00002C",
"c. c #0D0C1A",
"I  c #FFFCFF",
"M. c #0A0B39",
"^  c #00002E",
"D  c #121631",
"1. c #010100",
"h. c #080B2C",
"~  c #1E1E52",
"B. c #06050A",
"O. c #00003E",
",. c #000042",
"8  c #040500",
"b. c #FBFCFF",
"%  c #090C1B",
"s. c #181820",
"_  c #DFDBF4",
"Q  c #FBF9FF",
"U. c #151132",
"O  c #040210",
":. c #121051",
"u  c #050F07",
"w. c #E7E9FF",
"J. c #010135",
" . c #FBF6FF",
"E. c #ECEAFF",
"j  c #000500",
"z  c #000502",
".X c #0A0A00",
"oX c #050600",
"4  c #050C14",
"V  c #161523",
"f  c #000200",
"G  c #0C102D",
"%. c #FEFAFF",
"c  c #000204",
"]. c #1D1C48",
"T. c #F4F2FF",
"   c #070312",
"#. c #EFEBFF",
"e  c #030600",
"C  c #1E202F",
"E  c #FCFAFF",
"^. c #14121F",
"2. c #212117",
"'. c #16153F",
"}  c #E5E0FF",
"i  c #061008",
">. c #090649",
"|. c #020236",
".  c #0F0B1A",
"&. c #0C072F",
"h  c #010600",
"d  c #F3F6E5",
"N  c #FFFEFF",
"S. c #19193F",
"t. c #060700",
"p  c #010300",
"C. c #080719",
"*. c #FAF7FF",
"K  c #171321",
"n  c #010000",
"w  c #1D2113",
"-  c #010004",
"XX c #090B00",
"J  c #010009",
"@. c #01000C",
"L. c #01000E",
"F. c #0D0E3C",
"8. c #EEEFFF",
"l. c #222218",
"`. c #1C1A41",
"}. c #030337",
"b  c #181715",
"=. c #080437",
"q. c #FBFBFF",
"6. c #13131D",
"X. c #E4E1FF",
"T  c #1A1736",
"I. c #06011F",
"). c #292645",
"6  c #252C34",
"OX c #0C0C0A",
"m. c #F9FBFF",
"k. c #090B32",
"R  c #E2E1FF",
"t  c #000400",
".. c #010041",
"Q. c #F9F8FF",
"g  c #FCFFF6",
"4. c #000100",
"G. c #040436",
"/  c #040438",
"3  c #000107",
"5  c #000109",
">  c #0A090E",
",  c #0A090F",
"_. c #020123",
"9. c #FCFCFF",
")  c #161127",
"W. c #E5E2FF",
" X c #1C1C10",
"V. c #0F0D18",
"Z  c #000115",
"7. c #0A0919",
"!  c #070838",
"[. c #161747",
"v. c #E8E9FD",
"H. c #EDEDFF",
"x. c #0D0D0B",
"2  c #1C1F26",
"Z. c #1E1C34",
"(. c #0A061D",
"(  c #0F0A20",
"!. c #252362",
"a  c #010200",
"$. c #FFFAFF",
"P. c #0D0A1D",
"+X c #15181F",
"=  c #060C1C",
"y. c #F6F9E8",
";  c #1A191E",
"k  c #1D231F",
"#  c #0B0D1C",
"%X c #01051E",
"Y  c #FDFAFF",
"r. c #080939",
"+  c #1A1929",
"~. c #0B0715",
"n. c #E4E6FF",
"P  c #EEEBFC",
"a. c #F1F2F4",
"#X c #04091D",
"-. c #0D0A41",
"W  c #FBFAFF",
"0. c #F1F2FF",
"j. c #ECEEFF",
"g. c #04061D",
"|  c #E4E0FF",
"o  c #181624",
"R. c #F6F3FF",
"K. c #221E2D",
"&  c #070D1D",
"{  c #06002C",
"e. c #F9FAFF",
"$X c #0C1127",
"7  c #0A0B00",
"r  c #000300",
"l  c #000301",
"'  c #181333",
";. c #DDD9FF",
/* pixels */
"    . . X X o o O O X X + + @ @ # # @ @ $ $ % % & & * * * * = = ",
"    . . X X o o O O X X + + @ @ # # @ @ $ $ % % & & * * * * = = ",
"    . . X X o o O O X X + + @ @ # # @ @ $ $ % % & & * * * * = = ",
"- - - - ; ; : : > > , , < < 1 1 1 1 2 2 3 3 3 3 4 4 5 5 6 6 5 5 ",
"- - - - ; ; : : > > , , < < 1 1 1 1 2 2 3 3 3 3 4 4 5 5 6 6 5 5 ",
"7 7 8 8 9 9 9 9 0 0 q q w w e e r r r r t t y y u u u u t t i i ",
"7 7 8 8 9 9 9 9 0 0 q q w w e e r r r r t t y y u u u u t t i i ",
"p p a a s s d d 9 9 0 0 f f g g h h j j k k l l z z x x c c v v ",
"p p a a s s d d 9 9 0 0 f f g g h h j j k k l l z z x x c c v v ",
"b b n n m m M M : : N N B B V V C C Z Z A A S S D D F F G G H H ",
"b b n n m m M M : : N N B B V V C C Z Z A A S S D D F F G G H H ",
"J J K K L L P P I I U U Y Y T T R R E E W W Q Q ! ! ~ ~ ^ ^ / / ",
"J J K K L L P P I I U U Y Y T T R R E E W W Q Q ! ! ~ ~ ^ ^ / / ",
"( ( ) ) _ _ ` ` ' ' ] ] [ [ { { U U } } | |  . .....X.X.o.o.O.O.",
"( ( ) ) _ _ ` ` ' ' ] ] [ [ { { U U } } | |  . .....X.X.o.o.O.O.",
"+.+.@.@.I I I I #.#.$.$.%.%.&.&.*.*.=.=.-.-.;.;.:.:.>.>.,.,.<.<.",
"+.+.@.@.I I I I #.#.$.$.%.%.&.&.*.*.=.=.-.-.;.;.:.:.>.>.,.,.<.<.",
"+.+.@.@.I I I I #.#.$.$.%.%.&.&.*.*.=.=.-.-.;.;.:.:.>.>.,.,.<.<.",
"1.1.2.2.3.3.4.4.5.5.: : 6.6.7.7.8.8.9.9.0.0.q.q.w.w.e.e.e.e.r.r.",
"1.1.2.2.3.3.4.4.5.5.: : 6.6.7.7.8.8.9.9.0.0.q.q.w.w.e.e.e.e.r.r.",
"t.t.a a y.y.u.u.i.i.p.p.a.a.s.s.d.d.f.f.g.g.H H h.h.[ [ j.j.k.k.",
"t.t.a a y.y.u.u.i.i.p.p.a.a.s.s.d.d.f.f.g.g.H H h.h.[ [ j.j.k.k.",
"1.1.l.l.z.z.4.4.x.x.: : 1 1 c.c.v.v.9.9.b.b.q.q.n.n.m.m.e.e.M.M.",
"1.1.l.l.z.z.4.4.x.x.: : 1 1 c.c.v.v.9.9.b.b.q.q.n.n.m.m.e.e.M.M.",
"n n N.N.M M B.B.V.V.X X C.C.Z.Z.9.9.A.A.S.S.D.D.F.F.G.G.H.H.J.J.",
"n n N.N.M M B.B.V.V.X X C.C.Z.Z.9.9.A.A.S.S.D.D.F.F.G.G.H.H.J.J.",
"K.K.L.L.@ @ P.P.S S I.I.U.U.Y.Y.T.T.R.R.E.E.W.W.Q.Q.Q.Q.R R !.!.",
"K.K.L.L.@ @ P.P.S S I.I.U.U.Y.Y.T.T.R.R.E.E.W.W.Q.Q.Q.Q.R R !.!.",
"J J ~.~.^.^.X X /./.(.(.` ` ).)._._.`.`.'.'.].].[.[.{.{.}.}.|.|.",
"J J ~.~.^.^.X X /./.(.(.` ` ).)._._.`.`.'.'.].].[.[.{.{.}.}.|.|.",
" X X.X.XXXXXoXoX4.4.OXOX4.4.: : +X+X@X@X@ @ * * #X#XS S $X$X%X%X",
" X X.X.XXXXXoXoX4.4.OXOX4.4.: : +X+X@X@X@ @ * * #X#XS S $X$X%X%X"
};
