/* XPM */
static char * delete_xpm[] = {
"16 16 107 2",
"  	c None",
". 	c #1B0202",
"+ 	c #51758F",
"@ 	c #5A89A6",
"# 	c #6B98B8",
"$ 	c #6591AE",
"% 	c #538DB3",
"& 	c #4581AA",
"* 	c #3A749C",
"= 	c #8EA9BC",
"- 	c #D6DFE7",
"; 	c #2B232B",
"> 	c #C3DDF1",
", 	c #B6D5EE",
"' 	c #A5CCEA",
") 	c #97C4E7",
"! 	c #85BBE2",
"~ 	c #5F9BC8",
"{ 	c #72A8D2",
"] 	c #F1F4F7",
"^ 	c #47667C",
"/ 	c #3B2A2D",
"( 	c #888B94",
"_ 	c #67A1CF",
": 	c #FFFFFF",
"< 	c #A69FA1",
"[ 	c #64626A",
"} 	c #4F444A",
"| 	c #BED7EA",
"1 	c #7EA6C0",
"2 	c #8AAFCE",
"3 	c #2D232A",
"4 	c #E2EFF8",
"5 	c #2E2229",
"6 	c #53687E",
"7 	c #7EAED3",
"8 	c #57768D",
"9 	c #5D809A",
"0 	c #383B47",
"a 	c #3D5C74",
"b 	c #C0BCBE",
"c 	c #605051",
"d 	c #9498A1",
"e 	c #D1E5F5",
"f 	c #A1B9CE",
"g 	c #6C788A",
"h 	c #4E5261",
"i 	c #434C5C",
"j 	c #515F73",
"k 	c #3E3E4A",
"l 	c #6C95B4",
"m 	c #6689A5",
"n 	c #6A8CAA",
"o 	c #3C3B47",
"p 	c #577189",
"q 	c #8BB1D0",
"r 	c #F4F9FD",
"s 	c #72676A",
"t 	c #463537",
"u 	c #443538",
"v 	c #3D2C30",
"w 	c #72747E",
"x 	c #8FA0B3",
"y 	c #27161A",
"z 	c #31272F",
"A 	c #668CA8",
"B 	c #81B5DB",
"C 	c #FAFCFE",
"D 	c #DCDCDE",
"E 	c #726465",
"F 	c #9F9B9F",
"G 	c #433032",
"H 	c #8D8D91",
"I 	c #B6C3CE",
"J 	c #7AA8CC",
"K 	c #3B3A46",
"L 	c #7CAED2",
"M 	c #4A5466",
"N 	c #414453",
"O 	c #5B768F",
"P 	c #749BB4",
"Q 	c #635151",
"R 	c #5F4E4F",
"S 	c #DFE1E3",
"T 	c #F7FBFD",
"U 	c #B5B3B8",
"V 	c #594A4C",
"W 	c #594C4F",
"X 	c #9FA4AD",
"Y 	c #8AA4B6",
"Z 	c #89868C",
"` 	c #332D36",
" .	c #77A3C5",
"..	c #5E768F",
"+.	c #5D5053",
"@.	c #595E6D",
"#.	c #616B77",
"$.	c #594C4E",
"%.	c #FDFDFE",
"&.	c #D3D5DA",
"*.	c #868083",
"=.	c #362D32",
"-.	c #1D0303",
";.	c #463F46",
">.	c #717F8D",
",.	c #7995A8",
"'.	c #768D9D",
"  . + @ # $ $ % & * = -         ",
"  . ; > > , ' ) ! ~ { ~ ]     . ",
"    ^ / ( > , ' ) _ : ) # <     ",
"    = [ } | > , ' 1 : : 2 3     ",
"    = 4 5 6 7 ! ! _ 8 9 0 a     ",
"    = 4 b c d e > f g h i %     ",
"    = 4 ! j k l m n o p q %     ",
"    = 4 r r s t u v w x ' $     ",
"    = 4 ! ! 7 y z A B ! , $     ",
"    = 4 C D E F G H I e > #     ",
"    = 4 J 5 K L M N O B e P     ",
"    = 4 Q R S T r U V W X P     ",
"    Y Z ` L ! ! ! !  ...+.@.    ",
"    #.$.: : : %.C T r &.*.=.-.  ",
"    ;.>.= = = = = = = Y ,.'.  -.",
"                                "};
