/* XPM */
static char *_1121_8969152c599bf179e861363d51cac660e73e47d59c0b4ff76d8385c71f93d5dd_4[] = {
/* columns rows colors chars-per-pixel */
"64 64 183 2 ",
"   c #0083007D006A",
".  c #088907070141",
"X  c #0BC609F30219",
"o  c #064F069908E4",
"O  c #0B490B720C35",
"+  c #070708080B0B",
"@  c #11440E0E0235",
"#  c #141410AA02D0",
"$  c #1A1A15B602C3",
"%  c #1E1E19590404",
"&  c #128212821343",
"*  c #151515961818",
"=  c #1B1B1B761C3A",
"-  c #1A1A18181010",
";  c #23431CDD0424",
":  c #22221D1D0A0A",
">  c #2727207604AF",
",  c #2D8A25C90505",
"<  c #2E2E27270D0D",
"1  c #325729BC05E1",
"2  c #38B92EAF0687",
"3  c #3BE6323206B1",
"4  c #3D3D33330808",
"5  c #2D2D2A2A1C1C",
"6  c #238E23F924BA",
"7  c #2B2B2AF82B5E",
"8  c #27A828A92626",
"9  c #28D32D2D32DD",
"0  c #334A33623362",
"q  c #3CE73CE73D3D",
"w  c #424237370808",
"e  c #49893D1D08C9",
"r  c #44EF39390808",
"t  c #45453C3C1515",
"y  c #4ECF41C20A0A",
"u  c #543745B70A60",
"i  c #5C4B4CA20BB6",
"p  c #56D748C90B0B",
"a  c #6424532C0CA6",
"s  c #6C4F5A3D0D7F",
"d  c #696957570D0D",
"f  c #71315E5E0E4E",
"g  c #646455551111",
"h  c #757561610EB9",
"j  c #7923650F0F0F",
"k  c #7DFE68681010",
"l  c #575752523C3C",
"z  c #3F3F40404343",
"x  c #435D435D43AA",
"c  c #4BDE4C034C03",
"v  c #525250504848",
"b  c #542954295429",
"n  c #5C815C5C5C5C",
"m  c #41414A4A5656",
"M  c #6C6C66665050",
"N  c #5F5F69697676",
"B  c #64CB64CB64FE",
"V  c #6B156B2B6B2B",
"C  c #742E745D748B",
"Z  c #7A7A7A9F7B56",
"A  c #777777777878",
"S  c #83D96D6D1066",
"D  c #878770701111",
"F  c #8CFE74CA11F5",
"G  c #93937AD01268",
"H  c #99197EBE1313",
"J  c #87877D7D4242",
"K  c #80807E7E7575",
"L  c #81817B7B6363",
"P  c #9CCF821B13AD",
"I  c #A1F7865B143F",
"U  c #A5A589891515",
"Y  c #AB008E0E1540",
"T  c #AF5991E71616",
"R  c #B3F395351697",
"E  c #B76198981717",
"W  c #BA539A671717",
"Q  c #BE7E9E5E1818",
"!  c #C0C09F9F1818",
"~  c #C513A3CB18CA",
"^  c #C8C8A6A61919",
"/  c #CE00AAAA1A1A",
"(  c #D3D3AFAF1B1B",
")  c #D680B2401B1B",
"_  c #DA9FB57A1B7E",
"`  c #DF34B9631C1C",
"'  c #E4A4BDD21C9D",
"]  c #DD5DBD7D3A7A",
"[  c #C4C4A6A62AAB",
"{  c #EC0DC3E51DA6",
"}  c #E6E6C0C01D1D",
"|  c #F575CBBB1EF7",
" . c #F99CCF5A1F1F",
".. c #F0F0C7C71E1E",
"X. c #FF67D3F01EDC",
"o. c #EF37CA812D76",
"O. c #EAEAC6C62F2F",
"+. c #F65CCE342558",
"@. c #F8F8CFCF2323",
"#. c #F2F2CCCC2A80",
"$. c #FFE3D4082024",
"%. c #ECC1CACA345F",
"&. c #E6BBC91E3D68",
"*. c #E9E9C6C633B4",
"=. c #ABAB9C9C5F5F",
"-. c #B8F8A5A554D5",
";. c #BFBFAA2A50D1",
":. c #B3B3A4A45959",
">. c #BFBFA8A84848",
",. c #894986867ABA",
"<. c #93938D0D719C",
"1. c #9B9B92926C6C",
"2. c #A7A79A1A6363",
"3. c #C3C3AD2D4D4D",
"4. c #CDCDB35D45F0",
"5. c #CBCBB2B24B4B",
"6. c #D353B6B64141",
"7. c #DFDFC7C74F4F",
"8. c #DD5DC8485ADB",
"9. c #E262C7C74545",
"0. c #E3E3C9084808",
"q. c #CFCFC1C16565",
"w. c #D9D9C8C86767",
"e. c #D858CB0A79B9",
"r. c #77CD7E7E87DD",
"t. c #7F7F80808282",
"y. c #7CD289DF99EF",
"u. c #81F381D78249",
"i. c #8C598C598C59",
"p. c gray62",
"a. c gray57",
"s. c #933D9C46A852",
"d. c #8B8B9898A9A9",
"f. c #9C9CA8A8B7B7",
"g. c gray65",
"h. c #ACACACACACAC",
"j. c #A6A6B0B0BDBD",
"k. c gray73",
"l. c #D7D7CE4E8C8C",
"z. c #D882D1D19A9A",
"x. c #DA2FD429A34D",
"c. c #D9D9D4D4A751",
"v. c #DE33DC86BDBD",
"b. c #DB5BD858B333",
"n. c #C0C0C7C7B7B7",
"m. c #B3B3BEBECCCC",
"M. c #AEAEBEBED3D3",
"N. c #ADADB9B9C8C8",
"B. c #B6B6C1C1CFCF",
"V. c #B5B5C5C5DA9A",
"C. c #BCBCCA4ADC1B",
"Z. c #B851C55ED63C",
"A. c gray77",
"S. c #CB75CB75CB75",
"D. c #DE5EDD5DC2C2",
"F. c #CB4BD353DDDD",
"G. c #D43AD43AD43A",
"H. c #DC86DC86DC86",
"J. c #C2C2C9C9D0D0",
"K. c #E0E0DFDFC9C9",
"L. c #E363E2E2CD4D",
"P. c #E44AE4E4D43A",
"I. c #E6E6E767D8D8",
"U. c #E868E969DCDC",
"Y. c #C949D555E565",
"T. c #D2A7DD07E9E9",
"R. c #D3D3D9D9E1E1",
"E. c #DCDCE49BEE80",
"W. c #DEDEE73CF0F0",
"Q. c #E4B1E4B1E4B1",
"!. c #EB37EB84EB04",
"~. c #E6E6E9B6E47D",
"^. c #EEEEF0F0EFEF",
"/. c #E0E0E7E7F19B",
"(. c #E53AEB6BF31D",
"). c #EB40EFEFF5F5",
"_. c #EE43F20EF6D9",
"`. c #EFEFF3F3F8F8",
"'. c #F55FF5F5F59F",
"]. c #F359F628F992",
"[. c #F789F966FB8D",
"{. c #FF97FFACFFC6",
"}. c None",
/* pixels */
"}.}.}.}.}.}.}.}.}.}.}.}.}.}.}.}.}.}.}.}.}.}.}.}.}.}.}.}.}.}.}.}.& }.}.}.}.}.}.}.}.}.}.}.}.}.}.}.}.}.}.}.}.}.}.}.}.}.}.}.}.}.}.}.",
"}.}.}.}.}.}.}.}.}.}.}.}.O }.}.}.}.}.}.}.}.}.}.}.}.}.}.}.}.}.}.}.* }.}.}.}.}.}.}.}.}.}.}.}.}.}.}.}.}.}.}.}.}.}.}.}.}.}.}.}.}.}.}.",
"}.}.}.}.}.}.}.}.}.}.}.}.= }.}.}.}.}.}.}.}.}.}.}.}.}.}.}.}.}.}.}.}.O }.}.}.}.}.}.}.}.}.}.}.}.}.}.}.}.}.}.}.}.}.}.}.}.}.}.}.}.}.}.",
"}.}.}.}.}.}.}.}.}.}.}.}.& }.}.}.}.}.}.}.}.}.}.}.}.}.}.}.}.}.V.M.r.9 }.}.}.}.}.}.}.}.}.}.}.}.}.}.}.}.}.}.}.}.}.}.}.}.}.}.}.}.}.}.",
"}.}.}.}.}.}.}.}.}.}.}.}.& }.}.}.}.}.}.}.}.}.}.}.}.}.V.T._.[.[.[._.F.d.}.}.}.}.}.}.}.}.}.}.}.}.}.}.}.}.}.}.}.}.}.}.}.}.}.}.}.}.}.",
"}.}.}.}.}.}.}.}.}.}.}.}.& }.}.}.}.}.}.}.}.}.}.}.}.T.].{.{.{.{.{.{.{._.N.}.}.}.}.}.}.}.}.}.}.}.}.}.}.}.}.}.}.}.}.}.}.}.}.}.}.}.}.",
"}.}.}.}.}.}.}.}.}.}.}.}.& }.}.}.}.}.}.}.}.}.}.}.W.{.{.{.{.{.{.{.{.{.{.].f.}.}.}.}.}.}.}.}.}.}.}.}.}.}.}.}.}.}.}.}.}.}.}.}.}.}.}.",
"}.}.}.}.}.}.}.}.}.}.}.}.6 }.}.}.}.}.}.}.}.}.}.(.{.{.{.{.{.{.{.{.{.{.{.{./.}.}.}.}.}.}.}.}.}.}.}.}.}.}.}.}.}.}.}.}.}.}.}.}.}.}.}.",
"}.}.}.}.}.}.}.}.}.}.Y.T.F.m.}.}.}.}.}.}.}.}.W.{.{.{.{.{.{.{.{.{.{.{.{.{.[.j.}.}.}.}.}.}.}.}.}.}.}.}.}.}.}.}.}.}.}.}.}.}.}.}.}.}.",
"}.}.}.}.}.}.}.}.Y.`.{.{.{.[._.Z.}.}.}.}.}.T.{.{.{.{.{.{.{.{.{.{.{.{.{.{.{.H.}.}.}.}.}.}.}.}.}.}.}.}.}.}.}.}.}.}.}.}.}.}.}.}.}.}.",
"}.}.}.}.}.}.}.W.{.{.{.{.{.{.{.[.B.}.}.}.C.[.{.{.{.{.{.{.{.{.{.{.{.{.{.{.{.).N }.}.}.}.}.}.}.}.}.}.}.}.}.}.}.}.}.}.}.}.}.}.}.}.}.",
"}.}.}.}.}.}.E.{.{.{.{.{.{.{.{.{.`.y.}.}.).{.{.{.{.{.{.{.{.{.{.{.{.{.{.{.{.[.y.}.}.}.}.}.}.}.}.}.}.}.}.}.}.}.}.}.}.}.}.}.}.}.}.}.",
"}.}.}.}.}.T.{.{.{.{.{.{.{.{.{.{.{.Z.}.J.{.{.{.{.{.{.{.{.{.{.{.{.{.{.{.{.{.{.s.}.}.}.}.}.}.}.}.}.}.}.}.}.}.}.}.}.}.}.}.}.}.}.}.}.",
"}.}.}.}.V.].{.{.{.{.{.{.{.{.{.{.{.E.y.(.{.{.{.{.{.{.{.{.{.{.{.{.{.{.{.{.{.{.s.}.}.}.}.}.}.}.}.}.}.}.}.}.}.}.}.}.}.}.}.}.}.}.}.}.",
"}.}.}.}.E.{.{.{.{.{.{.{.{.{.{.{.{._.C.[.{.{.{.{.{.{.{.{.{.{.{.{.{.{.{.{.{.{.s.}.}.}.}.}.}.}.}.}.}.}.}.}.}.}.}.}.}.}.}.}.}.}.}.}.",
"}.}.}.V.[.{.{.{.[.'.'.{.{.{.{.{.{.).(.{.{.{.{.{.'.!.'.{.{.{.{.{.{.{.{.{.{.[.r.}.}.}.}.}.}.}.}.}.}.}.}.}.}.}.}.}.}.}.}.}.}.}.}.}.",
"}.}.}.T.{.{.{.[.p.q n G.{.{.{.{.{.W._.{.{.{.'.g.c 0 b A.{.{.{.{.{.{.{.{.{.'.m   O }.}.}.}.}.}.}.}.}.}.}.}.}.}.}.}.}.}.}.}.}.}.}.",
"}.}.}.(.{.{.{.k.*   8 G.{.{.{.{.[.E.{.{.{.{.i.O     b H.{.{.{.{.{.{.{.{.{.!.J 1 . o }.}.}.}.}.}.}.}.}.}.}.}.}.}.}.}.}.}.}.}.}.}.",
"}.}.}.].{.{.{.B     i.{.{.{.{.{.].W.{.{.{.A.=     * A.{.{.{.{.{.{.{.{.{.{.L.%.} G >   O }.}.}.}.}.}.}.}.}.}.}.}.}.}.}.}.}.}.}.}.",
"}.}.V.[.{.{.~.0   o k.{.{.{.{.{.).(.{.{.{.V       7 !.{.{.{.{.{.{.{.{.{.{.c.@.$.$._ a X o }.}.}.}.}.}.}.}.}.}.}.}.}.}.}.}.}.}.}.",
"}.}.V.[.{.{.G.=   o h.{.{.{.{.{.(.).{.{.!.0       8 Q.{.{.[.{.{.{.{.{.{.'.w.$.$.$.$.+.H % o }.}.}.}.}.}.}.}.}.}.}.}.}.}.}.}.}.}.",
"}.}.V.{.{.{.G.=     B [.{.{.{.{./.`.{.{.H.=       + g.{.[.k.~.{.{.{.{.{.P.&.X.$.$.$.X.X.W > o }.}.}.}.}.}.}.}.}.}.}.}.}.}.}.}.}.",
"}.}.Z.[.{.{.G.=     O C S.{.{.{.E._.{.{.G.=         8 i.u.x H.{.{.{.{.{.z.+.$.$.$.$.$.$.$.Q ; o }.}.}.}.}.}.}.}.}.0 8 - + }.}.}.",
"}.}.}.].{.{.!.0         i.{.{.'.n._.{.{.Q.8               0 !.{.{.{.{.~.7.X.$.$.$.$.$.$.$.X.R $ & }.}.}.}.= 5 t g F W i   }.}.}.",
"}.}.}.(.{.{.{.V       & B.{.{.b.q.^.{.{.'.c               b [.{.{.{.{.z.+.X.$.$.$.$.$.@.X.X.$.F X 7 0 < i F Q '  .X.$.j     }.}.",
"}.}.}.f.[.{.{.A.6     n '.{.P.0.&.~.{.{.{.a.            o p.{.{.{.{.P.7.X.$.$.$.$.$.$.$.$.X.$...u o l [ +.$.X.$.$.$.$.j     }.}.",
"}.}.}.9 Z.{.{.{.h.c V H.{.I.w.X.#.D.{.{.{.~.q           x !.{.{.{.'.e.$.$.$.$.$.$.$.$.$.$.$.$.$.~ $ 7 >.$.X.$.$.$.$.$.s     }.}.",
"}.}.O % :.I.[.{.{.'.{.[.D.8.X.$.$.l.[.{.{.{.S.z o   + x G.{.{.{.{.x.o.X.$.$.$.$.$.$.$.$.$.$.$.$. .f + M O.X.$.$.$.$.$.s     }.}.",
"}.}.o h X.9.z.P.~.U.v.e.&.$.$.$.X.0.Q.{.{.{.{.~.g.i.h.!.{.{.{.{.v.&.X.$.$.$.$.$.$.$.$.$.$.$.$.$.X.~ # 0 -.$.$.$.$.$.$.i     }.}.",
"}.O # ~ X.X.$.%.0.&.o.$.X.$.$.$.$.$.l.].{.{.{.{.{.{.{.{.{.{.{.v.9.X.X.$.$.$.$.$.$.$.$.$.$.$.$.$.X.| r & L O.X.$.$.$.| u     }.}.",
"}.o r | X.$.$.X.X.X.X.X.$.$.$.$.$.$.%.b.[.{.{.{.{.{.{.{.{.'.c.&.X.X.$.$.$.$.$.$.$.$.$.$.$.$.$.$.$.$.F   n 5.X.$.$.$.| w     }.}.",
"}.o D X.X.X.$.$.X.X.X.X.$.$.$.$.$.$.X.%.x.^.{.{.{.{.{.[.L.e.#.$.X.X.$.$.$.X.X.@.$.$.$.$.$.$.$.$.$.$.~ # z 2.$.$.$.$.} 1     }.}.",
"& # Q $.$.$.$.X.$.$.$.$.$.$.$.$.$.$.$.$.#.8.c.D.P.L.c.e.&.$.X.$.X.@.$.$.$.$.$.$.$.$.$.$.$.$.$.$.$.$.` ; 7 <.o.$.$.$._ %     }.}.",
"O % _ $.$.$.$.X.$.$.$.$.$.$.$.$.$.$.$.$.$.$.+.#.%.%.+.X.X.$.$.$.X.X.$.$.$. .@.$.$.$.$.$.$.$.$.$.$.$.{ 2 = Z ] $.$.$.^ #     }.}.",
"o 1 { $.$.$.@.X.$.$.$.$.$.$.X.$.$.$.$.$.$.$.X.X.X.X.$.$.X.$.$.$.X.$.$.$.$.I U X.$.$.$.$.$.$.$.$.$.X. .e * C 5.$.$.$.T       }.}.",
"o 4 ..$.$.$.$.$.$.$.$.$.$.$.$.$.$.$.$.$.$.$.$.X.X.X.$.$.$.$.$.$.$.$.$.$.$.) i E $.$.$.$.$.$.$.$.$.X. .u * C 3.$.$.$.D       }.}.",
"+ e | $.$.$.$.$.$.$.$.$.$.$.$.$.$.$.$.$.$.$.$.X.$.$.$.$.$.$.$.$.$.$.$.| ~ G G i } $.$.$.$.$.$.$.$.$. .u & C -.$.$.$.i       }.}.",
"o r | $.$.$.$.$.$.$.$.$.$.$.$.$.$.$.$.$.$.$.$.@.$.$.$.$.$.$.$.$.$.$.~ d a G _ h R $.$.$.$.$.$.$.$.$.| w * C -.$.$.{ 3       }.}.",
"o 2 ..$.$.$.$.$.$.$.$.$.$.$.$.$.$.$.$.$.$.$.$.$.$.$.$.$.$.$.X.X.@.U p T | $.$.~ / $.@.$.$.$.$.$.$.$.} , 6 Z -.$.$.) $       }.}.",
"o > ' $.$.$.$.$.$.$.$.$.$.$.$.$.$.$.$.$.$.$.$.$.$.$.$.$.$.$.X.@.P i _ $.$.$.$.$.X.X.X.$.$.$.$.$.$.$.) $ 0 r.3.$.$.Y .       }.}.",
"O # ~ X.X.$.$.$.$.$.$.$.$.$.$.$.@.X.$.$.$.$.$.$.$.$.$.$.$.$.X.Y p _ X.$.$.$.$.$.$.$.$.$.$.$.$.$.$.X.T X c u.4.X.$.j         }.}.",
"}.o P X.X.X.$.$.$.~ / $.$.$.$.$.$.X.$.$.$.$.$.$.$.$.$.$.$.$.~ p ( X.$.$.$.$.$.$.$.$.$.$.$.$.$.$.$.X.s + B ,.] X.| e         }.}.",
"}.o i  .$.$.$.$.$.E p G } $.$.$.$.$.$.$.$.X.$.$.$.$.$.$.$._ p Q $.$.$.$.$.$.$.$.$.$.$.$.$.$.$.$.$.} , = A <.O.$.) $         }.}.",
"}.O % _ $.$.$.$.$.$._ j i T ..$.$.$.$.$.$.X.X.@.$.$.$.X.' i P $.$.$.$.$.$.$.$.$.$.$.$.$.$.$.$.$.$.U X x u.=.$.$.P .         }.}.",
"}.}.o G $.$.$.$.$.$.$.$.~ s g T { $.$.$.$.$.$.$.$.$.$._ i G $.$.$.$.$.$.$.$.$.$.$.$.$.$.$.$.$.$...y & V ,.4.$.$.a           }.}.",
"}.}.+ 1 ' X.$.$.$.$.$.$.X.| W d i P _ | $.$.$.$.$...Y p P  .$.$.$.$.$.$.$.$.$.$.$.$.$.$.$.$.$.X.P X q t.<.o.$.' ,           }.}.",
"}.}.}.. k $.$.$.$.$.$.$.X.X.$. .^ D i a D I T U D a s ^ $.$.$.$.$.$.$.$.$.$.$.$.$.$.$.$.$.$.$.) , & V t.;.$.$.R .           }.}.",
"}.}.}.+ $ Q $.$.$.$.$.$.$.$.$.$.$.$.{ ^ I D k S P /  .$.$.$.$.$.X.$.$.$.$.$.$.$.$.$.$.$.$.$.| a o c t.<.O.X.$.s             }.}.",
"}.}.}.}.  3 _ $.$.$.$.$.$.$.$.$.$.$.$.$.$.$.$.$.$.$.$.$.$.$.$.$.$.$.$.$.$.$.$.$.$.$.$.$.$. .D . 0 Z ,.3.$.$.} 1             }.}.",
"}.}.}.}.& . p } $.$.$.$.$.$.$.$.$.$.$.$.$.$.$.$.$.$.$.$.$.$.$.$.$.$.$.$.$.$.$.$.$.$.$.$.$.H @ = V t.2.#.X.X.T X             }.}.",
"}.}.}.}.}.O   i } $.$.$.$.$.$.$.$.$.$.$.$.$.$.$.$.$.$.$.$.$.$.$.$.$.$.$.$.$.$.$.$.$.$.$.G X = V t.<.*.X.$.$.s               }.}.",
"}.}.}.}.}.}.O . p _ $.$.$.$.$.$.$.$.$.$.$.$.$.$.$.$.$.$.$.$.$.$.$.$.$.X.$.$.$.$.$.$.} j @ = V u.,.] X.X.$.` >               }.}.",
"}.}.}.}.}.}.}.* o 1 R X.$.$.$.$.$.$.$.$.$.$.$.$.$.$.$.$.$.$.$.$.$.$.$.$.$.$.$.$.$.^ e   6 V u.,.6.$.$.$.$.P .               }.}.",
"}.}.}.}.}.}.}.}.8 O X s _ $.$.$.$.$.$.$.$.$.$.$.$.$.$.$.$.$.$.$.$.$.$.$.$.$.$.` S %   + n t.<.6.$.$.$.$. .p                 }.}.",
"}.}.}.}.}.}.}.}.}.x 6 o > D _ $.$.$.$.$.$.$.$.$.$.$.$.$.$.$.$.$.$.$.$.$.$.` F 1       6 Z 1.] $.$.$.$.$./ $                 }.}.",
"}.}.}.}.}.}.}.}.}.}.}.x =   ; d E } $.$.$.X.$.$.$.$.$.$.X.$.$.$.$.$.' E s > .         v :.%.$.$.$.$.$.$.D                   }.}.",
"}.}.}.}.}.}.}.}.}.}.}.}.n c 8 O X , a G Q ) } | |  . .+.| ' ) W G a , X             : [ @.$.$.$.$.$.$.{ 3                   }.}.",
"}.}.}.}.}.}.}.}.}.}.}.}.}.}.V n x = O . X % , 4 e u p e 4 , % X                     f X.$.$.$.$.$.$.$.E X                   }.}.",
"}.}.}.}.}.}.}.}.}.}.}.}.}.}.}.}.V C B n x 0 6 = & * = o                           # ^ X.$.$.$.$.$.$.$.a                     }.}.",
"}.}.}.}.}.}.}.}.}.}.}.}.}.}.}.}.}.}.b V C Z Z C A C C 0                           y | X.$.$.$.$.$.$.` ;                     }.}.",
"}.}.}.}.}.}.}.}.}.}.}.}.}.}.}.}.}.}.}.}.}.}.x b n B B x o                         H X.+.| +.| | | @.H                     }.}.}.",
"}.}.}.}.}.}.}.}.}.}.}.}.}.}.}.}.}.}.}.}.}.}.}.}.}.}.}.}.}.}.                    . y a a d d a a a s 1                   }.}.}.}.",
"}.}.}.}.}.}.}.}.}.}.}.}.}.}.}.}.}.}.}.}.}.}.}.}.}.}.}.}.}.}.}.}.}.}.}.}.}.}.}.}.}.}.}.}.}.}.}.}.}.}.}.}.}.}.}.}.}.}.}.}.}.}.}.}.",
"}.}.}.}.}.}.}.}.}.}.}.}.}.}.}.}.}.}.}.}.}.}.}.}.}.}.}.}.}.}.}.}.}.}.}.}.}.}.}.}.}.}.}.}.}.}.}.}.}.}.}.}.}.}.}.}.}.}.}.}.}.}.}.}."
};
