/* XPM */
static char *_1121_8969152c599bf179e861363d51cac660e73e47d59c0b4ff76d8385c71f93d5dd_3[] = {
/* columns rows colors chars-per-pixel */
"48 48 179 2 ",
"   c #007700720052",
".  c #088907070303",
"X  c #0C620AB50404",
"o  c #05D306A00909",
"O  c #070708080AB5",
"+  c #0AD80B0B0B72",
"@  c #113C0E640384",
"#  c #10100E0E0A0A",
"$  c #1A7015EB0485",
"%  c #1D1D18990586",
"&  c #141413130EB9",
"*  c #1D5D19DA0B4B",
"=  c #181814950606",
"-  c #1279125F122C",
";  c #189917171394",
":  c #17171717199A",
">  c #1C4F1C1C1B82",
",  c #21A21D9E0A0A",
"<  c #23231D1D0606",
"1  c #2BC524BE066D",
"2  c #282822A30B0B",
"3  c #262621210909",
"4  c #313129290687",
"5  c #33F42B6B0848",
"6  c #38B92EAF0808",
"7  c #303027270606",
"8  c #3C3C31B20707",
"9  c #21A221E222A3",
"0  c #29902A5D2CC6",
"q  c #242428282D2D",
"w  c #333331312626",
"e  c #2C2C2D2D3131",
"r  c #2F2F30303434",
"t  c #338933DE33DE",
"y  c #36B736B73838",
"u  c #3906396C3AD4",
"i  c #3C3C3A3A3333",
"p  c #44C539390889",
"a  c #4A4A3D93095F",
"s  c #434337370808",
"d  c #4F4F41410909",
"f  c #51514343098A",
"g  c #56D748C90B0B",
"h  c #5B9B4C0C0B4B",
"j  c #56564A4A1818",
"k  c #649753860C73",
"l  c #6C1659030C62",
"z  c #71D85E2B0D74",
"x  c #686859591717",
"c  c #767662220E8F",
"v  c #79CF64BA0F0F",
"b  c #7E7E69690F0F",
"n  c #7F7F6A6A1010",
"m  c #4D4D45452020",
"M  c #3DBE3EBF4242",
"N  c #42C342ED4343",
"B  c #4B0B4B4B4B8B",
"V  c #535352524E4E",
"C  c #5494549454D5",
"Z  c #5A5A5A5A5B28",
"A  c #565657575B5B",
"S  c #63635C5C4040",
"D  c #7F7F77775656",
"F  c #57575E5E6868",
"G  c #585860606C6C",
"H  c #61B7623762B8",
"J  c #69EA69EA69EA",
"K  c #6E6E6E6E7070",
"L  c #7B147B487C7C",
"P  c #747474747474",
"I  c #84C46E1810BB",
"U  c #878770701111",
"Y  c #8CA374E91258",
"T  c #93337A5A1293",
"R  c #98D87E7E1293",
"E  c #909077771111",
"W  c #9E37835013AD",
"Q  c #A5FB8A34146A",
"!  c #AB2B8E0E1596",
"~  c #A3A387871414",
"^  c #ADAD90901616",
"/  c #B21893FA1616",
"(  c #B7B798981717",
")  c #B9F99A5A16D7",
"_  c #BDBD9D9D1818",
"`  c #ADAD92922626",
"'  c #B4B49C9C3838",
"]  c #C0C09F9F1818",
"[  c #C3A3A2421878",
"{  c #C9C9A6A61919",
"}  c #CCF7AA5419C4",
"|  c #D29FAEE11A1A",
" . c #D66FB2181B1B",
".. c #DB23B5DA1B64",
"X. c #DF5FB9791C1C",
"o. c #E46DBDE51CA6",
"O. c #DADABCBC3F3F",
"+. c #E0E0BFBF3737",
"@. c #EC16C4191D9E",
"#. c #E7E7C0C01D1D",
"$. c #F0F0C7C71E1E",
"%. c #F550CB821EB1",
"&. c #F9B9CF4F1F1F",
"*. c #FF54D3F01EAD",
"=. c #EFEFCA4A2D2D",
"-. c #F764CF3C256E",
";. c #F418CCF129BC",
":. c #F8F8CFCF2323",
">. c #FFD6D4272027",
",. c #E6E6C41932DD",
"<. c #EEEECCCC3737",
"1. c #F1B1CE4E3373",
"2. c #B9B9A6265616",
"3. c #BDBDA6A64949",
"4. c #95958E0E6EEF",
"5. c #98988F8F6A6A",
"6. c #9D9D94146CED",
"7. c #818180807C7C",
"8. c #94D48E0E7333",
"9. c #A5FB9999650F",
"0. c #D4D4B7B74141",
"q. c #C0C0AAAA5050",
"w. c #E9E9CD224545",
"e. c #E7E7CCCC4A4A",
"r. c #E767CDCD53D4",
"t. c #E4E4CF4F6262",
"y. c #E338CF796C16",
"u. c #E0E0CFCF7373",
"i. c #E2E2D1D17575",
"p. c #89DF89DF89DF",
"a. c #818180808080",
"s. c gray60",
"d. c #BABAB4B48282",
"f. c #89899494A1A1",
"g. c #A5FBA5FBA5FB",
"h. c #AE03AE03AE03",
"j. c #A2A2A7A7A9A9",
"k. c #AAAAB1B1BBBB",
"l. c gray71",
"z. c gray72",
"x. c #D4D4CA4A8707",
"c. c #E0E0D47E8CE2",
"v. c #E262D8589C9C",
"b. c #E28CDA2FA4A4",
"n. c #E4E4DE88B15B",
"m. c #E3E3DFDFBDBD",
"M. c #E666E262BF3F",
"N. c #B5B5BFBFCCCC",
"B. c #BD3DC747D3D3",
"V. c #C3C3C3C3C3C3",
"C. c #D0D0D6D6CECE",
"Z. c #C5C5CBCBD37D",
"A. c #C7C7CECED8D8",
"S. c gray82",
"D. c #DB30DB85DC31",
"F. c #D454D858DE5E",
"G. c #E8E8E666CDCD",
"H. c #E3E3E1E1C4C4",
"J. c #EAEAE993D781",
"K. c #C2C2CFCFE0E0",
"L. c #C8C8D4D4E48E",
"P. c #D429DB85E439",
"I. c #D1D1DC31E93E",
"U. c #DE10E4B1ED86",
"Y. c #D7D7E0E0ECEC",
"T. c #DEDEE6E6F0F0",
"R. c #E4E4E4E4E4E4",
"E. c #EC96EC96EC96",
"W. c #E3E3E868EDED",
"Q. c #F1F1F1F1EAEA",
"!. c #E52DEB7DF360",
"~. c #ECECEF99F348",
"^. c #EE18F247F7A1",
"/. c #F4B4F554F463",
"(. c #F3C8F6A0FA7A",
"). c #F7F7F992FB61",
"_. c #FF7FFF96FFB7",
"`. c #F7F7F8F8F7F7",
"'. c None",
/* pixels */
"'.'.'.'.'.'.'.'.'.'.'.'.'.'.'.'.'.'.'.'.'.'.'.'.- '.'.'.'.'.'.'.'.'.'.'.'.'.'.'.'.'.'.'.'.'.'.'.",
"'.'.'.'.'.'.'.'.'.'.'.'.'.'.'.'.'.'.'.'.'.'.'.'.- '.'.'.'.'.'.'.'.'.'.'.'.'.'.'.'.'.'.'.'.'.'.'.",
"'.'.'.'.'.'.'.'.'.- '.'.'.'.'.'.'.'.'.'.'.'.'.'.F '.'.'.'.'.'.'.'.'.'.'.'.'.'.'.'.'.'.'.'.'.'.'.",
"'.'.'.'.'.'.'.'.'.- '.'.'.'.'.'.'.'.'.'.U.(.).).~.Z.'.'.'.'.'.'.'.'.'.'.'.'.'.'.'.'.'.'.'.'.'.'.",
"'.'.'.'.'.'.'.'.'.- '.'.'.'.'.'.'.'.I.)._._._._._._.U.'.'.'.'.'.'.'.'.'.'.'.'.'.'.'.'.'.'.'.'.'.",
"'.'.'.'.'.'.'.'.'.q '.'.'.'.'.'.'.Y.)._._._._._._._._.A.'.'.'.'.'.'.'.'.'.'.'.'.'.'.'.'.'.'.'.'.",
"'.'.'.'.'.'.'.I.U.P.B.'.'.'.'.'.I.)._._._._._._._._._./.'.'.'.'.'.'.'.'.'.'.'.'.'.'.'.'.'.'.'.'.",
"'.'.'.'.'.K.~._._._._.!.'.'.'.A.)._._._._._._._._._._._.k.'.'.'.'.'.'.'.'.'.'.'.'.'.'.'.'.'.'.'.",
"'.'.'.'.L.(._._._._._._.P.'.'.!._._._._._._._._._._._._.Z.'.'.'.'.'.'.'.'.'.'.'.'.'.'.'.'.'.'.'.",
"'.'.'.'.^._._._._._._._.).f.B._._._._._._._._._._._._._.F.'.'.'.'.'.'.'.'.'.'.'.'.'.'.'.'.'.'.'.",
"'.'.'.U._._._._._._._._._.B.U._._._._._._._._._._._._._.F.'.'.'.'.'.'.'.'.'.'.'.'.'.'.'.'.'.'.'.",
"'.'.'.(._._.).E._._._._._.T.)._._._./.Q.)._._._._._._._.Z.'.'.'.'.'.'.'.'.'.'.'.'.'.'.'.'.'.'.'.",
"'.'.I._._./.P y z._._._.).!._._.`.s.u u l._._._._._._._.j.+ O '.'.'.'.'.'.'.'.'.'.'.'.'.'.'.'.'.",
"'.'.!._._.g.. 9 S._._._.^.^._._.s.+   N R._._._._._._._.x.R 6 . '.'.'.'.'.'.'.'.'.'.'.'.'.'.'.'.",
"'.'.~._._.H   C )._._._.!.(._.E.y     p._._._._._._._.`.t.*.o.I = o '.'.'.'.'.'.'.'.'.'.'.'.'.'.",
"'.'.^._./.N   B `._._._.!.)._.V.#     L _.)./._._._._.J.<.>.>.>.) 5 o '.'.'.'.'.'.'.'.'.'.'.'.'.",
"'.'.^._./.N   - g./._._.!._._.h..     0 V.l.g._._._._.v.:.>.>.>.>. .6 o '.'.'.'.'.'.'.'.t 9 '.'.",
"'.'.!._.).Z     + h._./.C.)._.l.O       - & p._._._.E.r.*.*.>.>.>.>.} 1 : '.'.'.w m x Y h   '.'.",
"'.'.P._._.s.    > S._.n.x.)._.D.>         + l._._._.b.>.*.>.>.>.>.>.>.^ * t j U ) X.:.*.R   '.'.",
"'.'.F W._.E.C > p.).G.w.r./._.).J         N E._._.J.e.*.>.>.>.>.>.>.*.>.z > ' *.>.>.>.>.T   '.'.",
"'.'., d./._.Q.D./.M.e.*.1.G._._.D.B . o t V._._./.u.>.>.>.>.>.>.>.>.>.>...< S =.>.>.>.>.Y   '.'.",
"'.O k -.t.b.H.n.i.1.*.*.>.c.)._._.E.l.h.R._._.`.c.-.&.>.>.>.>.>.>.>.>.>.*.z 9 q.>.>.>.>.n   '.'.",
"'.@ ) >.*.:.;.-.*.*.*.*.>.1.H._._._._._._._.Q.c.;.>.>.>.>.>.>.>.>.>.>.>.>._ & D -.>.>.>.c   '.'.",
"'.6 @.>.>.*.*.>.>.>.>.*.>.*.w.M.)._._._.`.G.y.-.>.>.>.>.>.>.>.>.>.>.>.>.*.#.5 V O.>.>.>.h   '.'.",
"O k >.>.>.>.>.>.>.>.>.&.>.>.&.;.y.b.n.v.y.<.*.*.>.>.>.>.>.*.*.>.>.>.>.>.>.&.a u 2.>.*.&.p   '.'.",
"o U >.>.>.>.>.>.>.>.>.>.>.>.>.&.&.&.:.:.*.>.>.>.>.>.>.%.} :.>.>.>.>.>.>.>.>.l e 9.>.>.#.1   '.'.",
". W *.>.>.>.>.>.>.>.>.>.>.>.>.>.*.*.>.>.*.*.>.>.>.>.>.&.Y ^ >.>.>.>.>.>.>.>.z 0 5.-.*. .=   '.'.",
"+ ~ >.>.>.>.>.>.>.>.>.>.>.>.>.>.>.*.>.>.>.>.>.>.>.>...~ R v ..>.>.>.>.>.>.>.z 0 4.;.*./ .   '.'.",
"o W >.>.>.>.>.>.>.>.>.>.&.>.>.>.>.>.>.>.>.>.>.>.>.! v / o./ { *.>.>.>.>.>.*.k r 4.;.*.U     '.'.",
"o U >.>.>.>.>.>.>.>.>.>.>.>.>.>.>.>.>.>.>.>.>.>.W Y @.>.>.:.&.*.>.>.>.>.>.:.p M 6.-.*.g     '.'.",
"o k >.>.>.>.>.&.*.*.>.>.>.>.>.>.>.>.>.>.>.>.>.! U &.>.>.>.>.>.>.>.>.>.>.>...3 A 9.>.o.1     '.'.",
"+ 5 @.>.>.>.$.E ] :.>.>.>.>.>.>.>.>.>.>.>.>._ n @.>.>.>.>.>.>.>.>.>.>.>.*.Q ; K 2.*.] X     '.'.",
"'.@ ( >.>.>.>...U U  .>.>.*.*.>.>.>.>.>.>.} c o.>.>.>.>.>.>.>.>.>.>.>.>.&.g e 7.0.>.U       '.'.",
"'.o k >.>.>.>.>.&.[ n E  .:.>.>.>.>.>.>.[ c  .>.>.>.>.>.>.>.>.>.>.>.>.>.[ * Z 8.=.&.d       '.'.",
"'.'.= ] >.>.>.>.*.>.$.] n U ! } X.X.{ Y U ..>.>.>.>.>.>.>.>.>.>.>.>.>.$.f 0 7.2.>.| $       '.'.",
"'.'.o d @.>.>.>.>.>.>.>.&. .^ T I U T [ %.>.>.>.>.>.>.>.>.>.>.>.>.>.>.E - H 8.,.*.W         '.'.",
"'.'.'.. v :.>.>.>.>.>.>.>.>.>.>.>.:.*.>.>.>.>.>.>.>.>.>.>.>.>.>.>.>./ $ B 7.2.*.&.d         '.'.",
"'.'.'.'.@ Y &.*.>.>.>.>.>.>.>.>.>.>.*.>.>.>.>.>.>.>.>.>.>.>.>.>.>.( < y L 9.-.>.| $         '.'.",
"'.'.'.'.+ @ I -.>.>.>.>.>.>.>.>.>.>.>.>.>.>.>.>.>.>.>.>.>.>.>.>.~ < u L 8.,.*.>.Y           '.'.",
"'.'.'.'.'.- # h  .>.>.>.>.*.>.>.>.>.>.>.>.>.>.>.>.>.>.*.>.>.o.l X u L 8.+.>.>.$.s           '.'.",
"'.'.'.'.'.'.'.: 1 Y o.>.>.>.>.>.>.>.>.>.>.>.>.>.>.>.>.*.o.R 4   - K 6.,.*.>.*.[ @           '.'.",
"'.'.'.'.'.'.'.'.y ; 4 n { $.>.>.>.>.>.>.>.>.*.*.>.$.{ I 4 .     y 2.=.*.>.>.>.c             '.'.",
"'.'.'.'.'.'.'.'.'.C u 9 * 8 l W ) {  .....} ( W l 8 @         X ` >.*.>.>.>.o.1             '.'.",
"'.'.'.'.'.'.'.'.'.'.'.H A N 0 > ; * * 2 % @ .                 a $.>.>.>.>.>.Q .             '.'.",
"'.'.'.'.'.'.'.'.'.'.'.'.'.Z J K J H H H y                   . W >.>.>.>.>.&.g               '.'.",
"'.'.'.'.'.'.'.'.'.'.'.'.'.'.'.'.'.B C Z N .                 $ [ #.#.o.X.o.[ $               '.'.",
"'.'.'.'.'.'.'.'.'.'.'.'.'.'.'.'.'.'.'.'.'.'.'.'.'.'.'.'.'.'.'.'.'.'.'.'.'.'.'.'.'.'.'.'.'.'.'.'.",
"'.'.'.'.'.'.'.'.'.'.'.'.'.'.'.'.'.'.'.'.'.'.'.'.'.'.'.'.'.'.'.'.'.'.'.'.'.'.'.'.'.'.'.'.'.'.'.'."
};
