/* XPM */
static char *_1121_8969152c599bf179e861363d51cac660e73e47d59c0b4ff76d8385c71f93d5dd_2[] = {
/* columns rows colors chars-per-pixel */
"32 32 161 2 ",
"   c #00B000A50054",
".  c #080807070101",
"X  c #0BB60A600404",
"o  c #0BCC0B8C0A8B",
"O  c #121210100A0A",
"+  c #189914950384",
"@  c #111111111111",
"#  c gray10",
"$  c #22A31E1E0909",
"%  c #20201B1B0404",
"&  c #282821210505",
"*  c #2B2B24A5098A",
"=  c #252520200A0A",
"-  c #328829D40606",
";  c #32B32AAB098A",
":  c #38382F2F0A0A",
">  c #3DBE33B40A0A",
",  c #282823231010",
"<  c #262625251E1E",
"1  c #33332C2C1414",
"2  c #3F3F38381D1D",
"3  c #25A625A624A5",
"4  c #2BAC2BAC2C2C",
"5  c #34B532322525",
"6  c #3A3A36362323",
"7  c #333332F33272",
"8  c #3E3E3F3F3F3F",
"9  c #46463A3A09CA",
"0  c #4C4C3F3F0C0C",
"q  c #44EF3BE61515",
"w  c #4F4F42420C0C",
"e  c #555546460B0B",
"r  c #56D74A4A1515",
"t  c #616151510C8D",
"y  c #6B6B59590D0D",
"u  c #71715E5E0E0E",
"i  c #616152D31515",
"p  c #75F661E20F0F",
"a  c #77F863E41111",
"s  c #5BDC55D63636",
"d  c #67675A5A2727",
"f  c #616156562D2D",
"g  c #7A7A6A6A2424",
"h  c #3E3E3F3F4343",
"j  c #44C5454545C6",
"k  c #49CA48C94343",
"l  c #4ACB4B4B4C8C",
"z  c #525251514F4F",
"x  c #595955554444",
"c  c #47474C4C5252",
"v  c #4F4F50505353",
"b  c #52A852FD54AA",
"n  c #58D959595B5B",
"m  c #7F7F74744747",
"M  c #6A6A68685F5F",
"N  c #5E5E5F5F6262",
"B  c #7F7F7C7C6E6E",
"V  c #68686E6E7878",
"C  c gray47",
"Z  c #81816C6C1111",
"A  c #8C8C749F123D",
"S  c #8F8F78781B1B",
"D  c #909077771212",
"F  c #94617B1412E0",
"G  c #99197F7F1313",
"H  c #9CDC82021313",
"J  c #A2A28686146A",
"K  c #A6D18A8A14EA",
"L  c #AC2C8F0F1616",
"P  c #AE5890E615C0",
"I  c #B48195C816B0",
"U  c #B7B798981717",
"Y  c #BAFA9B1B1697",
"T  c #BC7C9C5C1858",
"R  c #BEBEA4A43C3C",
"E  c #C0C09F9F1818",
"W  c #C57CA3A318D0",
"Q  c #C8C8A6A61919",
"!  c #CE4EAB2B199A",
"~  c #D3A0AF7C1980",
"^  c #DA5AB4F41B5B",
"/  c #DEDEB9391B9C",
"(  c #D7D7B2B21A1A",
")  c #E349BCBC1C83",
"_  c #DF5FBFBF3DBE",
"`  c #E7E7C0C01D1D",
"'  c #EC1EC3A91D84",
"]  c #F0F0C6C61D1D",
"[  c #F624CBFA1EC2",
"{  c #F9F9CF8F1F1F",
"}  c #FF34D3731E33",
"|  c #EDEDC7C72E2E",
" . c #E3E3C1C12E2E",
".. c #F474CD8D29EA",
"X. c #FFC9D466203A",
"o. c #F777D0D02E2E",
"O. c #E7E7C5C53636",
"+. c #EEEECA4A3131",
"@. c #EAEAC7C73636",
"#. c #F3F3CFCF3737",
"$. c #F4F4D15138B9",
"%. c #ACAC9B9B5555",
"&. c #B9B9A6A65858",
"*. c #BCBCA8A85555",
"=. c #8E8E87876767",
"-. c #A3A397976767",
";. c #A5A598986565",
":. c #DADABCBC4040",
">. c #F0F0D0D04545",
",. c #EE98D3285656",
"<. c #ECECD3D35F5F",
"1. c #EDEDD7576B6B",
"2. c #EDEDD4D46262",
"3. c #ECECD7577474",
"4. c #7F7F85858D8D",
"5. c #84DA84DA84DA",
"6. c #8E8E8E8E8E8E",
"7. c #9D1D9D1D9D1D",
"8. c gray59",
"9. c gray68",
"0. c #AEAEB5B5BEBE",
"q. c #B6B6B7B7BABA",
"w. c #BC3CBC3CBC3C",
"e. c gray70",
"r. c #EBEBD9D98383",
"t. c #EEEEDFDF9292",
"y. c #EBEBDEDE9B9B",
"u. c #CECECBCBB1B1",
"i. c #E3E3DADAA2A2",
"p. c #EBEBE2E2AC2C",
"a. c #ECECE3E3B4B4",
"s. c #B434BDBDC8C8",
"d. c #BBBBC242CB4B",
"f. c #C302C343C2C2",
"g. c gray81",
"h. c #C2C2C9C9D3D3",
"j. c gray85",
"k. c #D2D2D2D2D2D2",
"l. c #EEEEE9E9C949",
"z. c #EFEFECECD5D5",
"x. c #F0F0ECECD0D0",
"c. c #F1F1EEEED9D9",
"v. c #DEDEDFDFE0E0",
"b. c #D5D5DEDEE9E9",
"n. c #DD5DE161E666",
"m. c #DA5AE262ECEC",
"M. c #E439E58FE4E4",
"N. c #E1E1E6E6EDED",
"B. c #E7E7EAEAEEEE",
"V. c #EC41EC96EB95",
"C. c #F6F6F6F6EEEE",
"Z. c #F3F3F1F1E2E2",
"A. c #E666EBEBF2F2",
"S. c #EA6AEE6EF474",
"D. c #EBEBF0F0F6F6",
"F. c #EFEFF3F3F8F8",
"G. c #F39DF3F3F465",
"H. c #F49EF6CBFA4F",
"J. c #F7F7F9F9FB7B",
"K. c #FF2EFF54FF6D",
"L. c None",
/* pixels */
"L.L.L.L.L.L.L.L.L.L.L.L.L.L.L.L.L.L.L.L.L.L.L.L.L.L.L.L.L.L.L.L.",
"L.L.L.L.L.L.L.L.L.L.L.L.L.L.L.L.c L.L.L.L.L.L.L.L.L.L.L.L.L.L.L.",
"L.L.L.L.L.L.L.L.L.L.L.L.L.S.H.K.B.d.L.L.L.L.L.L.L.L.L.L.L.L.L.L.",
"L.L.L.L.L.L.L.L.L.L.L.L.H.K.K.K.K.J.0.L.L.L.L.L.L.L.L.L.L.L.L.L.",
"L.L.L.L.m.A.n.h.L.L.L.H.K.K.K.K.K.K.v.L.L.L.L.L.L.L.L.L.L.L.L.L.",
"L.L.L.A.K.K.K.J.d.L.S.K.K.K.K.K.K.K.G.L.L.L.L.L.L.L.L.L.L.L.L.L.",
"L.L.m.K.K.K.K.K.N.s.K.K.K.K.K.K.K.K.J.4.L.L.L.L.L.L.L.L.L.L.L.L.",
"L.L.H.K.G.H.K.K.G.B.K.K.V.H.K.K.K.K.H.V L.L.L.L.L.L.L.L.L.L.L.L.",
"L.b.K.M.v 8.K.K.H.J.K.6.7 7.K.K.K.K.V.s X L.L.L.L.L.L.L.L.L.L.L.",
"L.N.K.7.o f.K.K.S.K.f.o # j.K.K.K.K.x. .H ; L.L.L.L.L.L.L.L.L.L.",
"L.A.K.C . e.K.K.S.K.5.  # g.V.G.K.K.y.} X.~ w L.L.L.L.L.L.L.L.L.",
"L.N.K.5.  4 k.J.M.K.5.    7 b M.K.C.,.} X.X./ w L.L.L.s g i . L.",
"L.s.J.f.@ 4 v.p.i.K.9..     l G.K.p.X.X.X.X.X.! 1 d T / ..P . L.",
"L.5 u.J.q.f.a.#.1.J.C.N o 3 q.K.c.>.} X.X.X.X.X.A f o.X.} P . L.",
"L.t +.3.t.1.o.} #.x.K.V.f.j.K.Z.<.{ X.X.X.X.X.X.^ 2 R X.X.J   L.",
"O K } } } } } X.} ,.c.K.K.J.l.,.} X.X.X.X.X.X.X.X.i m X.X.A   L.",
"* ~ X.X.X.X.X.X.X.{ $.3.r.2...} X.X.X.X.X.X.X.X.X.Z x | } p   L.",
": ) } X.X.X.X.X.X.X.X.} } } X.X.X.X.~ I X.X.X.X.X.G k _ } e   L.",
"9 ` X.X.X.X.} } X.X.X.X.X.X.X.X.X.W K G / X.X.X.X.H k :.' -   L.",
"; ) X.X.X.X.} } X.X.X.X.X.X.X.X.L U ] ' ] X.X.X.X.Z b _ ~ +   L.",
"$ W X.X.] ) X.} X.X.X.X.X.X.X.I T X.X.X.X.X.X.X.{ r M O.K     L.",
"o A X.X.) K T ..X.X.X.X.X.X.E I X.X.X.X.X.X.X.X.~ 6 =...y     L.",
"L.9 | } X.[ W J T ) [ { ' U P [ X.X.X.X.X.X.X.X.a l &.' -     L.",
"L.X D } X.X.X.[ ! L K K K W } X.X.X.X.X.X.X.X.Y 6 B O.Y X     L.",
"L.L.= U } X.X.X.X.X.[ [ X.X.X.X.X.X.X.X.X.X.~ q N *.X.p       L.",
"L.L.L.; U X.X.X.X.X.X.X.X.X.X.X.X.X.X.X.X.Q q b ;...' -       L.",
"L.L.L.L., A ' } X.X.X.X.X.X.X.X.X.X.} ' F = b -.| } I .       L.",
"L.L.L.L.L.3 q F ( [ X.X.X.X.X.X.[ ^ H >   3 %...} } t         L.",
"L.L.L.L.L.L.h 7 6 r p A H H A u 9 + .     S X.X.} ^ +         L.",
"L.L.L.L.L.L.L.L.b v l j j 7             & / X.X.X.F .         L.",
"L.L.L.L.L.L.L.L.L.L.L.L.L.h .           9 W W W W 9           L.",
"L.L.L.L.L.L.L.L.L.L.L.L.L.L.L.L.L.L.L.L.L.L.L.L.L.L.L.L.L.L.L.L."
};
