/* XPM */
static char *Info_xpm[] = {
/* columns rows colors chars-per-pixel */
"32 32 157 2",
"z  c #002479",
"E  c #3264D5",
"V  c #577DEB",
"I  c #EDEFF6",
"N  c #667DC7",
"e  c #6680D4",
"Q  c #356BD5",
"c. c #1C51BE",
"@. c #738FDB",
"q  c #FAFBFC",
"   c #FFFFFF",
"y. c #5D7FCD",
":  c #2650B8",
"-  c #3F6AD1",
"Z. c #295DC3",
"H  c #3953C8",
"<  c #344CC0",
"n. c #154AB9",
"8. c #6787D4",
"$  c #3058C1",
"%. c #2459CA",
"x. c #295DCE",
"F  c #012E94",
"C  c #537DEC",
"o  c #012E95",
"]  c #3D6DDC",
"t  c #587EED",
"t. c #4271E0",
"s  c #3750C5",
"m. c #2253BA",
"A. c #0E3DA3",
"Y  c #567BDA",
"h. c #3660B6",
"p. c #0E3DA4",
"f  c #5D73C9",
"l  c #1341A7",
".. c #09369C",
",. c #4F74C6",
"G  c #4265D1",
"P  c #5B79D7",
"#. c #597CCD",
"'  c #6384D4",
"c  c #3159C2",
"&  c #4262D1",
"{  c #255ACB",
"$. c #2F62D2",
"f. c #3466D6",
"U  c #EAEDF5",
"R  c #3E6EDE",
"j. c #235AC9",
"M. c #0F3EA4",
"r. c #5C86F0",
"D. c #002C91",
"O  c #0A379D",
"G. c #00206A",
"3. c #002C92",
"+  c #0A379E",
"9. c #466DBF",
"x  c #002C93",
".  c #002375",
"v. c #738EC6",
"r  c #577CEB",
"d. c #507EEA",
"i. c #2B62CE",
"C. c #3066D0",
"2. c #3066D1",
"*  c #486AD8",
"%  c #3E5FCD",
"9  c #364EC4",
"Z  c #4B77E6",
"S  c #3567D7",
"/  c #4360D3",
"1. c #1A50C2",
"y  c #5883EF",
";  c #1543A9",
"b. c #6F8BC4",
"n  c #415DD1",
"5. c #587DEB",
"|  c #2C63CF",
"B. c #3167D1",
"D  c #3164CA",
"4  c #5376E6",
"j  c #4C78E7",
",  c #2D44BA",
"u  c #3161C6",
"5  c #5B84EE",
">  c #3552C3",
"~  c #09359C",
"w  c #FBFBFC",
"_  c #567AE9",
"+. c #567AEA",
"*. c #164DBF",
"w. c #2A5DC4",
"&. c #1B51C3",
")  c #5173E3",
"3  c #4C6CDC",
" . c #07359C",
"s. c #2F5EC4",
"h  c #547DEC",
"6  c #3462C7",
"B  c #6881CA",
"#  c #113DA4",
"J  c #425ED2",
"X. c #4F73DF",
"V. c #2D64D0",
"7. c #4D79E8",
"a  c #2E45BB",
"!  c #002E95",
"z. c #4174DF",
"@  c #002579",
"S. c #001F66",
"i  c #002270",
"a. c #002271",
"u. c #4168BA",
"K  c #4A69DB",
"1  c #5468BF",
"e. c #001F68",
"k  c #4B7CE6",
"d  c #405BCF",
";. c #577BEA",
"v  c #3149BE",
"O. c #5274E4",
"}  c #1C52C4",
"^  c #4869D8",
"l. c #2B5BC0",
">. c #6E8CD9",
"6. c #557EEC",
":. c #557EED",
"g  c #6985D9",
"4. c #3F6BD1",
"7  c #2F49BC",
"T  c #4976E5",
"2  c #5A70C7",
"=. c #537BE5",
"F. c #06339A",
"(  c #4B6ADC",
"p  c #3754C5",
"0  c #5569C1",
"g. c #4C71C4",
"q. c #184FC0",
"N. c #2C5FC5",
"k. c #2254BA",
"-. c #5375E5",
"<. c #2257C9",
"8  c #2D43BA",
"W  c #275BCC",
"[  c #3163D4",
"m  c #4967DA",
"`  c #748EDB",
"A  c #406FDF",
"L  c #5172E2",
"o. c #4C6BDD",
"=  c #4F75DF",
"b  c #3852C7",
"0. c #1950C1",
"M  c #4F6FDF",
"X  c #002D94",
/* pixels */
"                . . X X o o O O + + o o X X @ @                 ",
"                . . X X o o O O + + o o X X @ @                 ",
"            X X # # $ $ % % & & * * = = - - ; ; X X             ",
"            X X # # $ $ % % & & * * = = - - ; ; X X             ",
"        X X : : > > , , < < 1 1 2 2 3 3 4 4 5 5 6 6 X X         ",
"        X X : : > > , , < < 1 1 2 2 3 3 4 4 5 5 6 6 X X         ",
"    X X : : 7 7 8 8 9 9 0 0 q q w w e e r r t t y y u u X X     ",
"    X X : : 7 7 8 8 9 9 0 0 q q w w e e r r t t y y u u X X     ",
"i i # # p p a a s s d d f f w w w w g g t t h h j j k k l l z z ",
"i i # # p p a a s s d d f f w w w w g g t t h h j j k k l l z z ",
"x x c c v v b b n n m m M M N N B B V V C C Z Z A A S S D D X X ",
"x x c c v v b b n n m m M M N N B B V V C C Z Z A A S S D D X X ",
"F F G G H H J J K K L L P P I I U U Y Y T T R R E E W W Q Q ! ! ",
"F F G G H H J J K K L L P P I I U U Y Y T T R R E E W W Q Q ! ! ",
"~ ~ ^ ^ / / ( ( ) ) _ _ ` `         ' ' ] ] [ [ { { } } | |  . .",
"~ ~ ^ ^ / / ( ( ) ) _ _ ` `         ' ' ] ] [ [ { { } } | |  . .",
"....X.X.o.o.O.O.+.+.t t @.@.        #.#.$.$.%.%.&.&.*.*.| |  . .",
"....X.X.o.o.O.O.+.+.t t @.@.        #.#.$.$.%.%.&.&.*.*.| |  . .",
"X X =.=.-.-.;.;.t t :.:.>.>.        ,.,.<.<.1.1.*.*.*.*.2.2.X X ",
"X X =.=.-.-.;.;.t t :.:.>.>.        ,.,.<.<.1.1.*.*.*.*.2.2.X X ",
"3.3.4.4.5.5.t t 6.6.7.7.8.8.        9.9.0.0.*.*.*.*.q.q.w.w.X X ",
"3.3.4.4.5.5.t t 6.6.7.7.8.8.        9.9.0.0.*.*.*.*.q.q.w.w.X X ",
"e.e.l l r.r.h h j j t.t.y.y.        u.u.*.*.*.*.*.*.i.i.p.p.a.a.",
"e.e.l l r.r.h h j j t.t.y.y.        u.u.*.*.*.*.*.*.i.i.p.p.a.a.",
"    3.3.s.s.d.d.A A f.f.g.g.        h.h.*.*.*.*.j.j.k.k.x x     ",
"    3.3.s.s.d.d.A A f.f.g.g.        h.h.*.*.*.*.j.j.k.k.x x     ",
"        X X l.l.z.z.x.x.c.c.v.v.b.b.n.n.q.q.i.i.m.m.X X         ",
"        X X l.l.z.z.x.x.c.c.v.v.b.b.n.n.q.q.i.i.m.m.X X         ",
"            3.3.M.M.N.N.B.B.V.V.V.V.C.C.Z.Z.A.A.x x             ",
"            3.3.M.M.N.N.B.B.V.V.V.V.C.C.Z.Z.A.A.x x             ",
"                S.S.D.D.X X F.F.F.F.X X 3.3.G.G.                ",
"                S.S.D.D.X X F.F.F.F.X X 3.3.G.G.                "
};
