/* XPM */
static char *ENVELOPE_xpm[] = {
/* columns rows colors chars-per-pixel */
"24 22 4 1",
". c Black",
"X c #FFFFFF",
"o c #808080",
"  c #C0C0C0",
/* pixels */
" ...................... ",
".XXXXXXXXXXXXXXXXXXXXXo.",
".X                   oo.",
".X                   oo.",
".X                   oo.",
".X  ...............  oo.",
".X  .XXXXXXXXXXXXX.  oo.",
".X  .X....XXXXX..X.  oo.",
".X  .XXXXXXXXXX..X.  oo.",
".X  .XXXXXXXXXXXXX.  oo.",
".X  .XXXX......XXX.  oo.",
".X  .XXXXXXXXXXXXX.  oo.",
".X  .XXXX.....XXXX.  oo.",
".X  .XXXXXXXXXXXXX.  oo.",
".X  ...............  oo.",
".X                   oo.",
".X                   oo.",
".X                   oo.",
".X                   oo.",
".Xooooooooooooooooooooo.",
".oooooooooooooooooooooo.",
" ...................... "
};
