/* XPM */
static char *Folder-Add_xpm[] = {
/* columns rows colors chars-per-pixel */
"32 32 223 2",
"n. c #72CD43",
"#. c #CF6C07",
"OX c #58D247",
"4  c #F89905",
"4X c #FDF09B",
"7X c #F39819",
"=. c #D1983B",
";. c #EC9D26",
"{. c #FDF3B5",
"G. c #84E96F",
"9  c #F3E8AB",
";  c #FBE470",
"@. c #F9A307",
"[  c #E2D073",
"8  c #F3E5A9",
"p. c #FDFB59",
"4. c #FCAD0D",
"6X c #F08205",
"A  c #EFE582",
"1  c #F6990F",
"*  c #F4AB36",
"+  c #FFFFFF",
"L  c #FBE47C",
"-X c #FDF0BA",
"7  c #F3E2A6",
"D  c #EFE27D",
"(. c #6ED04A",
"5  c #F6E697",
"+X c #6BC64D",
"b. c #7DDC57",
"G  c #EFDC77",
"'  c #E2C76D",
"+. c #FBC938",
"_  c #E2C465",
"{  c #DBC96E",
"k  c #FFFE95",
"o. c #70BE38",
"}  c #D0A549",
"W. c #FEF7B8",
"1X c #4DCB3D",
"x  c #FFFB91",
"j  c #FFFB93",
"U  c #FCEE8A",
"j. c #FCD332",
"B. c #FCD947",
"2X c #69C34C",
"c  c #FFF88E",
",  c #F4930F",
"U. c #FCE26C",
"7. c #F9CC44",
"v  c #FFF58A",
".X c #FEFDDC",
"t  c #FDFB8B",
"p  c #FAA40F",
"C  c #F0E683",
"h. c #FCCD2F",
"s  c #FEDF80",
"#  c #F2E9A9",
"_. c #6CC442",
"<X c #6CC74E",
"f. c #FCCA2D",
"g. c #FCCA2E",
"L. c #50CC3F",
"%  c #F5ED9B",
"!  c #EADBB0",
"E  c #D4B95F",
"I. c #EF860F",
"@  c #F5EA99",
"8X c #F59D1C",
"q. c #FCE8A0",
".. c #71BF37",
"s. c #EF830C",
",. c #74CC42",
"X  c #EF830F",
"*X c #FCEEB9",
"wX c #FBAE1C",
"5. c #EF800A",
"0. c #FAD045",
"Z. c #FDD438",
"Y  c #FBF28C",
"a  c #FDE67E",
"]. c #FDEF9F",
"k. c #FDEC97",
"}. c #FDF5B7",
"v. c #89EF73",
"9X c #F6A11C",
"'. c #F08A12",
"d. c #FBD742",
"X. c #6BC844",
"eX c #FCB21C",
";X c #FDF2BB",
"$. c #D19134",
"J. c #71E25E",
"%. c #D19137",
"3. c #FDFA5B",
"   c #ED7705",
"=X c #FDEFB9",
"T  c #EADD7D",
"g  c #FEF08B",
"F. c #78DD65",
"r. c #FEF39C",
"F  c #EFDE7B",
":. c #FCE14D",
"N  c #FEED8A",
"m. c #6EC940",
"=  c #F1EDC9",
"R  c #DBC86D",
"S. c #FEF09D",
"u. c #78D149",
"z  c #FFFD93",
"`  c #E2C36A",
"M  c #FEE785",
"%X c #F18B11",
"H  c #EDDB72",
"9. c #F9CE45",
"a. c #FDB00D",
"r  c #FDFD8C",
"i. c #FFFDA2",
"e  c #FDFD8D",
"2  c #F79C0F",
"@X c #FEFCDA",
" X c #FEFCDB",
"T. c #FCE16C",
"m  c #FEE181",
"y  c #FDFA89",
"yX c #64B22D",
"C. c #FCCF34",
"I  c #FCE786",
"u  c #FDF787",
",X c #FEF9DC",
"W  c #EADDB1",
"V. c #FCCC33",
"b  c #FDF483",
"J  c #EE9E0D",
"M. c #69B02A",
"~  c #EADAAF",
"&X c #FCEA9F",
"P  c #FCE181",
":  c #F29214",
"N. c #EF850D",
"z. c #74CE43",
"l. c #6FC739",
"|  c #F3A82C",
"`. c #69AD28",
"E. c #FDEB73",
"0X c #F8A61C",
"!. c #79D24F",
"~. c #79D250",
"<  c #F5960F",
".  c #EF820F",
"$X c #FED888",
"uX c #5EBE38",
"<. c #72D75F",
"&  c #F3A229",
"y. c #81E66D",
"O. c #FCE198",
"5X c #FEB10F",
"V  c #FBF48E",
"n  c #FBA70F",
"(  c #D88B0A",
"/. c #6EE05B",
"aX c #FEAB06",
"Q. c #72CB48",
"w. c #FDEEA2",
"*. c #D1963A",
")  c #DC790C",
"q  c #FEF890",
"qX c #F9AA1C",
">X c #FDF4BB",
":X c #FDF4BC",
"[. c #FDF1B3",
"c. c #7FDD58",
"H. c #82ED6D",
"2. c #FEFBA3",
"&. c #D19339",
"Z  c #EFE682",
">  c #F3900F",
"1. c #75CF47",
" . c #FADB97",
"tX c #FFDF99",
"S  c #EFE380",
"6  c #F3E0A5",
"l  c #FFFF95",
"|. c #FEF8B8",
"e. c #FEEF9A",
"K  c #EE830F",
">. c #FEEF9B",
"f  c #FEE987",
"O  c #EE8311",
"K. c #5ED54C",
"-. c #D29A3C",
"D. c #6CCE48",
"/  c #D3B051",
"R. c #FCE66F",
"6. c #F9D048",
"#X c #FEFBCD",
"rX c #FDB51C",
"8. c #F9CD44",
"XX c #FEFEDC",
"^. c #7BDA56",
"d  c #FEE383",
"w  c #FDFC8D",
"t. c #76D045",
"0  c #F7EEA2",
"x. c #76D046",
"h  c #FFF690",
"i  c #FDF682",
"B  c #FFF38E",
"$  c #F2EAAA",
"). c #6CC544",
"Y. c #FCDD69",
"3X c #FEF8DB",
"oX c #71CC53",
"]  c #E3CC71",
"Q  c #EADCB0",
"^  c #EAD9AD",
"A. c #FDDB3C",
"-  c #F2EDCA",
"o  c #EF840F",
"iX c #62AE2C",
"pX c #FEB618",
"3  c #F89F0F",
"P. c #5EBD37",
/* pixels */
"    . . . . . . . . X X o o O O + + + + + + + + + + + + + + + + ",
"    . . . . . . . . X X o o O O + + + + + + + + + + + + + + + + ",
". . @ @ # # # # # # $ $ % % & & * * + + + + + + + + + + + + + + ",
". . @ @ # # # # # # $ $ % % & & * * + + + + + + + + + + + + + + ",
". . = = + + + + + + + + - - ; ; : : > > , , < < 1 1 2 2 3 3 4 4 ",
". . = = + + + + + + + + - - ; ; : : > > , , < < 1 1 2 2 3 3 4 4 ",
". . 5 5 6 6 7 7 8 8 9 9 0 0 q q w w e e r r t t y y u u i i p p ",
". . 5 5 6 6 7 7 8 8 9 9 0 0 q q w w e e r r t t y y u u i i p p ",
". . a a s s d d f f g g h h j j k k l l z z x x c c v v b b n n ",
". . a a s s d d f f g g h h j j k k l l z z x x c c v v b b n n ",
". . a a m m M M N N B B V V C C Z Z A A S S D D F F G G H H J J ",
". . a a m m M M N N B B V V C C Z Z A A S S D D F F G G H H J J ",
"K K L L P P I I U U Y Y T T R R E E W W Q Q ! ! ~ ~ ^ ^ / / ( ( ",
"K K L L P P I I U U Y Y T T R R E E W W Q Q ! ! ~ ~ ^ ^ / / ( ( ",
") ) _ _ ` ` ' ' ] ] [ [ { { } } | |  . .....X.X.o.o.O.O.+.+.@.@.",
") ) _ _ ` ` ' ' ] ] [ [ { { } } | |  . .....X.X.o.o.O.O.+.+.@.@.",
"#.#.$.$.%.%.&.&.*.*.=.=.-.-.;.;.:.:.>.>.,.,.<.<.1.1.2.2.3.3.4.4.",
"#.#.$.$.%.%.&.&.*.*.=.=.-.-.;.;.:.:.>.>.,.,.<.<.1.1.2.2.3.3.4.4.",
"5.5.6.6.7.7.8.8.9.9.0.0.q.q.w.w.e.e.r.r.t.t.y.y.u.u.i.i.p.p.a.a.",
"5.5.6.6.7.7.8.8.9.9.0.0.q.q.w.w.e.e.r.r.t.t.y.y.u.u.i.i.p.p.a.a.",
"s.s.d.d.f.f.g.g.h.h.j.j.k.k.l.l.z.z.x.x.c.c.v.v.b.b.n.n.m.m.M.M.",
"s.s.d.d.f.f.g.g.h.h.j.j.k.k.l.l.z.z.x.x.c.c.v.v.b.b.n.n.m.m.M.M.",
"N.N.B.B.V.V.C.C.Z.Z.A.A.S.S.D.D.F.F.G.G.v.v.H.H.J.J.K.K.L.L.P.P.",
"N.N.B.B.V.V.C.C.Z.Z.A.A.S.S.D.D.F.F.G.G.v.v.H.H.J.J.K.K.L.L.P.P.",
"I.I.U.U.Y.Y.T.T.R.R.E.E.W.W.Q.Q.!.!.~.~.^.^././.(.(.).)._._.`.`.",
"I.I.U.U.Y.Y.T.T.R.R.E.E.W.W.Q.Q.!.!.~.~.^.^././.(.(.).)._._.`.`.",
"'.'.].].[.[.{.{.}.}.|.|. X X.X.X.X.XXXXXoXoXOXOX+X+X@X@X#X#X$X$X",
"'.'.].].[.[.{.{.}.}.|.|. X X.X.X.X.XXXXXoXoXOXOX+X+X@X@X#X#X$X$X",
"%X%X&X&X*X*X=X=X-X-X;X;X;X;X:X:X>X>X,X,X<X<X1X1X2X2X3X3X4X4X5X5X",
"%X%X&X&X*X*X=X=X-X-X;X;X;X;X:X:X>X>X,X,X<X<X1X1X2X2X3X3X4X4X5X5X",
"6X6X7X7X8X8X9X9X0X0XqXqXwXwXeXeXrXrXtXtXyXyXuXuXiXiXtXtXpXpXaXaX",
"6X6X7X7X8X8X9X9X0X0XqXqXwXwXeXeXrXrXtXtXyXyXuXuXiXiXtXtXpXpXaXaX"
};
