/* XPM */
static char *Home_xpm[] = {
/* columns rows colors chars-per-pixel */
"32 32 167 2",
"r  c #B98C8D",
"o  c #B52E2E",
"D  c #A99C9F",
">  c #C43D3D",
"Z. c #CD7B27",
"B. c #D9DCE5",
"@. c #DEE0E6",
"-. c #DEE0E7",
"e  c #B83838",
"J. c #8E7C68",
"T. c #828387",
"h  c #DF4848",
"1  c #B83535",
"m  c #A48F91",
";. c #87878B",
"y. c #87878C",
"t. c #D4BDA5",
"K  c #A7999C",
"<  c #E75656",
"U  c #B82F2F",
"   c #FFFFFF",
"<. c #D7C7AB",
"0  c #A1797A",
"Y  c #C42E2E",
"w  c #E75353",
"|  c #CDB386",
"P. c #A15509",
"3  c #CBCBCC",
"i. c #DADDE5",
"n. c #D2BAA4",
"(  c #9E2828",
"a. c #D5C4AA",
":. c #929397",
"L  c #9F3B3B",
"6. c #88888C",
"+  c #A82A2A",
"*. c #B27815",
"l  c #CA3636",
"C. c #B66C19",
"@  c #BE3434",
"$. c #D8C8AB",
"9  c #A27A7B",
"a  c #A58789",
"u. c #909095",
"d  c #D1D3D6",
"s  c #D1D3D7",
"8. c #DBDEE6",
"!  c #E0E2E8",
"w. c #D08D2B",
"b  c #F4F5FA",
"h. c #D3BBA5",
"q  c #BA3A3A",
"b. c #B96D1A",
"Z  c #C83030",
"D. c #848589",
"I. c #A05308",
"2  c #9C4E4F",
"M  c #A73737",
"U. c #8B7460",
"_  c #A23030",
"V  c #982525",
"Q  c #F2F5FA",
"5  c #B52D2D",
"[  c #E8E4DD",
"~  c #A7A1A5",
"t  c #5C5052",
"x. c #D4C2AA",
"+. c #919195",
"7. c #919196",
")  c #962525",
"K. c #A15A09",
"f. c #D38828",
">. c #DCDFE6",
"E  c #E1E3E9",
"#  c #E25151",
"z. c #EBEEF7",
"#. c #F0F2F9",
"C  c #B82E2E",
"{  c #CDB586",
"k  c #992C2C",
"/  c #B82B2B",
"6  c #C73A3A",
" . c #CDB286",
"v. c #D38228",
"V. c #C8B49D",
"l. c #DADCE5",
"B  c #BB3232",
"p  c #B93B3B",
"1. c #B97E19",
".  c #9E2727",
"s. c #AF7F3E",
"M. c #8D8E92",
"3. c #B97B1A",
"T  c #A44142",
"Y. c #838388",
"*  c #BFBFC0",
"5. c #DDE0E6",
"n  c #D8D9DE",
"p. c #ECEFF8",
"]  c #F1F3F9",
":  c #E85656",
"L. c #A25809",
"^  c #913B3B",
"P  c #C52E2E",
"7  c #E85353",
"%  c #A12828",
"g  c #B03738",
"G. c #8B8B90",
"$  c #B73232",
"g. c #B9721A",
"O. c #892121",
"&  c #7B6063",
"X  c #B72F2F",
"d. c #C68A3E",
"R  c #A9A3A7",
"q. c #B57B1F",
"R. c #757579",
"N  c #D23A3A",
"k. c #8E8F94",
"j  c #BA3636",
"=. c #D6C1A6",
"o. c #8A2E2F",
"N. c #CFD2DA",
"v  c #D9DADE",
"9. c #EDF0F8",
"W  c #F2F4FA",
"e. c #D38D28",
"=  c #5F5F62",
"S  c #AF4142",
"A. c #B76919",
"z  c #D53B3B",
"A  c #CB3030",
"&. c #C0871F",
"J  c #DCDEE3",
";  c #C23838",
"}  c #CDB486",
"F. c #808185",
"x  c #B43C3D",
"m. c #85858A",
"c. c #B87019",
",. c #EEF1F8",
"G  c #F3F5FA",
"-  c #AF2C2C",
"%. c #B27C14",
"8  c #BE3B3B",
"u  c #CA3A3A",
"4. c #D5BFA5",
"X. c #747073",
"F  c #DDDFE4",
",  c #C33C3C",
"r. c #B9771A",
"S. c #C6AD98",
".. c #E7E1DA",
"4  c #59595B",
"`  c #7E7579",
"j. c #86868B",
"'  c #D6D8DD",
"H  c #F4F6FB",
"y  c #B72E2E",
"0. c #D6C6AB",
"f  c #A38587",
"O  c #9F2727",
"c  c #A69294",
"H. c #898A8F",
"2. c #D39228",
"I  c #BC2C2C",
"i  c #E14848",
/* pixels */
"                        . . X X o o O O                         ",
"                        . . X X o o O O                         ",
"                    + + @ @ # # # # $ $ % % & & * * = =         ",
"                    + + @ @ # # # # $ $ % % & & * * = =         ",
"                - - ; ; : : > > , , < < 1 1 2 2 3 3 4 4         ",
"                - - ; ; : : > > , , < < 1 1 2 2 3 3 4 4         ",
"            5 5 6 6 7 7 8 8 9 9 0 0 q q w w e e r r t t         ",
"            5 5 6 6 7 7 8 8 9 9 0 0 q q w w e e r r t t         ",
"        y y u u i i p p a a s s d d f f g g h h j j k k         ",
"        y y u u i i p p a a s s d d f f g g h h j j k k         ",
"    y y l l z z x x c c v v b b b b n n m m M M N N B B V V     ",
"    y y l l z z x x c c v v b b b b n n m m M M N N B B V V     ",
"C C Z Z A A S S D D F F G G H H H H G G J J K K L L P P I I V V ",
"C C Z Z A A S S D D F F G G H H H H G G J J K K L L P P I I V V ",
"U U Y Y T T R R E E W W Q Q Q Q Q Q Q Q W W ! ! ~ ~ ^ ^ / / ( ( ",
"U U Y Y T T R R E E W W Q Q Q Q Q Q Q Q W W ! ! ~ ~ ^ ^ / / ( ( ",
") ) _ _ ` ` ' ' ] ] [ [ { { } } | |  . .....] ] ' ' X.X.o.o.O.O.",
") ) _ _ ` ` ' ' ] ] [ [ { { } } | |  . .....] ] ' ' X.X.o.o.O.O.",
"        +.+.@.@.#.#.$.$.%.%.&.&.&.&.*.*.=.=.#.#.-.-.;.;.        ",
"        +.+.@.@.#.#.$.$.%.%.&.&.&.&.*.*.=.=.#.#.-.-.;.;.        ",
"        :.:.>.>.,.,.<.<.1.1.2.2.2.2.3.3.4.4.,.,.5.5.6.6.        ",
"        :.:.>.>.,.,.<.<.1.1.2.2.2.2.3.3.4.4.,.,.5.5.6.6.        ",
"        7.7.8.8.9.9.0.0.q.q.w.w.e.e.r.r.t.t.9.9.>.>.y.y.        ",
"        7.7.8.8.9.9.0.0.q.q.w.w.e.e.r.r.t.t.9.9.>.>.y.y.        ",
"        u.u.i.i.p.p.a.a.s.s.d.d.f.f.g.g.h.h.p.p.8.8.j.j.        ",
"        u.u.i.i.p.p.a.a.s.s.d.d.f.f.g.g.h.h.p.p.8.8.j.j.        ",
"        k.k.l.l.z.z.x.x.c.c.v.v.v.v.b.b.n.n.z.z.i.i.m.m.        ",
"        k.k.l.l.z.z.x.x.c.c.v.v.v.v.b.b.n.n.z.z.i.i.m.m.        ",
"        M.M.N.N.B.B.V.V.C.C.Z.Z.Z.Z.A.A.S.S.B.B.N.N.D.D.        ",
"        M.M.N.N.B.B.V.V.C.C.Z.Z.Z.Z.A.A.S.S.B.B.N.N.D.D.        ",
"        F.F.G.G.H.H.J.J.K.K.L.L.P.P.I.I.U.U.Y.Y.T.T.R.R.        ",
"        F.F.G.G.H.H.J.J.K.K.L.L.P.P.I.I.U.U.Y.Y.T.T.R.R.        "
};
