/* XPM */
static char * 4_xpm[] = {
"32 32 12 1",
" 	c None",
".	c #7F7F7F",
"+	c #191919",
"@	c #333333",
"#	c #BBBBBB",
"$	c #FFFFFF",
"%	c #777777",
"&	c #494949",
"*	c #E7E7E7",
"=	c #A3A3A3",
"-	c #5F5F5F",
";	c #D1D1D1",
"................................",
"...............................+",
"..@@@@@@@@@@@@@@@@@@@@@@@@@@@@++",
"..@@@@@@@@@@@@@@@@@@@@@@@@@@@@++",
"..@@@@@@@@@@@@@@@@@@@@@@@@@@@@++",
"..@@@@@@@@@@@@@@@@@@@@@@@@@@@@++",
"..@@@@@@@@@@@@@@@@@@@@@@@@@@@@++",
"..@@@@@@@@@@@@@@#$$%@@@@@@@@@@++",
"..@@@@@@@@@@@@@%$$$%@@@@@@@@@@++",
"..@@@@@@@@@@@@&$$$$%@@@@@@@@@@++",
"..@@@@@@@@@@@&*$*$$%@@@@@@@@@@++",
"..@@@@@@@@@@@#$=#$$%@@@@@@@@@@++",
"..@@@@@@@@@@=$#@#$$%@@@@@@@@@@++",
"..@@@@@@@@@%$*&@#$$%@@@@@@@@@@++",
"..@@@@@@@@&*$&@@#$$%@@@@@@@@@@++",
"..@@@@@@@@*$%@@@#$$%@@@@@@@@@@++",
"..@@@@@@@#$=@@@@#$$%@@@@@@@@@@++",
"..@@@@@@-$$#####*$$;##-@@@@@@@++",
"..@@@@@@%$$$$$$$$$$$$$%@@@@@@@++",
"..@@@@@@&%%%%%%%;$$=%%&@@@@@@@++",
"..@@@@@@@@@@@@@@#$$%@@@@@@@@@@++",
"..@@@@@@@@@@@@@@#$$%@@@@@@@@@@++",
"..@@@@@@@@@@@@@@#$$%@@@@@@@@@@++",
"..@@@@@@@@@@@@@@#$$%@@@@@@@@@@++",
"..@@@@@@@@@@@@@@#$$%@@@@@@@@@@++",
"..@@@@@@@@@@@@@@@@@@@@@@@@@@@@++",
"..@@@@@@@@@@@@@@@@@@@@@@@@@@@@++",
"..@@@@@@@@@@@@@@@@@@@@@@@@@@@@++",
"..@@@@@@@@@@@@@@@@@@@@@@@@@@@@++",
"..@@@@@@@@@@@@@@@@@@@@@@@@@@@@++",
"..++++++++++++++++++++++++++++++",
".+++++++++++++++++++++++++++++++"};
