/* XPM */
static char * 5_xpm[] = {
"32 32 13 1",
" 	c None",
".	c #7F7F7F",
"+	c #191919",
"@	c #333333",
"#	c #8D8D8D",
"$	c #BBBBBB",
"%	c #FFFFFF",
"&	c #777777",
"*	c #E7E7E7",
"=	c #A3A3A3",
"-	c #494949",
";	c #5F5F5F",
">	c #D1D1D1",
"................................",
"...............................+",
"..@@@@@@@@@@@@@@@@@@@@@@@@@@@@++",
"..@@@@@@@@@@@@@@@@@@@@@@@@@@@@++",
"..@@@@@@@@@@@@@@@@@@@@@@@@@@@@++",
"..@@@@@@@@@@@@@@@@@@@@@@@@@@@@++",
"..@@@@@@@@@@@@@@@@@@@@@@@@@@@@++",
"..@@@@@@@@@#$$$$$$$$$@@@@@@@@@++",
"..@@@@@@@@@$%%%%%%%%%@@@@@@@@@++",
"..@@@@@@@@@$%%%%%%%%%@@@@@@@@@++",
"..@@@@@@@@@$%&@@@@@@@@@@@@@@@@++",
"..@@@@@@@@@$%&@@@@@@@@@@@@@@@@++",
"..@@@@@@@@@$%&@@@@@@@@@@@@@@@@++",
"..@@@@@@@@@$%##$$$&@@@@@@@@@@@++",
"..@@@@@@@@@$%%%%%%%*&@@@@@@@@@++",
"..@@@@@@@@@=$&&&$%%%%-@@@@@@@@++",
"..@@@@@@@@@@@@@@@;*%%$@@@@@@@@++",
"..@@@@@@@@@@@@@@@@#%%%@@@@@@@@++",
"..@@@@@@@@@@@@@@@@@%%%@@@@@@@@++",
"..@@@@@@@@@;&@@@@@@%%*@@@@@@@@++",
"..@@@@@@@@#%%&@@@@;%%=@@@@@@@@++",
"..@@@@@@@@$%%$@@@-*%*-@@@@@@@@++",
"..@@@@@@@@;%%%;@&*%*&@@@@@@@@@++",
"..@@@@@@@@@;>%%%%*=-@@@@@@@@@@++",
"..@@@@@@@@@@@@&&@@@@@@@@@@@@@@++",
"..@@@@@@@@@@@@@@@@@@@@@@@@@@@@++",
"..@@@@@@@@@@@@@@@@@@@@@@@@@@@@++",
"..@@@@@@@@@@@@@@@@@@@@@@@@@@@@++",
"..@@@@@@@@@@@@@@@@@@@@@@@@@@@@++",
"..@@@@@@@@@@@@@@@@@@@@@@@@@@@@++",
"..++++++++++++++++++++++++++++++",
".+++++++++++++++++++++++++++++++"};
