/* XPM */
static char * display4_xpm[] = {
"160 64 5 1",
" 	c #000000",
".	c #010101",
"+	c #999999",
"@	c #FEFEFE",
"#	c #FFFFFF",
"++++++++++++++++++++++++++++++++++++++++++++++++++++++++++++++++++++++++++++++++++++++++++++++++++++++++++++++++++++++++++++++++++++++++++++++++++++++++++++++++",
"++++++++++++++++++++++++++++++++++++++++++++++++++++++++++++++++++++++++++++++++++++++++++++++++++++++++++++++++++++++++++++++++++++++++++++++++++++++++++++++++",
"++++++++++++++++++++++++++++++++++++++++++++++++++++++++++++++++++++++++++++++++++++++++++++++++++++++++++++++++++++++++++++++++++++++++++++++++++++++++++++++++",
"++++++++++++++++++++++++++++++++++++++++++++++++++++++++++++++++++++++++++++++++++++++++++++++++++++++++++++++++++++++++++++++++++++++++++++++++++++++++++++++++",
"++++                                                                                                                                                        ++++",
"++++                                                                                                                                                        ++++",
"++++                                                                                                                                                        ++++",
"++++                                                                                                                                                        ++++",
"++++                                                                                                                                                        ++++",
"++++                                                                                                                                                        ++++",
"++++                                                                                                                                                        ++++",
"++++                                                                                                                                                        ++++",
"++++                                                                                                                                                        ++++",
"++++                                                                                                                                                        ++++",
"++++                                                                                                                                                        ++++",
"++++                                                                                                                                                        ++++",
"++++                                                                                                                                                        ++++",
"++++                                                                                                                                                        ++++",
"++++                                                                                                                                                        ++++",
"++++                                                                                                                                                        ++++",
"++++                                                                                                                                                        ++++",
"++++                                                                                                                                                        ++++",
"++++                                                                                                                                                        ++++",
"++++                                                                                                                                                        ++++",
"++++                                                                                                                                                        ++++",
"++++                                                                                                                                                        ++++",
"++++                                                                                                                                                        ++++",
"++++                                                                                                                                                        ++++",
"++++                                                                                                                                                        ++++",
"++++                                                                                                                                                        ++++",
"++++                                                                                                                                                        ++++",
"++++                                                                                                                                                        ++++",
"++++                                                                                                                                                        ++++",
"++++                                                                                                                                                        ++++",
"++++                                                                                                                                                        ++++",
"++++                                                                                                                                                        ++++",
"++++                                                                                                                                                        ++++",
"++++                                                                                                                                                        ++++",
"++++                                                                                                                                                        ++++",
"++++                                                                                                                                                        ++++",
"++++                                                                                                                                                        ++++",
"++++                                                                                                                                                        ++++",
"++++                                                                                                                                                        ++++",
"++++                                                                                                                                                        ++++",
"++++                                                                                                                                                        ++++",
"++++                                                                                                                                                        ++++",
"++++                                                                                                                                                        ++++",
"++++                                                                                                                                                        ++++",
"++++                                                                                                                                                        ++++",
"++++                                                                                                                                                        ++++",
"++++                                                                                                                                                        ++++",
"++++++++++++++++++++++++++++++++++++++++++++++++++++++++++++++++++++++++++++++++++++++++++++++++++++++++++++++++++++++++++++++++++++++++++++++++++++++++++++++++",
"++++++++++++++++++++++++++++++++++++++++++++++++++++++++++++++++++++++++++++++++++++++++++++++++++++++++++++++++++++++++++++++++++++++++++++++++++++++++++++++++",
"++++++++++++++++++++++++++++++++++++++++++++++++++++++++++++++++++++++++++++++++++++++++++++++++++++++++++++++++++++++++++++++++++++++++++++++++++++++++++++++++",
"++++++++++++++++++++++++++++++++++++++++++++++++++++++++++++++++++++++++++++++++++++++++++++++++++++++++++++++++++++++++++++++++++++++++++++++++++++++++++++++++",
"+++++###++@##++@++###+####@++##++#+++++++@##+++#++##+++##++++++#+++#+#+#+++#+####+###+++++++++++++++++++++++++++++++++++++++++++++++++++++++++++++++++++++++++++",
"+++++#  #+#  #+# #    + #   #  #+# ++++++#  #+## #+ #+#+ #+++++##+## #++#+# +#    #  # +++++++++++++++++++++++++++++++++++++++++++++++++++++++++++++++++++++++++",
"+++++###  ###  # +##++++# ++# +# # ++++++### ++# # +# # +# ++++# #+# #+++# ++##+++### ++++++++++++++++++++++++++++++++++++++++++++++++++++++++++++++++++++++++++",
"+++++#  #+#  #+# +  #+++# ++# +# # ++++++#   ++# # +# # +# ++++# + # #++# #++#  ++# +#++++++++++++++++++++++++++++++++++++++++++++++++++++++++++++++++++++++++++",
"+++++###  # +# #.###+ ++@ +++##+ ### ++++# ++++@.+##+ +##+ ++++# ++@ #+# ++#+####+# +# +++++++++++++++++++++++++++++++++++++++++++++++++++++++++++++++++++++++++",
"++++++   ++ +   .+   +++ .++++  ++   +++++ ++++  ++  +++  ++++++.+++ +++ +++ +    + ++ +++++++++++++++++++++++++++++++++++++++++++++++++++++++++++++++++++++++++",
"++++++++++++++++++++++++++++++++++++++++++++++++++++++++++++++++++++++++++++++++++++++++++++++++++++++++++++++++++++++++++++++++++++++++++++++++++++++++++++++++",
"++++++++++++++++++++++++++++++++++++++++++++++++++++++++++++++++++++++++++++++++++++++++++++++++++++++++++++++++++++++++++++++++++++++++++++++++++++++++++++++++",
"++++++++++++++++++++++++++++++++++++++++++++++++++++++++++++++++++++++++++++++++++++++++++++++++++++++++++++++++++++++++++++++++++++++++++++++++++++++++++++++++"};
