/* XPM */
static char * display_xpm[] = {
"128 36 3 1",
" 	c None",
".	c #66cc00", #AF D3 24
"+	c #000000",
"................................................................................................................................",
"................................................................................................................................",
"..++..........++....++...++.++.++......++...........++..........................................................................",
"..++..........++....++...++.++.++......++...........++..........................................................................",
"................................................................................................................................",
"..++.++....++.++....++...++.......++...++.....++....++..........................................................................",
"..++.++....++.++....++...++.......++...++.....++....++..........................................................................",
"................................................................................................................................",
"..++....++....++....++...++.......++...++...........++..........................................................................",
"..++....++....++....++...++.......++...++...........++..........................................................................",
"................................................................................................................................",
"..++..........++....++...++.......++...++.....++....++..........................................................................",
"..++..........++....++...++.......++...++.....++....++..........................................................................",
"................................................................................................................................",
"..++..........++....++...++.++.++......++...........++..........................................................................",
"..++..........++....++...++.++.++......++...........++..........................................................................",
"................................................................................................................................",
"................................................................................................................................",
"................................................................................................................................",
"................................................................................................................................",
"..++.++.++....++.++.++.........++.++.........++.++......++.++.++............++.........++.........++.........++...++.++.++......",
"..++.++.++....++.++.++.........++.++.........++.++......++.++.++............++.........++.........++.........++...++.++.++......",
"................................................................................................................................",
"..++....++....++.......++...++.......++...++.......++...++.......++......++....++......++.++...++.++......++.++............++...",
"..++....++....++.......++...++.......++...++.......++...++.......++......++....++......++.++...++.++......++.++............++...",
"................................................................................................................................",
"..++.++.++....++.++.++......++.......++...++............++.++.++......++..........++...++....++...++.........++......++.++......",
"..++.++.++....++.++.++......++.......++...++............++.++.++......++..........++...++....++...++.........++......++.++......",
"................................................................................................................................",
"..++..........++....++......++.......++...++....++.++...++....++......++.++.++.++.++...++.........++.........++...++............",
"..++..........++....++......++.......++...++....++.++...++....++......++.++.++.++.++...++.........++.........++...++............",
"................................................................................................................................",
"..++..........++.......++......++.++.........++.++......++.......++...++..........++...++.........++.........++...++.++.++.++...",
"..++..........++.......++......++.++.........++.++......++.......++...++..........++...++.........++.........++...++.++.++.++...",
"................................................................................................................................",
"................................................................................................................................"};
