/* XPM */
static char * L_xpm[] = {
"32 32 10 1",
" 	c None",
".	c #7F7F7F",
"+	c #191919",
"@	c #333333",
"#	c #5F5F5F",
"$	c #BBBBBB",
"%	c #D1D1D1",
"&	c #FFFFFF",
"*	c #E7E7E7",
"=	c #777777",
"................................",
"...............................+",
"..@@@@@@@@@@@@@@@@@@@@@@@@@@@@++",
"..@@@@@@@@@@@@@@@@@@@@@@@@@@@@++",
"..@@@@@@@@@@@@@@@@@@@@@@@@@@@@++",
"..@@@@@@@@@@@@@@@@@@@@@@@@@@@@++",
"..@@@@@@@@@@@@@@@@@@@@@@@@@@@@++",
"..@@@@@@@@#$$$$$$$@@@@@@@@@@@@++",
"..@@@@@@@@#$%&&*$$@@@@@@@@@@@@++",
"..@@@@@@@@@@=&&$@@@@@@@@@@@@@@++",
"..@@@@@@@@@@=&&$@@@@@@@@@@@@@@++",
"..@@@@@@@@@@=&&$@@@@@@@@@@@@@@++",
"..@@@@@@@@@@=&&$@@@@@@@@@@@@@@++",
"..@@@@@@@@@@=&&$@@@@@@@@@@@@@@++",
"..@@@@@@@@@@=&&$@@@@@@@@@@@@@@++",
"..@@@@@@@@@@=&&$@@@@@@@@@@@@@@++",
"..@@@@@@@@@@=&&$@@@@@@@@@@@@@@++",
"..@@@@@@@@@@=&&$@@@@@@@@@@@@@@++",
"..@@@@@@@@@@=&&$@@@@@@@@@@@@@@++",
"..@@@@@@@@@@=&&$@@@@@$&=@@@@@@++",
"..@@@@@@@@@@=&&$@@@@@$&=@@@@@@++",
"..@@@@@@@@@@=&&$@@@@@%&=@@@@@@++",
"..@@@@@@@@@#$&&%=====&&=@@@@@@++",
"..@@@@@@@@=&&&&&&&&&&&&=@@@@@@++",
"..@@@@@@@@@@@@@@@@@@@@@@@@@@@@++",
"..@@@@@@@@@@@@@@@@@@@@@@@@@@@@++",
"..@@@@@@@@@@@@@@@@@@@@@@@@@@@@++",
"..@@@@@@@@@@@@@@@@@@@@@@@@@@@@++",
"..@@@@@@@@@@@@@@@@@@@@@@@@@@@@++",
"..@@@@@@@@@@@@@@@@@@@@@@@@@@@@++",
"..++++++++++++++++++++++++++++++",
".+++++++++++++++++++++++++++++++"};
