/* XPM */
static char * redledE_xpm[] = {
"40 64 431 2",
"  	c None",
". 	c #333333",
"+ 	c #000000",
"@ 	c #040000",
"# 	c #170000",
"$ 	c #340000",
"% 	c #430000",
"& 	c #450000",
"* 	c #460000",
"= 	c #410000",
"- 	c #2E0000",
"; 	c #110000",
"> 	c #020000",
", 	c #010000",
"' 	c #0D0000",
") 	c #3E0000",
"! 	c #890303",
"~ 	c #AF0606",
"{ 	c #B50808",
"] 	c #B60808",
"^ 	c #B60909",
"/ 	c #B50505",
"( 	c #B40202",
"_ 	c #A80000",
": 	c #770000",
"< 	c #2C0000",
"[ 	c #060000",
"} 	c #140000",
"| 	c #570505",
"1 	c #BA1818",
"2 	c #EB3232",
"3 	c #F24242",
"4 	c #F34545",
"5 	c #F34646",
"6 	c #F33F3F",
"7 	c #F22D2D",
"8 	c #F01212",
"9 	c #DE0303",
"0 	c #9A0000",
"a 	c #380000",
"b 	c #070000",
"c 	c #180101",
"d 	c #610B0B",
"e 	c #C43131",
"f 	c #F46F6F",
"g 	c #FB9C9C",
"h 	c #FCAAAA",
"i 	c #FCABAB",
"j 	c #FCACAC",
"k 	c #FCA0A0",
"l 	c #FB7979",
"m 	c #F93B3B",
"n 	c #E30F0F",
"o 	c #990101",
"p 	c #370000",
"q 	c #030000",
"r 	c #1C0000",
"s 	c #680707",
"t 	c #C82323",
"u 	c #F55D5D",
"v 	c #FB9393",
"w 	c #FCA8A8",
"x 	c #FCA4A4",
"y 	c #FB8787",
"z 	c #F84E4E",
"A 	c #DF1818",
"B 	c #920303",
"C 	c #330000",
"D 	c #1E0000",
"E 	c #6B0101",
"F 	c #C40A0A",
"G 	c #EC2020",
"H 	c #F23939",
"I 	c #F34444",
"J 	c #F23A3A",
"K 	c #EF2424",
"L 	c #D30C0C",
"M 	c #870101",
"N 	c #050000",
"O 	c #1B0000",
"P 	c #550000",
"Q 	c #950101",
"R 	c #B10303",
"S 	c #B50707",
"T 	c #B70707",
"U 	c #B80505",
"V 	c #A50101",
"W 	c #6B0000",
"X 	c #2A0000",
"Y 	c #520000",
"Z 	c #6A0000",
"` 	c #780101",
" .	c #6A0303",
"..	c #520202",
"+.	c #390000",
"@.	c #200000",
"#.	c #470000",
"$.	c #4B0000",
"%.	c #500000",
"&.	c #260000",
"*.	c #160000",
"=.	c #0F0000",
"-.	c #090000",
";.	c #A50B0B",
">.	c #B81B1B",
",.	c #B71919",
"'.	c #B10A0A",
").	c #950202",
"!.	c #530000",
"~.	c #080000",
"{.	c #0B0000",
"].	c #180000",
"^.	c #300000",
"/.	c #3A0000",
"(.	c #870404",
"_.	c #D32020",
":.	c #EF5050",
"<.	c #F25353",
"[.	c #EC2828",
"}.	c #C40909",
"|.	c #340101",
"1.	c #460505",
"2.	c #480909",
"3.	c #920606",
"4.	c #DF3030",
"5.	c #F87D7D",
"6.	c #FB8F8F",
"7.	c #F54D4D",
"8.	c #C81414",
"9.	c #680202",
"0.	c #360202",
"a.	c #480E0E",
"b.	c #4A1818",
"c.	c #480D0D",
"d.	c #9A0707",
"e.	c #E33636",
"f.	c #FA9090",
"g.	c #FCA7A7",
"h.	c #F55B5B",
"i.	c #C51717",
"j.	c #610202",
"k.	c #370404",
"l.	c #481414",
"m.	c #4B2121",
"n.	c #481111",
"o.	c #150000",
"p.	c #3B0000",
"q.	c #A10808",
"r.	c #E73A3A",
"s.	c #FA9999",
"t.	c #F45757",
"u.	c #C11414",
"v.	c #5A0202",
"w.	c #3A0606",
"x.	c #491818",
"y.	c #4B2424",
"z.	c #491212",
"A.	c #A80808",
"B.	c #EB3E3E",
"C.	c #FB9F9F",
"D.	c #F45252",
"E.	c #BD1111",
"F.	c #530101",
"G.	c #220101",
"H.	c #3D0909",
"I.	c #4A1E1E",
"J.	c #4B2828",
"K.	c #481313",
"L.	c #420000",
"M.	c #AF0909",
"N.	c #EF4242",
"O.	c #FCA5A5",
"P.	c #F34B4B",
"Q.	c #B90D0D",
"R.	c #4C0101",
"S.	c #0E0000",
"T.	c #2A0101",
"U.	c #420E0E",
"V.	c #4A2626",
"W.	c #4B2C2C",
"X.	c #350202",
"Y.	c #0A0000",
"Z.	c #B50A0A",
"`.	c #F24646",
" +	c #120000",
".+	c #320202",
"++	c #461212",
"@+	c #4B2D2D",
"#+	c #F45858",
"$+	c #4B2525",
"%+	c #C51818",
"&+	c #F55F5F",
"*+	c #FA9292",
"=+	c #E33737",
"-+	c #4B2323",
";+	c #491515",
">+	c #380404",
",+	c #690303",
"'+	c #C91C1C",
")+	c #F66565",
"!+	c #F98C8C",
"~+	c #E03333",
"{+	c #930707",
"]+	c #4B2222",
"^+	c #491313",
"/+	c #370303",
"(+	c #700303",
"_+	c #CD2020",
":+	c #F66C6C",
"<+	c #F98686",
"[+	c #DC2F2F",
"}+	c #8C0606",
"|+	c #2F0000",
"1+	c #240000",
"2+	c #770404",
"3+	c #D02323",
"4+	c #F77171",
"5+	c #F87F7F",
"6+	c #D82B2B",
"7+	c #850505",
"8+	c #2B0000",
"9+	c #491111",
"0+	c #280000",
"a+	c #7E0404",
"b+	c #D42626",
"c+	c #F77474",
"d+	c #F77777",
"e+	c #D42727",
"f+	c #7E0505",
"g+	c #4B2020",
"h+	c #840404",
"i+	c #D71F1F",
"j+	c #F76363",
"k+	c #FB9191",
"l+	c #F66767",
"m+	c #CF2121",
"n+	c #760404",
"o+	c #2D0000",
"p+	c #860101",
"q+	c #D30E0E",
"r+	c #EF3535",
"s+	c #F25858",
"t+	c #EC4242",
"u+	c #C51616",
"v+	c #6C0202",
"w+	c #1F0000",
"x+	c #710000",
"y+	c #A70303",
"z+	c #B70E0E",
"A+	c #B61C1C",
"B+	c #B11616",
"C+	c #910808",
"D+	c #4D0101",
"E+	c #190000",
"F+	c #370101",
"G+	c #6C0000",
"H+	c #730000",
"I+	c #5E0101",
"J+	c #4B0303",
"K+	c #440202",
"L+	c #1D0000",
"M+	c #540000",
"N+	c #4A0000",
"O+	c #360000",
"P+	c #790202",
"Q+	c #AA0606",
"R+	c #B60606",
"S+	c #B70202",
"T+	c #B50000",
"U+	c #920000",
"V+	c #480000",
"W+	c #3C0202",
"X+	c #A21010",
"Y+	c #E22C2C",
"Z+	c #F13F3F",
"`+	c #F24545",
" @	c #F34343",
".@	c #F33535",
"+@	c #F21818",
"@@	c #EA0505",
"#@	c #B60000",
"$@	c #100000",
"%@	c #420404",
"&@	c #AE1F1F",
"*@	c #EE5E5E",
"=@	c #FB9595",
"-@	c #FCA9A9",
";@	c #FC8B8B",
">@	c #FB4D4D",
",@	c #F21616",
"'@	c #B80202",
")@	c #4C0000",
"!@	c #460202",
"~@	c #B41414",
"{@	c #F14848",
"]@	c #FB8989",
"^@	c #FC9797",
"/@	c #FB6262",
"(@	c #F12222",
"_@	c #B40404",
":@	c #0C0000",
"<@	c #490000",
"[@	c #B10404",
"}@	c #E91717",
"|@	c #F23434",
"1@	c #F34141",
"2@	c #F22E2E",
"3@	c #E61111",
"4@	c #A90202",
"5@	c #400000",
"6@	c #8F0000",
"7@	c #B50202",
"8@	c #B70606",
"9@	c #B50606",
"0@	c #AC0202",
"a@	c #7E0000",
"b@	c #310000",
"c@	c #440303",
"d@	c #4A0303",
"e@	c #5C0101",
"f@	c #6E0000",
"g@	c #8F0707",
"h@	c #B01616",
"i@	c #B61D1D",
"j@	c #B70F0F",
"k@	c #AA0303",
"l@	c #760000",
"m@	c #650202",
"n@	c #EC3F3F",
"o@	c #F25959",
"p@	c #EF3838",
"q@	c #D70F0F",
"r@	c #8D0101",
"s@	c #6F0303",
"t@	c #CC1E1E",
"u@	c #F56161",
"v@	c #FB9292",
"w@	c #F86868",
"x@	c #DB2222",
"y@	c #8B0404",
"z@	c #F77070",
"A@	c #F87B7B",
"B@	c #D82929",
"C@	c #F77878",
"D@	c #F77272",
"E@	c #D02424",
"F@	c #BD1010",
"G@	c #F44E4E",
"H@	c #FB9D9D",
"I@	c #5A0101",
"J@	c #C10E0E",
"K@	c #F44343",
"L@	c #FC8D8D",
"M@	c #FA8888",
"N@	c #E73737",
"O@	c #A10707",
"P@	c #610000",
"Q@	c #C40606",
"R@	c #F42121",
"S@	c #FB4F4F",
"T@	c #F95656",
"U@	c #E32525",
"V@	c #990505",
"W@	c #640000",
"X@	c #C00101",
"Y@	c #EC0808",
"Z@	c #F21717",
"`@	c #EF1D1D",
" #	c #D70D0D",
".#	c #8E0202",
"+#	c #4E0000",
"@#	c #B10000",
"##	c #B80303",
"$#	c #A80101",
"%#	c #700000",
"&#	c #510000",
"*#	c #680000",
"=#	c #780000",
"-#	c #270000",
";#	c #660101",
">#	c #A20404",
",#	c #B70808",
"'#	c #B60707",
")#	c #B50303",
"!#	c #B20101",
"~#	c #990000",
"{#	c #5A0000",
"]#	c #800B0B",
"^#	c #EE3A3A",
"/#	c #F24343",
"(#	c #F33A3A",
"_#	c #F22222",
":#	c #ED0B0B",
"<#	c #C80101",
"[#	c #220000",
"}#	c #2F0202",
"|#	c #8B1616",
"1#	c #DB4949",
"2#	c #F88484",
"3#	c #FBA3A3",
"4#	c #FC9595",
"5#	c #FB6161",
"6#	c #F52727",
"7#	c #CC0808",
"8#	c #6F0000",
"9#	c #330101",
"0#	c #920E0E",
"a#	c #DF3737",
"b#	c #F87575",
"c#	c #FB9E9E",
"d#	c #FC9D9D",
"e#	c #FB7373",
"f#	c #F53535",
"g#	c #C80D0D",
"h#	c #680101",
"i#	c #930303",
"j#	c #DA1111",
"k#	c #F02B2B",
"l#	c #F23E3E",
"m#	c #F34242",
"n#	c #EB1A1A",
"o#	c #BD0606",
"p#	c #5E0000",
"q#	c #290000",
"r#	c #720000",
"s#	c #A50202",
"t#	c #B40505",
"u#	c #B00303",
"v#	c #8C0000",
"w#	c #3F0000",
"x#	c #350000",
". . . . . . . . . . . . . . . . . . . . . . . . . . . . . . . . . . . . . . . . ",
". + + + + + + + @ # $ % & * * * * * * * * * * * * * * * * * & & = - ; > + + + + ",
". + + + + + + , ' ) ! ~ { ] ^ ^ ^ ^ ^ ^ ^ ^ ^ ^ ^ ^ ^ ] ] ] / ( _ : < [ + + + + ",
". + + + + + + > } | 1 2 3 4 5 5 5 5 5 5 5 5 5 5 5 5 5 4 4 6 7 8 9 0 a b + + + + ",
". + + + + + + > c d e f g h i j j j j j j j j j j j j i h k l m n o p b + + + + ",
". + + + + + + q r s t u v w i j j j j j j j j j j j j j i x y z A B C [ + + + + ",
". + + + + + + q D E F G H I 4 5 5 5 5 5 5 5 5 5 5 5 5 5 4 I J K L M - [ + + + + ",
". + + + + , > N O P Q R S ] ] ^ ^ ^ ^ ^ ^ ^ ^ ^ ^ ^ ^ ^ ] ] T U V W X ' b @ , + ",
". + + + Y Z `  ...* +.@.& * * * * * * * * * * * * * * * * #.* $.%.% &.*.=.N -., ",
". + + ' X E ;.>.,.'.).!.-.~.~.-.-.-.-.-.-.-.-.-.-.~.~.~.-.' {.].^./.a $ &.=.].q ",
". + + + - (._.:.<.[.}.W + + + + + + + + + + + + + + + + + [ q } |.1.2.1.$ } D q ",
". + + [ C 3.4.5.6.7.8.9.+ + + + + + + + + + + + + + + + + [ q *.0.a.b.c.0.} r q ",
". + + b p d.e.f.g.h.i.j.+ + + + + + + + + + + + + + + + + b @ ].k.l.m.n.0.o.].> ",
". + + ~.p.q.r.s.i t.u.v.+ + + + + + + + + + + + + + + + + ~.[ O w.x.y.z.0.o.} > ",
". + , ~.) A.B.C.j D.E.F.+ + + + + + + + + + + + + + + + + ~.-.G.H.I.J.K.0.} ; , ",
". + , -.L.M.N.O.i P.Q.R.+ + + + + + + + + + + + + + + + + -.S.T.U.V.W.K.X.} ' + ",
". + > Y.#.Z.`.h h `.Z.#.+ + + + + + + + + + + + + + + + + Y. +.+++@+@+++.+ +Y.+ ",
". + > ' R.Q.P.i O.N.M.L.+ + + + + + + + + + + + + + + + + ' } X.K.W.V.U.T.S.-.+ ",
". + > ; F.E.D.j C.B.A.) + + + + + + + + + + + + + + + + , ; } 0.K.J.I.H.G.-.~.+ ",
". + > } v.u.#+j s.r.q.p.+ + + + + + + + + + + + + + + + > } o.0.z.$+x.w.O [ ~.+ ",
". + > ].j.%+&+j *+=+d.p + + + + + + + + + + + + + + + + > ].o.0.z.-+;+>+].@ b + ",
". + > r ,+'+)+j !+~+{+C + + + + + + + + + + + + + + + + q r o.0.z.]+^+/+*.q b + ",
". + > @.(+_+:+j <+[+}+|++ + + + + + + + + + + + + + + + q @.o.0.z.m.z./+o.q [ + ",
". + > 1+2+3+4+i 5+6+7+8++ + + + + + + + + + + + + + + + @ 1+o.0.9+m.9+0.o.> N + ",
". + > 0+a+b+c+w d+e+f+0++ + + + + + + + + + + + + + + + N 0+} 0.n.g+9+0.o.> N + ",
". + > 8+h+i+j+k+l+m+n+1++ + + + + + + + + + + + + + + + N 8+} 0.c.b.c.0.} > @ + ",
". + q o+p+q+r+s+t+u+v+w++ + + + + + + + + + + + + + + + [ o+} $ 1.2.1.$ } > q + ",
". + > o+x+y+z+A+B+C+D+o.~.~.-.-.-.-.-.-.-.-.-.-.~.~.~.-.' o+E+|+a F+$ &.=.> > + ",
". + + o+G+H+I+J+K+p L+~.* * * * * * * * * * * * * * * * #.M+N+N+O+w+o.=.N + + + ",
". + + + , ~.- P+Q+{ ] ] ^ ^ ^ ^ ^ ^ ^ ^ ^ ^ ^ ^ ^ ^ ] ] R+S+T+U+V+# Y.b q , + + ",
". + + + + ~.W+X+Y+Z+`+4 5 5 5 5 5 5 5 5 5 5 5 5 5 5 4  @.@+@@@#@%.$@, + + + + + ",
". + + + + -.%@&@*@=@-@i j j j j j j j j j j j j j j i g.;@>@,@'@)@' + + + + + + ",
". + + + + Y.!@~@{@]@g.i j j j j j j j j j j j j j j i -@^@/@(@_@* Y.+ + + + + + ",
". + + + + :@<@[@}@|@ @4 5 5 5 5 5 5 5 5 5 5 5 5 5 5 4 4 1@2@3@4@5@-.+ + + + + + ",
". + q [ -.} % 6@7@8@] ] ^ ^ ^ ^ ^ ^ ^ ^ ^ ^ ^ ^ ^ ^ ^ ] ] 9@0@a@b@~., + + + + + ",
". [ O O+c@d@e@H+f@P V+* * * * * * * * * * * * * * * * * * $.%.% &.*.=.N + + + + ",
".  +V+g@h@i@j@k@l@|+S.-.~.~.~.-.-.-.-.-.-.-.-.-.-.~.-.-.{.].^./.a $ &.=.> + + + ",
". O m@u.n@o@p@q@r@b@[ + + + + + + + + + + + + + + + + + q } |.1.2.1.$ } > + + + ",
". @.s@t@u@v@w@x@y@|+[ + + + + + + + + + + + + + + + + + q *.0.a.b.c.0.} > + + + ",
". 1+2+3+z@w A@B@7+8+N + + + + + + + + + + + + + + + + + @ ].k.l.m.n.0.o.> + + + ",
". 0+f+e+C@i C@e+f+0+N + + + + + + + + + + + + + + + + + [ O w.x.y.z.0.o.> + + + ",
". 8+7+6+5+j D@E@2+1+@ + + + + + + + + + + + + + + + + , -.G.H.I.J.K.0.} > + + + ",
". |+}+[+<+j :+_+(+@.q + + + + + + + + + + + + + + + + , S.T.U.V.W.K.X.} > + + + ",
". C {+~+!+j )+'+,+r q + + + + + + + + + + + + + + + + >  +.+++@+@+++.+ +> + + + ",
". p d.=+*+j &+%+j.].> + + + + + + + + + + + + + + + + > } X.K.W.V.U.T.S., + + + ",
". p.q.r.s.j #+u.v.} > + + + + + + + + + + + + + + + + > } 0.K.J.I.H.G.-., + + + ",
". ) A.B.C.j D.E.F.; , + + + + + + + + + + + + + + + + > o.0.z.$+x.w.O [ + + + + ",
". L.M.N.O.i P.Q.R.' + + + + + + + + + + + + + + + + + > o.0.z.-+;+>+].@ + + + + ",
". #.Z.`.h h `.Z.#.Y.+ + + + + + + + + + + + + + + + + > o.0.z.]+^+/+*.q + + + + ",
". R.Q.P.i O.N.M.L.-.+ + + + + + + + + + + + + + + + + > o.0.z.m.z./+o.q + + + + ",
". F.F@G@g.H@B.A.) ~.+ + + + + + + + + + + + + + + + + > o.0.9+m.9+0.o.> + + + + ",
". I@J@K@L@M@N@O@p.~.+ + + + + + + + + + + + + + + + + > } 0.n.g+9+0.o.> + + + + ",
". P@Q@R@S@T@U@V@p b + + + + + + + + + + + + + + + + + > } 0.c.b.c.0.} > + + + + ",
". W@X@Y@Z@`@ #.#b@[ + + + + + + + + + + + + + + + + + q } $ 1.2.1.$ } > + + + + ",
". +#U+@#S+##$#%#< ' -.~.~.~.-.-.-.-.-.-.-.-.-.-.~.-.-.{.E+|+a F+$ &.=.> + + + + ",
". D a & &#*#=#G+!.#.* * * * * * * * * * * * * * * * * #.N+N+O+w+o.=.N + + + + + ",
". q b :@-#;#>#T ,#] ^ ^ ^ ^ ^ ^ ^ ^ ^ ^ ^ ^ ^ ^ ] ] '#)#!#~#{#L+N , + + + + + + ",
". + + N T.]#3+^#/#4 5 5 5 5 5 5 5 5 5 5 5 5 5 5 4 I (#_#:#<#x+[#@ + + + + + + + ",
". + + [ }#|#1#2#3#i j j j j j j j j j j j j j j i -@4#5#6#7#8#@.q + + + + + + + ",
". + + [ 9#0#a#b#c#h i j j j j j j j j j j j j j i h d#e#f#g#h#r q + + + + + + + ",
". + + b $ i#j#k#l#4 4 5 5 5 5 5 5 5 5 5 5 5 5 5 5 4 m#|@n#o#p## > + + + + + + + ",
". + + N q#r#s#t#{ ] ] ^ ^ ^ ^ ^ ^ ^ ^ ^ ^ ^ ^ ^ ^ ] ] 9@u#v#% $@, + + + + + + + ",
". + + > $@< w#& & * * * * * * * * * * * * * * * * * * & % x#E+N + + + + + + + + ",
". . . . . . . . . . . . . . . . . . . . . . . . . . . . . . . . . . . . . . . . "};
