/* XPM */
static char * redled7_xpm[] = {
"40 64 367 2",
"  	c None",
". 	c #333333",
"+ 	c #000000",
"@ 	c #040000",
"# 	c #170000",
"$ 	c #340000",
"% 	c #430000",
"& 	c #450000",
"* 	c #460000",
"= 	c #410000",
"- 	c #2E0000",
"; 	c #110000",
"> 	c #020000",
", 	c #010000",
"' 	c #0D0000",
") 	c #3E0000",
"! 	c #890303",
"~ 	c #AF0606",
"{ 	c #B50808",
"] 	c #B60808",
"^ 	c #B60909",
"/ 	c #B50505",
"( 	c #B40202",
"_ 	c #A80000",
": 	c #770000",
"< 	c #2C0000",
"[ 	c #060000",
"} 	c #140000",
"| 	c #570505",
"1 	c #BA1818",
"2 	c #EB3232",
"3 	c #F24242",
"4 	c #F34545",
"5 	c #F34646",
"6 	c #F33F3F",
"7 	c #F22D2D",
"8 	c #F01212",
"9 	c #DE0303",
"0 	c #9A0000",
"a 	c #380000",
"b 	c #070000",
"c 	c #180101",
"d 	c #610B0B",
"e 	c #C43131",
"f 	c #F46F6F",
"g 	c #FB9C9C",
"h 	c #FCAAAA",
"i 	c #FCABAB",
"j 	c #FCACAC",
"k 	c #FCA0A0",
"l 	c #FB7979",
"m 	c #F93B3B",
"n 	c #E30F0F",
"o 	c #990101",
"p 	c #370000",
"q 	c #030000",
"r 	c #1C0000",
"s 	c #680707",
"t 	c #C82323",
"u 	c #F55D5D",
"v 	c #FB9393",
"w 	c #FCA8A8",
"x 	c #FCA4A4",
"y 	c #FB8787",
"z 	c #F84E4E",
"A 	c #DF1818",
"B 	c #920303",
"C 	c #330000",
"D 	c #1E0000",
"E 	c #6B0101",
"F 	c #C40A0A",
"G 	c #EC2020",
"H 	c #F23939",
"I 	c #F34444",
"J 	c #F23A3A",
"K 	c #EF2424",
"L 	c #D30C0C",
"M 	c #870101",
"N 	c #050000",
"O 	c #1B0000",
"P 	c #550000",
"Q 	c #950101",
"R 	c #B10303",
"S 	c #B50707",
"T 	c #B70707",
"U 	c #B80505",
"V 	c #A50101",
"W 	c #6B0000",
"X 	c #2A0000",
"Y 	c #0F0000",
"Z 	c #160000",
"` 	c #2F0000",
" .	c #3F0000",
"..	c #470000",
"+.	c #520000",
"@.	c #6A0000",
"#.	c #780101",
"$.	c #6A0303",
"%.	c #520202",
"&.	c #390000",
"*.	c #200000",
"=.	c #090000",
"-.	c #260000",
";.	c #360000",
">.	c #350000",
",.	c #2B0000",
"'.	c #0A0000",
").	c #080000",
"!.	c #A50B0B",
"~.	c #B81B1B",
"{.	c #B71919",
"].	c #B10A0A",
"^.	c #950202",
"/.	c #530000",
"(.	c #180000",
"_.	c #340101",
":.	c #460505",
"<.	c #480909",
"[.	c #870404",
"}.	c #D32020",
"|.	c #EF5050",
"1.	c #F25353",
"2.	c #EC2828",
"3.	c #C40909",
"4.	c #360202",
"5.	c #480E0E",
"6.	c #4A1818",
"7.	c #480D0D",
"8.	c #920606",
"9.	c #DF3030",
"0.	c #F87D7D",
"a.	c #FB8F8F",
"b.	c #F54D4D",
"c.	c #C81414",
"d.	c #680202",
"e.	c #380404",
"f.	c #491414",
"g.	c #4B2121",
"h.	c #491111",
"i.	c #150000",
"j.	c #9A0707",
"k.	c #E33636",
"l.	c #FA9090",
"m.	c #FCA7A7",
"n.	c #F55B5B",
"o.	c #C51717",
"p.	c #610202",
"q.	c #3A0606",
"r.	c #491818",
"s.	c #4B2424",
"t.	c #491212",
"u.	c #3B0000",
"v.	c #A10808",
"w.	c #E73A3A",
"x.	c #FA9999",
"y.	c #F45757",
"z.	c #C11414",
"A.	c #5A0202",
"B.	c #220101",
"C.	c #3D0909",
"D.	c #4A1E1E",
"E.	c #4B2828",
"F.	c #481313",
"G.	c #A80808",
"H.	c #EB3E3E",
"I.	c #FB9F9F",
"J.	c #F45252",
"K.	c #BD1111",
"L.	c #530101",
"M.	c #0E0000",
"N.	c #2A0101",
"O.	c #420E0E",
"P.	c #4A2626",
"Q.	c #4B2C2C",
"R.	c #350202",
"S.	c #420000",
"T.	c #AF0909",
"U.	c #EF4242",
"V.	c #FCA5A5",
"W.	c #F34B4B",
"X.	c #B90D0D",
"Y.	c #4C0101",
"Z.	c #120000",
"`.	c #320202",
" +	c #461212",
".+	c #4B2D2D",
"++	c #B50A0A",
"@+	c #F24646",
"#+	c #4B2525",
"$+	c #F45858",
"%+	c #4B2323",
"&+	c #491515",
"*+	c #C51818",
"=+	c #F55F5F",
"-+	c #FA9292",
";+	c #E33737",
">+	c #4B2222",
",+	c #491313",
"'+	c #370303",
")+	c #690303",
"!+	c #C91C1C",
"~+	c #F66565",
"{+	c #F98C8C",
"]+	c #E03333",
"^+	c #930707",
"/+	c #700303",
"(+	c #CD2020",
"_+	c #F66C6C",
":+	c #F98686",
"<+	c #DC2F2F",
"[+	c #8C0606",
"}+	c #240000",
"|+	c #770404",
"1+	c #D02323",
"2+	c #F77171",
"3+	c #F87F7F",
"4+	c #D82B2B",
"5+	c #850505",
"6+	c #4B2020",
"7+	c #280000",
"8+	c #7E0404",
"9+	c #D42626",
"0+	c #F77474",
"a+	c #F77777",
"b+	c #D42727",
"c+	c #7E0505",
"d+	c #840404",
"e+	c #D71F1F",
"f+	c #F76363",
"g+	c #FB9191",
"h+	c #F66767",
"i+	c #CF2121",
"j+	c #760404",
"k+	c #2D0000",
"l+	c #860101",
"m+	c #D30E0E",
"n+	c #EF3535",
"o+	c #F25858",
"p+	c #EC4242",
"q+	c #C51616",
"r+	c #6C0202",
"s+	c #1F0000",
"t+	c #270000",
"u+	c #360101",
"v+	c #290000",
"w+	c #A20303",
"x+	c #B50E0E",
"y+	c #B61C1C",
"z+	c #B11616",
"A+	c #910808",
"B+	c #4D0101",
"C+	c #1A0000",
"D+	c #230000",
"E+	c #3D0000",
"F+	c #500000",
"G+	c #500101",
"H+	c #490303",
"I+	c #440202",
"J+	c #1D0000",
"K+	c #2C0101",
"L+	c #360303",
"M+	c #3A0000",
"N+	c #250000",
"O+	c #200303",
"P+	c #3B0A0A",
"Q+	c #471111",
"R+	c #481414",
"S+	c #490F0F",
"T+	c #480606",
"U+	c #470101",
"V+	c #2A0606",
"W+	c #411717",
"X+	c #492929",
"Y+	c #4A3131",
"Z+	c #4B3232",
"`+	c #4B3333",
" @	c #4B3131",
".@	c #4B2929",
"+@	c #4A1616",
"@@	c #330404",
"#@	c #461313",
"$@	c #4A2727",
"%@	c #4A2C2C",
"&@	c #4A1C1C",
"*@	c #460909",
"=@	c #330101",
"-@	c #190000",
";@	c #460606",
">@	c #480F0F",
",@	c #470D0D",
"'@	c #400505",
")@	c #370202",
"!@	c #380101",
"~@	c #4D0303",
"{@	c #480303",
"]@	c #450101",
"^@	c #4B0000",
"/@	c #910707",
"(@	c #B61D1D",
"_@	c #B30F0F",
":@	c #6C0000",
"<@	c #650202",
"[@	c #EC3F3F",
"}@	c #F25959",
"|@	c #EF3838",
"1@	c #D60F0F",
"2@	c #8C0101",
"3@	c #310000",
"4@	c #6F0303",
"5@	c #CC1E1E",
"6@	c #F56161",
"7@	c #FB9292",
"8@	c #F86868",
"9@	c #DB2222",
"0@	c #8B0404",
"a@	c #F77070",
"b@	c #F87B7B",
"c@	c #D82929",
"d@	c #F77878",
"e@	c #F77272",
"f@	c #D02424",
"g@	c #BD1010",
"h@	c #F44E4E",
"i@	c #FB9D9D",
"j@	c #5A0101",
"k@	c #C10E0E",
"l@	c #F44343",
"m@	c #FC8D8D",
"n@	c #FA8888",
"o@	c #E73737",
"p@	c #A10707",
"q@	c #610000",
"r@	c #C40606",
"s@	c #F42121",
"t@	c #FB4F4F",
"u@	c #F95656",
"v@	c #E32525",
"w@	c #990505",
"x@	c #640000",
"y@	c #C00101",
"z@	c #EC0808",
"A@	c #F21717",
"B@	c #EF1D1D",
"C@	c #D70D0D",
"D@	c #8E0202",
"E@	c #950000",
"F@	c #B40000",
"G@	c #B70202",
"H@	c #B30303",
"I@	c #9F0101",
"J@	c #670000",
"K@	c #4F0000",
"L@	c #590000",
"M@	c #4E0000",
"N@	c #0C0000",
"O@	c #490606",
"P@	c #4A0101",
"Q@	c #4D0000",
"R@	c #4B1616",
"S@	c #4B0606",
"T@	c #320404",
"U@	c #451313",
"V@	c #440101",
"W@	c #130000",
"X@	c #450606",
"Y@	c #420505",
"Z@	c #100000",
". . . . . . . . . . . . . . . . . . . . . . . . . . . . . . . . . . . . . . . . ",
". + + + + + + + @ # $ % & * * * * * * * * * * * * * * * * * & & = - ; > + + + + ",
". + + + + + + , ' ) ! ~ { ] ^ ^ ^ ^ ^ ^ ^ ^ ^ ^ ^ ^ ^ ] ] ] / ( _ : < [ + + + + ",
". + + + + + + > } | 1 2 3 4 5 5 5 5 5 5 5 5 5 5 5 5 5 4 4 6 7 8 9 0 a b + + + + ",
". + + + + + + > c d e f g h i j j j j j j j j j j j j i h k l m n o p b + + + + ",
". + + + + + + q r s t u v w i j j j j j j j j j j j j j i x y z A B C [ + + + + ",
". + + + + + + q D E F G H I 4 5 5 5 5 5 5 5 5 5 5 5 5 5 4 I J K L M - [ + + + + ",
". + + + + , > N O P Q R S ] ] ^ ^ ^ ^ ^ ^ ^ ^ ^ ^ ^ ^ ^ ] ] T U V W X ' b @ , + ",
". + + + N Y } Z D `  .& & * * * * * * * * * * * * * * * * ..+.@.#.$.%.* &.*.=., ",
". + + > Y -.C ;.>.,.Z '.=.).).=.=.=.=.=.=.=.=.=.=.).).).=.' X E !.~.{.].^./.(.q ",
". + + q } _.:.<.:.$ } > + + + + + + + + + + + + + + + + + [ - [.}.|.1.2.3.W D q ",
". + + q Z 4.5.6.7.4.} > + + + + + + + + + + + + + + + + + [ C 8.9.0.a.b.c.d.r q ",
". + + @ (.e.f.g.h.4.i.> + + + + + + + + + + + + + + + + + b p j.k.l.m.n.o.p.(.> ",
". + + [ O q.r.s.t.4.i.> + + + + + + + + + + + + + + + + + ).u.v.w.x.i y.z.A.} > ",
". + , =.B.C.D.E.F.4.} > + + + + + + + + + + + + + + + + + ).) G.H.I.j J.K.L.; , ",
". + , M.N.O.P.Q.F.R.} > + + + + + + + + + + + + + + + + + =.S.T.U.V.i W.X.Y.' + ",
". + > Z.`. +.+.+ +`.Z.> + + + + + + + + + + + + + + + + + '...++@+h h @+++..'.+ ",
". + > } R.F.Q.P.O.N.M., + + + + + + + + + + + + + + + + + ' Y.X.W.i V.U.T.S.=.+ ",
". + > } 4.F.E.D.C.B.=., + + + + + + + + + + + + + + + + , ; L.K.J.j I.H.G.) ).+ ",
". + > i.4.t.#+r.q.O [ + + + + + + + + + + + + + + + + + > } A.z.$+j x.w.v.u.).+ ",
". + > i.4.t.%+&+e.(.@ + + + + + + + + + + + + + + + + + > (.p.*+=+j -+;+j.p b + ",
". + > i.4.t.>+,+'+Z q + + + + + + + + + + + + + + + + + q r )+!+~+j {+]+^+C b + ",
". + > i.4.t.g.t.'+i.q + + + + + + + + + + + + + + + + + q *./+(+_+j :+<+[+` [ + ",
". + > i.4.h.g.h.4.i.> + + + + + + + + + + + + + + + + + @ }+|+1+2+i 3+4+5+,.N + ",
". + > i.4.h.6+h.4.i.> + + + + + + + + + + + + + + + + + N 7+8+9+0+w a+b+c+7+N + ",
". + > } 4.7.6.7.4.} > + + + + + + + + + + + + + + + + + N ,.d+e+f+g+h+i+j+}+@ + ",
". + q } $ :.<.:.$ } > + + + + + + + + + + + + + + + + + [ k+l+m+n+o+p+q+r+s+q + ",
". + > Y t+C u+>.v+; @ > , , , > > > > > > > > > , , , > [ -.@.w+x+y+z+A+B+i.> + ",
". + + N Y } Z O s+C+i.i.i.i.i.i.i.i.i.i.i.i.i.i.i.} } i.Z D+E+F+G+H+I+p J+).+ + ",
". + + + , > b # K+R.4.4.L+L+L+L+L+L+L+L+L+L+L+L+L+L+4.4.4.a M+;.N+Z.=.b q , + + ",
". + + + + , =.O+P+Q+R+f.&+&+&+&+&+&+&+&+&+&+&+&+&+&+f.f.S+T+U+u.*.=., + + + + + ",
". + + + + , M.V+W+X+Y+Z+`+`+`+`+`+`+`+`+`+`+`+`+`+`+Z+ @.@+@T+&.O [ + + + + + + ",
". + + + + q } @@#@$@Y+Z+`+`+`+`+`+`+`+`+`+`+`+`+`+`+Z+Z+%@&@*@=@} q + + + + + + ",
". + + + + N -@u+;@>@f.f.&+&+&+&+&+&+&+&+&+&+&+&+&+&+f.f.F.,@'@v+M.> + + + + + + ",
". + + , > ).(.< >.4.4.4.L+L+L+L+L+L+L+L+L+L+L+L+L+L+4.4.)@!@$ D+; '.).N > + + + ",
". + N Y } # J+s+C+i.i.i.i.i.i.i.i.i.i.i.i.i.i.i.i.} i.i.r ` ..~@{@]@) X Y > + + ",
". > Y -.C ;.>.v+; @ > , , , > > > > > > > > > , , , > @ i.^@/@z+(@_@w+:@-.N + + ",
". q } _.:.<.:.$ } > + + + + + + + + + + + + + + + + + q O <@z.[@}@|@1@2@3@[ + + ",
". q Z 4.5.6.7.4.} > + + + + + + + + + + + + + + + + + q *.4@5@6@7@8@9@0@` [ + + ",
". @ (.e.f.g.h.4.i.> + + + + + + + + + + + + + + + + + @ }+|+1+a@w b@c@5+,.N + + ",
". [ O q.r.s.t.4.i.> + + + + + + + + + + + + + + + + + N 7+c+b+d@i d@b+c+7+N + + ",
". =.B.C.D.E.F.4.} > + + + + + + + + + + + + + + + + + N ,.5+4+3+j e@f@|+}+@ + + ",
". M.N.O.P.Q.F.R.} > + + + + + + + + + + + + + + + + + [ ` [+<+:+j _+(+/+*.q + + ",
". Z.`. +.+.+ +`.Z.> + + + + + + + + + + + + + + + + + b C ^+]+{+j ~+!+)+r q + + ",
". } R.F.Q.P.O.N.M., + + + + + + + + + + + + + + + + + b p j.;+-+j =+*+p.(.> + + ",
". } 4.F.E.D.C.B.=., + + + + + + + + + + + + + + + + + ).u.v.w.x.j $+z.A.} > + + ",
". i.4.t.#+r.q.O [ + + + + + + + + + + + + + + + + + + ).) G.H.I.j J.K.L.; , + + ",
". i.4.t.%+&+e.(.@ + + + + + + + + + + + + + + + + + + =.S.T.U.V.i W.X.Y.' + + + ",
". i.4.t.>+,+'+Z q + + + + + + + + + + + + + + + + + + '...++@+h h @+++..'.+ + + ",
". i.4.t.g.t.'+i.q + + + + + + + + + + + + + + + + + + ' Y.X.W.i V.U.T.S.=.+ + + ",
". i.4.h.g.h.4.i.> + + + + + + + + + + + + + + + + + , ; L.g@h@m.i@H.G.) ).+ + + ",
". i.4.h.6+h.4.i.> + + + + + + + + + + + + + + + + + > } j@k@l@m@n@o@p@u.).+ + + ",
". } 4.7.6.7.4.} > + + + + + + + + + + + + + + + + + > (.q@r@s@t@u@v@w@p b + + + ",
". } $ :.<.:.$ } > + + + + + + + + + + + + + + + + + q O x@y@z@A@B@C@D@3@[ + + + ",
". Y t+C u+>.v+; @ > , , , > > > > > > > > > , , , > @ (.F+E@F@G@H@I@J@D+@ + + + ",
". N Y } Z O s+C+i.i.i.i.i.i.i.i.i.i.i.i.i.i.i.i.} i.Z J+$ K@L@M@* E+-.' , + + + ",
". + , > b # K+R.4.4.L+L+L+L+L+L+L+L+L+L+L+L+L+L+4.4.4.p u.% ) s+N@).N , + + + + ",
". + + , =.O+P+Q+R+f.&+&+&+&+&+&+&+&+&+&+&+&+&+&+f.f.S+O@P@Q@S.O @ + + + + + + + ",
". + + , M.V+W+X+Y+Z+`+`+`+`+`+`+`+`+`+`+`+`+`+`+Z+ @.@R@S@^@E+-@q + + + + + + + ",
". + + > Z.T@U@$@Y+Z+`+`+`+`+`+`+`+`+`+`+`+`+`+`+Z+Z+Q.&@<.V@$ i.q + + + + + + + ",
". + + > W@=@X@>@f.f.&+&+&+&+&+&+&+&+&+&+&+&+&+&+f.f.F.7.Y@p 7+Z@> + + + + + + + ",
". + + > Y -.C R.4.4.L+L+L+L+L+L+L+L+L+L+L+L+L+L+4.4.R._.- D+(.'., + + + + + + + ",
". + + + N Y } } i.i.i.i.i.i.i.i.i.i.i.i.i.i.i.i.i.i.} } ; N@).q + + + + + + + + ",
". . . . . . . . . . . . . . . . . . . . . . . . . . . . . . . . . . . . . . . . "};
