/* XPM */
static char * redled1_xpm[] = {
"40 64 314 2",
"  	c None",
". 	c #333333",
"+ 	c #000000",
"@ 	c #010000",
"# 	c #070000",
"$ 	c #100000",
"% 	c #140000",
"& 	c #150000",
"* 	c #120000",
"= 	c #0B0000",
"- 	c #030000",
"; 	c #050000",
"> 	c #2A0101",
", 	c #340202",
"' 	c #350202",
") 	c #360202",
"! 	c #360303",
"~ 	c #350000",
"{ 	c #340000",
"] 	c #2D0000",
"^ 	c #1B0000",
"/ 	c #080000",
"( 	c #090000",
"_ 	c #200303",
": 	c #3B0A0A",
"< 	c #471111",
"[ 	c #481414",
"} 	c #491414",
"| 	c #491515",
"1 	c #490F0F",
"2 	c #480606",
"3 	c #460101",
"4 	c #3A0000",
"5 	c #200000",
"6 	c #0E0000",
"7 	c #2A0606",
"8 	c #411717",
"9 	c #492929",
"0 	c #4A3131",
"a 	c #4B3232",
"b 	c #4B3333",
"c 	c #4B3131",
"d 	c #4B2929",
"e 	c #4A1616",
"f 	c #390000",
"g 	c #060000",
"h 	c #330404",
"i 	c #461313",
"j 	c #4A2727",
"k 	c #4A2C2C",
"l 	c #4A1C1C",
"m 	c #460909",
"n 	c #330101",
"o 	c #190000",
"p 	c #360101",
"q 	c #460606",
"r 	c #480F0F",
"s 	c #481313",
"t 	c #470D0D",
"u 	c #400505",
"v 	c #290000",
"w 	c #020000",
"x 	c #180000",
"y 	c #2B0000",
"z 	c #370202",
"A 	c #3B0202",
"B 	c #3D0101",
"C 	c #360000",
"D 	c #240000",
"E 	c #110000",
"F 	c #040000",
"G 	c #0F0000",
"H 	c #160000",
"I 	c #210000",
"J 	c #500101",
"K 	c #550303",
"L 	c #4F0202",
"M 	c #470000",
"N 	c #260000",
"O 	c #330000",
"P 	c #280000",
"Q 	c #230000",
"R 	c #640101",
"S 	c #9F0B0B",
"T 	c #B51B1B",
"U 	c #B71919",
"V 	c #B20A0A",
"W 	c #950202",
"X 	c #530000",
"Y 	c #340101",
"Z 	c #460505",
"` 	c #480909",
" .	c #2E0000",
"..	c #870404",
"+.	c #D32020",
"@.	c #EF5050",
"#.	c #F25353",
"$.	c #EC2828",
"%.	c #C40909",
"&.	c #6B0000",
"*.	c #1E0000",
"=.	c #480E0E",
"-.	c #4A1818",
";.	c #480D0D",
">.	c #920606",
",.	c #DF3030",
"'.	c #F87D7D",
").	c #FB8F8F",
"!.	c #F54D4D",
"~.	c #C81414",
"{.	c #680202",
"].	c #1C0000",
"^.	c #380404",
"/.	c #4B2121",
"(.	c #491111",
"_.	c #370000",
":.	c #9A0707",
"<.	c #E33636",
"[.	c #FA9090",
"}.	c #FCA7A7",
"|.	c #F55B5B",
"1.	c #C51717",
"2.	c #610202",
"3.	c #3A0606",
"4.	c #491818",
"5.	c #4B2424",
"6.	c #491212",
"7.	c #3B0000",
"8.	c #A10808",
"9.	c #E73A3A",
"0.	c #FA9999",
"a.	c #FCABAB",
"b.	c #F45757",
"c.	c #C11414",
"d.	c #5A0202",
"e.	c #220101",
"f.	c #3D0909",
"g.	c #4A1E1E",
"h.	c #4B2828",
"i.	c #3E0000",
"j.	c #A80808",
"k.	c #EB3E3E",
"l.	c #FB9F9F",
"m.	c #FCACAC",
"n.	c #F45252",
"o.	c #BD1111",
"p.	c #530101",
"q.	c #420E0E",
"r.	c #4A2626",
"s.	c #4B2C2C",
"t.	c #420000",
"u.	c #AF0909",
"v.	c #EF4242",
"w.	c #FCA5A5",
"x.	c #F34B4B",
"y.	c #B90D0D",
"z.	c #4C0101",
"A.	c #0D0000",
"B.	c #320202",
"C.	c #461212",
"D.	c #4B2D2D",
"E.	c #0A0000",
"F.	c #B50A0A",
"G.	c #F24646",
"H.	c #FCAAAA",
"I.	c #4B2525",
"J.	c #F45858",
"K.	c #4B2323",
"L.	c #C51818",
"M.	c #F55F5F",
"N.	c #FA9292",
"O.	c #E33737",
"P.	c #4B2222",
"Q.	c #491313",
"R.	c #370303",
"S.	c #690303",
"T.	c #C91C1C",
"U.	c #F66565",
"V.	c #F98C8C",
"W.	c #E03333",
"X.	c #930707",
"Y.	c #700303",
"Z.	c #CD2020",
"`.	c #F66C6C",
" +	c #F98686",
".+	c #DC2F2F",
"++	c #8C0606",
"@+	c #2F0000",
"#+	c #770404",
"$+	c #D02323",
"%+	c #F77171",
"&+	c #F87F7F",
"*+	c #D82B2B",
"=+	c #850505",
"-+	c #4B2020",
";+	c #7E0404",
">+	c #D42626",
",+	c #F77474",
"'+	c #FCA8A8",
")+	c #F77777",
"!+	c #D42727",
"~+	c #7E0505",
"{+	c #840404",
"]+	c #D71F1F",
"^+	c #F76363",
"/+	c #FB9191",
"(+	c #F66767",
"_+	c #CF2121",
":+	c #760404",
"<+	c #860101",
"[+	c #D30E0E",
"}+	c #EF3535",
"|+	c #F25858",
"1+	c #EC4242",
"2+	c #C51616",
"3+	c #6C0202",
"4+	c #1F0000",
"5+	c #270000",
"6+	c #6A0000",
"7+	c #A20303",
"8+	c #B50E0E",
"9+	c #B61C1C",
"0+	c #B11616",
"a+	c #910808",
"b+	c #4D0101",
"c+	c #1A0000",
"d+	c #3D0000",
"e+	c #500000",
"f+	c #490303",
"g+	c #440202",
"h+	c #1D0000",
"i+	c #170000",
"j+	c #2C0101",
"k+	c #380000",
"l+	c #250000",
"m+	c #470101",
"n+	c #2C0000",
"o+	c #380101",
"p+	c #4D0303",
"q+	c #480303",
"r+	c #450101",
"s+	c #2A0000",
"t+	c #4B0000",
"u+	c #910707",
"v+	c #B61D1D",
"w+	c #B30F0F",
"x+	c #6C0000",
"y+	c #650202",
"z+	c #EC3F3F",
"A+	c #F25959",
"B+	c #EF3838",
"C+	c #D60F0F",
"D+	c #8C0101",
"E+	c #310000",
"F+	c #6F0303",
"G+	c #CC1E1E",
"H+	c #F56161",
"I+	c #FB9292",
"J+	c #F86868",
"K+	c #DB2222",
"L+	c #8B0404",
"M+	c #F77070",
"N+	c #F87B7B",
"O+	c #D82929",
"P+	c #F77878",
"Q+	c #F77272",
"R+	c #D02424",
"S+	c #BD1010",
"T+	c #F44E4E",
"U+	c #FB9D9D",
"V+	c #5A0101",
"W+	c #C10E0E",
"X+	c #F44343",
"Y+	c #FC8D8D",
"Z+	c #FA8888",
"`+	c #E73737",
" @	c #A10707",
".@	c #610000",
"+@	c #C40606",
"@@	c #F42121",
"#@	c #FB4F4F",
"$@	c #F95656",
"%@	c #E32525",
"&@	c #990505",
"*@	c #640000",
"=@	c #C00101",
"-@	c #EC0808",
";@	c #F21717",
">@	c #EF1D1D",
",@	c #D70D0D",
"'@	c #8E0202",
")@	c #950000",
"!@	c #B40000",
"~@	c #B70202",
"{@	c #B30303",
"]@	c #9F0101",
"^@	c #670000",
"/@	c #4F0000",
"(@	c #590000",
"_@	c #4E0000",
":@	c #460000",
"<@	c #430000",
"[@	c #0C0000",
"}@	c #490606",
"|@	c #4A0101",
"1@	c #4D0000",
"2@	c #4B1616",
"3@	c #4B0606",
"4@	c #320404",
"5@	c #451313",
"6@	c #440101",
"7@	c #130000",
"8@	c #450606",
"9@	c #420505",
". . . . . . . . . . . . . . . . . . . . . . . . . . . . . . . . . . . . . . . . ",
". + + + + + + + + @ # $ % % & & & & & & & & & & & & & & & & & & % % * = - + + + ",
". + + + + + + + + ; & > , ' ) ! ! ! ! ! ! ! ! ! ! ! ! ! ! ) ) ) ~ { ] ^ / @ + + ",
". + + + + + + + @ ( _ : < [ } | | | | | | | | | | | | | | } } 1 2 3 4 5 ( @ + + ",
". + + + + + + + @ 6 7 8 9 0 a b b b b b b b b b b b b b b a c d e 2 f ^ g + + + ",
". + + + + + + + - % h i j 0 a b b b b b b b b b b b b b b a a k l m n % - + + + ",
". + + + + + + + ; o p q r } } | | | | | | | | | | | | | | } } s t u v 6 w + + + ",
". + + + + @ @ w / x y { ' ) ) ! ! ! ! ! ! ! ! ! ! ! ! ! ! ) z A B C D E / F @ + ",
". + + + ; G % & H x H & & & & & & & & & & & & & & & % % & H I 4 J K L M 4 5 ( @ ",
". + + w G N O ~ { P E F w w @ @ w w w w w w w w w @ @ @ w g Q R S T U V W X x - ",
". + + - % Y Z ` Z { % w + + + + + + + + + + + + + + + + + g  ...+.@.#.$.%.&.*.- ",
". + + - H ) =.-.;.) % w + + + + + + + + + + + + + + + + + g O >.,.'.).!.~.{.].- ",
". + + F x ^.} /.(.) & w + + + + + + + + + + + + + + + + + # _.:.<.[.}.|.1.2.x w ",
". + + g ^ 3.4.5.6.) & w + + + + + + + + + + + + + + + + + / 7.8.9.0.a.b.c.d.% w ",
". + @ ( e.f.g.h.s ) % w + + + + + + + + + + + + + + + + + / i.j.k.l.m.n.o.p.E @ ",
". + @ 6 > q.r.s.s ' % w + + + + + + + + + + + + + + + + + ( t.u.v.w.a.x.y.z.A.+ ",
". + w * B.C.D.D.C.B.* w + + + + + + + + + + + + + + + + + E.M F.G.H.H.G.F.M E.+ ",
". + w % ' s s.r.q.> 6 @ + + + + + + + + + + + + + + + + + A.z.y.x.a.w.v.u.t.( + ",
". + w % ) s h.g.f.e.( @ + + + + + + + + + + + + + + + + @ E p.o.n.m.l.k.j.i./ + ",
". + w & ) 6.I.4.3.^ g + + + + + + + + + + + + + + + + + w % d.c.J.m.0.9.8.7./ + ",
". + w & ) 6.K.| ^.x F + + + + + + + + + + + + + + + + + w x 2.L.M.m.N.O.:._.# + ",
". + w & ) 6.P.Q.R.H - + + + + + + + + + + + + + + + + + - ].S.T.U.m.V.W.X.O # + ",
". + w & ) 6./.6.R.& - + + + + + + + + + + + + + + + + + - 5 Y.Z.`.m. +.+++@+g + ",
". + w & ) (./.(.) & w + + + + + + + + + + + + + + + + + F D #+$+%+a.&+*+=+y ; + ",
". + w & ) (.-+(.) & w + + + + + + + + + + + + + + + + + ; P ;+>+,+'+)+!+~+P ; + ",
". + w % ) ;.-.;.) % w + + + + + + + + + + + + + + + + + ; y {+]+^+/+(+_+:+D F + ",
". + - % { Z ` Z { % w + + + + + + + + + + + + + + + + + g ] <+[+}+|+1+2+3+4+- + ",
". + w G 5+O p ~ v E F w @ @ @ w w w w w w w w w @ @ @ w g N 6+7+8+9+0+a+b+& w + ",
". + + ; G % H ^ 4+c+& & & & & & & & & & & & & & & % % & H Q d+e+J f+g+_.h+/ + + ",
". + + + @ w # i+j+' ) ) ! ! ! ! ! ! ! ! ! ! ! ! ! ! ) ) ) k+4 C l+* ( # - @ + + ",
". + + + + @ ( _ : < [ } | | | | | | | | | | | | | | } } 1 2 m+7.5 ( @ + + + + + ",
". + + + + @ 6 7 8 9 0 a b b b b b b b b b b b b b b a c d e 2 f ^ g + + + + + + ",
". + + + + - % h i j 0 a b b b b b b b b b b b b b b a a k l m n % - + + + + + + ",
". + + + + ; o p q r } } | | | | | | | | | | | | | | } } s t u v 6 w + + + + + + ",
". + + @ w / x n+~ ) ) ) ! ! ! ! ! ! ! ! ! ! ! ! ! ! ) ) z o+{ Q E E./ ; w + + + ",
". + ; G % i+h+4+c+& & & & & & & & & & & & & & & & % & & ].@+M p+q+r+i.s+G w + + ",
". w G N O C ~ v E F w @ @ @ w w w w w w w w w @ @ @ w F & t+u+0+v+w+7+x+N ; + + ",
". - % Y Z ` Z { % w + + + + + + + + + + + + + + + + + - ^ y+c.z+A+B+C+D+E+g + + ",
". - H ) =.-.;.) % w + + + + + + + + + + + + + + + + + - 5 F+G+H+I+J+K+L+@+g + + ",
". F x ^.} /.(.) & w + + + + + + + + + + + + + + + + + F D #+$+M+'+N+O+=+y ; + + ",
". g ^ 3.4.5.6.) & w + + + + + + + + + + + + + + + + + ; P ~+!+P+a.P+!+~+P ; + + ",
". ( e.f.g.h.s ) % w + + + + + + + + + + + + + + + + + ; y =+*+&+m.Q+R+#+D F + + ",
". 6 > q.r.s.s ' % w + + + + + + + + + + + + + + + + + g @+++.+ +m.`.Z.Y.5 - + + ",
". * B.C.D.D.C.B.* w + + + + + + + + + + + + + + + + + # O X.W.V.m.U.T.S.].- + + ",
". % ' s s.r.q.> 6 @ + + + + + + + + + + + + + + + + + # _.:.O.N.m.M.L.2.x w + + ",
". % ) s h.g.f.e.( @ + + + + + + + + + + + + + + + + + / 7.8.9.0.m.J.c.d.% w + + ",
". & ) 6.I.4.3.^ g + + + + + + + + + + + + + + + + + + / i.j.k.l.m.n.o.p.E @ + + ",
". & ) 6.K.| ^.x F + + + + + + + + + + + + + + + + + + ( t.u.v.w.a.x.y.z.A.+ + + ",
". & ) 6.P.Q.R.H - + + + + + + + + + + + + + + + + + + E.M F.G.H.H.G.F.M E.+ + + ",
". & ) 6./.6.R.& - + + + + + + + + + + + + + + + + + + A.z.y.x.a.w.v.u.t.( + + + ",
". & ) (./.(.) & w + + + + + + + + + + + + + + + + + @ E p.S+T+}.U+k.j.i./ + + + ",
". & ) (.-+(.) & w + + + + + + + + + + + + + + + + + w % V+W+X+Y+Z+`+ @7./ + + + ",
". % ) ;.-.;.) % w + + + + + + + + + + + + + + + + + w x .@+@@@#@$@%@&@_.# + + + ",
". % { Z ` Z { % w + + + + + + + + + + + + + + + + + - ^ *@=@-@;@>@,@'@E+g + + + ",
". G 5+O p ~ v E F w @ @ @ w w w w w w w w w @ @ @ w F x e+)@!@~@{@]@^@Q F + + + ",
". ; G % H ^ 4+c+& & & & & & & & & & & & & & & & % & H h+{ /@(@_@:@d+N A.@ + + + ",
". + @ w # i+j+' ) ) ! ! ! ! ! ! ! ! ! ! ! ! ! ! ) ) ) _.7.<@i.4+[@/ ; @ + + + + ",
". + + @ ( _ : < [ } | | | | | | | | | | | | | | } } 1 }@|@1@t.^ F + + + + + + + ",
". + + @ 6 7 8 9 0 a b b b b b b b b b b b b b b a c d 2@3@t+d+o - + + + + + + + ",
". + + w * 4@5@j 0 a b b b b b b b b b b b b b b a a s.l ` 6@{ & - + + + + + + + ",
". + + w 7@n 8@r } } | | | | | | | | | | | | | | } } s ;.9@_.P $ w + + + + + + + ",
". + + w G N O ' ) ) ! ! ! ! ! ! ! ! ! ! ! ! ! ! ) ) ' Y  .Q x E.@ + + + + + + + ",
". + + + ; G % % & & & & & & & & & & & & & & & & & & % % E [@/ - + + + + + + + + ",
". . . . . . . . . . . . . . . . . . . . . . . . . . . . . . . . . . . . . . . . "};
