/* XPM */
static char * redled3_xpm[] = {
"40 64 432 2",
"  	c None",
". 	c #333333",
"+ 	c #000000",
"@ 	c #040000",
"# 	c #170000",
"$ 	c #340000",
"% 	c #430000",
"& 	c #450000",
"* 	c #460000",
"= 	c #410000",
"- 	c #2E0000",
"; 	c #110000",
"> 	c #020000",
", 	c #010000",
"' 	c #0D0000",
") 	c #3E0000",
"! 	c #890303",
"~ 	c #AF0606",
"{ 	c #B50808",
"] 	c #B60808",
"^ 	c #B60909",
"/ 	c #B50505",
"( 	c #B40202",
"_ 	c #A80000",
": 	c #770000",
"< 	c #2C0000",
"[ 	c #060000",
"} 	c #140000",
"| 	c #570505",
"1 	c #BA1818",
"2 	c #EB3232",
"3 	c #F24242",
"4 	c #F34545",
"5 	c #F34646",
"6 	c #F33F3F",
"7 	c #F22D2D",
"8 	c #F01212",
"9 	c #DE0303",
"0 	c #9A0000",
"a 	c #380000",
"b 	c #070000",
"c 	c #180101",
"d 	c #610B0B",
"e 	c #C43131",
"f 	c #F46F6F",
"g 	c #FB9C9C",
"h 	c #FCAAAA",
"i 	c #FCABAB",
"j 	c #FCACAC",
"k 	c #FCA0A0",
"l 	c #FB7979",
"m 	c #F93B3B",
"n 	c #E30F0F",
"o 	c #990101",
"p 	c #370000",
"q 	c #030000",
"r 	c #1C0000",
"s 	c #680707",
"t 	c #C82323",
"u 	c #F55D5D",
"v 	c #FB9393",
"w 	c #FCA8A8",
"x 	c #FCA4A4",
"y 	c #FB8787",
"z 	c #F84E4E",
"A 	c #DF1818",
"B 	c #920303",
"C 	c #330000",
"D 	c #1E0000",
"E 	c #6B0101",
"F 	c #C40A0A",
"G 	c #EC2020",
"H 	c #F23939",
"I 	c #F34444",
"J 	c #F23A3A",
"K 	c #EF2424",
"L 	c #D30C0C",
"M 	c #870101",
"N 	c #050000",
"O 	c #1B0000",
"P 	c #550000",
"Q 	c #950101",
"R 	c #B10303",
"S 	c #B50707",
"T 	c #B70707",
"U 	c #B80505",
"V 	c #A50101",
"W 	c #6B0000",
"X 	c #2A0000",
"Y 	c #0F0000",
"Z 	c #160000",
"` 	c #2F0000",
" .	c #3F0000",
"..	c #470000",
"+.	c #520000",
"@.	c #6A0000",
"#.	c #780101",
"$.	c #6A0303",
"%.	c #520202",
"&.	c #390000",
"*.	c #200000",
"=.	c #090000",
"-.	c #260000",
";.	c #360000",
">.	c #350000",
",.	c #2B0000",
"'.	c #0A0000",
").	c #080000",
"!.	c #A50B0B",
"~.	c #B81B1B",
"{.	c #B71919",
"].	c #B10A0A",
"^.	c #950202",
"/.	c #530000",
"(.	c #180000",
"_.	c #340101",
":.	c #460505",
"<.	c #480909",
"[.	c #870404",
"}.	c #D32020",
"|.	c #EF5050",
"1.	c #F25353",
"2.	c #EC2828",
"3.	c #C40909",
"4.	c #360202",
"5.	c #480E0E",
"6.	c #4A1818",
"7.	c #480D0D",
"8.	c #920606",
"9.	c #DF3030",
"0.	c #F87D7D",
"a.	c #FB8F8F",
"b.	c #F54D4D",
"c.	c #C81414",
"d.	c #680202",
"e.	c #380404",
"f.	c #491414",
"g.	c #4B2121",
"h.	c #491111",
"i.	c #150000",
"j.	c #9A0707",
"k.	c #E33636",
"l.	c #FA9090",
"m.	c #FCA7A7",
"n.	c #F55B5B",
"o.	c #C51717",
"p.	c #610202",
"q.	c #3A0606",
"r.	c #491818",
"s.	c #4B2424",
"t.	c #491212",
"u.	c #3B0000",
"v.	c #A10808",
"w.	c #E73A3A",
"x.	c #FA9999",
"y.	c #F45757",
"z.	c #C11414",
"A.	c #5A0202",
"B.	c #220101",
"C.	c #3D0909",
"D.	c #4A1E1E",
"E.	c #4B2828",
"F.	c #481313",
"G.	c #A80808",
"H.	c #EB3E3E",
"I.	c #FB9F9F",
"J.	c #F45252",
"K.	c #BD1111",
"L.	c #530101",
"M.	c #0E0000",
"N.	c #2A0101",
"O.	c #420E0E",
"P.	c #4A2626",
"Q.	c #4B2C2C",
"R.	c #350202",
"S.	c #420000",
"T.	c #AF0909",
"U.	c #EF4242",
"V.	c #FCA5A5",
"W.	c #F34B4B",
"X.	c #B90D0D",
"Y.	c #4C0101",
"Z.	c #120000",
"`.	c #320202",
" +	c #461212",
".+	c #4B2D2D",
"++	c #B50A0A",
"@+	c #F24646",
"#+	c #4B2525",
"$+	c #F45858",
"%+	c #4B2323",
"&+	c #491515",
"*+	c #C51818",
"=+	c #F55F5F",
"-+	c #FA9292",
";+	c #E33737",
">+	c #4B2222",
",+	c #491313",
"'+	c #370303",
")+	c #690303",
"!+	c #C91C1C",
"~+	c #F66565",
"{+	c #F98C8C",
"]+	c #E03333",
"^+	c #930707",
"/+	c #700303",
"(+	c #CD2020",
"_+	c #F66C6C",
":+	c #F98686",
"<+	c #DC2F2F",
"[+	c #8C0606",
"}+	c #240000",
"|+	c #770404",
"1+	c #D02323",
"2+	c #F77171",
"3+	c #F87F7F",
"4+	c #D82B2B",
"5+	c #850505",
"6+	c #481111",
"7+	c #4B2020",
"8+	c #280000",
"9+	c #7E0404",
"0+	c #D42626",
"a+	c #F77474",
"b+	c #F77777",
"c+	c #D42727",
"d+	c #7E0505",
"e+	c #840404",
"f+	c #D71F1F",
"g+	c #F76363",
"h+	c #FB9191",
"i+	c #F66767",
"j+	c #CF2121",
"k+	c #760404",
"l+	c #2D0000",
"m+	c #860101",
"n+	c #D30E0E",
"o+	c #EF3535",
"p+	c #F25858",
"q+	c #EC4242",
"r+	c #C51616",
"s+	c #6C0202",
"t+	c #1F0000",
"u+	c #270000",
"v+	c #380101",
"w+	c #3A0000",
"x+	c #0B0000",
"y+	c #710000",
"z+	c #A70303",
"A+	c #B70E0E",
"B+	c #B61C1C",
"C+	c #B11616",
"D+	c #910808",
"E+	c #4D0101",
"F+	c #250000",
"G+	c #4F0000",
"H+	c #4B0000",
"I+	c #540000",
"J+	c #6C0000",
"K+	c #730000",
"L+	c #5E0101",
"M+	c #4B0303",
"N+	c #440202",
"O+	c #1D0000",
"P+	c #790202",
"Q+	c #AA0606",
"R+	c #B60606",
"S+	c #B70202",
"T+	c #B50000",
"U+	c #920000",
"V+	c #480000",
"W+	c #3C0202",
"X+	c #A21010",
"Y+	c #E22C2C",
"Z+	c #F13F3F",
"`+	c #F24545",
" @	c #F34343",
".@	c #F33535",
"+@	c #F21818",
"@@	c #EA0505",
"#@	c #B60000",
"$@	c #500000",
"%@	c #100000",
"&@	c #420404",
"*@	c #AE1F1F",
"=@	c #EE5E5E",
"-@	c #FB9595",
";@	c #FCA9A9",
">@	c #FC8B8B",
",@	c #FB4D4D",
"'@	c #F21616",
")@	c #B80202",
"!@	c #4C0000",
"~@	c #460202",
"{@	c #B41414",
"]@	c #F14848",
"^@	c #FB8989",
"/@	c #FC9797",
"(@	c #FB6262",
"_@	c #F12222",
":@	c #B40404",
"<@	c #0C0000",
"[@	c #490000",
"}@	c #B10404",
"|@	c #E91717",
"1@	c #F23434",
"2@	c #F34141",
"3@	c #F22E2E",
"4@	c #E61111",
"5@	c #A90202",
"6@	c #400000",
"7@	c #3C0000",
"8@	c #890000",
"9@	c #B00202",
"0@	c #B50606",
"a@	c #B80606",
"b@	c #B20202",
"c@	c #850000",
"d@	c #190000",
"e@	c #4D0000",
"f@	c #610000",
"g@	c #780000",
"h@	c #730303",
"i@	c #570303",
"j@	c #470101",
"k@	c #980707",
"l@	c #B71616",
"m@	c #B81D1D",
"n@	c #B40F0F",
"o@	c #A20303",
"p@	c #650202",
"q@	c #EC3F3F",
"r@	c #F25959",
"s@	c #EF3838",
"t@	c #D60F0F",
"u@	c #8C0101",
"v@	c #310000",
"w@	c #6F0303",
"x@	c #CC1E1E",
"y@	c #F56161",
"z@	c #FB9292",
"A@	c #F86868",
"B@	c #DB2222",
"C@	c #8B0404",
"D@	c #F77070",
"E@	c #F87B7B",
"F@	c #D82929",
"G@	c #F77878",
"H@	c #F77272",
"I@	c #D02424",
"J@	c #BD1010",
"K@	c #F44E4E",
"L@	c #FB9D9D",
"M@	c #5A0101",
"N@	c #C10E0E",
"O@	c #F44343",
"P@	c #FC8D8D",
"Q@	c #FA8888",
"R@	c #E73737",
"S@	c #A10707",
"T@	c #C40606",
"U@	c #F42121",
"V@	c #FB4F4F",
"W@	c #F95656",
"X@	c #E32525",
"Y@	c #990505",
"Z@	c #640000",
"`@	c #C10101",
" #	c #EC0808",
".#	c #F21717",
"+#	c #EF1D1D",
"@#	c #D70D0D",
"##	c #8E0202",
"$#	c #370101",
"%#	c #570000",
"&#	c #B30303",
"*#	c #9F0101",
"=#	c #670000",
"-#	c #230000",
";#	c #4A0000",
">#	c #4E0000",
",#	c #630000",
"'#	c #3D0000",
")#	c #5F0101",
"!#	c #9C0404",
"~#	c #B30707",
"{#	c #B60707",
"]#	c #B70303",
"^#	c #B60101",
"/#	c #9F0000",
"(#	c #800B0B",
"_#	c #EE3A3A",
":#	c #F24343",
"<#	c #F33A3A",
"[#	c #F22222",
"}#	c #ED0B0B",
"|#	c #C80101",
"1#	c #220000",
"2#	c #2F0202",
"3#	c #8B1616",
"4#	c #DB4949",
"5#	c #F88484",
"6#	c #FBA3A3",
"7#	c #FC9595",
"8#	c #FB6161",
"9#	c #F52727",
"0#	c #CC0808",
"a#	c #6F0000",
"b#	c #330101",
"c#	c #920E0E",
"d#	c #DF3737",
"e#	c #F87575",
"f#	c #FB9E9E",
"g#	c #FC9D9D",
"h#	c #FB7373",
"i#	c #F53535",
"j#	c #C80D0D",
"k#	c #680101",
"l#	c #930303",
"m#	c #DA1111",
"n#	c #F02B2B",
"o#	c #F23E3E",
"p#	c #F34242",
"q#	c #EB1A1A",
"r#	c #BD0606",
"s#	c #5E0000",
"t#	c #290000",
"u#	c #720000",
"v#	c #A50202",
"w#	c #B40505",
"x#	c #B00303",
"y#	c #8C0000",
". . . . . . . . . . . . . . . . . . . . . . . . . . . . . . . . . . . . . . . . ",
". + + + + + + + @ # $ % & * * * * * * * * * * * * * * * * * & & = - ; > + + + + ",
". + + + + + + , ' ) ! ~ { ] ^ ^ ^ ^ ^ ^ ^ ^ ^ ^ ^ ^ ^ ] ] ] / ( _ : < [ + + + + ",
". + + + + + + > } | 1 2 3 4 5 5 5 5 5 5 5 5 5 5 5 5 5 4 4 6 7 8 9 0 a b + + + + ",
". + + + + + + > c d e f g h i j j j j j j j j j j j j i h k l m n o p b + + + + ",
". + + + + + + q r s t u v w i j j j j j j j j j j j j j i x y z A B C [ + + + + ",
". + + + + + + q D E F G H I 4 5 5 5 5 5 5 5 5 5 5 5 5 5 4 I J K L M - [ + + + + ",
". + + + + , > N O P Q R S ] ] ^ ^ ^ ^ ^ ^ ^ ^ ^ ^ ^ ^ ^ ] ] T U V W X ' b @ , + ",
". + + + N Y } Z D `  .& & * * * * * * * * * * * * * * * * ..+.@.#.$.%.* &.*.=., ",
". + + > Y -.C ;.>.,.Z '.=.).).=.=.=.=.=.=.=.=.=.=.).).).=.' X E !.~.{.].^./.(.q ",
". + + q } _.:.<.:.$ } > + + + + + + + + + + + + + + + + + [ - [.}.|.1.2.3.W D q ",
". + + q Z 4.5.6.7.4.} > + + + + + + + + + + + + + + + + + [ C 8.9.0.a.b.c.d.r q ",
". + + @ (.e.f.g.h.4.i.> + + + + + + + + + + + + + + + + + b p j.k.l.m.n.o.p.(.> ",
". + + [ O q.r.s.t.4.i.> + + + + + + + + + + + + + + + + + ).u.v.w.x.i y.z.A.} > ",
". + , =.B.C.D.E.F.4.} > + + + + + + + + + + + + + + + + + ).) G.H.I.j J.K.L.; , ",
". + , M.N.O.P.Q.F.R.} > + + + + + + + + + + + + + + + + + =.S.T.U.V.i W.X.Y.' + ",
". + > Z.`. +.+.+ +`.Z.> + + + + + + + + + + + + + + + + + '...++@+h h @+++..'.+ ",
". + > } R.F.Q.P.O.N.M., + + + + + + + + + + + + + + + + + ' Y.X.W.i V.U.T.S.=.+ ",
". + > } 4.F.E.D.C.B.=., + + + + + + + + + + + + + + + + , ; L.K.J.j I.H.G.) ).+ ",
". + > i.4.t.#+r.q.O [ + + + + + + + + + + + + + + + + + > } A.z.$+j x.w.v.u.).+ ",
". + > i.4.t.%+&+e.(.@ + + + + + + + + + + + + + + + + + > (.p.*+=+j -+;+j.p b + ",
". + > i.4.t.>+,+'+Z q + + + + + + + + + + + + + + + + + q r )+!+~+j {+]+^+C b + ",
". + > i.4.t.g.t.'+i.q + + + + + + + + + + + + + + + + + q *./+(+_+j :+<+[+` [ + ",
". + > i.4.h.g.h.4.i.> + + + + + + + + + + + + + + + + + @ }+|+1+2+i 3+4+5+,.N + ",
". + > i.4.6+7+6+4.} > + + + + + + + + + + + + + + + + + N 8+9+0+a+w b+c+d+8+N + ",
". + > } 4.7.6.7.4.} > + + + + + + + + + + + + + + + + + N ,.e+f+g+h+i+j+k+}+@ + ",
". + q } $ :.<.:.$ } > + + + + + + + + + + + + + + + + + [ l+m+n+o+p+q+r+s+t+q + ",
". + > Y u+$ v+w+` (.x+=.).).=.=.=.=.=.=.=.=.=.=.).).).=.' l+y+z+A+B+C+D+E+i.> + ",
". + + N Y Z F+= G+H+* * * * * * * * * * * * * * * * * * ..I+J+K+L+M+N+p O+).+ + ",
". + + + , ).- P+Q+{ ] ] ^ ^ ^ ^ ^ ^ ^ ^ ^ ^ ^ ^ ^ ^ ] ] R+S+T+U+V+# '.b q , + + ",
". + + + + ).W+X+Y+Z+`+4 5 5 5 5 5 5 5 5 5 5 5 5 5 5 4  @.@+@@@#@$@%@, + + + + + ",
". + + + + =.&@*@=@-@;@i j j j j j j j j j j j j j j i m.>@,@'@)@!@' + + + + + + ",
". + + + + '.~@{@]@^@m.i j j j j j j j j j j j j j j i ;@/@(@_@:@* '.+ + + + + + ",
". + + + + <@[@}@|@1@ @4 5 5 5 5 5 5 5 5 5 5 5 5 5 5 4 4 2@3@4@5@6@=.+ + + + + + ",
". + + , > ' 7@8@9@0@] ] ^ ^ ^ ^ ^ ^ ^ ^ ^ ^ ^ ^ ^ ^ ^ ] ] a@b@c@a Y ).N > + + + ",
". + N Y } d@X % [@* * * * * * * * * * * * * * * * * * * e@f@g@h@i@j@ .X Y > + + ",
". > Y -.C ;.p - # x+=.).).=.=.=.=.=.=.=.=.=.=.=.).).=.x+r +.k@l@m@n@o@J+-.N + + ",
". q } _.:.<.:.$ } > + + + + + + + + + + + + + + + + + q O p@z.q@r@s@t@u@v@[ + + ",
". q Z 4.5.6.7.4.} > + + + + + + + + + + + + + + + + + q *.w@x@y@z@A@B@C@` [ + + ",
". @ (.e.f.g.6+4.} > + + + + + + + + + + + + + + + + + @ }+k+1+D@w E@F@5+,.N + + ",
". [ O q.r.s.t.4.i.> + + + + + + + + + + + + + + + + + N 8+d+c+G@i G@c+d+8+N + + ",
". =.B.C.D.E.F.4.} > + + + + + + + + + + + + + + + + + N ,.5+4+3+j H@I@|+}+@ + + ",
". M.N.O.P.Q.F.R.} > + + + + + + + + + + + + + + + + + [ ` [+<+:+j _+(+/+*.q + + ",
". Z.`. +.+.+ +`.Z.> + + + + + + + + + + + + + + + + + b C ^+]+{+j ~+!+)+r q + + ",
". } R.F.Q.P.O.N.M., + + + + + + + + + + + + + + + + + b p j.;+-+j =+*+p.(.> + + ",
". } 4.F.E.D.C.B.=., + + + + + + + + + + + + + + + + + ).u.v.w.x.j $+z.A.} > + + ",
". i.4.t.#+r.q.O [ + + + + + + + + + + + + + + + + + + ).) G.H.I.j J.K.L.; , + + ",
". i.4.t.%+&+e.(.@ + + + + + + + + + + + + + + + + + + =.S.T.U.V.i W.X.Y.' + + + ",
". i.4.t.>+,+'+Z q + + + + + + + + + + + + + + + + + + '...++@+h h @+++..'.+ + + ",
". i.4.t.g.t.'+i.q + + + + + + + + + + + + + + + + + + ' Y.X.W.i V.U.T.S.=.+ + + ",
". i.4.h.g.h.4.i.> + + + + + + + + + + + + + + + + + , ; L.J@K@m.L@H.G.) ).+ + + ",
". i.4.h.7+6+4.} > + + + + + + + + + + + + + + + + + > } M@N@O@P@Q@R@S@u.).+ + + ",
". } 4.7.6.7.4.} > + + + + + + + + + + + + + + + + + > (.f@T@U@V@W@X@Y@p b + + + ",
". } $ :.<.:.$ } > + + + + + + + + + + + + + + + + + q O Z@`@ #.#+#@###v@[ + + + ",
". Y u+$ $#a ` (.x+=.).).=.=.=.=.=.=.=.=.=.=.=.).).=.x+t+%#0 #@S+&#*#=#-#@ + + + ",
". N Y i.*.p ;#;#* * * * * * * * * * * * * * * * * * ..>#,#K+=#$@* '#-.' , + + + ",
". + , N *.)#!#~#] ] ^ ^ ^ ^ ^ ^ ^ ^ ^ ^ ^ ^ ^ ^ ] ] {#]#^#/#f@}+<@).N , + + + + ",
". + + N N.(#1+_#:#4 5 5 5 5 5 5 5 5 5 5 5 5 5 5 4 I <#[#}#|#y+1#@ + + + + + + + ",
". + + [ 2#3#4#5#6#i j j j j j j j j j j j j j j i ;@7#8#9#0#a#*.q + + + + + + + ",
". + + [ b#c#d#e#f#h i j j j j j j j j j j j j j i h g#h#i#j#k#r q + + + + + + + ",
". + + b $ l#m#n#o#4 4 5 5 5 5 5 5 5 5 5 5 5 5 5 5 4 p#1@q#r#s## > + + + + + + + ",
". + + N t#u#v#w#{ ] ] ^ ^ ^ ^ ^ ^ ^ ^ ^ ^ ^ ^ ^ ^ ] ] 0@x#y#% %@, + + + + + + + ",
". + + > %@<  .& & * * * * * * * * * * * * * * * * * * & % >.d@N + + + + + + + + ",
". . . . . . . . . . . . . . . . . . . . . . . . . . . . . . . . . . . . . . . . "};
