/* XPM */
static char * redled8_xpm[] = {
"40 64 426 2",
"  	c None",
". 	c #333333",
"+ 	c #000000",
"@ 	c #040000",
"# 	c #170000",
"$ 	c #340000",
"% 	c #430000",
"& 	c #450000",
"* 	c #460000",
"= 	c #410000",
"- 	c #2E0000",
"; 	c #110000",
"> 	c #020000",
", 	c #010000",
"' 	c #0D0000",
") 	c #3E0000",
"! 	c #890303",
"~ 	c #AF0606",
"{ 	c #B50808",
"] 	c #B60808",
"^ 	c #B60909",
"/ 	c #B50505",
"( 	c #B40202",
"_ 	c #A80000",
": 	c #770000",
"< 	c #2C0000",
"[ 	c #060000",
"} 	c #140000",
"| 	c #570505",
"1 	c #BA1818",
"2 	c #EB3232",
"3 	c #F24242",
"4 	c #F34545",
"5 	c #F34646",
"6 	c #F33F3F",
"7 	c #F22D2D",
"8 	c #F01212",
"9 	c #DE0303",
"0 	c #9A0000",
"a 	c #380000",
"b 	c #070000",
"c 	c #180101",
"d 	c #610B0B",
"e 	c #C43131",
"f 	c #F46F6F",
"g 	c #FB9C9C",
"h 	c #FCAAAA",
"i 	c #FCABAB",
"j 	c #FCACAC",
"k 	c #FCA0A0",
"l 	c #FB7979",
"m 	c #F93B3B",
"n 	c #E30F0F",
"o 	c #990101",
"p 	c #370000",
"q 	c #030000",
"r 	c #1C0000",
"s 	c #680707",
"t 	c #C82323",
"u 	c #F55D5D",
"v 	c #FB9393",
"w 	c #FCA8A8",
"x 	c #FCA4A4",
"y 	c #FB8787",
"z 	c #F84E4E",
"A 	c #DF1818",
"B 	c #920303",
"C 	c #330000",
"D 	c #1E0000",
"E 	c #6B0101",
"F 	c #C40A0A",
"G 	c #EC2020",
"H 	c #F23939",
"I 	c #F34444",
"J 	c #F23A3A",
"K 	c #EF2424",
"L 	c #D30C0C",
"M 	c #870101",
"N 	c #080000",
"O 	c #0C0000",
"P 	c #210000",
"Q 	c #5B0000",
"R 	c #B20303",
"S 	c #B60707",
"T 	c #B70707",
"U 	c #B80505",
"V 	c #A50101",
"W 	c #6B0000",
"X 	c #2A0000",
"Y 	c #250000",
"Z 	c #3C0101",
"` 	c #440303",
" .	c #470202",
"..	c #4E0000",
"+.	c #5A0000",
"@.	c #470000",
"#.	c #520000",
"$.	c #6A0000",
"%.	c #780101",
"&.	c #6A0303",
"*.	c #520202",
"=.	c #390000",
"-.	c #200000",
";.	c #090000",
">.	c #620101",
",.	c #9C0B0B",
"'.	c #B21B1B",
").	c #B51919",
"!.	c #B30A0A",
"~.	c #990202",
"{.	c #A50B0B",
"].	c #B81B1B",
"^.	c #B71919",
"/.	c #B10A0A",
"(.	c #950202",
"_.	c #530000",
":.	c #180000",
"<.	c #870404",
"[.	c #D32020",
"}.	c #EF5050",
"|.	c #F25353",
"1.	c #EC2828",
"2.	c #C40909",
"3.	c #920606",
"4.	c #DF3030",
"5.	c #F87D7D",
"6.	c #FB8F8F",
"7.	c #F54D4D",
"8.	c #C81414",
"9.	c #680202",
"0.	c #9A0707",
"a.	c #E33636",
"b.	c #FA9090",
"c.	c #FCA7A7",
"d.	c #F55B5B",
"e.	c #C51717",
"f.	c #610202",
"g.	c #3B0000",
"h.	c #A10808",
"i.	c #E73A3A",
"j.	c #FA9999",
"k.	c #F45757",
"l.	c #C11414",
"m.	c #5A0202",
"n.	c #A80808",
"o.	c #EB3E3E",
"p.	c #FB9F9F",
"q.	c #F45252",
"r.	c #BD1111",
"s.	c #530101",
"t.	c #420000",
"u.	c #AF0909",
"v.	c #EF4242",
"w.	c #FCA5A5",
"x.	c #F34B4B",
"y.	c #B90D0D",
"z.	c #4C0101",
"A.	c #0A0000",
"B.	c #B50A0A",
"C.	c #F24646",
"D.	c #F45858",
"E.	c #C51818",
"F.	c #F55F5F",
"G.	c #FA9292",
"H.	c #E33737",
"I.	c #690303",
"J.	c #C91C1C",
"K.	c #F66565",
"L.	c #F98C8C",
"M.	c #E03333",
"N.	c #930707",
"O.	c #700303",
"P.	c #CD2020",
"Q.	c #F66C6C",
"R.	c #F98686",
"S.	c #DC2F2F",
"T.	c #8C0606",
"U.	c #2F0000",
"V.	c #240000",
"W.	c #770404",
"X.	c #D02323",
"Y.	c #F77171",
"Z.	c #F87F7F",
"`.	c #D82B2B",
" +	c #850505",
".+	c #2B0000",
"++	c #050000",
"@+	c #280000",
"#+	c #7E0404",
"$+	c #D42626",
"%+	c #F77474",
"&+	c #F77777",
"*+	c #D42727",
"=+	c #7E0505",
"-+	c #840404",
";+	c #D71F1F",
">+	c #F76363",
",+	c #FB9191",
"'+	c #F66767",
")+	c #CF2121",
"!+	c #760404",
"~+	c #2D0000",
"{+	c #860101",
"]+	c #D30E0E",
"^+	c #EF3535",
"/+	c #F25858",
"(+	c #EC4242",
"_+	c #C51616",
":+	c #6C0202",
"<+	c #1F0000",
"[+	c #230000",
"}+	c #670000",
"|+	c #A00303",
"1+	c #B30E0E",
"2+	c #B81C1C",
"3+	c #B71616",
"4+	c #9A0808",
"5+	c #570101",
"6+	c #0B0000",
"7+	c #710000",
"8+	c #A70303",
"9+	c #B70E0E",
"0+	c #B61C1C",
"a+	c #B11616",
"b+	c #910808",
"c+	c #4D0101",
"d+	c #150000",
"e+	c #0E0000",
"f+	c #3D0000",
"g+	c #470101",
"h+	c #560303",
"i+	c #710202",
"j+	c #780000",
"k+	c #620000",
"l+	c #540000",
"m+	c #6C0000",
"n+	c #730000",
"o+	c #5E0101",
"p+	c #4B0303",
"q+	c #440202",
"r+	c #1D0000",
"s+	c #0F0000",
"t+	c #350000",
"u+	c #7F0202",
"v+	c #B80808",
"w+	c #B70808",
"x+	c #B60606",
"y+	c #B70202",
"z+	c #B50000",
"A+	c #920000",
"B+	c #480000",
"C+	c #3C0202",
"D+	c #A21010",
"E+	c #E22C2C",
"F+	c #F13F3F",
"G+	c #F24545",
"H+	c #F34343",
"I+	c #F33535",
"J+	c #F21818",
"K+	c #EA0505",
"L+	c #B60000",
"M+	c #500000",
"N+	c #100000",
"O+	c #420404",
"P+	c #AE1F1F",
"Q+	c #EE5E5E",
"R+	c #FB9595",
"S+	c #FCA9A9",
"T+	c #FC8B8B",
"U+	c #FB4D4D",
"V+	c #F21616",
"W+	c #B80202",
"X+	c #4C0000",
"Y+	c #460202",
"Z+	c #B41414",
"`+	c #F14848",
" @	c #FB8989",
".@	c #FC9797",
"+@	c #FB6262",
"@@	c #F12222",
"#@	c #B40404",
"$@	c #490000",
"%@	c #B10404",
"&@	c #E91717",
"*@	c #F23434",
"=@	c #F34141",
"-@	c #F22E2E",
";@	c #E61111",
">@	c #A90202",
",@	c #400000",
"'@	c #8F0000",
")@	c #B50202",
"!@	c #B70606",
"~@	c #B80606",
"{@	c #B20202",
"]@	c #850000",
"^@	c #1B0000",
"/@	c #360000",
"(@	c #4A0303",
"_@	c #5C0101",
":@	c #6E0000",
"<@	c #550000",
"[@	c #4D0000",
"}@	c #610000",
"|@	c #730303",
"1@	c #570303",
"2@	c #3F0000",
"3@	c #120000",
"4@	c #8F0707",
"5@	c #B01616",
"6@	c #B61D1D",
"7@	c #B70F0F",
"8@	c #AA0303",
"9@	c #760000",
"0@	c #980707",
"a@	c #B81D1D",
"b@	c #B40F0F",
"c@	c #A20303",
"d@	c #260000",
"e@	c #650202",
"f@	c #EC3F3F",
"g@	c #F25959",
"h@	c #EF3838",
"i@	c #D70F0F",
"j@	c #8D0101",
"k@	c #310000",
"l@	c #D60F0F",
"m@	c #8C0101",
"n@	c #6F0303",
"o@	c #CC1E1E",
"p@	c #F56161",
"q@	c #FB9292",
"r@	c #F86868",
"s@	c #DB2222",
"t@	c #8B0404",
"u@	c #F77070",
"v@	c #F87B7B",
"w@	c #D82929",
"x@	c #F77878",
"y@	c #F77272",
"z@	c #D02424",
"A@	c #BD1010",
"B@	c #F44E4E",
"C@	c #FB9D9D",
"D@	c #5A0101",
"E@	c #C10E0E",
"F@	c #F44343",
"G@	c #FC8D8D",
"H@	c #FA8888",
"I@	c #E73737",
"J@	c #A10707",
"K@	c #C40606",
"L@	c #F42121",
"M@	c #FB4F4F",
"N@	c #F95656",
"O@	c #E32525",
"P@	c #990505",
"Q@	c #640000",
"R@	c #C00101",
"S@	c #EC0808",
"T@	c #F21717",
"U@	c #EF1D1D",
"V@	c #D70D0D",
"W@	c #8E0202",
"X@	c #C10101",
"Y@	c #B10000",
"Z@	c #B80303",
"`@	c #A80101",
" #	c #700000",
".#	c #570000",
"+#	c #B30303",
"@#	c #9F0101",
"##	c #510000",
"$#	c #680000",
"%#	c #630000",
"&#	c #270000",
"*#	c #660101",
"=#	c #A20404",
"-#	c #B70303",
";#	c #B60101",
">#	c #9F0000",
",#	c #2A0101",
"'#	c #800B0B",
")#	c #EE3A3A",
"!#	c #F24343",
"~#	c #F33A3A",
"{#	c #F22222",
"]#	c #ED0B0B",
"^#	c #C80101",
"/#	c #220000",
"(#	c #2F0202",
"_#	c #8B1616",
":#	c #DB4949",
"<#	c #F88484",
"[#	c #FBA3A3",
"}#	c #FC9595",
"|#	c #FB6161",
"1#	c #F52727",
"2#	c #CC0808",
"3#	c #6F0000",
"4#	c #330101",
"5#	c #920E0E",
"6#	c #DF3737",
"7#	c #F87575",
"8#	c #FB9E9E",
"9#	c #FC9D9D",
"0#	c #FB7373",
"a#	c #F53535",
"b#	c #C80D0D",
"c#	c #680101",
"d#	c #930303",
"e#	c #DA1111",
"f#	c #F02B2B",
"g#	c #F23E3E",
"h#	c #F34242",
"i#	c #EB1A1A",
"j#	c #BD0606",
"k#	c #5E0000",
"l#	c #290000",
"m#	c #720000",
"n#	c #A50202",
"o#	c #B40505",
"p#	c #B50606",
"q#	c #B00303",
"r#	c #8C0000",
"s#	c #190000",
". . . . . . . . . . . . . . . . . . . . . . . . . . . . . . . . . . . . . . . . ",
". + + + + + + + @ # $ % & * * * * * * * * * * * * * * * * * & & = - ; > + + + + ",
". + + + + + + , ' ) ! ~ { ] ^ ^ ^ ^ ^ ^ ^ ^ ^ ^ ^ ^ ^ ] ] ] / ( _ : < [ + + + + ",
". + + + + + + > } | 1 2 3 4 5 5 5 5 5 5 5 5 5 5 5 5 5 4 4 6 7 8 9 0 a b + + + + ",
". + + + + + + > c d e f g h i j j j j j j j j j j j j i h k l m n o p b + + + + ",
". + + + + + + q r s t u v w i j j j j j j j j j j j j j i x y z A B C [ + + + + ",
". + + + + + + q D E F G H I 4 5 5 5 5 5 5 5 5 5 5 5 5 5 4 I J K L M - [ + + + + ",
". + + , @ b N O P Q o R S ] ] ^ ^ ^ ^ ^ ^ ^ ^ ^ ^ ^ ^ ^ ] ] T U V W X ' b @ , + ",
". + , O Y Z `  ...+.+...@.* * * * * * * * * * * * * * * * @.#.$.%.&.*.* =.-.;., ",
". + @ -.>.,.'.).!.~.Q P O ;.N N N ;.;.;.;.;.;.;.;.N N N ;.' X E {.].^./.(._.:.q ",
". + [ - <.[.}.|.1.2.W D q + + + + + + + + + + + + + + + + [ - <.[.}.|.1.2.W D q ",
". + [ C 3.4.5.6.7.8.9.r q + + + + + + + + + + + + + + + + [ C 3.4.5.6.7.8.9.r q ",
". + b p 0.a.b.c.d.e.f.:.> + + + + + + + + + + + + + + + + b p 0.a.b.c.d.e.f.:.> ",
". + N g.h.i.j.i k.l.m.} > + + + + + + + + + + + + + + + + N g.h.i.j.i k.l.m.} > ",
". + N ) n.o.p.j q.r.s.; , + + + + + + + + + + + + + + + + N ) n.o.p.j q.r.s.; , ",
". + ;.t.u.v.w.i x.y.z.' + + + + + + + + + + + + + + + + + ;.t.u.v.w.i x.y.z.' + ",
". + A.@.B.C.h h C.B.@.A.+ + + + + + + + + + + + + + + + + A.@.B.C.h h C.B.@.A.+ ",
". + ' z.y.x.i w.v.u.t.;.+ + + + + + + + + + + + + + + + + ' z.y.x.i w.v.u.t.;.+ ",
". , ; s.r.q.j p.o.n.) N + + + + + + + + + + + + + + + + , ; s.r.q.j p.o.n.) N + ",
". > } m.l.D.j j.i.h.g.N + + + + + + + + + + + + + + + + > } m.l.D.j j.i.h.g.N + ",
". > :.f.E.F.j G.H.0.p b + + + + + + + + + + + + + + + + > :.f.E.F.j G.H.0.p b + ",
". q r I.J.K.j L.M.N.C b + + + + + + + + + + + + + + + + q r I.J.K.j L.M.N.C b + ",
". q -.O.P.Q.j R.S.T.U.[ + + + + + + + + + + + + + + + + q -.O.P.Q.j R.S.T.U.[ + ",
". @ V.W.X.Y.i Z.`. +.++++ + + + + + + + + + + + + + + + @ V.W.X.Y.i Z.`. +.++++ ",
". ++@+#+$+%+w &+*+=+@++++ + + + + + + + + + + + + + + + ++@+#+$+%+w &+*+=+@++++ ",
". ++.+-+;+>+,+'+)+!+V.@ + + + + + + + + + + + + + + + + ++.+-+;+>+,+'+)+!+V.@ + ",
". [ ~+{+]+^+/+(+_+:+<+q + + + + + + + + + + + + + + + + [ ~+{+]+^+/+(+_+:+<+q + ",
". @ [+}+|+1+2+3+4+5+<+6+;.N N ;.;.;.;.;.;.;.;.;.N N N ;.' ~+7+8+9+0+a+b+c+d+> + ",
". , e+@+f+g+h+i+j+k+..* * * * * * * * * * * * * * * * * @.l+m+n+o+p+q+p r+N + + ",
". + , ++N s+t+u+~ v+w+] ^ ^ ^ ^ ^ ^ ^ ^ ^ ^ ^ ^ ^ ^ ] ] x+y+z+A+B+# A.b q , + + ",
". + + + + N C+D+E+F+G+4 5 5 5 5 5 5 5 5 5 5 5 5 5 5 4 H+I+J+K+L+M+N+, + + + + + ",
". + + + + ;.O+P+Q+R+S+i j j j j j j j j j j j j j j i c.T+U+V+W+X+' + + + + + + ",
". + + + + A.Y+Z+`+ @c.i j j j j j j j j j j j j j j i S+.@+@@@#@* A.+ + + + + + ",
". + + + + O $@%@&@*@H+4 5 5 5 5 5 5 5 5 5 5 5 5 5 5 4 4 =@-@;@>@,@;.+ + + + + + ",
". + q [ ;.} % '@)@!@] ] ^ ^ ^ ^ ^ ^ ^ ^ ^ ^ ^ ^ ^ ^ ^ ] ] ~@{@]@a s+N ++> + + + ",
". [ ^@/@` (@_@n+:@<@B+* * * * * * * * * * * * * * * * * [@}@j+|@1@g+2@X s+> + + ",
". 3@B+4@5@6@7@8@9@U.e+;.N N N ;.;.;.;.;.;.;.;.;.N N ;.6+r #.0@3+a@b@c@m+d@+++ + ",
". ^@e@l.f@g@h@i@j@k@[ + + + + + + + + + + + + + + + + q ^@e@l.f@g@h@l@m@k@[ + + ",
". -.n@o@p@q@r@s@t@U.[ + + + + + + + + + + + + + + + + q -.n@o@p@q@r@s@t@U.[ + + ",
". V.W.X.u@w v@w@ +.++++ + + + + + + + + + + + + + + + @ V.!+X.u@w v@w@ +.++++ + ",
". @+=+*+x@i x@*+=+@++++ + + + + + + + + + + + + + + + ++@+=+*+x@i x@*+=+@++++ + ",
". .+ +`.Z.j y@z@W.V.@ + + + + + + + + + + + + + + + + ++.+ +`.Z.j y@z@W.V.@ + + ",
". U.T.S.R.j Q.P.O.-.q + + + + + + + + + + + + + + + + [ U.T.S.R.j Q.P.O.-.q + + ",
". C N.M.L.j K.J.I.r q + + + + + + + + + + + + + + + + b C N.M.L.j K.J.I.r q + + ",
". p 0.H.G.j F.E.f.:.> + + + + + + + + + + + + + + + + b p 0.H.G.j F.E.f.:.> + + ",
". g.h.i.j.j D.l.m.} > + + + + + + + + + + + + + + + + N g.h.i.j.j D.l.m.} > + + ",
". ) n.o.p.j q.r.s.; , + + + + + + + + + + + + + + + + N ) n.o.p.j q.r.s.; , + + ",
". t.u.v.w.i x.y.z.' + + + + + + + + + + + + + + + + + ;.t.u.v.w.i x.y.z.' + + + ",
". @.B.C.h h C.B.@.A.+ + + + + + + + + + + + + + + + + A.@.B.C.h h C.B.@.A.+ + + ",
". z.y.x.i w.v.u.t.;.+ + + + + + + + + + + + + + + + + ' z.y.x.i w.v.u.t.;.+ + + ",
". s.A@B@c.C@o.n.) N + + + + + + + + + + + + + + + + , ; s.A@B@c.C@o.n.) N + + + ",
". D@E@F@G@H@I@J@g.N + + + + + + + + + + + + + + + + > } D@E@F@G@H@I@J@g.N + + + ",
". }@K@L@M@N@O@P@p b + + + + + + + + + + + + + + + + > :.}@K@L@M@N@O@P@p b + + + ",
". Q@R@S@T@U@V@W@k@[ + + + + + + + + + + + + + + + + q ^@Q@X@S@T@U@V@W@k@[ + + + ",
". ..A+Y@y+Z@`@ #< ' ;.N N N ;.;.;.;.;.;.;.;.;.N N ;.6+<+.#0 L+y++#@#}+[+@ + + + ",
". D a & ##$#j+m+_.@.* * * * * * * * * * * * * * * * @...%#n+}+M+* f+d@' , + + + ",
". q b O &#*#=#T w+] ^ ^ ^ ^ ^ ^ ^ ^ ^ ^ ^ ^ ^ ^ ] ] S -#;#>#}@V.O N ++, + + + + ",
". + + ++,#'#X.)#!#4 5 5 5 5 5 5 5 5 5 5 5 5 5 5 4 I ~#{#]#^#7+/#@ + + + + + + + ",
". + + [ (#_#:#<#[#i j j j j j j j j j j j j j j i S+}#|#1#2#3#-.q + + + + + + + ",
". + + [ 4#5#6#7#8#h i j j j j j j j j j j j j j i h 9#0#a#b#c#r q + + + + + + + ",
". + + b $ d#e#f#g#4 4 5 5 5 5 5 5 5 5 5 5 5 5 5 5 4 h#*@i#j#k## > + + + + + + + ",
". + + ++l#m#n#o#{ ] ] ^ ^ ^ ^ ^ ^ ^ ^ ^ ^ ^ ^ ^ ^ ] ] p#q#r#% N+, + + + + + + + ",
". + + > N+< 2@& & * * * * * * * * * * * * * * * * * * & % t+s#+++ + + + + + + + ",
". . . . . . . . . . . . . . . . . . . . . . . . . . . . . . . . . . . . . . . . "};
