/* XPM */
static char * redled0_xpm[] = {
"40 64 408 2",
"  	c None",
". 	c #333333",
"+ 	c #000000",
"@ 	c #040000",
"# 	c #170000",
"$ 	c #340000",
"% 	c #430000",
"& 	c #450000",
"* 	c #460000",
"= 	c #410000",
"- 	c #2E0000",
"; 	c #110000",
"> 	c #020000",
", 	c #010000",
"' 	c #0D0000",
") 	c #3E0000",
"! 	c #890303",
"~ 	c #AF0606",
"{ 	c #B50808",
"] 	c #B60808",
"^ 	c #B60909",
"/ 	c #B50505",
"( 	c #B40202",
"_ 	c #A80000",
": 	c #770000",
"< 	c #2C0000",
"[ 	c #060000",
"} 	c #140000",
"| 	c #570505",
"1 	c #BA1818",
"2 	c #EB3232",
"3 	c #F24242",
"4 	c #F34545",
"5 	c #F34646",
"6 	c #F33F3F",
"7 	c #F22D2D",
"8 	c #F01212",
"9 	c #DE0303",
"0 	c #9A0000",
"a 	c #380000",
"b 	c #070000",
"c 	c #180101",
"d 	c #610B0B",
"e 	c #C43131",
"f 	c #F46F6F",
"g 	c #FB9C9C",
"h 	c #FCAAAA",
"i 	c #FCABAB",
"j 	c #FCACAC",
"k 	c #FCA0A0",
"l 	c #FB7979",
"m 	c #F93B3B",
"n 	c #E30F0F",
"o 	c #990101",
"p 	c #370000",
"q 	c #030000",
"r 	c #1C0000",
"s 	c #680707",
"t 	c #C82323",
"u 	c #F55D5D",
"v 	c #FB9393",
"w 	c #FCA8A8",
"x 	c #FCA4A4",
"y 	c #FB8787",
"z 	c #F84E4E",
"A 	c #DF1818",
"B 	c #920303",
"C 	c #330000",
"D 	c #1E0000",
"E 	c #6B0101",
"F 	c #C40A0A",
"G 	c #EC2020",
"H 	c #F23939",
"I 	c #F34444",
"J 	c #F23A3A",
"K 	c #EF2424",
"L 	c #D30C0C",
"M 	c #870101",
"N 	c #080000",
"O 	c #0C0000",
"P 	c #210000",
"Q 	c #5B0000",
"R 	c #B20303",
"S 	c #B60707",
"T 	c #B70707",
"U 	c #B80505",
"V 	c #A50101",
"W 	c #6B0000",
"X 	c #2A0000",
"Y 	c #250000",
"Z 	c #3C0101",
"` 	c #440303",
" .	c #470202",
"..	c #4E0000",
"+.	c #5A0000",
"@.	c #470000",
"#.	c #520000",
"$.	c #6A0000",
"%.	c #780101",
"&.	c #6A0303",
"*.	c #520202",
"=.	c #390000",
"-.	c #200000",
";.	c #090000",
">.	c #620101",
",.	c #9C0B0B",
"'.	c #B21B1B",
").	c #B51919",
"!.	c #B30A0A",
"~.	c #990202",
"{.	c #A50B0B",
"].	c #B81B1B",
"^.	c #B71919",
"/.	c #B10A0A",
"(.	c #950202",
"_.	c #530000",
":.	c #180000",
"<.	c #870404",
"[.	c #D32020",
"}.	c #EF5050",
"|.	c #F25353",
"1.	c #EC2828",
"2.	c #C40909",
"3.	c #920606",
"4.	c #DF3030",
"5.	c #F87D7D",
"6.	c #FB8F8F",
"7.	c #F54D4D",
"8.	c #C81414",
"9.	c #680202",
"0.	c #9A0707",
"a.	c #E33636",
"b.	c #FA9090",
"c.	c #FCA7A7",
"d.	c #F55B5B",
"e.	c #C51717",
"f.	c #610202",
"g.	c #3B0000",
"h.	c #A10808",
"i.	c #E73A3A",
"j.	c #FA9999",
"k.	c #F45757",
"l.	c #C11414",
"m.	c #5A0202",
"n.	c #A80808",
"o.	c #EB3E3E",
"p.	c #FB9F9F",
"q.	c #F45252",
"r.	c #BD1111",
"s.	c #530101",
"t.	c #420000",
"u.	c #AF0909",
"v.	c #EF4242",
"w.	c #FCA5A5",
"x.	c #F34B4B",
"y.	c #B90D0D",
"z.	c #4C0101",
"A.	c #0A0000",
"B.	c #B50A0A",
"C.	c #F24646",
"D.	c #F45858",
"E.	c #C51818",
"F.	c #F55F5F",
"G.	c #FA9292",
"H.	c #E33737",
"I.	c #690303",
"J.	c #C91C1C",
"K.	c #F66565",
"L.	c #F98C8C",
"M.	c #E03333",
"N.	c #930707",
"O.	c #700303",
"P.	c #CD2020",
"Q.	c #F66C6C",
"R.	c #F98686",
"S.	c #DC2F2F",
"T.	c #8C0606",
"U.	c #2F0000",
"V.	c #240000",
"W.	c #770404",
"X.	c #D02323",
"Y.	c #F77171",
"Z.	c #F87F7F",
"`.	c #D82B2B",
" +	c #850505",
".+	c #2B0000",
"++	c #050000",
"@+	c #280000",
"#+	c #7E0404",
"$+	c #D42626",
"%+	c #F77474",
"&+	c #F77777",
"*+	c #D42727",
"=+	c #7E0505",
"-+	c #840404",
";+	c #D71F1F",
">+	c #F76363",
",+	c #FB9191",
"'+	c #F66767",
")+	c #CF2121",
"!+	c #760404",
"~+	c #2D0000",
"{+	c #860101",
"]+	c #D30E0E",
"^+	c #EF3535",
"/+	c #F25858",
"(+	c #EC4242",
"_+	c #C51616",
":+	c #6C0202",
"<+	c #1F0000",
"[+	c #230000",
"}+	c #670000",
"|+	c #A00303",
"1+	c #B30E0E",
"2+	c #B61C1C",
"3+	c #B21616",
"4+	c #940808",
"5+	c #500101",
"6+	c #260000",
"7+	c #A20303",
"8+	c #B50E0E",
"9+	c #B11616",
"0+	c #910808",
"a+	c #4D0101",
"b+	c #150000",
"c+	c #0E0000",
"d+	c #3D0000",
"e+	c #450101",
"f+	c #470303",
"g+	c #4B0202",
"h+	c #310000",
"i+	c #1D0000",
"j+	c #160000",
"k+	c #500000",
"l+	c #490303",
"m+	c #440202",
"n+	c #320101",
"o+	c #380202",
"p+	c #370202",
"q+	c #360202",
"r+	c #360303",
"s+	c #3A0000",
"t+	c #360000",
"u+	c #120000",
"v+	c #210303",
"w+	c #3B0A0A",
"x+	c #471111",
"y+	c #481414",
"z+	c #491414",
"A+	c #491515",
"B+	c #490F0F",
"C+	c #480606",
"D+	c #470101",
"E+	c #2A0606",
"F+	c #411717",
"G+	c #492929",
"H+	c #4A3131",
"I+	c #4B3232",
"J+	c #4B3333",
"K+	c #4B3131",
"L+	c #4B2929",
"M+	c #4A1616",
"N+	c #1B0000",
"O+	c #330404",
"P+	c #461313",
"Q+	c #4A2727",
"R+	c #4A2C2C",
"S+	c #4A1C1C",
"T+	c #460909",
"U+	c #330101",
"V+	c #190000",
"W+	c #370101",
"X+	c #460606",
"Y+	c #480F0F",
"Z+	c #481313",
"`+	c #470D0D",
" @	c #400505",
".@	c #290000",
"+@	c #0F0000",
"@@	c #380101",
"#@	c #480303",
"$@	c #4E0101",
"%@	c #3F0000",
"&@	c #4D0303",
"*@	c #480000",
"=@	c #8F0707",
"-@	c #B01616",
";@	c #B61D1D",
">@	c #B50F0F",
",@	c #A50303",
"'@	c #6F0000",
")@	c #4B0000",
"!@	c #910707",
"~@	c #B30F0F",
"{@	c #6C0000",
"]@	c #650202",
"^@	c #EC3F3F",
"/@	c #F25959",
"(@	c #EF3838",
"_@	c #D60F0F",
":@	c #8C0101",
"<@	c #6F0303",
"[@	c #CC1E1E",
"}@	c #F56161",
"|@	c #FB9292",
"1@	c #F86868",
"2@	c #DB2222",
"3@	c #8B0404",
"4@	c #F77070",
"5@	c #F87B7B",
"6@	c #D82929",
"7@	c #F77878",
"8@	c #F77272",
"9@	c #D02424",
"0@	c #BD1010",
"a@	c #F44E4E",
"b@	c #FB9D9D",
"c@	c #5A0101",
"d@	c #C10E0E",
"e@	c #F44343",
"f@	c #FC8D8D",
"g@	c #FA8888",
"h@	c #E73737",
"i@	c #A10707",
"j@	c #610000",
"k@	c #C40606",
"l@	c #F42121",
"m@	c #FB4F4F",
"n@	c #F95656",
"o@	c #E32525",
"p@	c #990505",
"q@	c #640000",
"r@	c #C00101",
"s@	c #EC0808",
"t@	c #F21717",
"u@	c #EF1D1D",
"v@	c #D70D0D",
"w@	c #8E0202",
"x@	c #C10101",
"y@	c #920000",
"z@	c #B10000",
"A@	c #B70202",
"B@	c #B80303",
"C@	c #A80101",
"D@	c #700000",
"E@	c #0B0000",
"F@	c #570000",
"G@	c #B60000",
"H@	c #B30303",
"I@	c #9F0101",
"J@	c #510000",
"K@	c #680000",
"L@	c #780000",
"M@	c #630000",
"N@	c #730000",
"O@	c #270000",
"P@	c #660101",
"Q@	c #A20404",
"R@	c #B70808",
"S@	c #B70303",
"T@	c #B60101",
"U@	c #9F0000",
"V@	c #2A0101",
"W@	c #800B0B",
"X@	c #EE3A3A",
"Y@	c #F24343",
"Z@	c #F33A3A",
"`@	c #F22222",
" #	c #ED0B0B",
".#	c #C80101",
"+#	c #710000",
"@#	c #220000",
"##	c #2F0202",
"$#	c #8B1616",
"%#	c #DB4949",
"&#	c #F88484",
"*#	c #FBA3A3",
"=#	c #FCA9A9",
"-#	c #FC9595",
";#	c #FB6161",
">#	c #F52727",
",#	c #CC0808",
"'#	c #920E0E",
")#	c #DF3737",
"!#	c #F87575",
"~#	c #FB9E9E",
"{#	c #FC9D9D",
"]#	c #FB7373",
"^#	c #F53535",
"/#	c #C80D0D",
"(#	c #680101",
"_#	c #930303",
":#	c #DA1111",
"<#	c #F02B2B",
"[#	c #F23E3E",
"}#	c #F34242",
"|#	c #F23434",
"1#	c #EB1A1A",
"2#	c #BD0606",
"3#	c #5E0000",
"4#	c #720000",
"5#	c #A50202",
"6#	c #B40505",
"7#	c #B50606",
"8#	c #B00303",
"9#	c #8C0000",
"0#	c #100000",
"a#	c #350000",
". . . . . . . . . . . . . . . . . . . . . . . . . . . . . . . . . . . . . . . . ",
". + + + + + + + @ # $ % & * * * * * * * * * * * * * * * * * & & = - ; > + + + + ",
". + + + + + + , ' ) ! ~ { ] ^ ^ ^ ^ ^ ^ ^ ^ ^ ^ ^ ^ ^ ] ] ] / ( _ : < [ + + + + ",
". + + + + + + > } | 1 2 3 4 5 5 5 5 5 5 5 5 5 5 5 5 5 4 4 6 7 8 9 0 a b + + + + ",
". + + + + + + > c d e f g h i j j j j j j j j j j j j i h k l m n o p b + + + + ",
". + + + + + + q r s t u v w i j j j j j j j j j j j j j i x y z A B C [ + + + + ",
". + + + + + + q D E F G H I 4 5 5 5 5 5 5 5 5 5 5 5 5 5 4 I J K L M - [ + + + + ",
". + + , @ b N O P Q o R S ] ] ^ ^ ^ ^ ^ ^ ^ ^ ^ ^ ^ ^ ^ ] ] T U V W X ' b @ , + ",
". + , O Y Z `  ...+.+...@.* * * * * * * * * * * * * * * * @.#.$.%.&.*.* =.-.;., ",
". + @ -.>.,.'.).!.~.Q P O ;.N N N ;.;.;.;.;.;.;.;.N N N ;.' X E {.].^./.(._.:.q ",
". + [ - <.[.}.|.1.2.W D q + + + + + + + + + + + + + + + + [ - <.[.}.|.1.2.W D q ",
". + [ C 3.4.5.6.7.8.9.r q + + + + + + + + + + + + + + + + [ C 3.4.5.6.7.8.9.r q ",
". + b p 0.a.b.c.d.e.f.:.> + + + + + + + + + + + + + + + + b p 0.a.b.c.d.e.f.:.> ",
". + N g.h.i.j.i k.l.m.} > + + + + + + + + + + + + + + + + N g.h.i.j.i k.l.m.} > ",
". + N ) n.o.p.j q.r.s.; , + + + + + + + + + + + + + + + + N ) n.o.p.j q.r.s.; , ",
". + ;.t.u.v.w.i x.y.z.' + + + + + + + + + + + + + + + + + ;.t.u.v.w.i x.y.z.' + ",
". + A.@.B.C.h h C.B.@.A.+ + + + + + + + + + + + + + + + + A.@.B.C.h h C.B.@.A.+ ",
". + ' z.y.x.i w.v.u.t.;.+ + + + + + + + + + + + + + + + + ' z.y.x.i w.v.u.t.;.+ ",
". , ; s.r.q.j p.o.n.) N + + + + + + + + + + + + + + + + , ; s.r.q.j p.o.n.) N + ",
". > } m.l.D.j j.i.h.g.N + + + + + + + + + + + + + + + + > } m.l.D.j j.i.h.g.N + ",
". > :.f.E.F.j G.H.0.p b + + + + + + + + + + + + + + + + > :.f.E.F.j G.H.0.p b + ",
". q r I.J.K.j L.M.N.C b + + + + + + + + + + + + + + + + q r I.J.K.j L.M.N.C b + ",
". q -.O.P.Q.j R.S.T.U.[ + + + + + + + + + + + + + + + + q -.O.P.Q.j R.S.T.U.[ + ",
". @ V.W.X.Y.i Z.`. +.++++ + + + + + + + + + + + + + + + @ V.W.X.Y.i Z.`. +.++++ ",
". ++@+#+$+%+w &+*+=+@++++ + + + + + + + + + + + + + + + ++@+#+$+%+w &+*+=+@++++ ",
". ++.+-+;+>+,+'+)+!+V.@ + + + + + + + + + + + + + + + + ++.+-+;+>+,+'+)+!+V.@ + ",
". [ ~+{+]+^+/+(+_+:+<+q + + + + + + + + + + + + + + + + [ ~+{+]+^+/+(+_+:+<+q + ",
". @ [+}+|+1+2+3+4+5+:.@ > , , , > > > > > > > > , , , > [ 6+$.7+8+2+9+0+a+b+> + ",
". , c+@+d+e+f+g+@.h+i+b+b+} b+b+b+b+b+b+b+b+b+b+b+} } b+j+[+d+k+5+l+m+p i+N + + ",
". + , ++b ;.c+D n+o+p+q+r+r+r+r+r+r+r+r+r+r+r+r+r+r+q+q+q+a s+t+Y u+;.b q , + + ",
". + + + + , ;.v+w+x+y+z+A+A+A+A+A+A+A+A+A+A+A+A+A+A+z+z+B+C+D+g.-.;., + + + + + ",
". + + + + , c+E+F+G+H+I+J+J+J+J+J+J+J+J+J+J+J+J+J+J+I+K+L+M+C+=.N+[ + + + + + + ",
". + + + + q } O+P+Q+H+I+J+J+J+J+J+J+J+J+J+J+J+J+J+J+I+I+R+S+T+U+} q + + + + + + ",
". + + + + ++V+W+X+Y+z+z+A+A+A+A+A+A+A+A+A+A+A+A+A+A+z+z+Z+`+ @.@c+> + + + + + + ",
". + q [ ;.+@<+C s+o+q+q+r+r+r+r+r+r+r+r+r+r+r+r+r+r+q+q+p+@@$ [+; A.N ++> + + + ",
". [ N+t+` #@$@k+%@V.# b+} } b+b+b+b+b+b+b+b+b+b+b+} b+b+r U.@.&@#@e+) X +@> + + ",
". u+*@=@-@;@>@,@'@@+b > , , , > > > > > > > > , , , > @ b+)@!@9+;@~@7+{@6++++ + ",
". N+]@l.^@/@(@_@:@h+[ + + + + + + + + + + + + + + + + q N+]@l.^@/@(@_@:@h+[ + + ",
". -.<@[@}@|@1@2@3@U.[ + + + + + + + + + + + + + + + + q -.<@[@}@|@1@2@3@U.[ + + ",
". V.W.X.4@w 5@6@ +.++++ + + + + + + + + + + + + + + + @ V.W.X.4@w 5@6@ +.++++ + ",
". @+=+*+7@i 7@*+=+@++++ + + + + + + + + + + + + + + + ++@+=+*+7@i 7@*+=+@++++ + ",
". .+ +`.Z.j 8@9@W.V.@ + + + + + + + + + + + + + + + + ++.+ +`.Z.j 8@9@W.V.@ + + ",
". U.T.S.R.j Q.P.O.-.q + + + + + + + + + + + + + + + + [ U.T.S.R.j Q.P.O.-.q + + ",
". C N.M.L.j K.J.I.r q + + + + + + + + + + + + + + + + b C N.M.L.j K.J.I.r q + + ",
". p 0.H.G.j F.E.f.:.> + + + + + + + + + + + + + + + + b p 0.H.G.j F.E.f.:.> + + ",
". g.h.i.j.j D.l.m.} > + + + + + + + + + + + + + + + + N g.h.i.j.j D.l.m.} > + + ",
". ) n.o.p.j q.r.s.; , + + + + + + + + + + + + + + + + N ) n.o.p.j q.r.s.; , + + ",
". t.u.v.w.i x.y.z.' + + + + + + + + + + + + + + + + + ;.t.u.v.w.i x.y.z.' + + + ",
". @.B.C.h h C.B.@.A.+ + + + + + + + + + + + + + + + + A.@.B.C.h h C.B.@.A.+ + + ",
". z.y.x.i w.v.u.t.;.+ + + + + + + + + + + + + + + + + ' z.y.x.i w.v.u.t.;.+ + + ",
". s.0@a@c.b@o.n.) N + + + + + + + + + + + + + + + + , ; s.0@a@c.b@o.n.) N + + + ",
". c@d@e@f@g@h@i@g.N + + + + + + + + + + + + + + + + > } c@d@e@f@g@h@i@g.N + + + ",
". j@k@l@m@n@o@p@p b + + + + + + + + + + + + + + + + > :.j@k@l@m@n@o@p@p b + + + ",
". q@r@s@t@u@v@w@h+[ + + + + + + + + + + + + + + + + q N+q@x@s@t@u@v@w@h+[ + + + ",
". ..y@z@A@B@C@D@< ' ;.N N N ;.;.;.;.;.;.;.;.;.N N ;.E@<+F@0 G@A@H@I@}+[+@ + + + ",
". D a & J@K@L@{@_.@.* * * * * * * * * * * * * * * * @...M@N@}+k+* d+6+' , + + + ",
". q b O O@P@Q@T R@] ^ ^ ^ ^ ^ ^ ^ ^ ^ ^ ^ ^ ^ ^ ] ] S S@T@U@j@V.O N ++, + + + + ",
". + + ++V@W@X.X@Y@4 5 5 5 5 5 5 5 5 5 5 5 5 5 5 4 I Z@`@ #.#+#@#@ + + + + + + + ",
". + + [ ##$#%#&#*#i j j j j j j j j j j j j j j i =#-#;#>#,#'@-.q + + + + + + + ",
". + + [ U+'#)#!#~#h i j j j j j j j j j j j j j i h {#]#^#/#(#r q + + + + + + + ",
". + + b $ _#:#<#[#4 4 5 5 5 5 5 5 5 5 5 5 5 5 5 5 4 }#|#1#2#3## > + + + + + + + ",
". + + ++.@4#5#6#{ ] ] ^ ^ ^ ^ ^ ^ ^ ^ ^ ^ ^ ^ ^ ^ ] ] 7#8#9#% 0#, + + + + + + + ",
". + + > 0#< %@& & * * * * * * * * * * * * * * * * * * & % a#V++++ + + + + + + + ",
". . . . . . . . . . . . . . . . . . . . . . . . . . . . . . . . . . . . . . . . "};
