/* XPM */
static char * redled8source_xpm[] = {
"40 64 34 1",
" 	c None",
".	c #000000",
"+	c #1F0000",
"@	c #FE0000",
"#	c #DF0000",
"$	c #2F0000",
"%	c #CF0000",
"&	c #3F0000",
"*	c #FE3F3F",
"=	c #FEFEFE",
"-	c #FEBFBF",
";	c #BF0000",
">	c #4F0000",
",	c #FE4F4F",
"'	c #FEAFAF",
")	c #AF0000",
"!	c #5F0000",
"~	c #9F0000",
"{	c #6F0000",
"]	c #8F0000",
"^	c #FE9F9F",
"/	c #FE5F5F",
"(	c #FECFCF",
"_	c #FE2F2F",
":	c #FEDFDF",
"<	c #FE1F1F",
"[	c #EF0000",
"}	c #FEEFEF",
"|	c #FE0F0F",
"1	c #0F0000",
"2	c #FE6F6F",
"3	c #FE8F8F",
"4	c #7F0000",
"5	c #FE7F7F",
"........................................",
"........................................",
".........+@@@@@@@@@@@@@@@@@@@@@@@#......",
".........$@@@@@@@@@@@@@@@@@@@@@@@%......",
".........&*===================-@@;......",
".........>@,==================='@)......",
".........!@@@@@@@@@@@@@@@@@@@@@@@~......",
".........{@@@@@@@@@@@@@@@@@@@@@@@]......",
"........................................",
"....]@@@@@{....................]@@@@@{..",
"....~@^/@@!....................~@^/@@!..",
"....)@'=,@>....................)@'=,@>..",
"....;@-=*@&....................;@-=*@&..",
"....%@(=_@$....................%@(=_@$..",
"....#@:=<@+....................#@:=<@+..",
"....[@}=|@1....................[@}=|@1..",
"....@@==@@.....................@@==@@...",
"...1@|=}@[....................1@|=}@[...",
"...+@<=:@#....................+@<=:@#...",
"...$@_=(@%....................$@_=(@%...",
"...&@*=-@;....................&@*=-@;...",
"...>@,='@)....................>@,='@)...",
"...!@/=^@~....................!@/=^@~...",
"...{@2=3@]....................{@2=3@]...",
"...4@5=5@4....................4@5=5@4...",
"...]@3=2@{....................]@3=2@{...",
"...~@@^/@!....................~@@^/@!...",
"...)@@@@@>....................)@@@@@>...",
"........................................",
".......%@@@@@@@@@@@@@@@@@@@@@@@@$.......",
".......#@@@@@@@@@@@@@@@@@@@@@@@@+.......",
".......[}====================|@@1.......",
".......@@=====================@@........",
"......1@@@@@@@@@@@@@@@@@@@@@@@@[........",
"......+@@@@@@@@@@@@@@@@@@@@@@@@#........",
"........................................",
"..&@@@@@;....................&@@@@@;....",
"..>@,'@@)....................>@,'@@)....",
"..!@/=^@~....................!@/=^@~....",
"..{@2=3@]....................{@2=3@]....",
"..4@5=5@4....................4@5=5@4....",
"..]@3=2@{....................]@3=2@{....",
"..~@^=/@!....................~@^=/@!....",
"..)@'=,@>....................)@'=,@>....",
"..;@-=*@&....................;@-=*@&....",
"..%@(=_@$....................%@(=_@$....",
"..#@:=<@+....................#@:=<@+....",
"..[@}=|@1....................[@}=|@1....",
"..@@==@@.....................@@==@@.....",
".1@|=}@[....................1@|=}@[.....",
".+@<=:@#....................+@<=:@#.....",
".$@_=(@%....................$@_=(@%.....",
".&@@*-@;....................&@@*-@;.....",
".>@@@@@)....................>@@@@@).....",
".!@@@@@~....................!@@@@@~.....",
"........................................",
".....4@@@@@@@@@@@@@@@@@@@@@@@@4.........",
".....]@@@@@@@@@@@@@@@@@@@@@@@@{.........",
".....~^====================/@@!.........",
".....)@'====================,@>.........",
".....;@@@@@@@@@@@@@@@@@@@@@@@@&.........",
".....%@@@@@@@@@@@@@@@@@@@@@@@@$.........",
"........................................",
"........................................"};
