/* XPM */
static char * S_xpm[] = {
"32 32 13 1",
" 	c None",
".	c #7F7F7F",
"+	c #191919",
"@	c #333333",
"#	c #5F5F5F",
"$	c #BBBBBB",
"%	c #FFFFFF",
"&	c #E7E7E7",
"*	c #777777",
"=	c #D1D1D1",
"-	c #8D8D8D",
";	c #494949",
">	c #A3A3A3",
"................................",
"...............................+",
"..@@@@@@@@@@@@@@@@@@@@@@@@@@@@++",
"..@@@@@@@@@@@@@@@@@@@@@@@@@@@@++",
"..@@@@@@@@@@@@@@@@@@@@@@@@@@@@++",
"..@@@@@@@@@@@@@@@@@@@@@@@@@@@@++",
"..@@@@@@@@@@@@@@@@@@@@@@@@@@@@++",
"..@@@@@@@@@@@#$%%%%&$*@@@@@@@@++",
"..@@@@@@@@@@$%%=**$%%$@@@@@@@@++",
"..@@@@@@@@@-%%-@@@@$%$@@@@@@@@++",
"..@@@@@@@@@=%%@@@@@*%$@@@@@@@@++",
"..@@@@@@@@@%%%;@@@@#$-@@@@@@@@++",
"..@@@@@@@@@%%%$@@@@@@@@@@@@@@@++",
"..@@@@@@@@@>%%%=#@@@@@@@@@@@@@++",
"..@@@@@@@@@;&%%%%=#@@@@@@@@@@@++",
"..@@@@@@@@@@;=%%%%%=;@@@@@@@@@++",
"..@@@@@@@@@@@@-&%%%%&;@@@@@@@@++",
"..@@@@@@@@@@@@@@-%%%%>@@@@@@@@++",
"..@@@@@@@@@@@@@@@;&%%%@@@@@@@@++",
"..@@@@@@@@$%*@@@@@-%%%@@@@@@@@++",
"..@@@@@@@@$%>@@@@@*%%=@@@@@@@@++",
"..@@@@@@@@$%$@@@@@=%%*@@@@@@@@++",
"..@@@@@@@@$%%>#@#$%%$@@@@@@@@@++",
"..@@@@@@@@>%%%%%%%=#@@@@@@@@@@++",
"..@@@@@@@@@@#****@@@@@@@@@@@@@++",
"..@@@@@@@@@@@@@@@@@@@@@@@@@@@@++",
"..@@@@@@@@@@@@@@@@@@@@@@@@@@@@++",
"..@@@@@@@@@@@@@@@@@@@@@@@@@@@@++",
"..@@@@@@@@@@@@@@@@@@@@@@@@@@@@++",
"..@@@@@@@@@@@@@@@@@@@@@@@@@@@@++",
"..++++++++++++++++++++++++++++++",
".+++++++++++++++++++++++++++++++"};
