/* XPM */
static char * BME700mods_xpm[] = {
"119 145 19 1",
" 	c None",
".	c #0000FF",
"+	c #FFFFFF",
"@	c #616161",
"#	c #919191",
"$	c #BCBCBC",
"%	c #FFFEFF",
"&	c #F9F9F9",
"*	c #FBF9FA",
"=	c #C1C1C1",
"-	c #989898",
";	c #727272",
">	c #FAFAFA",
",	c #FEFEFE",
"'	c #FDFDFD",
")	c #999999",
"!	c #555555",
"~	c #333333",
"{	c #FCFCFC",
".......................................................................................................................",
".......................................................................................................................",
".......................................................................................................................",
".......................................................................................................................",
".......................................................................................................................",
".......................................................................................................................",
".......................................................................................................................",
".......................................................................................................................",
".......................................................................................................................",
".......................................................................................................................",
".......................................................................................................................",
".......................................................................................................................",
"...............................++......++.+++++++.++......++..++++++++..+++++++..++......++............................",
"...............................+++....+++.+++++++.+++....+++.++++++++++.++++++++..++....++.............................",
"...............................++++..++++.++......++++..++++.++......++.++....++...++..++..............................",
"............@#$++%&%+*&%&%+*++.++.++++.++.++......++.++++.++.++......++.++....++....++++...+++++++++++++++=-;..........",
"...........=+++++>&%+*&%&%+*++.++..++..++.+++++++.++..++..++.++......++.+++++++......++....++++++++++++++++++=.........",
"..........=++++++>,++',+,++'++.++......++.++......++......++.++......++.++....++.....++....+++++++++++++++++++=........",
".........=+++=)!~..............++......++.++......++......++.++......++.++....++.....++.................~!)=+++=.......",
"........;+++=..................++......++.+++++++.++......++.++++++++++.++....++.....++.....................=+++@......",
"........-++=...................++......++.+++++++.++......++..++++++++..++....++.....++......................=++#......",
"........=++).................................................................................................)++$......",
"........+++!.................................................................................................!+++......",
"........+++~.................................................................................................~+++......",
"........{{{...................................................................................................+++......",
"........+++...................................................................................................++{......",
"........+++...................................................................................................++,......",
"........+++...................................................................................................++,......",
"........+++...................................................................................................++,......",
"........+++...................................................................................................+++......",
"........+++...................................................................................................+++......",
"........+++...................................................................................................+++......",
"........+++...................................................................................................+++......",
"........+++...................................................................................................+++......",
"........+++...................................................................................................+++......",
"........+++...................................................................................................+++......",
"........+++...................................................................................................+++......",
"........+++...................................................................................................+++......",
"........+++...................................................................................................+++......",
"........+++...................................................................................................+++......",
"........+++...................................................................................................+++......",
"........+++...................................................................................................+++......",
"........+++...................................................................................................+++......",
"........+++...................................................................................................+++......",
"........+++...................................................................................................+++......",
"........+++...................................................................................................+++......",
"........+++...................................................................................................+++......",
"........+++...................................................................................................+++......",
"........+++................+......................+++....................+++........................+.........+++......",
"........+++................+.........................+......................+......................++.........+++......",
"........+++................+.......................++......................+......................+.+.........+++......",
"........+++................+......................+.........................+....................+++++........+++......",
"........+++................+......................++++...................+++........................+.........+++......",
"........+++...................................................................................................+++......",
"........+++...................................................................................................+++......",
"........+++...................................................................................................+++......",
"........+++...................................................................................................+++......",
"........+++...................................................................................................+++......",
"........+++...................................................................................................+++......",
"........+++...................................................................................................+++......",
"........+++...................................................................................................+++......",
"........+++...................................................................................................+++......",
"........+++...................................................................................................+++......",
"........+++...................................................................................................+++......",
"........+++...................................................................................................+++......",
"........+++...................................................................................................+++......",
"........+++...................................................................................................+++......",
"........+++...................................................................................................+++......",
"........+++...................................................................................................+++......",
"........+++...................................................................................................+++......",
"........+++...................................................................................................+++......",
"........+++...................................................................................................+++......",
"........+++...................................................................................................+++......",
"........+++...................................................................................................+++......",
"........+++...................................................................................................+++......",
"........+++...................................................................................................+++......",
"........+++...................................................................................................+++......",
"........+++...................................................................................................+++......",
"........+++...................................................................................................+++......",
"........+++...................................................................................................+++......",
"........+++...................................................................................................+++......",
"........+++...................................................................................................+++......",
"........+++...................................................................................................+++......",
"........+++...................................................................................................+++......",
"........+++...............++++.....................+++..................+++++......................++.........+++......",
"........+++...............+.......................+........................+......................+..+........+++......",
"........+++...............+++.....................+++.....................+........................++.........+++......",
"........+++..................+....................+..+....................+.......................+..+........+++......",
"........+++...............+++......................++.....................+........................++.........+++......",
"........+++...................................................................................................+++......",
"........+++...................................................................................................+++......",
"........+++...................................................................................................+++......",
"........+++...................................................................................................+++......",
"........+++...................................................................................................+++......",
"........+++...................................................................................................+++......",
"........+++...................................................................................................+++......",
"........+++...................................................................................................+++......",
"........+++...................................................................................................+++......",
"........+++...................................................................................................+++......",
"........+++...................................................................................................+++......",
"........+++...................................................................................................+++......",
"........+++...................................................................................................+++......",
"........+++...................................................................................................+++......",
"........+++...................................................................................................+++......",
"........+++...................................................................................................+++......",
"........+++...................................................................................................+++......",
"........+++...................................................................................................+++......",
"........+++...................................................................................................+++......",
"........+++...................................................................................................+++......",
"........+++...................................................................................................+++......",
"........+++...................................................................................................+++......",
"........+++...................................................................................................+++......",
"........+++...................................................................................................+++......",
"........+++...................................................................................................+++......",
"........+++...................................................................................................+++......",
"........+++...................................................................................................+++......",
"........+++...................................................................................................+++......",
"........+++...................................................................................................+++......",
"........+++...................................................................................................+++......",
"........+++.......+....++....+...+++........+++...+..+...+.+++.........+..+.+++.............+...+..++..+++....+++......",
"........+++.......+...+..+..+.+..+..+......+.....+.+.+...+.+...........+..+.+..+............++.++.+..+.+..+...+++......",
"........+++.......+...+..+..+.+..+..+.......++...+.+..+.+..++..........+..+.+++.............+.+.+.+..+.+..+...+++......",
"........+++~......+...+..+.+.+.+.+..+.........+.+.+.+.+.+..+...........+..+.+...............+...+.+..+.+..+..~+++......",
"........+++!......+++..++..+...+.+++.......+++..+...+..+...+++..........++..+...............+...+..++..+++...!+++......",
"........=++).................................................................................................)++=......",
"........-++=.................................................................................................=++-......",
"........;+++=...............................................................................................=+++;......",
".........=+++=)!~.......................................................................................~!)=+++=.......",
"..........=+++++++&%+*++++++++++++++++++++++++++++++++++++++++++++++++++++++++++++++++++++++++++++++++++++++++=........",
"...........=++++++,++'++++++++++++++++++++++++++++++++++++++++++++++++++++++++++++++++++++++++++++++++{++++++=.........",
"............@#$++++&&+++++++++++++++++++++++++++++++++++++++++++++++++++++++++++++++++++++++++++++++++{{++$#@..........",
".......................................................................................................................",
".......................................................................................................................",
".......................................................................................................................",
".......................................................................................................................",
".......................................................................................................................",
".......................................................................................................................",
".......................................................................................................................",
".......................................................................................................................",
".......................................................................................................................",
".......................................................................................................................",
".......................................................................................................................",
".......................................................................................................................",
".......................................................................................................................",
"......................................................................................................................."};
