/* XPM */
static char * cs80mods_xpm[] = {
"174 107 5 1",
" 	c None",
".	c #0000FF",
"+	c #000000",
"@	c #999999",
"#	c #CCCCCC",
"..............................................................................................................................................................................",
"..............................................................................................................................................................................",
"..............................................................................................................................................................................",
"..............................................................................................................................................................................",
"..............................................................................................................................................................................",
"..............................................................................................................................................................................",
"..............................................................................................................................................................................",
"..............................................................................................................................................................................",
"..........................................................+@...................+@.............................................................................................",
"..........................................................+@...................+@.............................................................................................",
"....................................................######+@#######......######+@#######......................................................................................",
"..........................................................+@...................+@.............................................................................................",
"..........................................................+@...................+@.............................................................................................",
"..........................................................+@...................+@.............................................................................................",
"..........................................................+@...................+@.............................................................................................",
".........................###.#...#.###....................+@...................+@.............................................................................................",
".........................#....#.#..#..#...................+@...................+@.............................................................................................",
".........................##....#...###....................+@...................+@.............................................................................................",
".........................#....#.#..#................######+@#######......######+@#######......................................................................................",
".........................###.#...#.#......................+@...................+@.............................................................................................",
"..........................................................+@...................+@.............................................................................................",
"..........................................................+@...................+@.............................................................................................",
"..........................................................+@...................+@.............................................................................................",
"..........................................................+@...................+@.............................................................................................",
"..........................................................+@...................+@.............................................................................................",
"....................................................######+@#######......######+@#######......................................................................................",
"..........................................................+@...................+@.............................................................................................",
"..........................................................+@...................+@.............................................................................................",
"..........................................................+@...................+@.............................................................................................",
"..........................................................+@...................+@.............................................................................................",
"..........................................................+@...................+@.............................................................................................",
"..........................................................+@...................+@.............................................................................................",
".........................#...#..#..#..#...................+@...................+@.............................................................................................",
".........................#...#.#.#.#..#.............######+@#######......######+@#######.......................##.###..###.###.###............###..###.###..###.#.#...........",
".........................#...#.###.####...................+@...................+@.............................#...#..#.#...#...#..#...........#..#.#...#..#..#..#.#...........",
".........................#.#.#.#.#.#..#...................+@...................+@..............................#..###..##..##..#..#...........#..#.##..###...#..###...........",
"..........................#.#..#.#.#..#...................+@...................+@...............................#.#....#...#...#..#...........#..#.#...#.....#..#.#...........",
"..........................................................+@...................+@.............................##..#....###.###.###............###..###.#.....#..#.#...........",
"..........................................................+@...................+@.............................................................................................",
"..........................................................+@...................+@.............................................................................................",
"..........................................................+@...................+@.............................................................................................",
"....................................................######+@#######......######+@#######......................................................................................",
"..........................................................+@...................+@.............................................................................................",
"..........................................................+@...................+@.............................................................................................",
"..............................................................................................................................................................................",
"..............................................................................................................................................................................",
"..............................................................................................................................................................................",
"..............................................................................................................................................................................",
".........##..###.###...........##..###.###...........##.#.#..##.###.....##..#...#.###..###....................................................................................",
"........#..#.#...#............#..#.#...#............#...#.#.#....#.....#..#.#...#.#..#.#......................................................................................",
"........#..#.##..##...........#..#.##..##............#..#.#..#...#.....#....#...#.#..#.##.....................................................................................",
"........#..#.#...#............#..#.#...#..............#.#.#...#..#.....#.##.#...#.#..#.#......................................................................................",
".........##..#...#.............##..#...#............##...#..##...#......###.###.#.###..###....................................................................................",
"..............................................................................................................................................................................",
"..............................................................................................................................................................................",
"..............................................................................................................................................................................",
"..............................................................................................................................................................................",
"..............................................................................................................................................................................",
"..............................................................................................................................................................................",
"..............................................................................................................................................................................",
"..............................................................................................................................................................................",
"..............................................................................................................................................................................",
"..............................................................................................................................................................................",
"..............................................................................................................................................................................",
"..............................................................................................................................................................................",
"..............................................................................................................................................................................",
"..............................................................................................................................................................................",
"..............................................................................................................................................................................",
"..............................................................................................................................................................................",
"..............................................................................................................................................................................",
"..............................................................................................................................................................................",
"..............................................................................................................................................................................",
"..............................................................................................................................................................................",
"..............................................................................................................................................................................",
"..............................................................................................................................................................................",
"..............................................................................................................................................................................",
"..............................................................................................................................................................................",
"..............................................................................................................................................................................",
"..............................................................................................................................................................................",
"..............................................................................................................................................................................",
"..............................................................................................................................................................................",
"..............................................................................................................................................................................",
"..............................................................................................................................................................................",
"..............................................................................................................................................................................",
"..............................................................................................................................................................................",
"..............................................................................................................................................................................",
"..............................................................................................................................................................................",
"..............................................................................................................................................................................",
"..............................................................................................................................................................................",
"..............................................................................................................................................................................",
"..............................................................................................................................................................................",
"..............................................................................................................................................................................",
"..........#..#..#...##..#...#..###...#..#..#..........#...#.#.#.........##..#...#.###..###...................###.###..###.#...#...##.#.#..##..###......##..#...#..............",
".........#.#.##.#...#..#.#.#.#..#...#.#.##.#..........#...#.#.#........#..#.#...#.#..#.#......................#..#..#.#...##.##..#...#.#.#..#.#..#....#..#.##..#..............",
".........#.#.#.##...##.#.#.#.#..#...#.#.#.##..........#..#..#.#........#....#...#.#..#.##.....................#..###..##..#.#.#..#...###.#..#.###.....#..#.#.#.#..............",
".........#.#.#..#...#..#.#.#.#..#...#.#.#..#..........#.#...#.#........#.##.#...#.#..#.#......................#..#..#.#...#...#..#...#.#.#..#.#..#....#..#.#..##..............",
"..........#..#..#...#...#...#...#....#..#..#..........#.#...#.#.........###.###.#.###..###....................#..#..#.###.#...#...##.#.#..##..#..#.....##..#...#..............",
"..............................................................................................................................................................................",
"..............................................................................................................................................................................",
"..............................................................................................................................................................................",
"..............................................................................................................................................................................",
"..............................................................................................................................................................................",
"..............................................................................................................................................................................",
"..............................................................................................................................................................................",
"..............................................................................................................................................................................",
"..............................................................................................................................................................................",
".............................................................................................................................................................................."};
