/* XPM */
static char * dx7_xpm[] = {
"250 70 3 1",
" 	c None",
".	c #0000FF",
"+	c #BFBFBF",
"..........................................................................................................................................................................................................................................................",
"..........................................................................................................................................................................................................................................................",
"......................................+..+++.+++..+....++..+..+..............+....+.................+..+++.+++..+....++..+..+.............+...+++...............+++..+++..++....+..+...+.....+++.+.+..++.+++..+...+.+..+...+++..+++.+..+++...+....+++.+++.",
".....................................+.+..+...+..+.+..+..+.+.+...............+....+................+.+..+...+..+.+..+..+.+.+..............+......+..............+..+.+...+..+..+.+..+.+.....+....+.+.+....+..+.+..+.++.+...+..+.+...+..+....+.+..+....+...",
".....................................+++..+...+..+++..+....++................+....+................+++..+...+..+++..+....++...............+.....+...............+..+.++..+.....+++...+.......++..+.+..++..+..+++..+.+.++...+++..++..+..++...+++...++..++..",
"....................................+...+.+...+.+...+.+..+.+.+...............+....+...............+...+.+...+.+...+.+..+.+.+..............+....+................+..+.+...+..+.+...+..+.........+.+.+....+.+.+...+.+.+..+...+..+.+...+..+...+...+....+.+...",
"....................................+...+.+...+.+...+..++..+..+..............+++..+...............+...+.+...+.+...+..++..+..+.............+++.++++..............+++..+++..++..+...+..+......+++..+++.+++..+.+...+.+.+..+...+..+.+++.++.+++.+...+.+++..+++.",
"..........................................................................................................................................................................................................................................................",
"..........................................................................................................................................................................................................................................................",
"..........................................................................................................................................................................................................................................................",
"..........................................................................................................................................................................................................................................................",
"..........................................................................................................................................................................................................................................................",
"..........................................................................................................................................................................................................................................................",
"..........................................................................................................................................................................................................................................................",
"..........................................................................................................................................................................................................................................................",
"..........................................................................................................................................................................................................................................................",
"..........................................................................................................................................................................................................................................................",
"..........................................................................................................................................................................................................................................................",
"..........................................................................................................................................................................................................................................................",
"..........................................................................................................................................................................................................................................................",
"..........................................................................................................................................................................................................................................................",
"..........................................................................................................................................................................................................................................................",
"..........................................................................................................................................................................................................................................................",
"..........................................................................................................................................................................................................................................................",
"..........................................................................................................................................................................................................................................................",
"..........................................................................................................................................................................................................................................................",
"..........................................................................................................................................................................................................................................................",
"..........................................................................................................................................................................................................................................................",
"..........................................................................................................................................................................................................................................................",
"..........................................................................................................................................................................................................................................................",
"..........................................................................................................................................................................................................................................................",
"..........................................................................................................................................................................................................................................................",
"..........................................................................................................................................................................................................................................................",
"..........................................................................................................................................................................................................................................................",
"..........................................................................................................................................................................................................................................................",
"..........................................................................................................................................................................................................................................................",
"..........................................................................................................................................................................................................................................................",
"..........................................................................................................................................................................................................................................................",
"....+++++..++..+..+..+++.+..+..........+.+...+....++..+...+..........++..+..+.+++....++..+...+......+++++.+..+.+...+.+++.....+++++.+++....+...+...+..+++.+++......................................................................+++....+...+...+........",
"......+...+..+.+..+.+....+..+..........+.++..+...+..+.++..+.........+..+.+..+..+....+..+.++..+........+...+..+.++..+.+.........+...+..+..+.+..++..+.+....+..+.....................................................................+..+..+.+..++..+........",
"......+...+..+.+..+.+....++++..........+.+.+.+...+....+.+.+.........+..+.+..+..+....+....+.+.+........+...+..+.+.+.+.++........+...+++...+.+..+.+.+..++..+++......................................................................+++...+.+..+.+.+........",
"......+...+..+.+..+.+....+..+..........+.+..++...+.++.+..++.........+..+.+..+..+....+.++.+..++........+...+..+.+..++.+.........+...+..+.+.+.+.+..++....+.+........................................................................+....+.+.+.+..++........",
"......+....++...+++..+++.+..+..........+.+...+....++..+...+..........++...+++..+.....++..+...+........+....+++.+...+.+++.......+...+..+.+...+.+...+.+++..+........................................................................+....+...+.+...+........",
"..........................................................................................................................................................................................................................................................",
"..........................................................................................................................................................................................................................................................",
"..........................................................................................................................................................................................................................................................",
"..........................................................................................................................................................................................................................................................",
"..........................................................................................................................................................................................................................................................",
"..........................................................................................................................................................................................................................................................",
"..........................................................................................................................................................................................................................................................",
"..........................................................................................................................................................................................................................................................",
"..........................................................................................................................................................................................................................................................",
"..........................................................................................................................................................................................................................................................",
"..........................................................................................................................................................................................................................................................",
"..........................................................................................................................................................................................................................................................",
"..........................................................................................................................................................................................................................................................",
"..........................................................................................................................................................................................................................................................",
"..........................................................................................................................................................................................................................................................",
"..........................................................................................................................................................................................................................................................",
"..........................................................................................................................................................................................................................................................",
"..........................................................................................................................................................................................................................................................",
"..........................................................................................................................................................................................................................................................",
"..........................................................................................................................................................................................................................................................",
"................................................................................................................................................................+...+++..++.............+..++...++............++...++...++................................",
"................................................................................................................................................................+...+...+..+............+.+..+.+..+..........+..+.+..+.+..+...............................",
"................................................................................................................................................................+...++..+..+............+.+....+.............+..+.+....+..................................",
"................................................................................................................................................................+...+...+..+............+.+.++.+..+..........+..+.+.++.+..+...............................",
"................................................................................................................................................................+++.+....++.............+..++...++............++...++...++................................",
"..........................................................................................................................................................................................................................................................",
".........................................................................................................................................................................................................................................................."};
