/* XPM */
static char * hammondvol_xpm[] = {
"128 128 3 1",
" 	c None",
".	c #0000FF",
"+	c #FFFFFF",
"................................................................................................................................",
"................................................................................................................................",
"................................................................................................................................",
"................................................................................................................................",
"................................................................................................................................",
"................................................................................................................................",
"................................................................................................................................",
"................................................................................................................................",
"................................................................................................................................",
"................................................................................................................................",
"................................................................................................................................",
"................................................................................................................................",
"................................................................................................................................",
"................................................................................................................................",
"................................................................................................................................",
"................................................................................................................................",
"................................................................................................................................",
"................................................................................................................................",
"................................................................................................................................",
"................................................................................................................................",
"................................................................................................................................",
"................................................................................................................................",
"................................................................................................................................",
"................................................................................................................................",
"................................................................................................................................",
"................................................................................................................................",
"................................................................................................................................",
"................................................................................................................................",
"................................................................................................................................",
"................................................................................................................................",
"................................................................................................................................",
"................................................................................................................................",
"................................................................................................................................",
"................................................................................................................................",
"................................................................................................................................",
"................................................................................................................................",
"................................................................................................................................",
"................................................................................................................................",
"................................................................................................................................",
"................................................................................................................................",
"................................................................................................................................",
"................................................................................................................................",
"................................................................................................................................",
"................................................................................................................................",
"................................................................................................................................",
"................................................................................................................................",
"................................................................................................................................",
"................................................................................................................................",
"................................................................................................................................",
"................................................................................................................................",
"................................................................................................................................",
"................................................................................................................................",
"................................................................................................................................",
"................................................................................................................................",
"................................................................................................................................",
"................................................................................................................................",
"................................................................................................................................",
"................................................................................................................................",
"................................................................................................................................",
"................................................................................................................................",
"................................................................................................................................",
"................................................................................................................................",
"................................................................................................................................",
"................................................................................................................................",
"................................................................................................................................",
"................................................................................................................................",
"................................................................................................................................",
"................................................................................................................................",
"................................................................................................................................",
"................................................................................................................................",
"................................................................................................................................",
"................................................................................................................................",
"................................................................................................................................",
"................................................................................................................................",
"................................................................................................................................",
"................................................................................................................................",
"................................................................................................................................",
"................................................................................................................................",
"................................................................................................................................",
"................................................................................................................................",
"................................................................................................................................",
"................................................................................................................................",
"................................................................................................................................",
"................................................................................................................................",
"................................................................................................................................",
"................................................................................................................................",
"................................................................................................................................",
"................................................................................................................................",
"................................................................................................................................",
"................................................................................................................................",
"................................................................................................................................",
"................................................................................................................................",
"................................................................................................................................",
"................................................................................................................................",
"................................................................................................................................",
"................................................................................................................................",
"................................................................................................................................",
"................................................................................................................................",
"................................................................................................................................",
"................................................................................................................................",
"................................................................................................................................",
"...............................................+++++++..........................................................................",
"...............................................+++++++..........................................................................",
".........+++++......+++++.........................++++..........................................................................",
".........+++++......+++++.........................++++..........................................................................",
".........+++++......+++++.........................++++..........................................................................",
".........+++++......+++++.........................++++..........................................................................",
".........+++++......+++++.........................++++..........................................................................",
".........+++++......+++++....+++++++++++..........++++.........+++++......+++++..+++++++..++++.......+++++++++++................",
".........+++++......+++++....+++++++++++..........++++.........+++++......+++++..+++++++..++++.......+++++++++++................",
".........+++++......+++++..+++++......+++++.......++++.........+++++......+++++..+++++..++..+++++..+++++......+++++.............",
".........+++++......+++++..+++++......+++++.......++++.........+++++......+++++..+++++..++..+++++..+++++......+++++.............",
"...........+++++..++++.....+++++......+++++.......++++.........+++++......+++++..+++++..++..+++++..+++++......+++++.............",
"...........+++++..++++.....+++++......+++++.......++++.........+++++......+++++..+++++..++..+++++..+++++......+++++.............",
"...........+++++..++++.....+++++......+++++.......++++.........+++++......+++++..+++++..++..+++++..++++++++++++++++.............",
"...........+++++..++++.....+++++......+++++.......++++.........+++++......+++++..+++++..++..+++++..++++++++++++++++.............",
"...........+++++..++++.....+++++......+++++.......++++.........+++++......+++++..+++++..++..+++++..+++++........................",
"...........+++++..++++.....+++++......+++++.......++++.........+++++......+++++..+++++..++..+++++..+++++........................",
"...........+++++..++++.....+++++......+++++.......++++.........+++++......+++++..+++++..++..+++++..+++++........................",
"..............++++++.......+++++......+++++.......++++.........+++++....+++++++..+++++......+++++..+++++........................",
"..............++++++.......+++++......+++++.......++++.........+++++....+++++++..+++++......+++++..+++++........................",
"..............++++++.........+++++++++++.......+++++++++.........+++++++..+++++..+++++......+++++....+++++++++++................",
"..............++++++.........+++++++++++.......+++++++++.........+++++++..+++++..+++++......+++++....+++++++++++................",
"................................................................................................................................",
"................................................................................................................................",
"................................................................................................................................",
"................................................................................................................................",
"................................................................................................................................"};
