/* XPM */
static char * obxmod_xpm[] = {
"105 101 6 1",
" 	c None",
".	c #0000FF",
"+	c #000000",
"@	c #2D2D2D",
"#	c #101010",
"$	c #D0D0D0",
".........................................................................................................",
".........................................................................................................",
".........................................................................................................",
".........................................................................................................",
".........................................................................................................",
".........................................................................................................",
".........................................................................................................",
".........................................................................................................",
".........................................................................................................",
".........................................................................................................",
".........................................................................................................",
".........................................................................................................",
".........................................................................................................",
".........................................................................................................",
".........................................................................................................",
".........................................................................................................",
".........................................................................................................",
".........................................................................................................",
".........................................................................................................",
".........................................................................................................",
".........................................................................................................",
".....................................+++++++++++++++++++++++++++++++.....................................",
".....................................+++++++++++++++++++++++++++++++.....................................",
".....................................++@@@@@@@@@@@@@@@@@@@@@@@@@@@++.....................................",
".....................................++@@@@@@@@@@@@@@@@@@@@@@@@@@@++.....................................",
".....................................++@@@#######@@@@@@@#######@@@++.....................................",
".....................................++@@@#######@@@@@@@#######@@@++.....................................",
".....................................++@@@#######@@@@@@@#######@@@++.....................................",
".....................................++@@@###+###@@@@@@@###+###@@@++.....................................",
".....................................++@@@###+###@@@@@@@###+###@@@++.....................................",
".....................................++@@@###+###@@@@@@@###+###@@@++.....................................",
".....................................++@@@###+###@@@@@@@###+###@@@++.....................................",
".....................................++@@@###+###@@@@@@@###+###@@@++.....................................",
".....................................++@@@###+###@@@@@@@###+###@@@++.....................................",
".....................................++@@@###+###@@@@@@@###+###@@@++.....................................",
".....................................++@@@###+###@@@@@@@###+###@@@++.....................................",
".....................................++@@@###+###@@@@@@@###+###@@@++.....................................",
".....................................++@@@###+###@@@@@@@###+###@@@++.....................................",
".....................................++@@@###+###@@@@@@@###+###@@@++.....................................",
".....................................++@@@###+###@@@@@@@###+###@@@++.....................................",
".....................................++@@@###+###@@@@@@@###+###@@@++.....................................",
".....................................++@@@###+###@@@@@@@###+###@@@++.....................................",
".....................................++@@@###+###@@@@@@@###+###@@@++.....................................",
".....................................++@@@###+###@@@@@@@###+###@@@++.....................................",
".....................................++@@@###+###@@@@@@@###+###@@@++.....................................",
".....................................++@@@###+###@@@@@@@###+###@@@++.....................................",
".....................................++@@@###+###@@@@@@@###+###@@@++.....................................",
".....................................++@@@###+###@@@@@@@###+###@@@++.....................................",
".....................................++@@@###+###@@@@@@@###+###@@@++.....................................",
".....................................++@@@###+###@@@@@@@###+###@@@++.....................................",
".....................................++@@@###+###@@@@@@@###+###@@@++.....................................",
".....................................++@@@###+###@@@@@@@###+###@@@++.....................................",
".....................................++@@@###+###@@@@@@@###+###@@@++.....................................",
".....................................++@@@###+###@@@@@@@###+###@@@++.....................................",
".....................................++@@@###+###@@@@@@@###+###@@@++.....................................",
".....................................++@@@###+###@@@@@@@###+###@@@++.....................................",
".....................................++@@@###+###@@@@@@@###+###@@@++.....................................",
".....................................++@@@###+###@@@@@@@###+###@@@++.....................................",
".....................................++@@@###+###@@@@@@@###+###@@@++.....................................",
".....................................++@@@#######@@@@@@@#######@@@++.....................................",
".....................................++@@@#######@@@@@@@#######@@@++.....................................",
".....................................++@@@#######@@@@@@@#######@@@++.....................................",
".....................................++@@@@@@@@@@@@@@@@@@@@@@@@@@@++.....................................",
".....................................++@@@@@@@@@@@@@@@@@@@@@@@@@@@++.....................................",
".....................................+++++++++++++++++++++++++++++++.....................................",
".....................................+++++++++++++++++++++++++++++++.....................................",
".........................................................................................................",
".........................................................................................................",
".........................................................................................................",
".........................................................................................................",
"........$...$...$...$$$..$$$...$$..$...$....$$...$$$..$$...$$....$$$$$.$$$....$...$...$..$$$.............",
"........$$..$..$.$..$..$.$..$.$..$.$...$...$..$.$....$..$.$..$.....$...$..$..$.$..$$..$.$................",
"........$.$.$..$.$..$$$..$$$..$..$.$...$...$..$..$$..$......$......$...$$$...$.$..$.$.$..$$..............",
"........$..$$.$.$.$.$..$.$..$.$..$.$.$.$...$..$....$.$..$..$.......$...$..$.$.$.$.$..$$....$.............",
"........$...$.$...$.$..$.$..$..$$...$.$.....$$..$$$...$$..$$$$.....$...$..$.$...$.$...$.$$$..............",
".........................................................................................................",
".........................................................................................................",
".........................................................................................................",
".........................................................................................................",
".........................................................................................................",
".........................................................................................................",
".........................................................................................................",
".........................................................................................................",
".........................................................................................................",
".........................................................................................................",
".........................................................................................................",
".........................................................................................................",
".........................................................................................................",
".........................................................................................................",
".........................................................................................................",
".........................................................................................................",
".........................................................................................................",
".........................................................................................................",
".........................................................................................................",
".........................................................................................................",
".........................................................................................................",
".........................................................................................................",
".........................................................................................................",
".........................................................................................................",
".........................................................................................................",
"........................................................................................................."};
