/* XPM */
static char * odysseymem_xpm[] = {
"581 31 78 1",
" 	c None",
".	c #0000FF",
"+	c #26230B",
"@	c #262517",
"#	c #312D16",
"$	c #1A1D0C",
"%	c #171003",
"&	c #1F2B1A",
"*	c #3A3008",
"=	c #351D0A",
"-	c #131113",
";	c #2A1C21",
">	c #25160E",
",	c #2D1F17",
"'	c #211C10",
")	c #2B2318",
"!	c #2A2823",
"~	c #3A1210",
"{	c #4E4537",
"]	c #A29989",
"^	c #6E6657",
"/	c #8D8374",
"(	c #BAB1A1",
"_	c #352F23",
":	c #402807",
"<	c #6D300B",
"[	c #872F0C",
"}	c #843C11",
"|	c #492C04",
"1	c #613C2E",
"2	c #7D391A",
"3	c #532706",
"4	c #632820",
"5	c #47110B",
"6	c #683B0E",
"7	c #501702",
"8	c #803E2B",
"9	c #672815",
"0	c #441C09",
"a	c #613E20",
"b	c #5F2302",
"c	c #E7DFCF",
"d	c #FBF2DD",
"e	c #FDF6E7",
"f	c #944D31",
"g	c #A84623",
"h	c #A44A32",
"i	c #AC3C22",
"j	c #8D3623",
"k	c #895624",
"l	c #8E583F",
"m	c #741902",
"n	c #9F4D23",
"o	c #973A17",
"p	c #6F2204",
"q	c #9D4B0D",
"r	c #CFC7BA",
"s	c #93280E",
"t	c #AB4614",
"u	c #B54115",
"v	c #A12E03",
"w	c #933602",
"x	c #A8A29D",
"y	c #AEA799",
"z	c #C8C2BC",
"A	c #BAB1B1",
"B	c #392720",
"C	c #DCDEDB",
"D	c #FEFFFC",
"E	c #442916",
"F	c #FDF8F6",
"G	c #FDFCF3",
"H	c #ECE6E6",
"I	c #232D10",
"J	c #FFFFFF",
"K	c #958E8B",
"L	c #E5E4DB",
"M	c #FDFFFC",
".....................................................................................................................................................................................................................................................................................................................................................................................................................................................................................................................................................................................................",
".....................................................................................................................................................................................................................................................................................................................................................................................................................................................................................................................................................................................................",
".....................................................................................................................................................................................................................................................................................................................................................................................................................................................................................................................................................................................................",
".....................................................................................................................................................................................................................................................................................................................................................................................................................................................................................................................................................................................................",
".....................................................................................................................................................................................................................................................................................................................................................................................................................................................................................................................................................................................................",
".....................................................................................................................................................................................................................................................................................................................................................................................................................................................................................................................................................................................................",
".....................................................................................................................................................................................................................................................................................................................................................................................................................................................................................................................................................................................................",
".....................................................................................................................................................................................................................................................................................................................................................................................................................................................................................................................................................................................................",
"..............................................................................................................................................................................................................................................................................................................................................................................................................................................................................................................+++@#+@#+++++$+@@+$$$%..&@$*=-.;;>,'@$.),,.&&$.,>@!'!.''))''%.+)+>,+.'>-..$>~,.........",
".............................................................................................................................................................................................................................................................................................................................................................................................................................................................................................................%{]]^@+{/]](]^=_]]]]/^!>=:<[}<|>;12[<34543*&&|4~446}67553668970|*ab99494a0!$440.........",
".............................................................................................................................................................................................................................................................................................................................................................................................................................................................................................................-^cd(#%^deddde]^cedeec^~7<fggh<748highjjj}6+*klhghhhhjmm[n}hhop}nnqgnn[8k7=:<81.........",
".............................................................................................................................................................................................................................................................................................................................................................................................................................................................................................................>]cec{-^cc^^/cc(ce^^]er1jn}[sgn[siissjtitt}36kquvimjjuvwn[ppnnwtuuvo[[bpf[7btk4.........",
".....................................................................x...y.z.zzA..A.........................................................................................................................................................................................................................................................................................................................................................................................................................%_rcre/-^crB-Bre(crB-{celiwb77bnwvs275bvtvut[qqvvuw77b[<2f8p5p<}jisp700578jmmg27.........",
".....................................................................zC.zC.C.C..C.z.........................................................................................................................................................................................................................................................................................................................................................................................................................-^e]^c(-^cc//]r(^cc^_/ccli[0',=}wut8===wqssuvtwb}fn}}<954fhj[p<msii[aaa~54jii84~.........",
".....................................................................C.C.C.C.C..C.z.........................................................................................................................................................................................................................................................................................................................................................................................................................>]D^Brd{^rDreee^{cDrcDe/av[=!!!ouvifEE=pnomiut['E8gutn19mmiiiigsvuutnkk#E48ii1=..........",
".....................................................................C...F.G.F..C.C........................................................................................................................................................................................................................................................................................................................................................................................................................%{rd(]ce^{cr]/(D]^rcrr(]!<w}0;;=ouvuh0~~}n2mjut<$19msoghsmmp[wtuuuuusn66*+02uv1>..........",
".....................................................................H...G.F.GGF..z........................................................................................................................................................................................................................................................................................................................................................................................................................%^dccccd]^cr{%^cr/Dr{;{--9qq9559ovsvo755gt[7siv7~8jp75muin6|05[tijf[m75=)+03uiB;..........",
"...........................................................................................................................................................................................................................................................................................................................................................................................................................................................................................................=(d({^/dc]cc#-Ecc]ce_...'a2wwssot[p}gv[jgom78f20:lfjp}ogvo28bpwuowgism29a05oi[~...........",
"..........................................................................................................................................................................................................................................................................................................................................................................................................................................................................................................%{cc^+%#(c(dr{%_(c(rr{...@0b[oqon[<bfnofl}9758la|:afohnffbp}hhonn}wnnnflla00pnn0...........",
"..........................................................................................................................................................................................................................................................................................................................................................................................................................................................................................................%B^^_>%'{^^^^#'B1^^^^_....>5b<229700a99443|==E1**+:3p[26|=0pj[o2bb3<2226aa:=36<E...........",
"..........................................................................................................................................................................................................................................................................................................................................................................................................................................................................................................'B,''@..$+I$$+..;-;>-%.....=000000..==~B;==..#*II..EE70=,..075700..|::E:*=..#::=...........",
".....................................................................................................................................................................................................................................................................................................................................................................................................................................................................................................................................................................................................",
".....................................................................................................................................................................................................................................................................................................................................................................................................................................................................................................................................................................................................",
".....J...J...J...JJJ..J..J...JJJ...J.JJJJJ.........KzA...xA..x...x.z..z...............x..x.xzA............x....xz....x...xAz...................x.................xzA.................xAz...................x................xAzA.................xAz...............xAzAz.................xz...........................x.................xAz.................xAz...................x................xzzA.................xzz................xzAzA................xA..................xzA...x...x...x.xAz..............................................................................................",
".....JJ.JJ..J.J..J..J.J.J.....J....J..J.J..........C..x.C..z.A...C.LC.L...............z..C.C..x...........A...C..x..z.z..C..x..................A....................x...................x.................CA................C...................C.....................z.................C..x..........................A....................x...................x.................Cx................C...................C......................z................C..x................C.....z.A..A...C.C................................................................................................",
".....J.J.J..J.J..JJJ..JJ......J...J...J.J..........z..C.z..C.C...z.G.MM...............C..C.CGC............C...z..C..C.C..C..C..................C..................CC...................z.................A.C................CCz.................zCC..................C...................zC...........................C..................zC...................C.................A.C................CCz.................zCC...................C..................zC..................zC...C.C...z.z..CL...............................................................................................",
".....J...J.J.J.J.J..J.J.J.....J..J....J.J..........C..G.G..G.z.G.M.M..z...............C..F.F..............z...C..C.z.C.H.C..A..................z.................C......................x...............CCzCx..................x................C..x.................z..................C..A..........................A.................C......................x...............CCCCx..................x................C..x..................z.................C..x...................z.C.C.C..C.G..z................................................................................................",
".....J...J.J...J.J..J.J..J...JJJ.J...JJJJJ.........GFG...FG...F.M..M..M................zMG.G..............CHC..FG..M...G.FGC...................z.................zCCz................zCC...................C................CCC..................zC..................C...................CC...........................z.................zCzz................zCC...................C................CCC..................zC...................C..................CC.................zMM..F...G...F...GCA..............................................................................................",
".....................................................................................................................................................................................................................................................................................................................................................................................................................................................................................................................................................................................................",
".....................................................................................................................................................................................................................................................................................................................................................................................................................................................................................................................................................................................................",
"....................................................................................................................................................................................................................................................................................................................................................................................................................................................................................................................................................................................................."};
