/* XPM */
static char * prophetmod2_xpm[] = {
"101 99 11 1",
" 	c None",
".	c #000000",
"+	c #060606",
"@	c #090909",
"#	c #101010",
"$	c #131313",
"%	c #191919",
"&	c #232323",
"*	c #292929",
"=	c #0000FF",
"-	c #B6B6BD",
".....................................................................................................",
".++++++++++++++++++++++++++++++++++++++++++++++++++++++++++++++++++++++++++++++++++++++++++++++++++++",
".@@@@@@@@@@@@@@@@@@@@@@@@@@@@@@@@@@@@@@@@@@@@@@@@@@@@@@@@@@@@@@@@@@@@@@@@@@@@@@@@@@@@@@@@@@@@@@@@@@@@",
".####################################################################################################",
".$$$$$$$$$$$$$$$$$$$$$$$$$$$$$$$$$$$$$$$$$$$$$$$$$$$$$$$$$$$$$$$$$$$$$$$$$$$$$$$$$$$$$$$$$$$$$$$$$$$$",
".%%%%%%%%%%%%%%%%%%%%%%%%%%%%%%%%%%%%%%%%%%%%%%%%%%%%%%%%%%%%%%%%%%%%%%%%%%%%%%%%%%%%%%%%%%%%%%%%%%%%",
".%&&&&&&&&&&&&&&&&&&&&&&&&&&&&&&&&&&&&&&&&&&&&&&&&&&&&&&&&&&&&&&&&&&&&&&&&&&&&&&&&&&&&&&&&&&&&&&&&&&&",
".%***************************************************************************************************",
".%*====----------------------------------------------------------------------------------------======",
".%*==--========================================================================================--====",
".%*=-============================================================================================-===",
".%*=-============================================================================================-===",
".%*-==============================================================================================-==",
".%*-==============================================================================================-==",
".%*-==============================================================================================-==",
".%*-==============================================================================================-==",
".%*-==============================================================================================-==",
".%*-==============================================================================================-==",
".%*-==============================================================================================-==",
".%*-==============================================================================================-==",
".%*-==============================================================================================-==",
".%*-==============================================================================================-==",
".%*-==============================================================================================-==",
".%*-==============================================================================================-==",
".%*-==============================================================================================-==",
".%*-==============================================================================================-==",
".%*-==============================================================================================-==",
".%*-==-===--==-===-======-=-=--==--=======--===-==-===-=-=-=====-=-=--====-=--=========-=-=--=====-==",
".%*-==-==-==-=-===-======-=-=-=-=-=-======-=-=-=-=-===-=---=====-=-=-=-==-==-=-========-=-=-=-====-==",
".%*-==-==-==-=-=-=-======-=-=--==--=======-=-=-=-=-=-=-=-=-=====-=-=--==-===-=-========-=-=--=====-==",
".%*-==--==--===-=-========-==-===-========--===-===-=-==-=-======-==-==-====--==========-==-======-==",
".%*-==============================================================================================-==",
".%*-==============================================================================================-==",
".%*-===-==--==--==================================================================================-==",
".%*-==-=-=-=-=-=-=================================================================================-==",
".%*-==---=--==--==================================================================================-==",
".%*-==-=-=-=-=-=================================================-===--==-===-=======-=-=--==--====-==",
".%*-==-=-=-=-=-=================================================-==-==-=-===-=======-=-=-=-=-=-===-==",
".%*-============================================================-==-==-=-=-=-=======-=-=--==--====-==",
".%*-========================================================---=--==--===-=-=========-==-===-=====-==",
".%*-=========================================================-====================================-==",
".%*-=========================================================-====================================-==",
".%*-=========================================================-====================================-==",
".%*-==============================================================================================-==",
".%*-========================================================--====================================-==",
".%*-==============--========================================-=-===================================-==",
".%*-================-=======================================--====================================-==",
".%*-===============-========================================-=-===================================-==",
".%*-================-=============================================================================-==",
".%*-==============--=========================================--===================================-==",
".%*-========================================================-=====================================-==",
".%*-========================================================-=-===================================-==",
".%*-=========================================================--===================================-==",
".%*-==============================================================================================-==",
".%*-==============================================================================================-==",
".%*-==============================================================================================-==",
".%*-==============================================================================================-==",
".%*-==============================================================================================-==",
".%*-==============================================================================================-==",
".%*-==============================================================================================-==",
".%*-==============================================================================================-==",
".%*-=======================================================-==-===================================-==",
".%*-=======================================================-==-===================================-==",
".%*-=======================================================-==-===================================-==",
".%*-========================================================--====================================-==",
".%*-==============================================================================================-==",
".%*-===============--======================================---====================================-==",
".%*-==============-==-=====================================-==-===================================-==",
".%*-================-======================================---====================================-==",
".%*-===============-=======================================-======================================-==",
".%*-==============----============================================================================-==",
".%*-=======================================================---====================================-==",
".%*-=======================================================-==-===================================-==",
".%*-=======================================================---====================================-==",
".%*-=======================================================-======================================-==",
".%*-=============================================================--==---==--=======--==-===-==-=-=-==",
".%*-==============================---===-==---=---===============-=-=--==-=========-=-=-==-=-=-=-=-==",
".%*-==============================-==-=-=-==-==-=================--==-===-=========--==-==---==-==-==",
".%*-==============================---==-=-==-==--================-=-=---==--=======-===--=-=-==-==-==",
".%*-==============================-==-=---==-==-==================================================-==",
".%*-==============================-==-=-=-==-==---=========-======================================-==",
".%*-=======================================================-======================================-==",
".%*-=======================================================-======================================-==",
".%*-=======================================================---====================================-==",
".%*-================-=============================================================================-==",
".%*-===============--=======================================--====================================-==",
".%*-================-======================================-==-===================================-==",
".%*-================-======================================-==-===================================-==",
".%*-================-=======================================--====================================-==",
".%*-==============================================================================================-==",
".%*-======================================================-===-===================================-==",
".%*-======================================================-===-===================================-==",
".%*-======================================================-=-=-===================================-==",
".%*-=======================================================-=-====================================-==",
".%*=-============================================================================================-===",
".%*=-============================================================================================-===",
".%*==--========================================================================================--====",
".%*====----------------------------------------------------------------------------------------======",
".%*=================================================================================================="};
