/* XPM */
static char * but_xpm[] = {
"82 68 257 2",
"  	c None",
". 	c #31426B",
"+ 	c #314273",
"@ 	c #393984",
"# 	c #394273",
"$ 	c #394284",
"% 	c #39428C",
"& 	c #394A73",
"* 	c #394A7B",
"= 	c #394A84",
"- 	c #424294",
"; 	c #424A94",
"> 	c #424A9C",
", 	c #425284",
"' 	c #42528C",
") 	c #425294",
"! 	c #42529C",
"~ 	c #425A84",
"{ 	c #425A8C",
"] 	c #425A94",
"^ 	c #4A4A9C",
"/ 	c #4A528C",
"( 	c #4A529C",
"_ 	c #4A52A5",
": 	c #4A5A9C",
"< 	c #4A5AA5",
"[ 	c #4A5AAD",
"} 	c #4A6394",
"| 	c #4A639C",
"1 	c #4A63A5",
"2 	c #4A63AD",
"3 	c #525294",
"4 	c #525A8C",
"5 	c #525AAD",
"6 	c #525AB5",
"7 	c #5263A5",
"8 	c #5263AD",
"9 	c #5263B5",
"0 	c #526B9C",
"a 	c #526BA5",
"b 	c #526BAD",
"c 	c #526BB5",
"d 	c #526BBD",
"e 	c #5273AD",
"f 	c #5A638C",
"g 	c #5A639C",
"h 	c #5A6BA5",
"i 	c #5A6BAD",
"j 	c #5A6BB5",
"k 	c #5A6BBD",
"l 	c #5A73AD",
"m 	c #5A73B5",
"n 	c #5A73BD",
"o 	c #5A73C6",
"p 	c #5A73CE",
"q 	c #5A7BB5",
"r 	c #5A7BBD",
"s 	c #5A7BCE",
"t 	c #636B9C",
"u 	c #636BA5",
"v 	c #636BAD",
"w 	c #6373B5",
"x 	c #6373C6",
"y 	c #637BBD",
"z 	c #637BC6",
"A 	c #637BCE",
"B 	c #637BD6",
"C 	c #6384C6",
"D 	c #6384CE",
"E 	c #6384D6",
"F 	c #6384DE",
"G 	c #6B73A5",
"H 	c #6B73AD",
"I 	c #6B73B5",
"J 	c #6B84D6",
"K 	c #6B8CCE",
"L 	c #6B8CD6",
"M 	c #737BAD",
"N 	c #737BB5",
"O 	c #738CDE",
"P 	c #7394DE",
"Q 	c #7394E7",
"R 	c #739CDE",
"S 	c #739CEF",
"T 	c #7B84AD",
"U 	c #7B84BD",
"V 	c #7B94DE",
"W 	c #7B9CDE",
"X 	c #7B9CE7",
"Y 	c #7B9CEF",
"Z 	c #7B9CF7",
"` 	c #7BA5EF",
" .	c #848CB5",
"..	c #849CE7",
"+.	c #84ADF7",
"@.	c #84ADFF",
"#.	c #8CA5E7",
"$.	c #8CADFF",
"%.	c #8CB5FF",
"&.	c #94A5E7",
"*.	c #A5B5E7",
"=.	c #ADBDEF",
"-.	c #B5C6EF",
";.	c #BDC6EF",
">.	c #C6CEF7",
",.	c #CED6F7",
"'.	c #D6DEF7",
").	c #DEDEF7",
"!.	c #E7E7FF",
"~.	c #EFEFFF",
"{.	c #F7F7FF",
"].	c #FFFFFF",
"^.	c #FFFFFF",
"/.	c #FFFFFF",
"(.	c #FFFFFF",
"_.	c #FFFFFF",
":.	c #FFFFFF",
"<.	c #FFFFFF",
"[.	c #FFFFFF",
"}.	c #FFFFFF",
"|.	c #FFFFFF",
"1.	c #FFFFFF",
"2.	c #FFFFFF",
"3.	c #FFFFFF",
"4.	c #FFFFFF",
"5.	c #FFFFFF",
"6.	c #FFFFFF",
"7.	c #FFFFFF",
"8.	c #FFFFFF",
"9.	c #FFFFFF",
"0.	c #FFFFFF",
"a.	c #FFFFFF",
"b.	c #FFFFFF",
"c.	c #FFFFFF",
"d.	c #FFFFFF",
"e.	c #FFFFFF",
"f.	c #FFFFFF",
"g.	c #FFFFFF",
"h.	c #FFFFFF",
"i.	c #FFFFFF",
"j.	c #FFFFFF",
"k.	c #FFFFFF",
"l.	c #FFFFFF",
"m.	c #FFFFFF",
"n.	c #FFFFFF",
"o.	c #FFFFFF",
"p.	c #FFFFFF",
"q.	c #FFFFFF",
"r.	c #FFFFFF",
"s.	c #FFFFFF",
"t.	c #FFFFFF",
"u.	c #FFFFFF",
"v.	c #FFFFFF",
"w.	c #FFFFFF",
"x.	c #FFFFFF",
"y.	c #FFFFFF",
"z.	c #FFFFFF",
"A.	c #FFFFFF",
"B.	c #FFFFFF",
"C.	c #FFFFFF",
"D.	c #FFFFFF",
"E.	c #FFFFFF",
"F.	c #FFFFFF",
"G.	c #FFFFFF",
"H.	c #FFFFFF",
"I.	c #FFFFFF",
"J.	c #FFFFFF",
"K.	c #FFFFFF",
"L.	c #FFFFFF",
"M.	c #FFFFFF",
"N.	c #FFFFFF",
"O.	c #FFFFFF",
"P.	c #FFFFFF",
"Q.	c #FFFFFF",
"R.	c #FFFFFF",
"S.	c #FFFFFF",
"T.	c #FFFFFF",
"U.	c #FFFFFF",
"V.	c #FFFFFF",
"W.	c #FFFFFF",
"X.	c #FFFFFF",
"Y.	c #FFFFFF",
"Z.	c #FFFFFF",
"`.	c #FFFFFF",
" +	c #FFFFFF",
".+	c #FFFFFF",
"++	c #FFFFFF",
"@+	c #FFFFFF",
"#+	c #FFFFFF",
"$+	c #FFFFFF",
"%+	c #FFFFFF",
"&+	c #FFFFFF",
"*+	c #FFFFFF",
"=+	c #FFFFFF",
"-+	c #FFFFFF",
";+	c #FFFFFF",
">+	c #FFFFFF",
",+	c #FFFFFF",
"'+	c #FFFFFF",
")+	c #FFFFFF",
"!+	c #FFFFFF",
"~+	c #FFFFFF",
"{+	c #FFFFFF",
"]+	c #FFFFFF",
"^+	c #FFFFFF",
"/+	c #FFFFFF",
"(+	c #FFFFFF",
"_+	c #FFFFFF",
":+	c #FFFFFF",
"<+	c #FFFFFF",
"[+	c #FFFFFF",
"}+	c #FFFFFF",
"|+	c #FFFFFF",
"1+	c #FFFFFF",
"2+	c #FFFFFF",
"3+	c #FFFFFF",
"4+	c #FFFFFF",
"5+	c #FFFFFF",
"6+	c #FFFFFF",
"7+	c #FFFFFF",
"8+	c #FFFFFF",
"9+	c #FFFFFF",
"0+	c #FFFFFF",
"a+	c #FFFFFF",
"b+	c #FFFFFF",
"c+	c #FFFFFF",
"d+	c #FFFFFF",
"e+	c #FFFFFF",
"f+	c #FFFFFF",
"g+	c #FFFFFF",
"h+	c #FFFFFF",
"i+	c #FFFFFF",
"j+	c #FFFFFF",
"k+	c #FFFFFF",
"l+	c #FFFFFF",
"m+	c #FFFFFF",
"n+	c #FFFFFF",
"o+	c #FFFFFF",
"p+	c #FFFFFF",
"q+	c #FFFFFF",
"r+	c #FFFFFF",
"s+	c #FFFFFF",
"t+	c #FFFFFF",
"u+	c #FFFFFF",
"v+	c #FFFFFF",
"w+	c #FFFFFF",
"x+	c #FFFFFF",
"y+	c #FFFFFF",
"z+	c #FFFFFF",
"A+	c #FFFFFF",
"B+	c #FFFFFF",
"C+	c #FFFFFF",
"D+	c #FFFFFF",
"E+	c #FFFFFF",
"F+	c #FFFFFF",
"G+	c #FFFFFF",
"H+	c #FFFFFF",
"A z j m m l l m m q q q q q q q q q q q q q q q q q q q q q q q q q q q q q q q q q q q q q q q q q q q q q q q q q q q q q q q q q q q q q q q q q q q q q q y K q ",
"Q Q J L L L L P P P O P R R R R R R R R W X X X X X X X X X X X X X X X X X X X X X X X X X X X X X X X X X X X X X X X X X X X X X X X X X R R R R P P P P P P X K ",
"Z Z Q Y Y Y Y Y +.+.+.+.+.+.+.@.@.@.@.@.@.@.@.@.@.@.@.@.@.@.@.@.@.@.@.@.@.@.@.@.@.@.@.@.@.@.@.@.@.@.@.@.@.@.@.@.@.@.@.@.@.@.@.@.@.@.@.@.@.@.@.@.+.+.+.+.Y Y Y Y +.P ",
"Z Z Y Y Y Y +.+.+.+.$.$.$.$.$.$.$.$.$.$.%.$.%.$.%.$.%.$.%.$.%.$.%.$.%.$.%.$.%.$.%.$.%.$.%.$.%.$.%.$.%.$.%.$.%.$.%.$.%.$.%.$.%.$.%.$.%.$.%.$.$.$.$.$.@.+.+.Y Y Y @.X ",
"Z Z Y Y Y Y Z +.+.@.@.@.@.@.@.@.@.@.@.@.@.@.@.@.@.@.@.@.@.@.@.@.@.@.@.@.@.@.@.@.@.@.@.@.@.@.@.@.@.@.@.@.@.@.@.@.@.@.@.@.@.@.@.@.@.@.@.@.@.@.@.@.@.@.+.+.Z Y ` Y @.Q ",
"Y Q Q Q Q Q Q Q S S S Y Y Y Z Z Z Z Z Z Z Z Z Z Z Z Z Z Z Y S Q L C q a } { ~ * * * * ~ { } a m C L Q S Y Z Z Z Z Z Z Z Z Z Z Z Z Z Z Z Z Z Z Z Y Y S S S Q Q Q Z P ",
"Q Q J J L L L L L P O P P O P P P P P P Q Q Q Q Q Q P P L C m | { & . . . . . + + + + . . . . . * { | m C L P P Q Q Q Q Q Q Q Q Q Q Q Q Q Q P P P P P O P P O P Q L ",
"F J A A D D D D A K K K K K J L L J L L L L L L L K C m 0 ~ & . . + + * * = = = = = = = = * * + + . . & ~ 0 m C K L L L L L L L L L L L L L L J L K K K K K K K O D ",
"B A z z z z z z C C z C z C C C z C C C z C C z r l } ~ . . . * * = ' ' ) ] ] ] ] ] ] ] ] ) ' ' = * * . . . ~ } l r C C z C C z C C z C C z C C C z C z C z C C L z ",
"A z k n n n n r r n r r r r r y y y y y y y r l | ~ . . + * = ' ) ] : : 1 1 1 1 1 1 1 1 1 1 : : ] ) ' = * + . . ~ | l r y y y y y y y y y y y y y y y y r r y z K y ",
"z z k m m m m m q q q q q q m r r r r r m m a { & . + * = ' ] : 1 1 2 8 b 9 c 9 c 9 c 9 c 8 8 2 1 1 : ] ' = * + . & ' a m q r r r r r r r n r r r r r r q r n r C q ",
"z z m m q m m m q q m q m q q m q q m q l 0 ~ . . & = ' ) : 1 8 b 9 c d k n n n k n n n k n d c c 8 8 1 : ] ' = & . . ~ 0 l q m q m q q m q q m q q m q m q r r C q ",
"z z m m m m m m q q q m q q q m q q q l | ~ . + * , ) : 1 8 c c k n o o o o p p p p p p o o o o n k c c 8 1 : ) ~ * + . ~ | l q q q m q q m q q m q q q m q r r C q ",
"z z m m m q m m q m q q m q q q m q l | ~ . + = ' ) 1 2 c c k o o o s A A A A B B B B A A A A p o o o n 9 c 2 1 ) ' = + . ~ | l q q m q q q m q q m q q q m r r C q ",
"z z m m m m m m q q m q q m q q q l 0 ~ . + = ' : 1 8 c k o o p A A B B B B B B B B B B B B B B A A p o o k c 8 1 : ' = + . ~ 0 l q q m q q m q q q m q q m r r C q ",
"z z m m m m q m q q q m q q m q m 0 ~ . + = ) : 1 c d n o p A B B B B B B B E E E E E E B B B B B B B A p o n d c 1 : ) = + . ~ 0 m q q m q q m q q q m q q n r C q ",
"z z m m m m m q q m q q m q q m a } & + = ] : 2 c k o o A A B B B B B E F F F F F F F F F F E B B B B B A A o o k c 2 : ] = + & { e m q q m q q m q q q m q r r C q ",
"z z m m m q m q q m q q q m q l } * + = ' : 2 c o o A B B B B E E F F F F F F F F F F F F F F F E B B B B B A p o n c 2 : ' = + * } l q q m q q q m q q m q r r C q ",
"z z m m m m m q q m q q m q l 0 ~ & * ' : 1 c o A B B F F F F F F F F F F F F F F F F F F F F F F F E B B B B A s o n 9 1 : ' * & ~ 0 m q q m q q m q q q m r r C q ",
"z z m m m m m q q m q q q m a } & & , ) 1 c k A *.).).).).).).).).).).).).).).).).).).).).).).).;.F F B E B B B A p o k c 1 ] , & & } b q q m q q q m q q m r r C q ",
"z z m m m q m q q m q q m l 0 ~ + = ) 1 8 d o B -.H+H+H+H+H+H+H+H+H+H+H+H+H+H+H+H+H+H+H+H+H+H+H+).F F F B B B B B A p o d 8 1 ) = + ~ 0 l q q m q q m q q q n r C q ",
"z z m m m m m q q m q q q a } & * ' : 2 c n s B -.H+H+H+H+H+H+H+H+H+H+H+H+H+H+H+H+H+H+H+H+H+H+H+).F F F F E B B B B A o n c 2 : ' * & } b q q m q q q m q q r r C q ",
"z z m m m m m q q m q q l 0 ~ + = ] 1 9 k o A B -.H+H+H+H+H+H+H+H+H+H+H+H+H+H+H+H+H+H+H+H+H+H+H+).F F F F F B E B B B A o k c 1 ) = + ~ 0 m q q m q q m q q n r C q ",
"z z m m m q m m q m q m e } * * ' : 8 c o p B E -.H+H+H+H+H+H+H+H+H+H+H+H+H+H+H+H+H+H+H+H+H+H+H+).F F F F F F B B B B A p o 9 8 | ' * * | l q q m q q q m q r r C q ",
"z z m m m m m m m m q m a ' & = ] 1 9 n o A B F -.H+H+H+H+{.!.).,.,.,.,.,.,.,.,.,.'.!.{.H+H+H+H+).F F F F F F F E B B B A o n c 1 ) = & ' a q q m q q m q q n r C q ",
"z z j m m j m m m m m l a ~ * ' : 8 c o p B B F -.H+H+#.F F F F F F F F F F F F F F F F F F H+H+).F F F F F F F F B B B B p o c 8 : ' * ~ 7 m q q m q q m q r r C m ",
"z x j m m j m m m q m e | * * ) 1 8 k o A B B F -.H+H+#.F F -.H+H+H+H+H+H+H+H+H+H+H+).F F F H+H+).F F F F F F F F F B B B A o k b 1 ) * * 0 l m m m m m q q n r C m ",
"z z j m m j m m m m m b } & = ] 1 c n o A B B F -.H+H+#.F F -.H+H+H+H+H+H+H+H+H+H+H+).F F F H+H+).F F F F F F F F F B B B A o n 9 1 ] = & } b m q m m m m q r n C q ",
"z o j m m j m m m m m a ' + ' : 2 c o p B B B F -.H+H+#.F F V #.#.#.#.#.#.#.#.#.#.#...F F F H+H+).F F F F F F F F F F B B B p o c 2 : ' + { b m m m m m m m r r C m ",
"z o m j m m j m m m m a ~ * ' : 8 d o A B B E F -.H+H+#.F F F F F F F F F F F F F F F F F F H+H+).F F F F F F F F F F B B B A o d 8 : ' * ~ 8 m m q m m q m m r C m ",
"z o j m m j m m j m m 7 * * ) 1 8 n o A B B F F -.H+H+#.F F F F V =.-.-.-.-.-.-.&.F F F F F H+H+).F F F F F F F F F F F B B A o k b 1 ) * * a m m m m m m m m r C m ",
"z o j m m j m m m j m a * = ] 1 c k o A B B F F -.H+H+#.F F F F #.H+H+H+H+H+H+!.=.!.H+H+H+H+H+H+H+H+H+H+H+H+H+H+).F F F B B A o n c 1 ) = * b j m m q m m m m r C m ",
"z k j j j m m j m m j a & = ] 1 9 n p A B E F F -.H+H+#.F F F F #.H+H+H+H+H+!.O ;.~.H+H+H+H+H+H+H+H+H+H+H+H+H+H+).F F F B B A p n 9 1 ] = & a m m m m m m m m n C q ",
"z k j j j j m m j m m 8 + = ] 1 c k p B B E F F -.H+H+#.F F F F #.H+H+H+H+{.....).H+H+H+H+H+H+H+H+H+H+H+H+H+H+H+).F F F B B B p n c 1 ) = + b m j m m j m m m r C m ",
"o n j j m j j m m j m b + = ] 1 c n p B B E F F -.H+H+#.F F F F #.H+H+H+H+{...V '.{.H+H+H+H+H+H+H+H+H+H+H+H+H+H+).F F F E B B p n 9 1 ] = + b m m j m m j m m n z m ",
"o n j c c c c c j c m b + = ] 1 9 n p B B E F F -.H+H+#.F F F F #.H+H+{.{.H+{...&.).{.H+H+H+H+H+H+H+H+H+H+H+H+H+).F F F B B B p n c 1 ) = + b m m m j m m j m n C m ",
"n k c c c b c c c c m b + = ] 1 c k p B B E F F -.H+H+=.#.#...V #.H+{.....{.H+{...#.;.'.).).).).).).).).).).H+H+).F F F B B B p n 9 1 ] = + e j j m m j m m j m z m ",
"o n 9 c c c e c c c c b * = ] 1 c k p A B E F F -.H+H+H+H+H+{.>.*.{...F F ..{.H+{...F F F F F F F F F F F F H+H+).F F F E B A p n c 1 ) = * b j j m m j m m m m z m ",
"k k c b b b 8 b b b b l * = ] 1 c n o A B B F F -.H+H+H+H+H+H+).,.-.;...F F ..{.H+{...F F F F F F F F F F F H+H+).F F F B B A o n 9 1 ] = * l l b b b b l l j m y m ",
"k k 9 8 b b 8 b b b b l , * ) 1 8 k o A B B F F *.).).).).).'.,.'.!.~...F F F ..!.H+{...F F F F F F F F F F H+H+).F F F B B A o k b 1 ) * ~ l i b b b b b b j m y m ",
"k k 8 8 b 8 8 b 8 b 8 j ' * ' : 8 d o A B B E F F F F F F F F F =.H+H+#.F F F F O !.H+{...F F F F F F F F F H+H+).F F B B B A o d 8 : ' * ' l l 8 b e b b b b m y l ",
"k k 8 8 8 8 8 8 8 b b l : & ' : 2 c o s B B B F F F F F F F F F -.H+H+#.F F F F F O !.H+{...F F F F F F F F H+H+).F F B B B s o c 2 : ' + | l 8 b b 8 b b b b m y l ",
"k k 8 8 8 8 8 b 8 8 8 l h & = ] 1 c k o A B B E F F F F F F F F -.H+H+#.F F F F F F O !.H+{...F F F F F F F H+H+).F B B B A o n 9 1 ] = & h l 8 b b b b b b b j n l ",
"k j 8 5 8 8 8 5 8 8 8 l j , * ) 1 8 k o A B B B F F F F F F F F -.H+H+#.F F F F F F F O !.H+{...F F F F F F H+H+).F B B B A o k b 1 ) * ~ l l 8 8 8 8 8 8 b 8 c n l ",
"k 9 5 8 8 5 8 8 8 8 8 8 l ) & ' : 8 c o p B B B E F F F F F F F -.H+H+#.F F F F F F F F O !.H+{...F F F F F H+H+).F B B B p o c 8 : ' * ) v 8 8 8 8 8 8 8 8 b c n l ",
"9 9 8 8 7 7 7 7 7 7 7 8 l h & = ] 1 c k o A B B B E F F F F F F -.H+H+#.F F F F F F F F F O !.H+{...F F F F H+H+).F B B A o n 9 1 ] = * h l 8 7 7 8 7 7 8 8 8 b k b ",
"c 9 [ [ 1 1 < 1 < 1 1 7 l w ~ * ' : 8 c o p A B B B E F F F F F -.H+H+#.F F F F F F F F F F O !.H+{...F F F H+H+).F B A p o c 8 : ' * ~ w l 7 1 1 7 7 7 5 8 8 b n 8 ",
"9 9 [ 1 1 < 1 < 1 < 1 7 7 i g & = ) 1 c k o A B B B B E F F F F -.H+H+#.F F F F F F F F F F F O !.H+{.V F F H+H+).F B A o k c 1 ) = & | v 7 7 1 1 7 7 7 7 7 8 b n 8 ",
"9 9 1 < 1 < 1 < 1 < < 1 7 i w ~ * ' : 2 c n o A B B B B E F F F -.H+H+>.-.-.-.-.-.-.-.-.-.=.*...O !.>...*.-.H+H+).F B o n c 2 : ' * ~ w l 7 < 1 < 1 1 1 7 7 8 8 m b ",
"9 9 < 1 < 1 < 1 < 1 < < 1 7 v g * = ) 1 8 d o p A B B B B E F F -.H+H+H+H+H+H+H+H+H+H+H+H+H+H+!.>.=.-.'.{.H+H+H+).B A o d 8 1 ) = * g v 7 1 1 < 1 < 1 < 1 1 7 8 m 8 ",
"9 5 1 < < < < < < < < < < < h w ' & , ) 1 c k o s A B B B B E F -.H+H+H+H+H+H+H+H+H+H+H+H+H+H+H+{.~.~.{.H+H+H+H+).B o k c 1 ) ~ & ' I h 1 < < < < 1 < 1 < 1 7 8 j 7 ",
"9 6 1 < < ( : ( : ( : ( : : 7 v u ~ * ' : 1 9 n o s A B B B B F #.-.-.-.-.-.-.-.-.-.-.-.-.-.-.-.-.-.-.-.-.-.-.-.*.A o 9 1 : ' * ~ u v 7 ( : ( 1 < < 1 < 1 < 7 5 j 7 ",
"9 5 < < _ ( ( ( : : : : : ( : 7 w g * = ' : 2 c k o p A B B B B E F F F F F F F F F F F F F F F F F F F B B B B A o c 2 : ' = * g w 7 ( : : : < ( 1 < < < 1 < 8 j 7 ",
"5 5 _ _ ( ( : ( ( ( ( ( ( : ( : 7 H } & = ) : 2 c k o o A A B B B B B B F F F F F F F F F F B B B B B B B A p o n c 2 : ) = & } H 7 : ( ( ( ( ( ( ( ( : ( 1 < 1 c 7 ",
"5 5 _ ( ( ! ! ! ! ! ! ! ! ! ( ( : 7 M 4 + = ] : 1 c d n o p A B B B B B B B B E B E B E B B B B B B B A p o n d c 1 : ] = + 4 H 7 ( ( ! ! ( ( : ( ( ( ( : ( 1 < 9 7 ",
"5 [ ( ( ( ! ! ! ! ! ! ! ! ! ! ! ( ( h M 4 + = ' : 1 8 c k o o p A A B B B B B B B B B B B B B B A A p o o k c 8 1 : ' = + 4 M u : ( ! ! ! ! ! ( ( ( : ( ( : < 1 8 7 ",
"5 [ ( ( ( ! ! ! ! ! ! ! ! ! ! ! ! ( : u N f & = ' ] 1 2 c 9 n o o o s A A A A B B B B A A A A p o o o k c c 2 1 ) ' = & f N u ( ( ! ! ! ! ! ! ! ! ! ( ( ( : 1 < 9 1 ",
"5 [ ( ( ( ! ! ! ! ! ! > ! ! ! ! ! ) ( ( u N g * * ~ ) : 1 8 c c k n o o o o p p p p p p o o o o n k c c 8 1 : ) ~ * * g N u : ( ) ! ! ! ! ! ! ! ! ! ( ( ( ( < 1 9 1 ",
"5 1 ( ( ! > ! > ! > ) ! > ! ) ; ) ! ) ( ( 7 N G ~ # = ' ] : 1 8 b 9 c d k n n n k n n n k k d c c b 8 1 : ] ' = & ~ G N 7 ( ( ) ! ) ; ! ; ) ) ! ! ! ( ( : ( : 1 9 1 ",
"5 < ( ^ ! > ! > ! > ) ; ) ; ) ; ) ; ) ; ) ( 7 H M g * * = ' ] : 1 1 2 8 b c 9 c c 9 c c c b 8 2 1 1 : ] ' = * * g M H 7 ( ) ) ; ) ; ) ; ) ; ! > ! ! ( ( ( ( 1 < 9 1 ",
"9 5 _ ( ^ ! > ! > ! > ! > ! > ! > ! > ! > ( ( 1 v N G 4 & * = ' ) ] : : 1 1 1 1 1 1 1 1 1 1 : : ] ) ' = * & 4 G N v 1 ( ( ! > ! > ! > ! > ! ! ( ( ( ( ( ( < < < j 1 ",
"6 6 _ _ _ ( ^ ( ^ ( ^ ( ^ ( ^ ( ^ ( ^ ( ( ^ ( _ < v I U G g * * * = ' ' ) ] ) ] ) ] ) ] ) ) ' ' = * * * f G U I 8 1 _ _ ^ ( ^ ( ^ ( ^ ( ^ ( ( _ _ _ _ _ _ < < 5 k 5 ",
"9 6 _ ^ ( ^ ( ^ ( ^ ( ^ ( ^ ( ^ ( ^ ( ^ ( ( ^ ( ^ ( < v I U N G 4 * + * * = = = = = = = = * * + * 4 t T U I v < ( ( ^ ( ^ ( ^ ( ^ ( ^ ( ^ ( ^ ( ( ( ( ( _ < < 5 k 7 ",
"5 _ > ; ; ; ; - ; - ; - ; - ; - ; - ; % - ; - ; ; - ; ; ! ( u H  .T G t 4 ~ * & + + & * ~ 4 t G T  .H u ( ! ) - ; - % % ; ; % ; % ; % ; - ; - ; ; ; ; ) ; ! ( < 9 : ",
"< ^ ; % % % % @ = @ = @ = @ = @ = @ @ @ @ @ @ @ @ @ @ @ = = % / 3 g G G T T  . . . . . .T T G G g 3 / % = @ @ @ @ @ @ @ @ @ @ @ @ @ @ @ @ @ = @ = % % = ' ; ) ! 8 : ",
"< ( - % % @ = @ @ @ @ @ @ @ @ @ @ @ @ @ @ @ @ @ @ @ @ @ @ @ @ @ @ = % / / 3 3 3 3 3 3 3 3 / / % = @ @ @ @ @ @ @ @ @ @ @ @ @ @ @ @ @ @ @ @ @ @ @ @ = @ % % ' ) ! 8 : ",
"5 < ! ; ; % % % % % % % % % % % % % % % % % % % % % % % % % % % % % % % % % % % % % % % % % % % % % % % % % % % % % % % % % % % % % % % % % % % % % % ) ; ) ! < j : ",
"9 6 ^ ( ^ > > > > > > > > > > > > > > > > > > > ( ( > ( ( > > ( ( ^ > > ( ! ! ! ! ( ( ( ( ! ( ^ ! ! ! ! ! ! ! ! ! ( ( ( ! ( ( ! ! ( ! ( ( ! ( ( ( _ < _ _ < [ 5 z 8 "};
