/* XPM */
static char * butpress_xpm[] = {
"82 68 157 2",
"  	c None",
". 	c #000000",
"+ 	c #000008",
"@ 	c #000010",
"# 	c #000018",
"$ 	c #000021",
"% 	c #000031",
"& 	c #000039",
"* 	c #000818",
"= 	c #000821",
"- 	c #000829",
"; 	c #000831",
"> 	c #000839",
", 	c #001031",
"' 	c #001039",
") 	c #001042",
"! 	c #00104A",
"~ 	c #001052",
"{ 	c #00105A",
"] 	c #001842",
"^ 	c #00184A",
"/ 	c #001852",
"( 	c #00185A",
"_ 	c #001863",
": 	c #00186B",
"< 	c #002163",
"[ 	c #00216B",
"} 	c #002173",
"| 	c #00217B",
"1 	c #00297B",
"2 	c #002984",
"3 	c #00298C",
"4 	c #003194",
"5 	c #00319C",
"6 	c #0031A5",
"7 	c #0039A5",
"8 	c #0039AD",
"9 	c #0039B5",
"0 	c #0042B5",
"a 	c #0042BD",
"b 	c #0042C6",
"c 	c #0042CE",
"d 	c #0042D6",
"e 	c #004ACE",
"f 	c #004AD6",
"g 	c #004ADE",
"h 	c #004AE7",
"i 	c #0052DE",
"j 	c #0052E7",
"k 	c #081031",
"l 	c #08296B",
"m 	c #08297B",
"n 	c #083184",
"o 	c #08399C",
"p 	c #102139",
"q 	c #10214A",
"r 	c #103994",
"s 	c #18294A",
"t 	c #183163",
"u 	c #18398C",
"v 	c #184AA5",
"w 	c #213973",
"x 	c #29395A",
"y 	c #294284",
"z 	c #2952AD",
"A 	c #31426B",
"B 	c #3152A5",
"C 	c #315AAD",
"D 	c #315AB5",
"E 	c #3163BD",
"F 	c #393984",
"G 	c #394284",
"H 	c #39428C",
"I 	c #394A7B",
"J 	c #3952A5",
"K 	c #3963B5",
"L 	c #42428C",
"M 	c #424294",
"N 	c #424A8C",
"O 	c #424A94",
"P 	c #424A9C",
"Q 	c #425284",
"R 	c #42529C",
"S 	c #425A8C",
"T 	c #4263AD",
"U 	c #4A4A9C",
"V 	c #4A529C",
"W 	c #4A52A5",
"X 	c #4A5A9C",
"Y 	c #4A5AA5",
"Z 	c #4A5AAD",
"` 	c #4A6394",
" .	c #4A639C",
"..	c #4A63A5",
"+.	c #525A94",
"@.	c #525AB5",
"#.	c #52639C",
"$.	c #5263A5",
"%.	c #5263AD",
"&.	c #5263B5",
"*.	c #526BA5",
"=.	c #526BAD",
"-.	c #526BB5",
";.	c #5273AD",
">.	c #5273B5",
",.	c #5A63A5",
"'.	c #5A6BA5",
").	c #5A6BB5",
"!.	c #5A6BBD",
"~.	c #5A73B5",
"{.	c #5A73BD",
"].	c #5A7BB5",
"^.	c #5A7BBD",
"/.	c #636BA5",
"(.	c #636BAD",
"_.	c #6373C6",
":.	c #637BB5",
"<.	c #637BBD",
"[.	c #637BC6",
"}.	c #6384C6",
"|.	c #6384CE",
"1.	c #6B73B5",
"2.	c #6B84D6",
"3.	c #6B8CC6",
"4.	c #6B8CCE",
"5.	c #6B8CD6",
"6.	c #7373AD",
"7.	c #737BB5",
"8.	c #738CE7",
"9.	c #7394D6",
"0.	c #7394DE",
"a.	c #7394E7",
"b.	c #739CDE",
"c.	c #7B84B5",
"d.	c #7B94CE",
"e.	c #7B9CE7",
"f.	c #7B9CEF",
"g.	c #7B9CF7",
"h.	c #7BA5EF",
"i.	c #7BA5F7",
"j.	c #8484BD",
"k.	c #848CB5",
"l.	c #849CD6",
"m.	c #84A5F7",
"n.	c #84ADF7",
"o.	c #84ADFF",
"p.	c #8C8CB5",
"q.	c #8CA5D6",
"r.	c #8CB5FF",
"s.	c #9CADDE",
"t.	c #9CB5DE",
"u.	c #A5B5DE",
"v.	c #ADBDE7",
"w.	c #B5C6E7",
"x.	c #C6CEEF",
"y.	c #CED6EF",
"z.	c #D6DEF7",
"}.[.).~.).;.~.~.~.].~.].].~.].].].].].].].].].].].].].].].].].].].].].].].].].].].].].].].].].].].].].].].].].].].].].].].].].].].].].].].].].].].].].].].].].<.4.:.",
"8.8.2.5.5.9.9.0.0.0.0.0.0.b.b.b.b.b.b.b.b.e.e.e.e.e.e.e.e.e.e.e.e.e.e.e.e.e.e.e.e.e.e.e.e.e.e.e.e.e.e.e.e.e.e.e.e.e.e.e.e.e.e.e.e.e.e.e.e.e.b.b.b.b.0.0.0.9.9.0.e.4.",
"g.g.a.f.f.f.f.h.m.m.n.n.n.m.n.n.o.o.o.o.o.o.o.o.o.o.o.o.o.o.o.o.o.o.o.o.o.o.o.o.o.o.o.o.o.o.o.o.o.o.o.o.o.o.o.o.o.o.o.o.o.o.o.o.o.o.o.o.o.o.o.o.n.n.m.n.f.h.f.h.n.0.",
"g.g.f.f.h.f.m.n.n.n.o.o.r.r.r.r.r.r.r.r.r.r.r.r.r.r.r.r.r.r.r.r.r.r.r.r.r.r.r.r.r.r.r.r.r.r.r.r.r.r.r.r.r.r.r.r.r.r.r.r.r.r.r.r.r.r.r.r.r.r.r.r.r.r.o.n.n.n.f.h.o.b.",
"g.g.f.f.f.f.g.g.n.m.o.o.o.o.o.o.o.o.o.o.o.o.o.o.o.o.o.o.o.o.o.o.o.o.o.o.o.o.o.o.o.o.o.o.o.o.o.o.o.o.o.o.o.o.o.o.o.o.o.o.o.o.o.o.o.o.o.o.o.o.o.o.o.o.m.m.g.h.h.f.o.a.",
"f.8.8.8.a.a.a.f.f.f.f.f.f.f.g.g.g.g.g.g.g.g.g.g.g.g.g.g.g.f.f.0.5.[.~.*.` S Q Q Q I Q Q S ` *.~.}.5.a.f.f.g.g.g.g.g.g.g.g.g.g.g.g.g.g.g.g.g.g.g.f.f.f.f.f.a.a.a.g.b.",
"8.8.2.2.5.5.5.5.2.a.5.a.a.0.0.0.0.0.0.0.a.a.a.a.a.a.0.a.5.}.~. .S A s ' = @ + . . . . + @ = k s A Q  .~.}.5.a.0.a.a.a.a.a.a.a.a.a.a.a.a.a.a.0.0.0.0.a.a.9.5.a.5.a.5.",
"2.5.}.|.|.|.|.|.|.2.5.4.4.4.2.5.5.5.5.5.5.5.5.5.5.4.}.~.#.Q x k * + . . . . . . . . . . . . . . . * k x Q #.~.}.4.5.5.5.5.5.5.5.5.5.5.5.5.5.5.5.5.4.4.4.4.4.|.5.0.|.",
"|.|.[.[.[.[.[.[.[.}.}.[.}.}.}.[.}.}.[.}.}.[.}.}.^.;. .Q s = + . . . . . . . . . . . . . . . . . . . . + = s Q ` ;.^.}.[.}.}.[.}.}.[.}.}.[.}.}.[.}.[.}.[.}.[.}.}.2.}.",
"}.}.!.{.{.{.^.^.{.^.{.^.^.^.^.<.<.<.<.<.<.<.^.;. .Q s = . . . . . . . . . . . . . . . . . . . . . . . . . . = s Q  .;.^.<.<.<.<.<.<.<.<.<.<.<.<.<.<.<.<.^.^.<.[.4.<.",
"[.[.!.~.~.~.~.~.].].].~.].].].^.^.^.{.^.].~.*.S x ' + . . . . . . . . . . . . . . . . . . . . . . . . . . . . + ' A S *.~.].^.^.^.^.^.^.{.^.^.^.^.^.^.^.].^.^.^.}.].",
"[.[.~.~.].~.~.~.].~.].].~.].].~.].].~.].;.#.Q s = . . . . . . . . . . . + + + + + + + + + + . . . . . . . . . . . * s Q #.;.~.].].~.].].~.].].~.].~.].].~.].{.^.}.].",
"[.[.~.~.~.~.~.~.].].~.].].~.].].~.].].;. .Q p @ + + + + . . . . + + @ @ @ # # # # # # # # @ @ @ + + . . . . + + + + @ p Q  .;.].].~.].].].~.].].].~.].].].~.^.^.}.].",
"[.[.~.~.~.].~.~.].].~.].].].~.].].~.;. .Q p @ + + + + + + + @ @ # # = = = = = = = = = = = = = # # # @ @ + + + + + + + @ p Q  .;.].~.].].~.].].~.].].~.].].].{.^.}.].",
"[.[.~.~.~.~.~.~.].].~.].].~.].].].;.#.Q p @ @ @ + + + + @ # = = = = = = % = % % % % % = % % = = = = = = # @ + + + + @ @ @ p Q #.;.].~.].].~.].].~.].].~.].].^.^.}.].",
"[.[.~.~.~.~.].~.].].].~.].].~.].~.*.Q p @ @ @ @ @ @ @ # = = = % % % % & % & & & & & & & % & & % % % % = = = # @ @ @ @ @ @ @ p Q *.~.].].~.].].].~.].].].~.].{.^.}.].",
"[.[.~.~.~.~.~.].].~.].].~.].].~.*.S s * @ * + * + * = = % ; & & & & & & & & & > & > & & & & & & & & & & % ; = = # * + * + * * s S *.].].].~.].].~.].].~.].].^.^.}.].",
"[.[.~.~.~.].~.].].~.].].].~.].;.` x = * * * * * ; ' ! ~ ~ ~ ~ ~ ~ ( ~ ~ ~ ~ ~ ~ ( ( ~ ~ ~ ~ ~ ~ ! ) ) & > & > ; - * * * * * * * x ` ;.~.].].~.].].~.].].~.].^.^.}.].",
"[.[.~.~.~.~.~.].].~.].].~.].;.*.I k * * * * = ' < } 2 3 3 3 3 3 3 3 3 3 3 3 3 3 3 3 3 3 3 3 3 1 : ~ ! ) > ) > > ; , = = * * * * k I #.~.].].~.].].].~.].].~.^.^.}.].",
"[.[.~.~.~.~.~.].].~.].].].~.*.` q * * = = = , ( >.t.u.u.u.u.u.u.u.u.u.u.u.u.u.u.u.u.u.u.u.u.u.u.d.} ! ! ) ) ) ) > > ; - = = = * * q ` *.].].~.].].~.].].].~.^.^.}.].",
"[.[.~.~.~.].~.].].~.].].~.;.#.x = = = = = , ' } 3.z.z.z.z.z.z.z.z.z.z.z.z.z.z.z.z.z.z.z.z.z.z.z.u.2 ( ! ! ! ! ) ) ) ; ; , * = = = = x #.;.].~.].].].~.].].~.^.^.}.].",
"[.[.~.~.~.~.~.].].~.].].].*.` q = = , = , ; ! 1 3.z.z.z.z.z.z.z.z.z.z.z.z.z.z.z.z.z.z.z.z.z.z.z.u.3 _ ~ ~ ~ ! ! ! ! ) ) ; , = , * = q ` *.].].~.].].].~.].].{.^.}.].",
"[.[.~.~.~.~.~.].].~.].].;.#.x = = , = , , ) / 1 3.z.z.z.z.z.z.z.z.z.z.z.z.z.z.z.z.z.z.z.z.z.z.z.u.3 _ ~ ~ ~ ~ ~ ~ ~ ! ) ) , - = , * = A #.~.].].~.].].].~.].^.^.}.].",
"[.[.).~.].~.~.~.].~.].~.;.` q = - , , , ) ) ( 2 3.z.z.z.z.z.z.z.z.z.z.z.z.z.z.z.z.z.z.z.z.z.z.z.u.3 : ( ( ~ ( ~ ~ ~ ~ ~ ! ) , , - , = q #.;.].].~.].].~.].].{.^.}.].",
"[.[.~.~.~.~.~.~.~.~.].~.*.Q - - , , ' ) ) ~ _ 2 3.z.z.z.z.x.w.t.s.q.q.q.q.q.q.q.q.t.v.x.z.z.z.z.u.3 : ( ( { ( { ( ( ( ~ ~ ! ) , , , - , Q *.~.].].~.].].~.].^.^.}.].",
"[.[.).~.).~.~.~.~.~.~.;.*.t - , , ' ' ! ~ / _ 2 3.z.z.D 5 5 5 5 5 5 5 5 5 5 5 5 5 5 5 5 5 5 z.z.u.4 : _ _ _ _ ( { ( { ( ~ ~ ! ' ' , , = t *.~.].].~.].].].~.^.{.}.].",
"[._.).~.~.).~.~.~.].~.;.#.q , , ' ' ) / ( ( : 2 3.z.z.D 3 2 3.z.z.z.z.z.z.z.z.z.z.z.u.3 3 5 z.z.u.4 } _ _ _ _ _ _ _ _ _ ( ( ! ) ' ' , , q #.;.~.~.~.~.~.].].^.^.}.~.",
"[.[.).~.~.).~.~.~.~.~.;.S , , ' ) ] ^ / < ( : 3 3.z.z.D 2 2 3.z.z.z.z.z.z.z.z.z.z.z.u.2 2 5 z.z.u.4 1 : : : : : : : _ _ _ ( / ^ ) ) ' , , S ;.~.~.~.~.~.~.].{.^.}.].",
"[.!.~.).~.~.).~.~.~.~.*.A ; ' ) ] ^ / < ( : } 3 3.z.z.D 2 1 r D D D D D D D D D D D z 2 2 5 z.z.u.4 1 : : } _ : } _ : : : _ ( / ^ ] ) ' , A ;.~.~.~.].~.~.~.^.^.}.].",
"[.!.~.~.).~.~.).~.~.~.;.t ' ' ) ^ / ( _ : : 1 3 3.z.z.D 2 1 2 3 4 5 5 5 5 5 5 5 4 3 3 2 3 5 z.z.u.5 3 2 2 2 2 1 1 } } : } _ _ ( / ^ ) ' ' x %.~.~.~.~.~.~.~.~.^.}.~.",
"[.!.~.~.).~.~.~.).~.~.*.s ' ) ^ / ( _ } } } 1 3 3.z.z.D 3 1 1 3 v 3.3.3.3.3.3.3.K 5 5 5 5 5 z.z.u.5 5 5 5 5 5 4 3 2 1 } } } : _ < ^ ^ ) ' s ;.).~.].~.~.].~.~.^.}.~.",
"[.!.~.~.).~.~.).~.~.).*./ ' ^ ^ / < < } } 1 1 3 3.z.z.D 3 2 2 4 K z.z.z.z.z.z.v.}.v.z.z.z.z.z.z.z.z.z.z.z.z.z.z.u.3 1 1 1 } } } / / / ^ ) q ;.).~.~.~.~.~.~.~.^.}.~.",
"[.!.).).).~.~.).~.~.~.*.] ] ^ / < ( } } } 1 2 4 3.z.z.D 3 2 3 4 D z.z.z.z.z.v.o d.w.z.z.z.z.z.z.z.z.z.z.z.z.z.z.u.4 2 1 | 1 } } < / / ^ ) ] *.~.~.~.~.~.~.].~.{.}.].",
"[.!.).~.).).~.~.).~.~.;.) ^ / ( < } } } 2 2 3 4 3.z.z.D 4 3 3 4 D z.z.z.z.y.z z u.z.z.z.z.z.z.z.z.z.z.z.z.z.z.z.u.4 3 2 2 2 1 } } < / / ^ ] ;.).~.~.).~.~.).~.^.}.~.",
"{.{.).).).).).~.~.).~.%.) ^ / < < } 1 2 2 3 3 4 3.z.z.D 4 4 4 5 D z.z.z.z.y.z z s.y.z.z.z.z.z.z.z.z.z.z.z.z.z.z.u.4 4 3 3 2 2 1 } } < ^ ^ ) %.~.).~.~.).~.~.~.{.[.~.",
"{.!.).-.-.-.-.-.).-.~.;.) / < < } } 1 2 3 3 4 4 3.z.z.D 5 5 5 5 D z.z.y.y.z.y.z >.s.y.z.z.z.z.z.z.z.z.z.z.z.z.z.u.5 4 4 3 3 2 2 } < < ( / ] ;.).~.~.).~.~.).~.~.[.~.",
"{.{.-.-.-.;.-.-.-.-.>.%.^ / / } } 1 2 3 4 4 4 5 3.z.z.[.D D C v D z.y.z z y.z.y.z K d.s.t.u.u.u.u.u.u.u.u.u.z.z.u.5 4 4 4 4 3 2 1 } } / / ^ ;.).).~.~.).~.~.).].[.~.",
"{.!.-.-.-.-.;.-.-.-.-.;./ / < } } 2 3 4 4 5 5 5 3.z.z.z.z.z.x.q.>.y.z o 5 z y.z.y.z 5 5 5 5 5 5 5 5 5 5 5 5 z.z.u.5 5 5 5 4 4 3 2 1 } < ^ / ;.).).~.~.).~.~.~.).[.~.",
"!.!.-.%.;.%.%.;.%.;.%.;.l / < } } n 3 4 5 5 5 5 3.z.z.z.z.z.z.u.q.4.4.z 5 5 z y.z.y.z 5 7 7 7 7 7 7 7 7 5 5 z.z.u.5 5 5 5 5 4 3 2 1 } < / l ;.;.;.;.;.;.%.;.).~.<.~.",
"!.!.-.%.%.;.%.%.;.%.%.;.w ( < } 2 3 4 5 5 7 7 7 -.t.u.u.u.u.t.s.s.v.w.C 7 8 7 z v.z.y.z 7 8 8 8 8 8 8 8 7 5 z.z.u.5 7 7 7 5 5 4 3 2 } < ( w ;.%.;.%.;.%.;.;.).~.<.~.",
"!.!.%.%.;.%.%.;.%.;.%.).y / } } 2 3 4 5 7 7 7 7 7 7 5 5 5 5 5 5 }.z.z.D 7 9 8 7 o v.z.y.z 7 8 9 0 0 0 9 8 5 z.z.u.5 7 8 7 7 5 4 3 2 } } ^ y ;.;.%.;.%.;.;.%.;.).<.;.",
"!.!.%.%.%.%.%.%.%.%.;.;.O ( < 1 2 3 5 5 7 8 8 8 8 8 8 8 8 8 8 5 3.z.z.D 8 0 a 0 8 o v.z.y.z 7 9 0 0 0 0 8 5 z.z.u.5 8 8 8 7 5 5 3 2 1 < / O ~.;.%.%.;.%.%.;.;.).<.;.",
"!.!.;.%.%.%.%.%.%.%.%.;.*.l _ } n 4 5 7 7 8 8 9 0 0 0 0 0 a 0 7 3.z.z.D 8 a a a a 8 o v.z.y.z 7 0 a a a 8 5 z.z.u.5 8 8 8 7 7 5 4 2 } } / '.;.%.;.%.;.%.;.%.;.).{.;.",
"!.).%.%.%.%.%.%.%.%.%.;.).w < } 2 4 5 7 8 8 9 0 0 0 a a a a 0 7 3.z.z.D 8 a b e a a 8 o v.z.y.z 7 0 a a 9 5 z.z.u.5 8 0 8 8 7 5 4 2 } < w ;.;.%.%.%.%.%.%.%.;.-.!.;.",
"-.-.%.%.%.%.%.%.%.%.%.%.;.O < } 2 4 5 7 8 9 0 0 a a a a a b a 7 3.z.z.D 8 b e e e e a 8 o v.z.y.z 8 0 a 0 5 z.z.u.5 8 0 9 8 7 5 4 2 } < O ;.%.%.%.%.%.%.%.%.%.-.{.;.",
"-.&.%.%.$.$.$.$.$.$.$.%.(.$.l } 1 3 5 7 8 9 0 a a a a b b e a 8 3.z.z.D 0 e e e e e e b 0 o v.z.y.z 8 a 0 5 z.z.u.5 0 0 9 8 7 5 3 2 } l $.(.%.$.$.%.$.$.%.;.%.%.{.%.",
"-.-.Z Z Y Y Y Y Y ..Y $.%.~.y } } 3 5 7 8 9 a a a a e e e e a 8 3.z.z.D 8 b e e e e e b a 8 o v.z.y.z 8 8 5 z.z.u.5 0 a 9 8 7 5 3 1 } y ~.;.$.Y ..$.$.$.%.%.%.;.!.;.",
"-.&.Z Y Y Y ..Y Y Y Y $.$.;.#.} } 3 5 7 8 9 a a b b b e e e b 8 3.z.z.D 5 7 8 8 8 8 8 8 8 8 7 o v.z.y.v 5 5 z.z.u.7 9 a 9 8 7 5 3 1 < #.(.%.$.Y ..$.$.$.$.$.%.%.~.%.",
"-.-.Y Y Y ..Y Y ..Y Y Y $.;.).y } 2 4 7 8 9 a a b e e e e e e 8 3.z.z.l.3.3.3.3.3.3.3.3.3.}.^.D o v.l.D ^.4.z.z.u.7 0 a 9 8 7 4 2 } y ~.;.$.Y ..Y ..Y ..$.$.%.%.~.;.",
"-.&.Y Y Y Y Y Y Y ..Y Y Y $.(.#.m 1 3 5 8 9 a b b e e e e e e 8 3.z.z.z.z.z.z.z.z.z.z.z.z.z.z.v.l.}.4.s.x.z.z.z.u.7 9 a 9 8 5 3 1 m #.(.$.Y Y Y Y Y Y Y ..Y $.%.~.%.",
"-.%.Y Y ..Y ..Y Y Y ..Y Y Y '.1.O } 2 4 7 9 a a b e e e e f e 9 3.z.z.z.z.z.z.z.z.z.z.z.z.z.z.z.x.w.w.x.z.z.z.z.u.8 a a 9 7 4 2 } O 1.'.Y Y ..Y Y ..Y Y Y ..$.%.).$.",
"-.Z Y Y Y X X X X X X X X X $.(./.y 1 3 5 8 a b b e e e f f e b E 3.3.3.3.3.3.3.3.3.3.3.3.3.3.3.3.3.3.3.3.3.3.3.-.9 a a 8 5 3 1 y /.(.$.X X X Y Y Y ..Y Y Y $.%.).$.",
"&.Z Y Y Y V V V Y V X X V X X $.~.*.n 2 4 7 9 a b e e e f f f e b 0 9 8 8 8 8 8 9 8 8 8 8 8 8 8 8 8 8 8 8 8 8 9 9 a a 9 7 4 2 m '.~.$.X X V X Y X Y Y ..Y Y Y %.).$.",
"Z Z W W V V X V V V V V X V V X ,.1.#.1 2 4 7 9 b b e f f f f f f f f f f f f f f f f f f f f e e e e e e e b b b a 9 7 4 2 m #.1.,.X V V X V V X V V X X Y Y ..-.$.",
"Z Z W V V R R R R R R R R R V V X '.1.X 1 3 5 8 9 b e e f f f i i i i i i i i j j j j i i i i i i i i f f f e e b 9 8 5 3 1 X 1.,.X V R R V V V V X V V X X Y Y -.$.",
"Z Z V V V R R R R R R R R R R R V V /.6.X 1 3 5 8 9 b e f f f f i i i i i j j j j j j j j i i i i i f f f e e b a 8 5 3 1  .6./.X V R R R R R V V V V V V X ..Y ;.$.",
"Z Z V V V R R R R R R R R R R R R V X /.7.$.n 3 5 8 9 b e d f i i i i i j j j j j j j j j j i i i i i f f c b 9 8 5 3 n $.7./.X V R R R R R R R R R V X V X Y Y -.Y ",
"Z Z V V V R R R R R R P R R R R R O V V /.7.'.u 3 5 7 9 a e d f g i g h j j j j j j j j j j i i i g f d e a 9 7 5 3 u '.7./.V V O R R R R R R R R R V V V V Y Y -.Y ",
"Z Y W V R P R P R P O R R P O O O R O V V ,.7.1.B 2 4 7 9 9 b e f g i h h j h j j j j h j h h i f f c b a 9 7 4 3 B /.7.,.V V O R O O R O O O R R R V V V X X Y -.Y ",
"Z Z V U R P R P R R O O O O O O O O O O O V ,.1.7.;.u 3 5 7 9 a b e d f i i h h h h h i i f f f c b a 9 7 5 3 r ;.6.1.,.V O O O O O O O O O O R R R V V V V Y Y -.Y ",
"&.Z W V U R P R P R R R R R R R R R R R R V V Y /.7.7.T 3 4 5 7 9 9 a b c e f f f f f f c e b b 9 8 7 5 4 3 T c.7./.Y V V R R R R R R R R R R V V V V V V Y Y Y ).Y ",
"&.&.W W W V U V U U U U V U V U V U V U V V V W W (.1.j.c.-.r 4 5 7 8 9 9 a a a a a a a a 9 9 8 7 5 4 r -.c.j.1.(.W W W V V U V U V U V U V V W W W W W W Y Y Z !.%.",
"&.@.V U V U V U V V V U V U V U V U V U V U V U V V Y (.1.j.k.1.T r 4 4 5 7 6 8 8 8 8 6 7 5 4 4 r T 1.k.j.1.(.Y V V V U V U V U V U V U V U V U V V V V W W Y Z !.$.",
"W W P O O O O M O M O M O M O M O M O L O M O O M O O O R Y /.6.j.k.7.1.;.B v r 4 4 r v J T 1.c.k.c.6./.Y R O O M O L L O M L O L O L O M O M O O O O O O O V Y -.V ",
"Y U O H H H H F F G F G F G F G F G F F F F F F F F F F G G G N +.#./.6.7.c.j.k.p.p.k.j.c.7.6./.#.+.N L G G F F F F F F F F F F F F F F F F G G F H H H N N O R %.X ",
"W V M H H F G F F F F F F F F F F F F F F F F F F F F F F F F F F G G N N +.+.+.+.+.+.+.+.N N G G F F F F F F F F F F F F F F F F F F F F F F F G G G H H N O R %.X ",
"Y W O O O H H H H H H H H H H H H H H H H H H H H H H H H H H H H H H H H H H H H H H H H H H H H H H H H H H H H H H H H H H H H H H H H H H H H L L O O O R Y ).X ",
"&.@.V U V P R R R R R R R R R R R R R R R R R R V V R V V R R V V V R R V R R P R V U V V R V U R R R R R R R R R V V V R V V R R V R V V R V V V W Y W Y Y Z %.[.%."};
