/* XPM */
static char * false_xpm[] = {
"60 60 2 1",
" 	c None",
".	c #FF0101",
"                                                            ",
"                                                            ",
"                          ........                          ",
"                      ................                      ",
"                   ......................                   ",
"                 ..........................                 ",
"               ..............................               ",
"              ................................              ",
"            ....................................            ",
"           ......................................           ",
"          ........................................          ",
"         ..........................................         ",
"        ............................................        ",
"        ............................................        ",
"       ..............................................       ",
"      ................................................      ",
"      ................................................      ",
"     ..................................................     ",
"     ..................................................     ",
"    ....................................................    ",
"    ....................................................    ",
"    ....................................................    ",
"   ......................................................   ",
"   ......................................................   ",
"   ......................................................   ",
"   ......................................................   ",
"  ........................................................  ",
"  ........................................................  ",
"  ........................................................  ",
"  ........................................................  ",
"  ........................................................  ",
"  ........................................................  ",
"  ........................................................  ",
"  ........................................................  ",
"   ......................................................   ",
"   ......................................................   ",
"   ......................................................   ",
"   ......................................................   ",
"    ....................................................    ",
"    ....................................................    ",
"    ....................................................    ",
"     ..................................................     ",
"     ..................................................     ",
"      ................................................      ",
"      ................................................      ",
"       ..............................................       ",
"        ............................................        ",
"        ............................................        ",
"         ..........................................         ",
"          ........................................          ",
"           ......................................           ",
"            ....................................            ",
"              ................................              ",
"               ..............................               ",
"                 ..........................                 ",
"                   ......................                   ",
"                      ................                      ",
"                          ........                          ",
"                                                            ",
"                                                            "};
