/* XPM */
static char * lamponsel_xpm[] = {
"60 60 19 1",
" 	c None",
".	c #706A6A",
"+	c #756F67",
"@	c #857E5B",
"#	c #99914D",
"$	c #A69E44",
"%	c #ADA43F",
"&	c #827B5E",
"*	c #C4BA2F",
"=	c #D7CD21",
"-	c #E5DA18",
";	c #ECE113",
">	c #736D68",
",	c #8B8457",
"'	c #BAB136",
")	c #E0D51B",
"!	c #EDE212",
"~	c #C3BA2F",
"{	c #E7DC16",
"............................................................",
"............................................................",
"............................................................",
"............................................................",
"............................................................",
"............................................................",
"............................................................",
"............................................................",
"............................................................",
"............................................................",
"............................................................",
"............................................................",
"............................................................",
"............................................................",
"............................................................",
"............................................................",
"............................................................",
"........................+@#$%%$#@+..........................",
".......................&$*=-;;-=*$&.........................",
".....................>,')!!!!!!!!)',>.......................",
".....................,~{!!!!!!!!!!{~,.......................",
"....................&'{!!!!!!!!!!!!{'&......................",
"...................+$)!!!!!!!!!!!!!!)$+.....................",
"...................@*!!!!!!!!!!!!!!!!*@.....................",
"...................#=!!!!!!!!!!!!!!!!=#.....................",
"...................$-!!!!!!!!!!!!!!!!-$.....................",
"...................%;!!!!!!!!!!!!!!!!;%.....................",
"...................%;!!!!!!!!!!!!!!!!;%.....................",
"...................$-!!!!!!!!!!!!!!!!-$.....................",
"...................#=!!!!!!!!!!!!!!!!=#.....................",
"...................@*!!!!!!!!!!!!!!!!*@.....................",
"...................+$)!!!!!!!!!!!!!!)$+.....................",
"....................&'{!!!!!!!!!!!!{'&......................",
".....................,~{!!!!!!!!!!{~,.......................",
".....................>,')!!!!!!!!)',>.......................",
".......................&$*=-;;-=*$&.........................",
"........................+@#$%%$#@+..........................",
"............................................................",
"............................................................",
"............................................................",
"............................................................",
"............................................................",
"............................................................",
"............................................................",
"............................................................",
"............................................................",
"............................................................",
"............................................................",
"............................................................",
"............................................................",
"............................................................",
"............................................................",
"............................................................",
"............................................................",
"............................................................",
"............................................................",
"............................................................",
"............................................................",
"............................................................",
"............................................................"};
