/* XPM */
static char * lampon_xpm[] = {
"60 60 2 1",
" 	c None",
".	c #F2F20C",
"                                                            ",
"                                                            ",
"                                                            ",
"                                                            ",
"                                                            ",
"                                                            ",
"                                                            ",
"                                                            ",
"                                                            ",
"                                                            ",
"                                                            ",
"                                                            ",
"                                                            ",
"                                                            ",
"                                                            ",
"                                                            ",
"                                                            ",
"                                                            ",
"                                                            ",
"                         ........                           ",
"                       ............                         ",
"                      ..............                        ",
"                     ................                       ",
"                     ................                       ",
"                    ..................                      ",
"                    ..................                      ",
"                    ..................                      ",
"                    ..................                      ",
"                    ..................                      ",
"                    ..................                      ",
"                    ..................                      ",
"                    ..................                      ",
"                     ................                       ",
"                     ................                       ",
"                      ..............                        ",
"                       ............                         ",
"                         ........                           ",
"                                                            ",
"                                                            ",
"                                                            ",
"                                                            ",
"                                                            ",
"                                                            ",
"                                                            ",
"                                                            ",
"                                                            ",
"                                                            ",
"                                                            ",
"                                                            ",
"                                                            ",
"                                                            ",
"                                                            ",
"                                                            ",
"                                                            ",
"                                                            ",
"                                                            ",
"                                                            ",
"                                                            ",
"                                                            ",
"                                                            "};
