/* XPM */
static const char *reset_orange_xpm[] = {
"83 30 35 1",
" 	c #000000",
".	c #211000",
"X	c #311800",
"o	c #291800",
"O	c #8C4A00",
"+	c #DE7B00",
"@	c #EF8400",
"#	c #422100",
"$	c #D67300",
"%	c #FF8C00",
"&	c #BD6300",
"*	c #391800",
"=	c #DE7300",
"-	c #E77B00",
";	c #B56300",
":	c #100800",
">	c #A55A00",
",	c #844200",
"<	c #9C5200",
"1	c #FF8400",
"2	c #F78400",
"3	c #5A3100",
"4	c #7B4200",
"5	c #080000",
"6	c #6B3900",
"7	c #633100",
"8	c #522900",
"9	c #C66B00",
"0	c #080800",
"q	c #CE6B00",
"w	c #4A2900",
"e	c #945200",
"r	c #180800",
"t	c #AD5A00",
"y	c #733900",
"     .XXXXXXXXXXXXXXXXXXXXXXXXXXXXXXXXXXXXXXXXXXXXXXXXXXXXXXXXXXXXXXXXXXXXXXX.     ",
"   oO+@@@@@@@@@@@@@@@@@@@@@@@@@@@@@@@@@@@@@@@@@@@@@@@@@@@@@@@@@@@@@@@@@@@@@@@+O.   ",
"  #$%%%%%%%%%%%%%%%%%%%%%%%%%%%%%%%%%%%%%%%%%%%%%%%%%%%%%%%%%%%%%%%%%%%%%%%%%%%&.  ",
" *=%%%+$$$$$$$$$$$$$$$$$$$$$$$$$$$$$$$$$$$$$$$$$$$$$$$$$$$$$$$$$$$$$$$$$$$$$-%%%;: ",
" >%%@,.:::::::::::::::::::::::::::::::::::::::::::::::::::::::::::::::::::::o<1%23 ",
" @%%4                                                                        :&%%&5",
" @%@X                                                                         31%-.",
" @%@X                                                                         X@%@X",
" @%@X                                                                         X@%@X",
" @%@X                %%%%%%$O                                                 X@%@X",
" @%@X                %%%%%%%%O                            #&                  X@%@X",
" @%@X                %%    6%-                            %%                  X@%@X",
" @%@X                %%     %%   7+%$8   o911&o   7+%$8  %%%%%                X@%@X",
" @%@X                %%   04%$  8%%%%%#  $%%%%q  8%%%%%# %%%%%                X@%@X",
" @%@X                %%%%%%%%7  q%8 w%;  1%.     q%8 w%;  %%                  X@%@X",
" @%@X                %%%%%%=w   1%%%%%@  >%1q,:  1%%%%%@  %%                  X@%@X",
" @%@X                %% 58-%e   1%%%%%%   ,9@%9  1%%%%%%  %%                  X@%@X",
" @%@X                %%   r-%O  q%8         .%%  q%8      %%0:                X@%@X",
" @%@X                %%    #%%X 3%%%%%;  q%%%%9  3%%%%%;  @%%t                X@%@X",
" @%@X                %%     e%&  7$%@<:  .;21&o   7$%@<:  7@%&                X@%@X",
" @%@X                                                                         X@%@X",
" @%@X                                                                         X@%@X",
" @%2*                                                                         y%%+r",
" +%%<:                                                                       o$%%> ",
" O%%1&3XXXXXXXXXXXXXXXXXXXXXXXXXXXXXXXXXXXXXXXXXXXXXXXXXXXXXXXXXXXXXXXXXXXXX79%%@# ",
" .&%%%1@@@@@@@@@@@@@@@@@@@@@@@@@@@@@@@@@@@@@@@@@@@@@@@@@@@@@@@@@@@@@@@@@@@@@%%%1e5 ",
"  .;2%%%%%%%%%%%%%%%%%%%%%%%%%%%%%%%%%%%%%%%%%%%%%%%%%%%%%%%%%%%%%%%%%%%%%%%%%2e:  ",
"   :3<9$$$$$$$$$$$$$$$$$$$$$$$$$$$$$$$$$$$$$$$$$$$$$$$$$$$$$$$$$$$$$$$$$$$$$&<30   ",
"      0:::::::::::::::::::::::::::::::::::::::::::::::::::::::::::::::::::::5      ",
"                                                                                   "};
