/* XPM */
static const char *submit_orange_xpm[] = {
"83 30 32 1",
" 	c #000000",
".	c #291800",
"X	c #8C4A00",
"o	c #DE7B00",
"O	c #EF8400",
"+	c #211000",
"@	c #422100",
"#	c #D67300",
"$	c #FF8C00",
"%	c #BD6300",
"&	c #392100",
"*	c #DE7300",
"=	c #E77B00",
"-	c #B56300",
";	c #100800",
":	c #A55A00",
">	c #844200",
",	c #9C5200",
"<	c #FF8400",
"1	c #F78400",
"2	c #5A3100",
"3	c #7B4200",
"4	c #311800",
"5	c #522900",
"6	c #CE6B00",
"7	c #733900",
"8	c #6B3900",
"9	c #4A2100",
"0	c #633100",
"q	c #945200",
"w	c #AD5A00",
"e	c #C66B00",
"                                                                                   ",
"   .XoOOOOOOOOOOOOOOOOOOOOOOOOOOOOOOOOOOOOOOOOOOOOOOOOOOOOOOOOOOOOOOOOOOOOOOOoX+   ",
"  @#$$$$$$$$$$$$$$$$$$$$$$$$$$$$$$$$$$$$$$$$$$$$$$$$$$$$$$$$$$$$$$$$$$$$$$$$$$$%+  ",
" &*$$$o#####################################################################=$$$-; ",
" :$$O>+;;;;;;;;;;;;;;;;;;;;;;;;;;;;;;;;;;;;;;;;;;;;;;;;;;;;;;;;;;;;;;;;;;;;;.,<$12 ",
" O$$3                                                                        ;%$$% ",
" O$O4                                                                         2<$= ",
" O$O4                                                                         4O$O ",
" O$O4                                                                         4O$O ",
" O$O4              56<$#7            $$                   $$                  4O$O ",
" O$O4             8$$$$$$X           $$                   $$  @%              4O$O ",
" O$O4             1$9  0$O           $$                       $$              4O$O ",
" O$O4             1$3;      $$   $$  $$8OO7   $$8Oo481=&  $$ $$$$$            4O$O ",
" O$O4             X$$OX+    $$   $$  $$$$$$0  $$$$$#<$$#  $$ $$$$$            4O$O ",
" O$O4              X1$$<:   $$   $$  $$q q$#  $$0.$$04$$  $$  $$              4O$O ",
" O$O4               ;3O$$w  $$   $$  $$+ +$$  $$  $$  $$  $$  $$              4O$O ",
" O$O4                 ;3$1  $$  ;$$  $$  +$<  $$  $$  $$  $$  $$              4O$O ",
" O$O4             =$8  5$O  <$2 q$$  $$> q$6  $$  $$  $$  $$  $$ ;            4O$O ",
" O$O4             X$$$$$$8  e$$$<$$  $$$$$$2  $$  $$  $$  $$  O$$w            4O$O ",
" O$O4              3#$<65   .6$o2$$  $$8OO8   $$  $$  $$  $$  0O$%            4O$O ",
" O$O4                                                                         4O$O ",
" O$O4                                                                         4O$O ",
" O$1&                                                                         7$$o ",
" o$$,;                                                                       .#$$: ",
" X$$<%24444444444444444444444444444444444444444444444444444444444444444444440e$$O@ ",
" +%$$$<OOOOOOOOOOOOOOOOOOOOOOOOOOOOOOOOOOOOOOOOOOOOOOOOOOOOOOOOOOOOOOOOOOOOO$$$<q  ",
"  +-1$$$$$$$$$$$$$$$$$$$$$$$$$$$$$$$$$$$$$$$$$$$$$$$$$$$$$$$$$$$$$$$$$$$$$$$$$1q;  ",
"   ;2,e#####################################################################%,2    ",
"                                                                                   ",
"                                                                                   "};
