/* XPM */
static const char *submit_green_xpm[] = {
"83 30 31 1",
" 	c #000000",
".	c #002910",
"X	c #008C39",
"o	c #00DE5A",
"O	c #00F763",
"+	c #002108",
"@	c #004218",
"#	c #00FF63",
"$	c #00BD4A",
"%	c #003918",
"&	c #00CE52",
"*	c #00E75A",
"=	c #00B54A",
"-	c #001008",
";	c #00A542",
":	c #008431",
">	c #009C39",
",	c #005A21",
"<	c #00EF5A",
"1	c #007B31",
"2	c #003110",
"3	c #005221",
"4	c #00D652",
"5	c #007329",
"6	c #006B29",
"7	c #004A18",
"8	c #006329",
"9	c #009439",
"0	c #00AD42",
"q	c #001808",
"w	c #00C64A",
"  .XoOOOOOOOOOOOOOOOOOOOOOOOOOOOOOOOOOOOOOOOOOOOOOOOOOOOOOOOOOOOOOOOOOOOOOOOoX+    ",
" @o###########################################################################$+   ",
"%o###o&&&&&&&&&&&&&&&&&&&&&&&&&&&&&&&&&&&&&&&&&&&&&&&&&&&&&&&&&&&&&&&&&&&&&*###=-  ",
";##O:.---------------------------------------------------------------------.>##O,  ",
"<##1                                                                        -$##$  ",
"O#O2                                                                         ,##*  ",
"O#O2                                                                         2O#O  ",
"O#O2                                                                         2O#O  ",
"O#O2              3&##45            ##                   ##                  2O#O  ",
"O#O2             6######X           ##                   ##  @$              2O#O  ",
"O#O2             O#7  8#<           ##                       ##              2O#O  ",
"O#O2             O#1-      ##   ##  ##6<<5   ##6<o26O*%  ## #####            2O#O  ",
"O#O2             X##<X+    ##   ##  ######8  #####4###4  ## #####            2O#O  ",
"O#O2              XO###;   ##   ##  ##9 9#4  ##8.##82##  ##  ##              2O#O  ",
"O#O2               -1<##0  ##   ##  ##q .##  ##  ##  ##  ##  ##              2O#O  ",
"O#O2                 -1#O  ##  -##  ##  +##  ##  ##  ##  ##  ##              2O#O  ",
"O#O2             *#6  3#<  ##, 9##  ##: 9#&  ##  ##  ##  ##  ## -            2O#O  ",
"O#O2             X######6  w######  ######,  ##  ##  ##  ##  <##0            2O#O  ",
"O#O2              14##&3   .&#o,##  ##6<<6   ##  ##  ##  ##  8<#$            2O#O  ",
"O#O2                                                                         2O#O  ",
"O#O2                                                                         2O#O  ",
"O#O%                                                                         5##o  ",
"o##>-                                                                       .4##;  ",
"X###$,2222222222222222222222222222222222222222222222222222222222222222222228w##O@  ",
"+$####OOOOOOOOOOOOOOOOOOOOOOOOOOOOOOOOOOOOOOOOOOOOOOOOOOOOOOOOOOOOOOOOOOOOO####9   ",
" +=O#########################################################################O9-   ",
"  -,>w&&&&&&&&&&&&&&&&&&&&&&&&&&&&&&&&&&&&&&&&&&&&&&&&&&&&&&&&&&&&&&&&&&&&&$>,     ",
"      ---------------------------------------------------------------------        ",
"                                                                                   ",
"                                                                                   "};
