<svg xmlns="http://www.w3.org/2000/svg" xmlns:xlink="http://www.w3.org/1999/xlink" xmlns:lucid="lucid" width="820" height="760"><g transform="translate(-80 -60)" lucid:page-tab-id="0_0"><path d="M0 0h1870.87v1322.83H0z" fill="#fff"/><path d="M100 106c0-3.3 2.7-6 6-6h148c3.3 0 6 2.7 6 6v108c0 3.3-2.7 6-6 6H106c-3.3 0-6-2.7-6-6z" stroke="#000" stroke-width="3" fill="#c1e4f7"/><use xlink:href="#a" transform="matrix(1,0,0,1,105,105) translate(36.23456790123457 59.02777777777778)"/><use xlink:href="#b" transform="matrix(1,0,0,1,105,105) translate(101.41975308641975 59.02777777777778)"/><path d="M100 276c0-3.3 2.7-6 6-6h148c3.3 0 6 2.7 6 6v108c0 3.3-2.7 6-6 6H106c-3.3 0-6-2.7-6-6z" stroke="#000" stroke-width="3" fill="#c1e4f7"/><use xlink:href="#a" transform="matrix(1,0,0,1,105,275) translate(36.23456790123457 59.02777777777778)"/><use xlink:href="#c" transform="matrix(1,0,0,1,105,275) translate(101.41975308641975 59.02777777777778)"/><path d="M100 446c0-3.3 2.7-6 6-6h148c3.3 0 6 2.7 6 6v108c0 3.3-2.7 6-6 6H106c-3.3 0-6-2.7-6-6z" stroke="#000" stroke-width="3" fill="#c1e4f7"/><use xlink:href="#a" transform="matrix(1,0,0,1,105,445) translate(36.23456790123457 59.02777777777778)"/><use xlink:href="#d" transform="matrix(1,0,0,1,105,445) translate(101.41975308641975 59.02777777777778)"/><path d="M100 666c0-3.3 2.7-6 6-6h148c3.3 0 6 2.7 6 6v108c0 3.3-2.7 6-6 6H106c-3.3 0-6-2.7-6-6z" stroke="#000" stroke-width="3" fill="#c1e4f7"/><use xlink:href="#a" transform="matrix(1,0,0,1,105,665) translate(36.23456790123457 59.02777777777778)"/><use xlink:href="#e" transform="matrix(1,0,0,1,105,665) translate(101.41975308641975 59.02777777777778)"/><path d="M180 562.5v7.92m0 7.9v15.85m0 7.9v15.85m0 7.9v15.85m0 7.9v7.93" stroke="#5e5e5e" stroke-width="2" fill="none"/><path d="M181 562.53h-2v-1.03h2zM181 658.5h-2v-1.03h2z" fill="#5e5e5e"/><path d="M720 132.4c0-3.3 1.9-7.9 4.24-10.24l37.92-37.92C764.5 81.9 769.1 80 772.4 80h55.2c3.3 0 7.9 1.9 10.24 4.24l37.92 37.92c2.34 2.34 4.24 6.93 4.24 10.24v55.2c0 3.3-1.9 7.9-4.24 10.24l-37.92 37.92c-2.34 2.34-6.93 4.24-10.24 4.24h-55.2c-3.3 0-7.9-1.9-10.24-4.24l-37.92-37.92c-2.34-2.34-4.24-6.93-4.24-10.24z" stroke="#5e5e5e" stroke-width="3" fill="#5abaa7"/><use xlink:href="#f" transform="matrix(1,0,0,1,725,85) translate(43.611111111111114 78.71527777777777)"/><path d="M338.7 161H280v-2h58.7zm361.3 0H583.98v-2H700zM279 164.64L264.74 160l14.26-4.64z" fill="#5e5e5e"/><path d="M280 166l-18.5-6 18.5-6zm-12.03-6l10.03 3.26v-6.52zM715.26 160L701 164.64v-9.28z" fill="#5e5e5e"/><path d="M718.5 160l-18.5 6v-12zm-16.5 3.26l10.03-3.26-10.03-3.26z" fill="#5e5e5e"/><use xlink:href="#g" transform="matrix(1,0,0,1,338.69135802469134,149.33333333333334) translate(0 14.222222222222223)"/><use xlink:href="#h" transform="matrix(1,0,0,1,338.69135802469134,149.33333333333334) translate(46.27160493827161 14.222222222222223)"/><use xlink:href="#i" transform="matrix(1,0,0,1,338.69135802469134,149.33333333333334) translate(93.53086419753086 14.222222222222223)"/><path d="M720 302.4c0-3.3 1.9-7.9 4.24-10.24l37.92-37.92c2.34-2.34 6.93-4.24 10.24-4.24h55.2c3.3 0 7.9 1.9 10.24 4.24l37.92 37.92c2.34 2.34 4.24 6.93 4.24 10.24v55.2c0 3.3-1.9 7.9-4.24 10.24l-37.92 37.92c-2.34 2.34-6.93 4.24-10.24 4.24h-55.2c-3.3 0-7.9-1.9-10.24-4.24l-37.92-37.92c-2.34-2.34-4.24-6.93-4.24-10.24z" stroke="#5e5e5e" stroke-width="3" fill="#5abaa7"/><use xlink:href="#f" transform="matrix(1,0,0,1,725,255) translate(43.611111111111114 78.71527777777777)"/><path d="M367.36 331H280v-2h87.36zM700 331h-87.36v-2H700zM279 334.64L264.74 330l14.26-4.64z" fill="#5e5e5e"/><path d="M280 336l-18.5-6 18.5-6zm-12.03-6l10.03 3.26v-6.52zM715.26 330L701 334.64v-9.28z" fill="#5e5e5e"/><path d="M718.5 330l-18.5 6v-12zm-16.5 3.26l10.03-3.26-10.03-3.26z" fill="#5e5e5e"/><use xlink:href="#g" transform="matrix(1,0,0,1,367.358024691358,319.3333333333333) translate(0 14.222222222222223)"/><use xlink:href="#h" transform="matrix(1,0,0,1,367.358024691358,319.3333333333333) translate(46.27160493827161 14.222222222222223)"/><use xlink:href="#i" transform="matrix(1,0,0,1,367.358024691358,319.3333333333333) translate(93.53086419753086 14.222222222222223)"/><path d="M720 472.4c0-3.3 1.9-7.9 4.24-10.24l37.92-37.92c2.34-2.34 6.93-4.24 10.24-4.24h55.2c3.3 0 7.9 1.9 10.24 4.24l37.92 37.92c2.34 2.34 4.24 6.93 4.24 10.24v55.2c0 3.3-1.9 7.9-4.24 10.24l-37.92 37.92c-2.34 2.34-6.93 4.24-10.24 4.24h-55.2c-3.3 0-7.9-1.9-10.24-4.24l-37.92-37.92c-2.34-2.34-4.24-6.93-4.24-10.24z" stroke="#5e5e5e" stroke-width="3" fill="#5abaa7"/><use xlink:href="#f" transform="matrix(1,0,0,1,725,425) translate(43.611111111111114 78.71527777777777)"/><path d="M720 692.4c0-3.3 1.9-7.9 4.24-10.24l37.92-37.92c2.34-2.34 6.93-4.24 10.24-4.24h55.2c3.3 0 7.9 1.9 10.24 4.24l37.92 37.92c2.34 2.34 4.24 6.93 4.24 10.24v55.2c0 3.3-1.9 7.9-4.24 10.24l-37.92 37.92c-2.34 2.34-6.93 4.24-10.24 4.24h-55.2c-3.3 0-7.9-1.9-10.24-4.24l-37.92-37.92c-2.34-2.34-4.24-6.93-4.24-10.24z" stroke="#5e5e5e" stroke-width="3" fill="#5abaa7"/><use xlink:href="#f" transform="matrix(1,0,0,1,725,645) translate(43.611111111111114 78.71527777777777)"/><path d="M367.36 501H280v-2h87.36zM700 501h-87.36v-2H700zM279 504.64L264.74 500l14.26-4.64z" fill="#5e5e5e"/><path d="M280 506l-18.5-6 18.5-6zm-12.03-6l10.03 3.26v-6.52zM715.26 500L701 504.64v-9.28z" fill="#5e5e5e"/><path d="M718.5 500l-18.5 6v-12zm-16.5 3.26l10.03-3.26-10.03-3.26z" fill="#5e5e5e"/><g><use xlink:href="#g" transform="matrix(1,0,0,1,367.358024691358,489.3333333333333) translate(0 14.222222222222223)"/><use xlink:href="#h" transform="matrix(1,0,0,1,367.358024691358,489.3333333333333) translate(46.27160493827161 14.222222222222223)"/><use xlink:href="#i" transform="matrix(1,0,0,1,367.358024691358,489.3333333333333) translate(93.53086419753086 14.222222222222223)"/></g><path d="M367.36 721H280v-2h87.36zM700 721h-87.36v-2H700zM279 724.64L264.74 720l14.26-4.64z" fill="#5e5e5e"/><path d="M280 726l-18.5-6 18.5-6zm-12.03-6l10.03 3.26v-6.52zM715.26 720L701 724.64v-9.28z" fill="#5e5e5e"/><path d="M718.5 720l-18.5 6v-12zm-16.5 3.26l10.03-3.26-10.03-3.26z" fill="#5e5e5e"/><g><use xlink:href="#g" transform="matrix(1,0,0,1,367.358024691358,709.3333333333334) translate(0 14.222222222222223)"/><use xlink:href="#h" transform="matrix(1,0,0,1,367.358024691358,709.3333333333334) translate(46.27160493827161 14.222222222222223)"/><use xlink:href="#i" transform="matrix(1,0,0,1,367.358024691358,709.3333333333334) translate(93.53086419753086 14.222222222222223)"/></g><defs><path fill="#333" d="M30-248c118-7 216 8 213 122C240-48 200 0 122 0H30v-248zM63-27c89 8 146-16 146-99s-60-101-146-95v194" id="j"/><path fill="#333" d="M114-163C36-179 61-72 57 0H25l-1-190h30c1 12-1 29 2 39 6-27 23-49 58-41v29" id="k"/><path fill="#333" d="M24-231v-30h32v30H24zM24 0v-190h32V0H24" id="l"/><path fill="#333" d="M108 0H70L1-190h34L89-25l56-165h34" id="m"/><path fill="#333" d="M100-194c63 0 86 42 84 106H49c0 40 14 67 53 68 26 1 43-12 49-29l28 8c-11 28-37 45-77 45C44 4 14-33 15-96c1-61 26-98 85-98zm52 81c6-60-76-77-97-28-3 7-6 17-6 28h103" id="n"/><g id="a"><use transform="matrix(0.06172839506172839,0,0,0.06172839506172839,0,0)" xlink:href="#j"/><use transform="matrix(0.06172839506172839,0,0,0.06172839506172839,15.987654320987653,0)" xlink:href="#k"/><use transform="matrix(0.06172839506172839,0,0,0.06172839506172839,23.333333333333332,0)" xlink:href="#l"/><use transform="matrix(0.06172839506172839,0,0,0.06172839506172839,28.209876543209873,0)" xlink:href="#m"/><use transform="matrix(0.06172839506172839,0,0,0.06172839506172839,39.32098765432099,0)" xlink:href="#n"/><use transform="matrix(0.06172839506172839,0,0,0.06172839506172839,51.666666666666664,0)" xlink:href="#k"/></g><path fill="#333" d="M27 0v-27h64v-190l-56 39v-29l58-41h29v221h61V0H27" id="o"/><use transform="matrix(0.06172839506172839,0,0,0.06172839506172839,0,0)" xlink:href="#o" id="b"/><path fill="#333" d="M101-251c82-7 93 87 43 132L82-64C71-53 59-42 53-27h129V0H18c2-99 128-94 128-182 0-28-16-43-45-43s-46 15-49 41l-32-3c6-41 34-60 81-64" id="p"/><use transform="matrix(0.06172839506172839,0,0,0.06172839506172839,0,0)" xlink:href="#p" id="c"/><path fill="#333" d="M126-127c33 6 58 20 58 59 0 88-139 92-164 29-3-8-5-16-6-25l32-3c6 27 21 44 54 44 32 0 52-15 52-46 0-38-36-46-79-43v-28c39 1 72-4 72-42 0-27-17-43-46-43-28 0-47 15-49 41l-32-3c6-42 35-63 81-64 48-1 79 21 79 65 0 36-21 52-52 59" id="q"/><use transform="matrix(0.06172839506172839,0,0,0.06172839506172839,0,0)" xlink:href="#q" id="d"/><path fill="#333" d="M117-194c89-4 53 116 60 194h-32v-121c0-31-8-49-39-48C34-167 62-67 57 0H25l-1-190h30c1 10-1 24 2 32 11-22 29-35 61-36" id="r"/><use transform="matrix(0.06172839506172839,0,0,0.06172839506172839,0,0)" xlink:href="#r" id="e"/><path fill="#333" d="M240 0l2-218c-23 76-54 145-80 218h-23L58-218 59 0H30v-248h44l77 211c21-75 51-140 76-211h43V0h-30" id="s"/><path fill="#333" d="M140-251c81 0 123 46 123 126C263-53 228-8 163 1c7 30 30 48 69 40v23c-55 16-95-15-103-61C56-3 17-48 17-125c0-80 42-126 123-126zm0 227c63 0 89-41 89-101s-29-99-89-99c-61 0-89 39-89 99S79-25 140-24" id="t"/><path fill="#333" d="M127-220V0H93v-220H8v-28h204v28h-85" id="u"/><g id="f"><use transform="matrix(0.06172839506172839,0,0,0.06172839506172839,0,0)" xlink:href="#s"/><use transform="matrix(0.06172839506172839,0,0,0.06172839506172839,18.456790123456788,0)" xlink:href="#t"/><use transform="matrix(0.06172839506172839,0,0,0.06172839506172839,35.74074074074073,0)" xlink:href="#u"/><use transform="matrix(0.06172839506172839,0,0,0.06172839506172839,49.25925925925925,0)" xlink:href="#u"/></g><path fill="#333" d="M230 0l2-204L168 0h-37L68-204 70 0H24v-248h70l56 185 57-185h69V0h-46" id="v"/><path fill="#333" d="M85 4C-2 5 27-109 22-190h50c7 57-23 150 33 157 60-5 35-97 40-157h50l1 190h-47c-2-12 1-28-3-38-12 25-28 42-61 42" id="w"/><path fill="#333" d="M25 0v-261h50V0H25" id="x"/><path fill="#333" d="M115-3C79 11 28 4 28-45v-112H4v-33h27l15-45h31v45h36v33H77v99c-1 23 16 31 38 25v30" id="y"/><path fill="#333" d="M25-224v-37h50v37H25zM25 0v-190h50V0H25" id="z"/><g id="g"><use transform="matrix(0.04938271604938272,0,0,0.04938271604938272,0,0)" xlink:href="#v"/><use transform="matrix(0.04938271604938272,0,0,0.04938271604938272,14.765432098765434,0)" xlink:href="#w"/><use transform="matrix(0.04938271604938272,0,0,0.04938271604938272,25.58024691358025,0)" xlink:href="#x"/><use transform="matrix(0.04938271604938272,0,0,0.04938271604938272,30.518518518518523,0)" xlink:href="#y"/><use transform="matrix(0.04938271604938272,0,0,0.04938271604938272,36.39506172839506,0)" xlink:href="#z"/></g><path fill="#333" d="M110-194c64 0 96 36 96 99 0 64-35 99-97 99-61 0-95-36-95-99 0-62 34-99 96-99zm-1 164c35 0 45-28 45-65 0-40-10-65-43-65-34 0-45 26-45 65 0 36 10 65 43 65" id="A"/><path fill="#333" d="M135-194c53 0 70 44 70 98 0 56-19 98-73 100-31 1-45-17-59-34 3 33 2 69 2 105H25l-1-265h48c2 10 0 23 3 31 11-24 29-35 60-35zM114-30c33 0 39-31 40-66 0-38-9-64-40-64-56 0-55 130 0 130" id="B"/><path fill="#333" d="M190-63c-7 42-38 67-86 67-59 0-84-38-90-98-12-110 154-137 174-36l-49 2c-2-19-15-32-35-32-30 0-35 28-38 64-6 74 65 87 74 30" id="C"/><g id="h"><use transform="matrix(0.04938271604938272,0,0,0.04938271604938272,0,0)" xlink:href="#y"/><use transform="matrix(0.04938271604938272,0,0,0.04938271604938272,5.8765432098765435,0)" xlink:href="#A"/><use transform="matrix(0.04938271604938272,0,0,0.04938271604938272,16.691358024691358,0)" xlink:href="#B"/><use transform="matrix(0.04938271604938272,0,0,0.04938271604938272,27.50617283950617,0)" xlink:href="#z"/><use transform="matrix(0.04938271604938272,0,0,0.04938271604938272,32.44444444444444,0)" xlink:href="#C"/></g><path fill="#333" d="M137-138c1-29-70-34-71-4 15 46 118 7 119 86 1 83-164 76-172 9l43-7c4 19 20 25 44 25 33 8 57-30 24-41C81-84 22-81 20-136c-2-80 154-74 161-7" id="D"/><path fill="#333" d="M135-194c52 0 70 43 70 98 0 56-19 99-73 100-30 1-46-15-58-35L72 0H24l1-261h50v104c11-23 29-37 60-37zM114-30c31 0 40-27 40-66 0-37-7-63-39-63s-41 28-41 65c0 36 8 64 40 64" id="E"/><path fill="#333" d="M135-150c-39-12-60 13-60 57V0H25l-1-190h47c2 13-1 29 3 40 6-28 27-53 61-41v41" id="F"/><path fill="#333" d="M185-48c-13 30-37 53-82 52C43 2 14-33 14-96s30-98 90-98c62 0 83 45 84 108H66c0 31 8 55 39 56 18 0 30-7 34-22zm-45-69c5-46-57-63-70-21-2 6-4 13-4 21h74" id="G"/><path fill="#333" d="M4 7l51-268h42L46 7H4" id="H"/><path fill="#333" d="M114-157C55-157 80-60 75 0H25v-261h50l-1 109c12-26 28-41 61-42 86-1 58 113 63 194h-50c-7-57 23-157-34-157" id="I"/><g id="i"><use transform="matrix(0.04938271604938272,0,0,0.04938271604938272,0,0)" xlink:href="#D"/><use transform="matrix(0.04938271604938272,0,0,0.04938271604938272,9.876543209876544,0)" xlink:href="#w"/><use transform="matrix(0.04938271604938272,0,0,0.04938271604938272,20.69135802469136,0)" xlink:href="#E"/><use transform="matrix(0.04938271604938272,0,0,0.04938271604938272,31.506172839506174,0)" xlink:href="#D"/><use transform="matrix(0.04938271604938272,0,0,0.04938271604938272,41.38271604938272,0)" xlink:href="#C"/><use transform="matrix(0.04938271604938272,0,0,0.04938271604938272,51.25925925925927,0)" xlink:href="#F"/><use transform="matrix(0.04938271604938272,0,0,0.04938271604938272,58.17283950617284,0)" xlink:href="#z"/><use transform="matrix(0.04938271604938272,0,0,0.04938271604938272,63.111111111111114,0)" xlink:href="#E"/><use transform="matrix(0.04938271604938272,0,0,0.04938271604938272,73.92592592592594,0)" xlink:href="#G"/><use transform="matrix(0.04938271604938272,0,0,0.04938271604938272,83.80246913580248,0)" xlink:href="#H"/><use transform="matrix(0.04938271604938272,0,0,0.04938271604938272,88.74074074074076,0)" xlink:href="#B"/><use transform="matrix(0.04938271604938272,0,0,0.04938271604938272,99.55555555555557,0)" xlink:href="#w"/><use transform="matrix(0.04938271604938272,0,0,0.04938271604938272,110.37037037037038,0)" xlink:href="#E"/><use transform="matrix(0.04938271604938272,0,0,0.04938271604938272,121.18518518518519,0)" xlink:href="#x"/><use transform="matrix(0.04938271604938272,0,0,0.04938271604938272,126.12345679012347,0)" xlink:href="#z"/><use transform="matrix(0.04938271604938272,0,0,0.04938271604938272,131.06172839506175,0)" xlink:href="#D"/><use transform="matrix(0.04938271604938272,0,0,0.04938271604938272,140.93827160493828,0)" xlink:href="#I"/></g></defs></g></svg>